<?xml version="1.0" encoding="UTF-8" standalone="no"?>
<!DOCTYPE svg PUBLIC "-//W3C//DTD SVG 1.1//EN" "http://www.w3.org/Graphics/SVG/1.1/DTD/svg11.dtd">
<svg width="100%" height="100%" viewBox="0 0 1932 2878" version="1.1" xmlns="http://www.w3.org/2000/svg" xmlns:xlink="http://www.w3.org/1999/xlink" xml:space="preserve" xmlns:serif="http://www.serif.com/" style="fill-rule:evenodd;clip-rule:evenodd;stroke-linejoin:round;stroke-miterlimit:2;">
    <g transform="matrix(1,0,0,1,-7.210805,0)">
        <g id="Background" transform="matrix(2.810547,0,0,2.810547,2.39263,0)">
            <path d="M438.5,0L445.5,0C445.683,5.237 443.372,18.604 445.828,21.073C448.486,23.746 448.492,23.699 448.723,27.514C449.096,33.697 452.305,30.113 463.452,30.283C466.601,31.757 465.689,29.643 465.615,29.473L464.268,27.515C464.948,18.624 468.203,20.146 468.254,19.426C468.949,9.507 467.32,9.737 467.5,0L473.5,0C476.774,0.832 476.623,1.073 479.962,1.177C483.113,6.603 471.816,17.295 477.838,23.274C479.099,24.526 478.551,24.661 478.718,27.514C477.094,29.96 475.439,31.128 478.423,31.677C488.05,32.073 493.118,37.153 493.165,27.466C493.183,23.719 498.221,21.73 498.259,21.402C499.68,9.109 496.982,-2.23 511.459,4.577C513.893,5.722 512.796,11.031 508.662,16.614C503.753,23.244 508.556,27.949 506.462,31.487C506.541,32.768 506.233,32.819 507.475,33.559C512.587,34.072 517.414,35.295 527.443,35.225C530.274,35.205 526.735,31.689 529.296,28.371C534.469,21.669 528.661,17.276 528.328,13.526C527.29,1.872 533.361,5.156 538.529,5.319C543.091,5.462 537.942,24.516 539.654,26.357C542.533,29.452 542.494,29.431 542.657,33.526C541.19,35.059 540.722,35.584 542.521,36.471C552.01,38.5 556.148,44.274 557.872,34.582C558.93,28.63 562.903,30.94 563.138,27.455C563.871,16.584 560.59,7.884 571.554,10.181C586.865,13.388 565.786,25.875 571.321,32.631C571.61,32.984 571.599,32.97 571.971,38.296C572.177,38.604 572.384,38.912 572.59,39.22C585.887,39.349 596.582,42.183 597.443,42.181C598.582,42.18 596.427,37.506 597.87,35.799C602.93,29.817 600.094,29.043 598.249,21.539C594.909,7.956 604.242,12.181 607.532,12.166C612.267,12.146 607.478,29.003 608.85,32.353C610.53,36.457 611.461,36.081 611.728,40.508C611.765,41.619 611.441,41.789 612.56,42.267C623.126,42.14 622.94,42.659 633.451,41.337C634.676,40.793 636.007,41.831 635.226,40.549C635.153,40.43 635.226,40.549 633.899,39.409C633.748,38.82 632.557,34.189 633.873,31.811C637.25,25.708 635.533,25.507 634.155,18.558C633.371,14.606 628.615,10.357 638.491,9.405C654.49,7.862 639.271,23.132 645.161,30.825C649.32,36.258 643.997,37.793 646.483,40.592C647.82,40.15 649.158,39.709 650.496,39.267C668.902,39.11 668.847,39.187 670.442,39.166C672.126,38.558 672.167,38.211 671.281,36.503C671.639,32.515 673.998,33.421 674.212,29.489C674.443,25.251 670.699,16.662 670.238,15.603C667.521,9.37 671.322,10.47 674.556,9.975C692.511,7.227 677.234,26.419 682.717,30.202C683.344,30.635 689.291,34.739 684.553,39.547C677.72,46.481 680.851,47.688 680.775,57.508C680.618,77.689 679.032,77.395 678.738,97.505C678.177,98.992 678.067,98.802 678.512,100.504C676.105,122.58 673.426,142.895 673.765,204.502C673.233,207.105 673.169,206.912 673.512,209.504C671.988,213.959 673.128,230.654 672.441,234.484C666.05,270.102 698.831,421.726 683.678,493.531C671.227,552.536 671.103,569.329 678.187,589.621C677.966,591.208 678.177,591.007 678.716,592.487C679.077,594.747 681.276,608.503 684.433,620.523C697.087,668.709 679.347,722.148 678.745,752.51C678.451,753.53 678.157,754.55 677.864,755.57C673.136,801.164 665.935,800.484 668.507,852.498C668.15,854.539 668.225,854.424 668.769,856.498C668.507,888.781 670.721,913.113 678.177,956.615C677.995,958.195 678.225,958.061 678.736,959.49C679.084,977.359 684.087,985.735 683.813,987.547C683.107,992.2 681.837,992.036 682.857,997.433C683.956,1003.248 695.653,1013.704 676.482,1013.742C671.508,1013.751 677.375,997.16 671.832,992.119C668.246,988.857 673.127,985.513 668.443,984.065C667.465,984.292 666.487,984.519 665.509,984.746C660.348,984.84 660.512,984.691 655.437,985.375C654.99,985.52 651.318,986.424 655.3,987.596C656.77,994.06 654.118,993.639 653.824,995.642C653.679,996.63 653.256,999.516 657.142,1007.677C660.794,1015.347 657.719,1016.32 649.515,1017.624C643.583,1018.566 647.117,998.024 645.228,996.844C644.735,996.536 640.823,994.093 641.665,990.506C641.958,989.253 641.033,988.098 625.591,990.851C623.572,991.35 623.345,991.905 624.734,993.464C624.72,1001.277 621.763,1001.549 625.144,1008.675C628.873,1016.536 628.597,1019.524 628.506,1020.503C628.182,1020.587 628.399,1020.5 626.532,1021.662C622.434,1021.944 622.636,1022.615 618.502,1022.743C612.843,1022.919 616.314,1003.12 614.299,1001.814C610.19,999.153 611.381,998.32 611.582,993.515C611.619,992.633 611.306,991.633 600.567,992.798C598.832,992.987 601.441,997.249 597.77,1000.799C593.63,1004.803 595.71,1005.712 595.811,1019.511C595.826,1021.513 595.556,1023.087 584.468,1021.652C582.803,1020.63 582.846,1020.604 582.484,1020.508C582.283,1018.406 581.686,1018.451 582.835,1016.658C589.627,1006.054 584.341,995.053 586.094,993.279C588.343,991.003 585.559,991.099 577.384,988.988C569.663,986.995 572.717,994.695 570.172,996.115C564.832,999.094 569.967,1017.283 565.532,1017.665C552.691,1018.771 554.244,1013.44 554.516,1012.505C554.819,1011.465 557.702,1001.57 558.851,999.671C562.111,994.286 556.958,993.818 558.815,987.626C559.726,987.3 559.585,987.288 559.932,986.427C559.026,984.894 551.256,984.743 550.488,984.729C549.492,984.325 548.495,983.922 547.498,983.518C546.081,983.074 545.661,983.009 545.727,984.46L546.358,985.528C546.857,989.14 547.773,989.604 544.831,991.88C538.252,996.967 543.653,1013.095 538.527,1013.691C521.846,1015.633 531.676,1000.134 533.862,993.602C534.031,991.432 533.891,991.559 533.248,989.547C533.244,987.849 533.239,986.15 533.235,984.452C534.073,983.436 534.911,982.421 535.749,981.406C535.639,981.165 535.53,980.925 535.42,980.684L532.41,980.804C526.871,979.499 526.733,980.836 521.382,978.998C515.436,976.955 520.981,984.31 515.673,987.688C509.897,991.365 512.952,992.939 512.659,1001.518C512.336,1010.971 508.349,1009.472 499.506,1006.49C498.305,1006.085 496.448,1005.032 504.227,991.375C507.686,985.302 500.745,983.534 505.557,978.535L506.167,978.254C511.353,973.68 504.758,976.445 504.49,976.539C498.095,974.744 485.187,975.424 483.509,975.513C481.544,975.33 481.707,975.284 481.391,975.4C481.386,975.785 481.381,976.17 481.376,976.556C482.711,977.379 482.609,977.306 482.711,977.379C483.365,977.849 483.029,978.006 483.664,978.461C483.659,983.093 484.196,983.169 483.116,985.198C481.069,989.044 482.882,989.064 483.812,993.389C485.42,1000.875 492.614,1005.117 482.557,1006.887C469.733,1009.144 474.388,1001.591 474.231,988.538C474.207,986.56 466.734,984.267 470.348,979.445C470.576,978.858 473.794,978.179 470.502,976.692C469.932,976.893 465.485,978.456 463.378,979.18C462.125,979.114 460.872,979.048 459.619,978.982C454.932,979.002 462.74,982.464 459.811,987.66C455.01,996.174 465.453,1008.431 462.132,1010.137C450.042,1016.348 446.07,1010.639 449.514,997.504C451.147,991.274 447.446,991.979 446.364,985.515C445.779,982.016 444.524,983.072 441.377,984.18C439.75,984.004 439.935,984.203 438.514,984.681L435.605,984.721C434.899,985.514 434.773,985.363 434.777,986.345C435.251,986.769 438.502,989.678 436.113,994.187C432.49,1001.023 435.333,1001.308 438.68,1013.482C439.413,1016.15 432.156,1016.823 431.525,1016.881C420.375,1017.916 425.575,1011.633 426.318,1000.491C426.695,994.835 422.775,996.107 422.286,990.511C423.446,988.564 422.593,987.499 420.498,988.695C414.856,989.691 414.99,989.545 409.518,990.632C403.785,991.772 407.479,995.002 403.972,999.691C404.205,1000.613 404.437,1001.534 404.67,1002.455C410.86,1017.549 410.401,1019.418 405.377,1021.177C403.768,1021.014 403.955,1021.206 402.512,1021.693C398.946,1021.453 397.355,1023.011 397.282,1019.525C397.251,1018.083 396.921,1002.379 395.4,1001.594C394.972,1001.374 392.47,1000.084 392.126,996.543C391.491,990.015 388.915,991.566 382.582,992.854C381.046,993.166 383.248,997.477 379.837,1000.855C372.918,1007.708 376.817,1009.066 376.739,1019.508C376.718,1022.289 375.909,1023.474 366.483,1021.672C365.782,1021.424 366.006,1021.257 365.281,1021C365.142,1020.951 365.281,1021 363.51,1020.494C363.427,1019.661 363.111,1016.505 366.243,1010.392C370.995,1001.117 367.994,1000.127 367.998,996.492C368.008,987.864 362.286,992.907 356.54,990.343C351.324,988.015 356.661,994.701 352.359,998.336C347.348,1002.571 350.323,1007.426 348.759,1017.56C348.364,1020.126 346.948,1019.273 339.475,1018.664C329.412,1017.845 344.769,1004.31 340.853,995.334C339.979,993.328 340.438,991.803 340.527,991.509C343.093,982.986 336.187,987.763 328.508,983.59C327.621,983.539 327.613,983.629 327.672,984.532C327.709,989.367 328.491,989.822 324.756,992.802C322.236,994.812 328.997,1013.293 323.54,1013.701C309.105,1014.782 312.59,1007.419 313.3,1004.481C313.796,1003.078 313.997,1003.262 313.826,1001.654C318.321,993.634 315.953,992.476 313.835,988.35C314,986.887 313.999,987.078 313.837,985.649C315.721,982.005 319.529,980.604 315.372,979.866C300.78,977.276 300.179,976.412 299.919,977.634C299.078,981.572 300.734,982.714 296.659,984.738C290.246,987.925 308.369,1009.362 285.434,1004.689C282.027,1003.994 286.008,993.766 288.091,984.665C287.416,983.344 287.561,983.368 286.323,982.551C285.105,977.114 286.695,975.111 285.376,974.895C283.973,974.666 265.655,974.656 263.511,974.62C261.359,974.584 261.834,975.387 262.454,977.515C262.946,979.2 262.59,979.024 261.719,982.625C261.581,982.795 260.806,983.754 259.929,984.691C259.855,986.883 260.012,986.747 261.182,988.651C260.957,990.227 261.171,990.031 261.705,991.482C262.36,994.65 268.801,1007.992 253.468,1005.717C245.985,1004.608 257.875,993.361 249.533,983.477C249.522,983.464 247.55,979.656 248.625,977.526C250.712,973.393 229.844,976.796 229.759,978.468C229.544,982.686 229.413,982.544 227.869,986.618C225.65,992.471 243.143,1007.458 222.486,1007.817C217.678,1007.9 223.028,987.774 217.316,985.634C215.276,984.87 218.187,980.508 214.536,978.796C213.527,979.11 212.518,979.423 211.509,979.736C210.392,979.761 203.554,979.913 197.59,980.817C197.396,980.824 192.797,980.979 196.976,983.168C198.539,985.171 199.104,984.947 198.644,987.517C198.378,989.003 194.278,989.055 200.154,1005.638C203.246,1014.364 198.626,1014.139 189.44,1013.683C187.247,1013.575 188.398,1012.411 188.264,994.524C188.238,991.105 181.995,991.71 185.255,984.414C185.272,983.915 186.396,983.963 186.413,983.465C186.413,983.465 184.626,982.718 184.471,982.653C183.826,982.783 179.519,983.649 176.385,984.176C175.426,984.363 174.468,984.55 173.509,984.738C171.871,984.924 170.201,984.504 168.563,984.69C166.761,984.895 171.199,991.14 166.915,995.637C167.163,996.581 167.412,997.526 167.66,998.47C168.613,1002.649 171.661,1010.1 171.799,1010.381C175.265,1017.467 170.141,1015.97 162.479,1017.381C157.499,1018.299 159.808,998.494 158.694,997.349C155.116,993.671 155.52,993.497 155.291,988.484C155.014,987.892 154.737,987.3 154.461,986.708C145.249,987.969 145.384,987.805 144.605,987.959C139.044,989.056 139.099,988.663 138.626,988.758C137.863,988.912 139.46,992.142 138.146,995.326C135.534,1001.659 136.787,1001.769 139.141,1008.668C143.586,1021.695 135.927,1018.66 132.545,1018.927C123.648,1019.632 130.382,1003.146 127.758,999.366C125.202,995.683 125.347,995.837 124.089,991.664C123.585,989.989 119.574,991.677 119.522,991.679C118.176,991.734 104.637,992.29 102.718,992.75C102.094,992.9 106.73,997.776 102.817,1001.763C98.535,1006.126 107.918,1017.496 104.976,1022.842C102.818,1023.227 100.659,1023.613 98.5,1023.999L92.5,1023.999C92.119,1008.429 97.298,1006.979 92.501,1003.499C92.09,1002.881 91.679,1002.262 91.268,1001.644C90.942,1000.93 88.852,998.397 91.025,995.303C92.649,992.99 86.238,994.335 77.372,991.997C70.064,990.07 71.771,996.139 71.4,996.419C60.026,1005 71.755,1013.405 67.315,1018.33C66.255,1019.507 53.164,1020.07 54.319,1015.483C54.567,1014.497 56.192,1008.045 58.229,1003.391C61.68,995.508 53.154,993.101 59.328,988.405C59.243,988.139 59.158,987.874 59.073,987.608C58.86,987.289 58.648,986.97 58.436,986.65C55.666,986.151 55.859,986.266 55.666,986.151C51.741,983.817 35.438,981.295 32.606,981.935C30.832,982.336 34.164,986.329 31.318,991.349C26.225,1000.335 33.822,1001.331 31.697,1012.59C31.376,1014.288 22.291,1013.733 21.47,1013.683C15.311,1013.307 24.557,995.967 20.431,991.566C15.558,986.369 21.162,982.324 21.204,980.486C21.237,979.036 21.426,970.837 19.814,962.41C16.63,945.764 17.349,939.975 16.216,934.529C15.587,931.504 4.173,840.331 2.826,827.387C2.964,825.302 2.757,825.543 2.267,823.505C1.654,777.974 1.419,778.199 2.259,732.491C2.552,731.469 2.845,730.447 3.137,729.424C6.531,697.243 22.114,650.116 28.357,612.482C36.029,566.234 25.867,529.614 12.488,409.504C12.932,407.816 12.823,408.002 12.25,406.505C11.987,344.258 9.085,344.207 16.391,282.487C31.142,157.882 30.641,153.691 29.306,142.527C18.315,50.619 22.174,50.361 20.277,42.559C18.531,35.38 24.285,35.968 23.091,29.581C20.418,15.279 22.602,6.239 34.312,14.673C39.083,18.109 18.728,42.071 44.421,38.05C47.72,37.533 46.723,33.694 48.305,32.324C49.205,31.545 53.517,27.81 49.506,17.498C45.82,8.025 51.657,8.582 61.579,10.319C63.937,10.732 59.552,25.144 59.174,26.388C57.57,31.659 61.211,31.07 61.731,36.436C61.888,38.057 75.866,39.394 76.2,38.335C78.256,31.811 80.515,32.005 78.527,25.491C77.716,22.833 77.745,23.075 76.823,20.377C76.988,18.764 76.795,18.95 76.313,17.513C76.651,13.126 76.095,12.776 77.382,12.272C89.362,7.588 90.44,14.081 87.763,26.526C86.354,33.074 90.173,32.311 90.688,36.472C91.457,42.69 93.26,41.891 99.521,42.325C102.146,42.507 101.49,41.353 103.102,39.212C107.487,33.388 106.142,32.966 105.398,25.511C103.635,7.854 117.864,18.468 117.848,19.484C117.832,20.537 117.716,28.072 115.162,32.368C111.572,38.406 115.734,38.621 115.797,45.492C115.804,46.319 115.814,47.369 125.483,49.086C126.238,49.22 126.332,44.794 126.844,43.689C127.119,43.097 131.141,43.894 129.102,25.572C128.278,18.166 132.149,20.471 139.524,21.356C148.222,22.4 133.93,37.626 139.584,43.426C139.664,43.956 139.696,43.898 140.731,46.49C140.652,47.492 140.573,48.495 140.493,49.498C139.225,50.361 139.402,50.242 138.26,51.438C138.663,53.033 138.94,52.734 140.685,53.002C141.31,53.125 148.425,54.523 148.491,54.556C152.175,56.39 149.247,51.847 152.342,49.303C156.13,46.189 154.185,45.366 154.159,30.49C154.148,24.019 168.803,27.493 167.159,32.377C159.877,54.004 165.451,54.822 164.42,56.464C161.746,60.721 166.22,58.543 174.469,61.616C179.21,63.382 175.135,58.179 178.649,54.643C186.272,46.972 167.847,29.39 187.525,33.152C198.154,35.183 185.035,51.172 188.675,54.324C194.165,59.079 187.557,64.229 190.555,64.341C198.687,64.647 198.395,66.152 206.49,66.242C208.748,66.267 207.698,62.918 209.025,61.199C215.126,53.296 210.153,52.313 210.101,40.49C210.073,34.196 213.197,37.263 219.509,37.264C227.069,37.266 217.666,55.628 220.284,58.67C222.819,61.615 221.944,61.816 222.387,65.548C222.558,66.982 223.296,66.593 240.432,65.327C241.457,64.11 241.004,64.094 240.36,62.517C240.487,60.743 239.977,60.749 241.084,59.269C247.424,50.786 237.417,42.318 239.519,36.51C240.01,35.153 248.697,35.157 249.503,35.158C256.527,35.161 249.404,51.543 252.214,55.658C255.94,61.114 252.819,64.792 257.454,64.077C265.05,62.905 264.781,62.529 272.403,62.231C273.56,61.019 272.884,60.946 272.328,59.531C272.525,55.41 272.323,55.424 275.004,52.147C276.588,50.211 272.24,37.594 271.821,36.377C271.949,34.361 271.835,34.512 271.49,32.495C274.26,30.816 284.846,28.645 284.848,33.479C284.853,43.636 280.79,48.004 285.117,52.87C285.97,53.829 284.519,60.106 289.439,59.124C303.212,56.376 303.223,55.663 303.241,54.498C303.351,47.367 306.461,47.411 304.158,40.598C300.345,29.321 299.79,23.805 311.526,25.301C317.556,26.07 309.653,43.053 314.837,47.102C317.877,49.477 316.08,51.474 318.489,51.679C319.447,51.761 319.347,51.548 322.651,49.816C324.272,50.044 324.084,49.815 325.479,49.291C329.576,48.307 329.465,48.414 333.396,47.257C333.643,46.967 333.89,46.677 334.137,46.387C332.934,38.917 337.619,38.918 335.091,31.648C333.96,28.395 328.634,17.691 333.47,17.343C340.784,16.817 344.732,15.495 344.742,19.49C344.779,34.511 342.47,35.469 345.824,38.094C348.803,40.425 348.151,44.24 354.37,41.169C360.008,38.386 362.733,40.651 363.331,34.473C363.566,32.052 366.814,30.316 367.228,30.095C371.388,27.873 359.611,7.733 372.514,9.386C379.572,10.29 379.618,10.857 379.667,11.451C379.734,12.268 379.741,12.353 377.698,21.517C377.169,22.966 376.955,22.77 377.182,24.349C375.423,28.103 373.794,28.479 376.567,31.441C376.962,32.421 377.356,33.401 377.751,34.38C379.004,35.469 379.294,35.457 398.385,32.208C399.144,32.079 397.989,31.368 402.046,23.319C403.202,21.028 393.914,2.67 401.476,2.3C422.535,1.272 405.191,15.874 410.228,22.638C413.705,27.307 410.952,30.338 415.498,30.262C416.935,30.238 426.179,30.084 433.435,29.259C434.496,28.725 434.235,28.644 434.289,27.487C434.629,21.609 437.805,21.912 435.861,16.328C431.494,3.785 432.449,2.195 433.086,1.136C436.024,1.058 435.811,0.812 438.5,0Z" style="fill:rgb(0,149,192);fill-opacity:1;"/>
        </g>
    </g>
</svg>
