<?xml version="1.0" encoding="UTF-8" standalone="no"?><!DOCTYPE svg PUBLIC "-//W3C//DTD SVG 1.1//EN" "http://www.w3.org/Graphics/SVG/1.1/DTD/svg11.dtd"><svg width="100%" height="100%" viewBox="0 0 1946 2878" version="1.1" xmlns="http://www.w3.org/2000/svg" xmlns:xlink="http://www.w3.org/1999/xlink" xml:space="preserve" xmlns:serif="http://www.serif.com/" style="fill-rule:evenodd;clip-rule:evenodd;stroke-linecap:round;stroke-linejoin:round;stroke-miterlimit:1.5;"><g id="Blue-Towel" serif:id="Blue Towel"><g id="Stripes"><g id="Stripes--Blue-" serif:id="Stripes (Blue)"><path d="M87.21,403.401c-5.957,-95.605 -25.674,-208.508 -22.202,-285.83c195.483,-44.456 385.861,77.02 554.912,70.89c312.66,-11.338 311.64,-87.144 591.794,-104.252c49.819,-3.042 397.217,25.95 455.165,33.362c104.284,13.339 206.137,-19.509 249.43,0c-2.331,113.71 -14.445,183.729 -17.216,286.636c-94.799,6.458 -138.577,-23.296 -264.135,-19.136c-116.845,3.871 -326.523,46.964 -431.859,38.449c-206.837,-16.72 -354.336,-67.982 -540.232,-73.847c-220.874,-6.968 -360.268,62.458 -575.658,53.728Z" style="fill:#0095c0;"/><path d="M37.297,1039.017c0.401,-114.227 11.712,-231.275 23.354,-331.268c39.873,-12.08 40.658,-6.574 145.363,-10.634c67.95,-2.634 267.14,-47.241 346.668,-40.703c133.221,10.952 168.26,49.258 504.58,34.445c218.236,-9.612 422.685,32.837 574.98,38.046c84.236,2.881 136.207,-15.046 257.699,-16.876c-0.461,31.535 0.763,55.093 5.413,93.782c5.607,46.663 15.706,116.933 25.394,229.222c-251.957,25.549 -564.153,39.119 -732.467,28.983c-217.559,-13.101 -344.926,-62.064 -559.481,-72.105c-292.562,-13.692 -348.985,61.797 -591.503,47.108Z" style="fill:#0095c0;"/><path d="M72.164,1399.674c150.072,-14.26 309.636,37.805 444.461,39.459c137.168,1.682 302.304,-35.084 469.698,-40.559c424.446,-13.882 650.286,-37.695 931.787,3.651c-13.718,76.558 -30.031,145.645 -22.802,203.677c3.441,27.627 21.681,96.549 33.89,163.432c-110.141,-16.76 -260.197,-14.693 -281.714,-14.025c-299.134,9.277 -298.959,6.318 -598.355,7.624c-125.872,0.549 -508.294,-34.764 -583.688,-38.888c-135.719,-7.423 -268.983,36.537 -387.351,44.111c23.904,-133.71 11.347,-247.494 -5.926,-368.483Z" style="fill:#0095c0;"/><path d="M28.902,2453.954c-9.641,-77.915 -18.147,-151.449 -21.039,-198.067c-2.787,-44.933 -2.893,-85.561 -1.079,-122.733l440.268,-51.052c0,0 307.938,-23.426 455.901,43.592c121.257,54.921 518.633,-39.782 644.073,-17.771l358.298,19.153c-18.907,129.821 -32.546,132.937 -27.064,271.89c0.59,14.95 1.172,28.667 1.757,41.352l-234.321,-25.424c-408.143,-24.679 -451.205,82.201 -724.47,24.632c-185.794,-39.141 -365.802,8.354 -444.381,-5.603c-149.504,-26.555 -255.414,7.286 -447.942,20.032Z" style="fill:#0095c0;"/></g><g id="Stripes--White-" serif:id="Stripes (White)"><path d="M1880.016,2440.317c6.532,141.63 13.463,154.67 36.293,320.377c-112.929,5.85 -93.854,21.432 -218.807,27.857c-39.519,2.032 -273.064,-56.258 -332.137,-49.764c-78.136,8.59 -157.741,37.211 -236.954,46.839c-2.366,-0.613 -5.002,-0.617 -7.627,0.12c-0.936,0.263 -1.824,0.607 -2.657,1.02c-24.975,2.495 -49.902,2.933 -74.725,0.088c-97.281,-11.15 -136.165,-35.956 -213.618,-45.934c-1.097,-0.307 -2.257,-0.494 -3.459,-0.544c-0.335,-0.014 -0.668,-0.017 -0.997,-0.009c-16.712,-1.991 -35.234,-3.293 -56.486,-3.636c-91.079,-1.471 -264.306,26.344 -391.17,42.557c-2.037,-0.562 -4.282,-0.684 -6.571,-0.269c-1.716,0.311 -3.302,0.897 -4.709,1.694c-35.783,4.468 -67.382,7.868 -91.707,9.215c-98.71,5.468 -104.037,-41.547 -209.676,-29.235c-4.137,-59.456 -21.435,-188.172 -36.106,-306.74c192.528,-12.746 298.438,-46.587 447.942,-20.032c78.579,13.957 258.587,-33.538 444.381,5.603c273.265,57.569 316.327,-49.311 724.47,-24.632l234.321,25.424Z" style="fill:#fff;"/><path d="M6.785,2133.154c7.371,-151.013 46.436,-244.995 66.215,-338.86c1.854,-8.8 3.548,-17.51 5.091,-26.137c118.368,-7.574 251.632,-51.534 387.351,-44.111c75.394,4.123 457.816,39.437 583.688,38.888c299.396,-1.306 299.221,1.653 598.355,-7.624c21.516,-0.667 171.573,-2.735 281.714,14.025c8.33,45.632 13.852,90.314 9.952,120.284c-9.792,75.248 -21.617,150.217 -32.103,225.371c-0.579,4.148 -1.153,8.174 -1.723,12.086l-358.298,-19.153c-125.44,-22.011 -522.816,72.692 -644.073,17.771c-147.963,-67.018 -455.901,-43.592 -455.901,-43.592l-440.268,51.052Z" style="fill:#fff;"/><path d="M72.164,1399.674c-18.423,-129.04 -42.21,-266.275 -32.85,-444.621c0.189,-3.595 0.382,-7.175 0.581,-10.74c-1.547,31.505 -2.487,63.212 -2.598,94.704c242.518,14.689 298.94,-60.8 591.503,-47.108c214.554,10.041 341.921,59.004 559.481,72.105c168.314,10.136 480.51,-3.434 732.467,-28.983c6.282,68.347 11.555,138.255 13.4,196.907c1.875,59.598 -6.447,116.768 -16.037,170.287c-281.502,-41.346 -507.342,-17.533 -931.787,-3.651c-167.394,5.475 -332.53,42.241 -469.698,40.559c-134.825,-1.654 -294.389,-53.719 -444.461,-39.459Z" style="fill:#fff;"/><path d="M60.651,707.75c15.082,-130.579 30.632,-226.057 27.815,-285.158c-0.252,-5.286 -0.683,-11.757 -1.256,-19.191c215.39,8.73 354.784,-60.696 575.658,-53.728c185.896,5.865 333.395,57.127 540.232,73.847c105.336,8.515 315.014,-34.577 431.859,-38.449c125.558,-4.16 169.336,25.594 264.135,19.136c-1.71,38.706 -2.679,77.467 -4.797,155.06c-1.682,61.64 -4.669,123.283 -4.112,184.944c-0.357,-10.413 -0.41,-20.777 -0.244,-32.184c-121.492,1.83 -173.463,19.757 -257.699,16.876c-152.295,-5.208 -356.744,-47.658 -574.98,-38.046c-336.321,14.813 -371.359,-23.493 -504.58,-34.445c-79.528,-6.538 -278.718,38.069 -346.668,40.703c-104.705,4.059 -105.49,-1.446 -145.363,10.634Z" style="fill:#fff;"/></g></g><g id="Outline"><path id="Right-Edge" serif:id="Right Edge" d="M1916.31,117.572c-0.903,44.03 -5.089,87.933 -7.974,131.878c-10.162,154.775 -9.803,154.623 -14.039,309.818c-1.682,61.64 -4.669,123.283 -4.112,184.944c0.184,20.391 38.287,307.31 43.963,487.727c4.557,144.853 -51.122,275.363 -38.839,373.964c5.789,46.476 53.458,209.82 43.842,283.716c-9.792,75.248 -21.617,150.217 -32.103,225.371c-19.791,141.842 -34.434,140.837 -28.787,283.976c7.174,181.87 13.175,181.18 38.05,361.728" style="fill:none;stroke:#0095c0;stroke-width:11.14px;"/><path id="Left-Edge" serif:id="Left Edge" d="M65.008,2760.694c-6.855,-98.528 -49.853,-387.248 -57.145,-504.807c-14.109,-227.471 40.488,-344.623 65.136,-461.593c61.249,-290.665 -52.387,-482.886 -33.686,-839.241c13.737,-261.76 53.52,-440.831 49.152,-532.461c-2.698,-56.606 -25.972,-249.041 -23.458,-305.02" style="fill:none;stroke:#0095c0;stroke-width:11.14px;"/><path id="Bottom-Edge" serif:id="Bottom Edge" d="M1916.31,2760.694c-112.929,5.85 -93.854,21.432 -218.807,27.857c-39.519,2.032 -273.064,-56.258 -332.137,-49.764c-106.165,11.671 -215.04,60.322 -321.962,48.067c-119.72,-13.721 -150.996,-48.127 -274.56,-50.123c-120.099,-1.94 -383.033,47.042 -494.157,53.198c-98.71,5.468 -104.037,-41.547 -209.676,-29.235" style="fill:none;stroke:#0095c0;stroke-width:11.14px;"/><path id="Top-Edge" serif:id="Top Edge" d="M65.008,117.572c195.483,-44.456 385.861,77.02 554.912,70.89c312.66,-11.338 311.64,-87.144 591.794,-104.252c49.819,-3.042 397.217,25.95 455.165,33.362c104.284,13.339 206.137,-19.509 249.43,0" style="fill:none;stroke:#0095c0;stroke-width:12.39px;"/></g><g id="Top-Nodes" serif:id="Top Nodes"><g id="End-Node"><path d="M1908.302,2785.604c-7.171,1.612 -14.136,-2.161 -15.544,-8.422c-1.408,-6.26 3.272,-12.652 10.443,-14.265c7.171,-1.612 14.136,2.161 15.544,8.422c1.408,6.26 -3.272,12.652 -10.443,14.265Z" style="fill:#0095c0;stroke:#0095c0;stroke-width:11.14px;"/><path d="M1905.402,2774.339l22.462,64.328l-23.323,3.804l0.861,-68.131Z" style="fill:#0095c0;stroke:#0095c0;stroke-width:11.14px;"/></g><g id="End-Node1" serif:id="End-Node"><path d="M1828.312,2796.345c-7.163,1.649 -14.147,-2.088 -15.587,-8.342c-1.44,-6.253 3.207,-12.669 10.37,-14.318c7.163,-1.649 14.147,2.088 15.587,8.342c1.44,6.253 -3.207,12.669 -10.37,14.318Z" style="fill:#0095c0;stroke:#0095c0;stroke-width:11.14px;"/><path d="M1825.354,2785.095l22.793,64.211l-23.303,3.924l0.51,-68.135Z" style="fill:#0095c0;stroke:#0095c0;stroke-width:11.14px;"/></g><g id="End-Node2" serif:id="End-Node"><path d="M1742.487,2810.905c-7.164,1.645 -14.146,-2.097 -15.582,-8.351c-1.436,-6.254 3.214,-12.667 10.378,-14.312c7.164,-1.645 14.146,2.097 15.582,8.351c1.436,6.254 -3.214,12.667 -10.378,14.312Z" style="fill:#0095c0;stroke:#0095c0;stroke-width:11.14px;"/><path d="M1739.537,2799.653l22.753,64.225l-23.305,3.909l0.552,-68.135Z" style="fill:#0095c0;stroke:#0095c0;stroke-width:11.14px;"/></g><g id="End-Node3" serif:id="End-Node"><path d="M1667.699,2810.954c-7.33,-0.543 -12.896,-6.18 -12.422,-12.579c0.474,-6.399 6.81,-11.153 14.141,-10.61c7.33,0.543 12.896,6.18 12.422,12.579c-0.474,6.399 -6.81,11.153 -14.141,10.61Z" style="fill:#0095c0;stroke:#0095c0;stroke-width:11.14px;"/><path d="M1668.202,2799.333l2.78,68.08l-23.421,-3.145l20.64,-64.935Z" style="fill:#0095c0;stroke:#0095c0;stroke-width:11.14px;"/></g><g id="End-Node4" serif:id="End-Node"><path d="M1590.394,2796.556c-7.291,-0.934 -12.548,-6.86 -11.732,-13.225c0.816,-6.365 7.397,-10.773 14.688,-9.839c7.291,0.934 12.548,6.86 11.732,13.225c-0.816,6.365 -7.397,10.773 -14.688,9.839Z" style="fill:#0095c0;stroke:#0095c0;stroke-width:11.14px;"/><path d="M1591.517,2784.979l-0.863,68.131l-23.219,-4.392l24.082,-63.739Z" style="fill:#0095c0;stroke:#0095c0;stroke-width:11.14px;"/></g><g id="End-Node5" serif:id="End-Node"><path d="M1518.164,2785.963c-7.252,-1.196 -12.293,-7.307 -11.249,-13.638c1.044,-6.331 7.78,-10.5 15.032,-9.305c7.252,1.196 12.293,7.307 11.249,13.638c-1.044,6.331 -7.78,10.5 -15.032,9.305Z" style="fill:#0095c0;stroke:#0095c0;stroke-width:11.14px;"/><path d="M1519.703,2774.433l-3.313,68.056l-23.046,-5.224l26.359,-62.832Z" style="fill:#0095c0;stroke:#0095c0;stroke-width:11.14px;"/></g><g id="End-Node6" serif:id="End-Node"><path d="M1438.227,2771.959c-7.208,-1.438 -12.041,-7.715 -10.785,-14.008c1.256,-6.293 8.127,-10.234 15.335,-8.795c7.208,1.438 12.041,7.715 10.785,14.008c-1.256,6.293 -8.127,10.234 -15.335,8.795Z" style="fill:#0095c0;stroke:#0095c0;stroke-width:11.14px;"/><path d="M1440.151,2760.488l-5.592,67.907l-22.858,-5.994l28.45,-61.913Z" style="fill:#0095c0;stroke:#0095c0;stroke-width:11.14px;"/></g><g id="End-Node7" serif:id="End-Node"><path d="M1279.016,2785.508c-7.248,1.224 -14,-2.919 -15.068,-9.246c-1.069,-6.327 3.948,-12.458 11.195,-13.682c7.248,-1.224 14,2.919 15.068,9.246c1.069,6.327 -3.948,12.458 -11.195,13.682Z" style="fill:#0095c0;stroke:#0095c0;stroke-width:11.14px;"/><path d="M1276.727,2774.104l18.968,65.443l-23.494,2.543l4.525,-67.986Z" style="fill:#0095c0;stroke:#0095c0;stroke-width:11.14px;"/></g><g id="End-Node8" serif:id="End-Node"><path d="M1346.255,2769.447c-7.162,1.651 -14.148,-2.084 -15.589,-8.337c-1.442,-6.253 3.203,-12.67 10.366,-14.321c7.162,-1.651 14.148,2.084 15.589,8.337c1.442,6.253 -3.203,12.67 -10.366,14.321Z" style="fill:#0095c0;stroke:#0095c0;stroke-width:11.14px;"/><path d="M1343.294,2758.199l22.811,64.205l-23.302,3.93l0.491,-68.135Z" style="fill:#0095c0;stroke:#0095c0;stroke-width:11.14px;"/></g><g id="End-Node9" serif:id="End-Node"><path d="M1212.499,2796.225c-7.259,1.155 -13.971,-3.053 -14.979,-9.39c-1.008,-6.337 4.067,-12.419 11.326,-13.574c7.259,-1.155 13.971,3.053 14.979,9.39c1.008,6.337 -4.067,12.419 -11.326,13.574Z" style="fill:#0095c0;stroke:#0095c0;stroke-width:11.14px;"/><path d="M1210.319,2784.8l18.341,65.622l-23.517,2.318l5.176,-67.94Z" style="fill:#0095c0;stroke:#0095c0;stroke-width:11.14px;"/></g><g id="End-Node10" serif:id="End-Node"><path d="M1127.07,2808.132c-7.077,1.987 -14.23,-1.415 -15.965,-7.593c-1.735,-6.178 2.602,-12.807 9.679,-14.794c7.077,-1.987 14.23,1.415 15.965,7.593c1.735,6.178 -2.602,12.807 -9.679,14.794Z" style="fill:#0095c0;stroke:#0095c0;stroke-width:11.14px;"/><path d="M1123.583,2797.036l25.812,63.058l-23.091,5.024l-2.722,-68.082Z" style="fill:#0095c0;stroke:#0095c0;stroke-width:11.14px;"/></g><g id="End-Node11" serif:id="End-Node"><path d="M1054.461,2811.709c-7.286,-0.967 -12.517,-6.917 -11.672,-13.278c0.844,-6.361 7.445,-10.74 14.732,-9.773c7.286,0.967 12.517,6.917 11.672,13.278c-0.844,6.361 -7.445,10.74 -14.732,9.773Z" style="fill:#0095c0;stroke:#0095c0;stroke-width:11.14px;"/><path d="M1055.636,2800.137l-1.17,68.127l-23.199,-4.497l24.37,-63.63Z" style="fill:#0095c0;stroke:#0095c0;stroke-width:11.14px;"/></g><g id="End-Node12" serif:id="End-Node"><path d="M977.504,2802.434c-7.278,-1.031 -12.455,-7.026 -11.555,-13.379c0.9,-6.353 7.539,-10.674 14.817,-9.643c7.278,1.031 12.455,7.026 11.555,13.379c-0.9,6.353 -7.539,10.674 -14.817,9.643Z" style="fill:#0095c0;stroke:#0095c0;stroke-width:11.14px;"/><path d="M978.78,2790.872l-1.768,68.114l-23.159,-4.7l24.927,-63.413Z" style="fill:#0095c0;stroke:#0095c0;stroke-width:11.14px;"/></g><g id="End-Node13" serif:id="End-Node"><path d="M905.358,2785.583c-7.345,-0.291 -13.101,-5.733 -12.847,-12.145c0.254,-6.412 6.423,-11.381 13.768,-11.09c7.345,0.291 13.101,5.733 12.847,12.145c-0.254,6.412 -6.423,11.381 -13.768,11.09Z" style="fill:#0095c0;stroke:#0095c0;stroke-width:11.14px;"/><path d="M905.461,2773.952l5.117,67.944l-23.515,-2.339l18.398,-65.606Z" style="fill:#0095c0;stroke:#0095c0;stroke-width:11.14px;"/></g><g id="End-Node14" serif:id="End-Node"><path d="M825.371,2763.609c-7.344,-0.301 -13.093,-5.751 -12.83,-12.163c0.263,-6.411 6.439,-11.372 13.783,-11.07c7.344,0.301 13.093,5.751 12.83,12.163c-0.263,6.411 -6.439,11.372 -13.783,11.07Z" style="fill:#0095c0;stroke:#0095c0;stroke-width:11.14px;"/><path d="M825.491,2751.978l5.021,67.951l-23.512,-2.372l18.49,-65.58Z" style="fill:#0095c0;stroke:#0095c0;stroke-width:11.14px;"/></g><g id="End-Node15" serif:id="End-Node"><path d="M722.906,2763.472c-7.268,1.1 -13.948,-3.158 -14.908,-9.502c-0.96,-6.344 4.16,-12.388 11.428,-13.489c7.268,-1.1 13.948,3.158 14.908,9.502c0.96,6.344 -4.16,12.388 -11.428,13.489Z" style="fill:#0095c0;stroke:#0095c0;stroke-width:11.14px;"/><path d="M720.812,2752.03l17.847,65.758l-23.534,2.141l5.687,-67.899Z" style="fill:#0095c0;stroke:#0095c0;stroke-width:11.14px;"/></g><g id="End-Node16" serif:id="End-Node"><path d="M632.549,2769.378c-7.215,1.405 -14.068,-2.568 -15.294,-8.867c-1.226,-6.298 3.636,-12.552 10.85,-13.957c7.215,-1.405 14.068,2.568 15.294,8.867c1.226,6.298 -3.636,12.552 -10.85,13.957Z" style="fill:#0095c0;stroke:#0095c0;stroke-width:11.14px;"/><path d="M629.976,2758.034l20.596,64.949l-23.423,3.129l2.827,-68.078Z" style="fill:#0095c0;stroke:#0095c0;stroke-width:11.14px;"/></g><g id="End-Node17" serif:id="End-Node"><path d="M543.369,2785.579c-7.19,1.528 -14.11,-2.326 -15.444,-8.603c-1.334,-6.276 3.42,-12.613 10.609,-14.141c7.19,-1.528 14.11,2.326 15.444,8.603c1.334,6.276 -3.42,12.613 -10.609,14.141Z" style="fill:#0095c0;stroke:#0095c0;stroke-width:11.14px;"/><path d="M540.601,2774.281l21.708,64.586l-23.366,3.53l1.658,-68.117Z" style="fill:#0095c0;stroke:#0095c0;stroke-width:11.14px;"/></g><g id="End-Node18" serif:id="End-Node"><path d="M460.901,2795.606c-7.143,1.733 -14.171,-1.923 -15.683,-8.159c-1.513,-6.236 3.059,-12.705 10.202,-14.438c7.143,-1.733 14.171,1.923 15.683,8.159c1.513,6.236 -3.059,12.705 -10.202,14.438Z" style="fill:#0095c0;stroke:#0095c0;stroke-width:11.14px;"/><path d="M457.813,2784.392l23.54,63.941l-23.256,4.195l-0.285,-68.136Z" style="fill:#0095c0;stroke:#0095c0;stroke-width:11.14px;"/></g><g id="End-Node19" serif:id="End-Node"><path d="M375.255,2801.898c-7.232,1.313 -14.034,-2.747 -15.18,-9.061c-1.146,-6.314 3.795,-12.505 11.027,-13.818c7.232,-1.313 14.034,2.747 15.18,9.061c1.146,6.314 -3.795,12.505 -11.027,13.818Z" style="fill:#0095c0;stroke:#0095c0;stroke-width:11.14px;"/><path d="M372.826,2790.523l19.768,65.206l-23.461,2.83l3.693,-68.037Z" style="fill:#0095c0;stroke:#0095c0;stroke-width:11.14px;"/></g><g id="End-Node20" serif:id="End-Node"><path d="M277.858,2815.642c-7.282,1.003 -13.904,-3.343 -14.78,-9.699c-0.876,-6.357 4.324,-12.332 11.606,-13.336c7.282,-1.003 13.904,3.343 14.78,9.699c0.876,6.357 -4.324,12.332 -11.606,13.336Z" style="fill:#0095c0;stroke:#0095c0;stroke-width:11.14px;"/><path d="M275.916,2804.174l16.972,65.989l-23.56,1.828l6.588,-67.817Z" style="fill:#0095c0;stroke:#0095c0;stroke-width:11.14px;"/></g><g id="End-Node21" serif:id="End-Node"><path d="M183.187,2802.03c-7.331,-0.527 -12.91,-6.151 -12.45,-12.551c0.46,-6.4 6.786,-11.168 14.117,-10.641c7.331,0.527 12.91,6.151 12.45,12.551c-0.46,6.4 -6.786,11.168 -14.117,10.641Z" style="fill:#0095c0;stroke:#0095c0;stroke-width:11.14px;"/><path d="M183.664,2790.408l2.93,68.074l-23.428,-3.093l20.498,-64.98Z" style="fill:#0095c0;stroke:#0095c0;stroke-width:11.14px;"/></g><g id="End-Node22" serif:id="End-Node"><path d="M75.91,2785.736c-7.333,0.51 -13.647,-4.274 -14.092,-10.675c-0.445,-6.401 5.147,-12.012 12.48,-12.522c7.333,-0.51 13.647,4.274 14.092,10.675c0.445,6.401 -5.147,12.012 -12.48,12.522Z" style="fill:#0095c0;stroke:#0095c0;stroke-width:11.14px;"/><path d="M74.747,2774.162l12.479,66.984l-23.63,0.234l11.151,-67.218Z" style="fill:#0095c0;stroke:#0095c0;stroke-width:11.14px;"/></g></g><g id="Bottom-Nodes" serif:id="Bottom Nodes"><g id="End-Node23" serif:id="End-Node"><ellipse cx="77.919" cy="112.018" rx="13.318" ry="11.626" style="fill:#0095c0;stroke:#0095c0;stroke-width:11.14px;"/><path d="M78.277,112.018l-7.804,-67.688l23.589,1.405l-15.785,66.283Z" style="fill:#0095c0;stroke:#0095c0;stroke-width:11.14px;"/></g><g id="End-Node24" serif:id="End-Node"><ellipse cx="156.09" cy="100.392" rx="13.318" ry="11.626" style="fill:#0095c0;stroke:#0095c0;stroke-width:11.14px;"/><path d="M156.448,100.392l-7.804,-67.688l23.589,1.405l-15.785,66.283Z" style="fill:#0095c0;stroke:#0095c0;stroke-width:11.14px;"/></g><g id="End-Node25" serif:id="End-Node"><path d="M236.785,94.584c7.308,-0.784 13.798,3.759 14.482,10.139c0.685,6.38 -4.693,12.197 -12.001,12.981c-7.308,0.784 -13.798,-3.759 -14.482,-10.139c-0.685,-6.38 4.693,-12.197 12.001,-12.981Z" style="fill:#0095c0;stroke:#0095c0;stroke-width:11.14px;"/><path d="M238.382,106.105l-14.981,-66.469l23.604,-1.12l-8.623,67.589Z" style="fill:#0095c0;stroke:#0095c0;stroke-width:11.14px;"/></g><g id="End-Node26" serif:id="End-Node"><path d="M310.286,108.257c7.345,0.275 13.114,5.704 12.874,12.116c-0.24,6.412 -6.398,11.395 -13.743,11.12c-7.345,-0.275 -13.114,-5.704 -12.874,-12.116c0.24,-6.412 6.398,-11.395 13.743,-11.12Z" style="fill:#0095c0;stroke:#0095c0;stroke-width:11.14px;"/><path d="M310.209,119.889l-5.266,-67.933l23.52,2.287l-18.254,65.646Z" style="fill:#0095c0;stroke:#0095c0;stroke-width:11.14px;"/></g><g id="End-Node27" serif:id="End-Node"><path d="M377.727,121.285c7.345,0.275 13.114,5.704 12.874,12.116c-0.24,6.412 -6.398,11.395 -13.743,11.12c-7.345,-0.275 -13.114,-5.704 -12.874,-12.116c0.24,-6.412 6.398,-11.395 13.743,-11.12Z" style="fill:#0095c0;stroke:#0095c0;stroke-width:11.14px;"/><path d="M377.65,132.917l-5.266,-67.933l23.52,2.287l-18.254,65.646Z" style="fill:#0095c0;stroke:#0095c0;stroke-width:11.14px;"/></g><g id="End-Node28" serif:id="End-Node"><path d="M446.158,140.212c7.332,0.52 12.916,6.138 12.463,12.539c-0.454,6.401 -6.775,11.175 -14.106,10.656c-7.332,-0.52 -12.916,-6.138 -12.463,-12.539c0.454,-6.401 6.775,-11.175 14.106,-10.656Z" style="fill:#0095c0;stroke:#0095c0;stroke-width:11.14px;"/><path d="M445.693,151.834l-2.999,-68.071l23.431,3.069l-20.432,65.001Z" style="fill:#0095c0;stroke:#0095c0;stroke-width:11.14px;"/></g><g id="End-Node29" serif:id="End-Node"><path d="M519.534,154.928c7.35,-0.081 13.374,5.063 13.445,11.479c0.071,6.416 -5.839,11.691 -13.189,11.772c-7.35,0.081 -13.374,-5.063 -13.445,-11.479c-0.071,-6.416 5.839,-11.691 13.189,-11.772Z" style="fill:#0095c0;stroke:#0095c0;stroke-width:11.14px;"/><path d="M520.02,166.55l-8.548,-67.598l23.603,1.146l-15.055,66.453Z" style="fill:#0095c0;stroke:#0095c0;stroke-width:11.14px;"/></g><g id="End-Node30" serif:id="End-Node"><path d="M607.911,168.415c7.348,-0.19 13.448,4.864 13.613,11.279c0.165,6.415 -5.666,11.776 -13.014,11.966c-7.348,0.19 -13.448,-4.864 -13.613,-11.279c-0.165,-6.415 5.666,-11.776 13.014,-11.966Z" style="fill:#0095c0;stroke:#0095c0;stroke-width:11.14px;"/><path d="M608.568,180.028l-9.547,-67.465l23.617,0.797l-14.071,66.668Z" style="fill:#0095c0;stroke:#0095c0;stroke-width:11.14px;"/></g><g id="End-Node31" serif:id="End-Node"><path d="M697.807,161.167c7.286,-0.974 13.891,3.399 14.741,9.759c0.85,6.36 -4.374,12.315 -11.66,13.289c-7.286,0.974 -13.891,-3.399 -14.741,-9.759c-0.85,-6.36 4.374,-12.315 11.66,-13.289Z" style="fill:#0095c0;stroke:#0095c0;stroke-width:11.14px;"/><path d="M699.703,172.643l-16.705,-66.057l23.567,-1.733l-6.863,67.79Z" style="fill:#0095c0;stroke:#0095c0;stroke-width:11.14px;"/></g><g id="End-Node32" serif:id="End-Node"><path d="M786.984,149.567c7.311,-0.757 13.783,3.811 14.444,10.194c0.66,6.383 -4.739,12.179 -12.05,12.935c-7.311,0.757 -13.783,-3.811 -14.444,-10.194c-0.66,-6.383 4.739,-12.179 12.05,-12.935Z" style="fill:#0095c0;stroke:#0095c0;stroke-width:11.14px;"/><path d="M788.536,161.095l-14.729,-66.526l23.608,-1.03l-8.879,67.556Z" style="fill:#0095c0;stroke:#0095c0;stroke-width:11.14px;"/></g><g id="End-Node33" serif:id="End-Node"><path d="M872.313,134.553c7.25,-1.212 13.995,2.943 15.052,9.271c1.058,6.329 -3.969,12.451 -11.219,13.663c-7.25,1.212 -13.995,-2.943 -15.052,-9.271c-1.058,-6.329 3.969,-12.451 11.219,-13.663Z" style="fill:#0095c0;stroke:#0095c0;stroke-width:11.14px;"/><path d="M874.583,145.962l-18.857,-65.476l23.498,-2.503l-4.641,67.978Z" style="fill:#0095c0;stroke:#0095c0;stroke-width:11.14px;"/></g><g id="End-Node34" serif:id="End-Node"><path d="M959.358,109.701c7.214,-1.407 14.069,2.563 15.298,8.861c1.229,6.298 -3.631,12.554 -10.845,13.961c-7.214,1.407 -14.069,-2.563 -15.298,-8.861c-1.229,-6.298 3.631,-12.554 10.845,-13.961Z" style="fill:#0095c0;stroke:#0095c0;stroke-width:11.14px;"/><path d="M961.935,121.044l-20.621,-64.942l23.422,-3.138l-2.801,68.079Z" style="fill:#0095c0;stroke:#0095c0;stroke-width:11.14px;"/></g><g id="End-Node35" serif:id="End-Node"><path d="M1045.244,88.771c7.345,0.275 13.114,5.704 12.874,12.116c-0.24,6.412 -6.398,11.395 -13.743,11.12c-7.345,-0.275 -13.114,-5.704 -12.874,-12.116c0.24,-6.412 6.398,-11.395 13.743,-11.12Z" style="fill:#0095c0;stroke:#0095c0;stroke-width:11.14px;"/><path d="M1045.166,100.403l-5.266,-67.933l23.52,2.287l-18.254,65.646Z" style="fill:#0095c0;stroke:#0095c0;stroke-width:11.14px;"/></g><g id="End-Node36" serif:id="End-Node"><path d="M1142.753,70.015c7.303,-0.832 13.822,3.669 14.548,10.044c0.726,6.375 -4.613,12.227 -11.916,13.059c-7.303,0.832 -13.822,-3.669 -14.548,-10.044c-0.726,-6.375 4.613,-12.227 11.916,-13.059Z" style="fill:#0095c0;stroke:#0095c0;stroke-width:11.14px;"/><path d="M1144.425,81.526l-15.415,-66.37l23.597,-1.274l-8.181,67.644Z" style="fill:#0095c0;stroke:#0095c0;stroke-width:11.14px;"/></g><g id="End-Node37" serif:id="End-Node"><path d="M1242.055,62.273c7.223,-1.365 14.054,2.646 15.245,8.951c1.191,6.305 -3.705,12.532 -10.928,13.897c-7.223,1.365 -14.054,-2.646 -15.245,-8.951c-1.191,-6.305 3.705,-12.532 10.928,-13.897Z" style="fill:#0095c0;stroke:#0095c0;stroke-width:11.14px;"/><path d="M1244.565,73.631l-20.236,-65.062l23.44,-2.999l-3.204,68.061Z" style="fill:#0095c0;stroke:#0095c0;stroke-width:11.14px;"/></g><g id="End-Node38" serif:id="End-Node"><path d="M1328.038,62.232c7.345,0.275 13.114,5.704 12.874,12.116c-0.24,6.412 -6.398,11.395 -13.743,11.12c-7.345,-0.275 -13.114,-5.704 -12.874,-12.116c0.24,-6.412 6.398,-11.395 13.743,-11.12Z" style="fill:#0095c0;stroke:#0095c0;stroke-width:11.14px;"/><path d="M1327.96,73.864l-5.266,-67.933l23.52,2.287l-18.254,65.646Z" style="fill:#0095c0;stroke:#0095c0;stroke-width:11.14px;"/></g><g id="End-Node39" serif:id="End-Node"><path d="M1410.862,69.232c7.165,1.639 11.82,8.049 10.389,14.304c-1.431,6.255 -8.41,10.002 -15.576,8.363c-7.165,-1.639 -11.82,-8.049 -10.389,-14.304c1.431,-6.255 8.41,-10.002 15.576,-8.363Z" style="fill:#0095c0;stroke:#0095c0;stroke-width:11.14px;"/><path d="M1408.617,80.645l7.49,-67.724l22.681,6.631l-30.172,61.092Z" style="fill:#0095c0;stroke:#0095c0;stroke-width:11.14px;"/></g><g id="End-Node40" serif:id="End-Node"><path d="M1506.888,77.675c7.298,-0.878 13.845,3.581 14.612,9.952c0.767,6.371 -4.536,12.256 -11.833,13.134c-7.298,0.878 -13.845,-3.581 -14.612,-9.952c-0.767,-6.371 4.536,-12.256 11.833,-13.134Z" style="fill:#0095c0;stroke:#0095c0;stroke-width:11.14px;"/><path d="M1508.632,89.175l-15.835,-66.271l23.588,-1.423l-7.753,67.694Z" style="fill:#0095c0;stroke:#0095c0;stroke-width:11.14px;"/></g><g id="End-Node41" serif:id="End-Node"><path d="M1592.1,88.222c7.202,1.469 12.008,7.766 10.726,14.053c-1.282,6.287 -8.171,10.199 -15.373,8.73c-7.202,-1.469 -12.008,-7.766 -10.726,-14.053c1.282,-6.287 8.171,-10.199 15.373,-8.73Z" style="fill:#0095c0;stroke:#0095c0;stroke-width:11.14px;"/><path d="M1590.127,99.685l5.882,-67.882l22.832,6.092l-28.714,61.791Z" style="fill:#0095c0;stroke:#0095c0;stroke-width:11.14px;"/></g><g id="End-Node42" serif:id="End-Node"><path d="M1701.645,96.547c7.292,-0.921 13.866,3.5 14.67,9.866c0.804,6.366 -4.464,12.282 -11.756,13.203c-7.292,0.921 -13.866,-3.5 -14.67,-9.866c-0.804,-6.366 4.464,-12.282 11.756,-13.203Z" style="fill:#0095c0;stroke:#0095c0;stroke-width:11.14px;"/><path d="M1703.456,108.037l-16.223,-66.177l23.579,-1.561l-7.356,67.739Z" style="fill:#0095c0;stroke:#0095c0;stroke-width:11.14px;"/></g><g id="End-Node43" serif:id="End-Node"><path d="M1800.847,88.894c7.314,-0.731 13.77,3.858 14.409,10.243c0.639,6.385 -4.781,12.162 -12.095,12.894c-7.314,0.731 -13.77,-3.858 -14.409,-10.243c-0.639,-6.385 4.781,-12.162 12.095,-12.894Z" style="fill:#0095c0;stroke:#0095c0;stroke-width:11.14px;"/><path d="M1802.36,100.427l-14.501,-66.576l23.612,-0.949l-9.111,67.525Z" style="fill:#0095c0;stroke:#0095c0;stroke-width:11.14px;"/></g><g id="End-Node44" serif:id="End-Node"><path d="M1908.514,88.839c7.246,-1.237 14.004,2.895 15.084,9.22c1.08,6.325 -3.926,12.465 -11.172,13.701c-7.246,1.237 -14.004,-2.895 -15.084,-9.22c-1.08,-6.325 3.926,-12.465 11.172,-13.701Z" style="fill:#0095c0;stroke:#0095c0;stroke-width:11.14px;"/><path d="M1910.823,100.24l-19.08,-65.411l23.489,-2.583l-4.409,67.994Z" style="fill:#0095c0;stroke:#0095c0;stroke-width:11.14px;"/></g></g></g></svg>