<svg xmlns="http://www.w3.org/2000/svg" viewBox="0 0 1224 1024" xml:space="preserve" fill-rule="evenodd" stroke-linecap="round" stroke-linejoin="round" stroke-miterlimit="1.5" clip-rule="evenodd"><path fill="#fff" d="M350 428c-43-44-45-97-1-139h369c54 6 96 35 135 65a5 5 0 0 1 0 7c-44 36-87 69-132 66z"/><path fill="#ecb06a" d="M353 422q-54-68 0-128h361c52 5 92 30 130 59a6 6 0 0 1 0 9c-43 34-86 63-130 60z"/><path fill="none" stroke="#989998" stroke-width=".2" d="m373 298-16 1-1 3 1 15 3 2 3-1zm-13 1 2 19m1-19 3 19m1-20 2 19m4 101-16-2-1-2 1-15 3-2h3zm-13-2 2-19"/><path fill="none" stroke="#989998" stroke-width="1.5" d="M719 294c24 0 76 18 126 58l2 5v4l-2 2q-70 57-115 59"/><path fill="#fff" d="M386 435c-43-49-44-106 0-153l290 1c54 6 95 38 134 71a5 5 0 0 1 0 7c-44 39-86 76-131 72z"/><path fill="#ecb06a" d="M388 427q-44-72 0-140h292c43 7 76 34 106 67q4 4 1 7c-36 38-71 70-107 66z"/><path fill="#36c9c9" stroke="#989998" stroke-width=".2" d="M424 409h-32q-3-1-3-3v-97q0-2 3-2h33a2 2 0 0 1 2 4 78 78 0 0 0-1 94 2 2 0 0 1-2 4"/><path fill="#36c9c9" d="M513 349v21q-1 10-11 11h-47q-10-1-11-11v-21q1-10 11-11h47q10 1 11 11"/><path fill="#fff" d="M431 419c-34-39-35-84 0-121h229c43 5 75 30 106 56a5 5 0 0 1 0 7c-35 31-68 60-103 57z"/><path fill="#ecb06a" d="M432 413q-34-59 0-111h232c33 5 59 27 83 52q3 3 0 8c-27 29-55 54-83 51z"/><path fill="#c69051" d="M688 309q17 6 39 26h-52v-26z"/><path fill="#745532" d="M509 346v23q-1 10-11 11h-51q-10-1-11-11v-23q1-10 11-11h51q10 1 11 11"/><circle cx="452.5" cy="325.9" r="6.2" fill="#ffed00"/><path fill="none" stroke="#717171" stroke-width=".4" d="M688 309h-13v26h52"/><circle cx="472.6" cy="325.9" r="6.2" fill="#ffed00"/><circle cx="491.5" cy="325.9" r="6.2" fill="#ffed00"/><circle cx="452.5" cy="389.4" r="6.2" fill="#ffed00"/><circle cx="472.6" cy="389.4" r="6.2" fill="#ffed00"/><circle cx="491.5" cy="389.4" r="6.2" fill="#ffed00"/><path fill="#fff" d="M534 406c-15-31-15-67 0-97l100 1c18 4 32 24 46 45v5c-15 24-30 48-45 45z"/><circle cx="575.3" cy="336" r="17.2" fill="#ebebeb"/><circle cx="601.6" cy="380.6" r="17.2" fill="#ebebeb"/><circle cx="823" cy="350.3" r="8" fill="#ebebeb"/><circle cx="627.2" cy="372.5" r="2.8" fill="#0064ff"/><circle cx="627.2" cy="346.4" r="2.8" fill="#0064ff"/><circle cx="543.8" cy="398.9" r="2.8" fill="#ff4600"/><circle cx="541.9" cy="316.8" r="2.8" fill="#ff4600"/><path fill="none" stroke="#989998" stroke-width="1.5" d="M665 301c35 4 73 36 86 55v3q-13 18-33 33a83 83 0 0 1-52 23"/><path fill="none" stroke="#989998" stroke-width="1.5" d="M666 415H432c-23-40-26-78 1-114h232"/></svg>