<?xml version="1.0" encoding="UTF-8" standalone="no"?>
<!DOCTYPE svg PUBLIC "-//W3C//DTD SVG 1.1//EN" "http://www.w3.org/Graphics/SVG/1.1/DTD/svg11.dtd">
<svg width="100%" height="100%" viewBox="0 0 390 61" version="1.1" xmlns="http://www.w3.org/2000/svg" xmlns:xlink="http://www.w3.org/1999/xlink" xml:space="preserve" xmlns:serif="http://www.serif.com/" style="fill-rule:evenodd;clip-rule:evenodd;stroke-linejoin:round;stroke-miterlimit:2;">
    <g transform="matrix(1,0,0,1,0.000396,-145.23855)">
        <g transform="matrix(1,0,0,1,-54.133976,-48.73984)">
            <g transform="matrix(-1,0,0,-1,554.804262,440.82539)">
                <path d="M487.998,186.825C491.359,186.825 494.582,188.161 496.959,190.537C499.335,192.914 500.67,196.137 500.67,199.498L500.67,234.474C500.67,241.308 495.131,246.847 488.297,246.847L123.35,246.847C120.037,246.847 116.859,245.531 114.517,243.188C112.174,240.846 110.858,237.668 110.858,234.355L110.858,199.279C110.858,195.976 112.17,192.809 114.506,190.473C116.841,188.137 120.009,186.825 123.312,186.825L487.998,186.825Z" style="fill:rgb(154,123,79);"/>
            </g>
        </g>
        <g transform="matrix(1,0,0,1,-54.133976,-48.73984)">
            <g transform="matrix(-1.122063,0,0,-0.722892,463.075657,409.402945)">
                <path d="M364.455,231.846L364.455,249.677L269.254,245.894L90.358,252.378L17.048,249.677L17.048,231.846L112.269,235.628L250.474,229.955L364.455,231.846Z" style="fill:rgb(145,114,71);"/>
            </g>
        </g>
        <g transform="matrix(1,0,0,1,-54.133976,-48.73984)">
            <g transform="matrix(1.122063,0,0,0.638554,35.00465,57.698799)">
                <path d="M364.455,231.846L364.455,249.677L269.254,245.894L90.358,252.378L17.048,249.677L17.048,231.846L112.269,235.628L250.474,229.955L364.455,231.846Z" style="fill:rgb(145,114,71);"/>
            </g>
        </g>
    </g>
</svg>
