<svg width="207" height="189" viewBox="0 0 207 189" fill="none" xmlns="http://www.w3.org/2000/svg">
<g clip-path="url(#clip0_30_89)" filter="url(#filter0_d_30_89)">
<g filter="url(#filter1_d_30_89)">
<path fill-rule="evenodd" clip-rule="evenodd" d="M128.515 61.6009C129.317 64.3092 130.042 65.0689 132.149 67.486C131.352 67.9638 132.203 67.4652 132.149 67.486C132.068 67.5346 130.769 68.4082 130.553 68.5302C130.471 68.5768 129.272 69.1529 129.005 69.2316C128.603 69.3819 126.696 69.8752 126.675 69.8809C126.625 69.8939 121.854 71.1838 121.774 71.2265C121.68 71.2301 120.078 71.6444 119.955 71.6819C119.842 71.7184 116.7 72.0722 116.619 72.0799C116.117 72.3237 116.467 72.9777 116.761 73.9124C116.761 73.9124 117.481 76.7967 117.5 76.8744C117.501 76.8755 117.501 76.8766 117.501 76.8776C117.6 77.4656 117.899 79.322 118.024 79.705C118.024 80.1723 118.332 81.5006 118.363 81.646C118.548 81.7525 119.12 89.4391 119.264 90.548C119.264 90.548 119.342 91.276 119.326 91.6282C119.378 91.9513 119.376 92.3198 119.376 92.3198C119.11 92.9432 118.889 98.9929 118.905 99.2472C118.899 99.3414 118.773 99.8211 118.768 99.9153C118.775 99.9731 118.651 100.791 118.634 100.985C118.626 101.01 118.455 101.771 118.366 102.275C118.275 102.681 118.208 104.459 117.248 106.697C115.797 110.078 115.416 110.493 111.747 113.816C111.354 114.008 108.591 116.017 108.521 116.085C108.308 116.182 106.987 117.065 105.515 117.784C103.823 118.857 100.081 119.79 97.9355 119.881C94.8118 120.201 94.8238 119.956 92.2183 120.1C92.2055 120.096 90.1162 120.135 89.3607 119.662C89.0654 118.529 87.804 115.571 84.2454 118.343C83.1057 118.151 80.6719 117.157 80.5083 117.108C80.3056 116.94 78.8689 116.275 78.3208 116.108L75.9892 115.013C75.7539 114.825 73.9626 113.874 73.6919 113.782C72.7673 113.286 68.8607 111.07 68.6412 110.936C67.9759 110.555 65.6465 109.023 65.6555 109.023C63.5088 107.542 63.2005 107.13 63.0539 106.925C64.0983 103.058 61.8068 101.774 59.293 103.114C59.293 103.114 58.161 102.061 58.0442 101.835C57.8863 101.528 57.8708 101.55 56.474 99.6943C56.3437 99.5129 55.9168 98.8527 55.7593 98.6085C55.5306 98.2608 54.0659 95.7979 54.0343 95.6791C53.4096 94.1397 52.4593 92.4245 52.0733 91.0452C52.0475 90.9529 51.6918 88.9855 51.681 88.8332C51.6128 88.6754 51.6527 88.6785 51.2327 86.7321C51.2096 86.6252 51.2148 84.8163 51.097 83.2241C51.1315 83.0786 51.3185 80.9955 51.3427 80.9246C52.4887 73.4693 55.61 70.4232 55.6851 70.2315C56.2937 69.6174 59.3056 67.021 59.3228 67.0103C63.3572 64.5078 64.6651 63.5206 65.1077 63.1863C65.4022 63.1275 65.8008 62.7838 65.8902 62.778C66.4433 62.4603 68.6884 61.2533 68.7761 61.2003C72.9446 58.677 75.2164 57.7501 76.0925 57.0941C76.1718 57.0608 76.1565 56.6953 76.0808 56.7485C75.4517 55.3542 75.4522 55.2666 74.8348 53.8512C74.768 53.6983 74.5009 53.1475 74.3942 53.0538C74.1887 52.6804 73.5316 51.2077 73.5243 51.1799C73.3938 50.9106 73.0622 50.2654 72.8402 50.0772C72.7456 49.8754 71.1621 47.0388 70.3365 45.9128C70.1872 45.6437 69.9332 45.1524 69.6762 44.992C68.3183 43.1842 67.9025 42.6955 67.7389 42.5034C67.6094 42.2375 66.1619 40.8458 65.9734 40.7645C65.6409 40.4755 65.559 40.3331 65.2979 39.9948C65.9954 38.5049 67.1696 38.7862 70.464 34.1564C70.464 34.1564 70.8959 34.5144 70.9894 34.5867C70.9288 34.3069 71.6408 35.4371 72.2142 36.0782C72.2209 36.0995 73.4727 37.8795 73.4959 37.9302C74.1718 39.31 76.1698 42.4357 76.6593 43.7046C77.8557 46.124 80.6334 52.8942 81.0308 53.5544C81.4659 54.277 81.3487 54.6653 82.0752 54.3003C82.5385 54.0676 82.1857 54.3799 83.0886 53.8315C84.1407 53.5596 84.0925 53.439 85.5369 53.1722C87.0281 52.8968 87.4794 53.0395 88.8237 52.846C89.7206 52.9785 89.7114 52.896 90.6093 52.9529C90.7653 52.9474 93.3322 53.2935 93.4268 53.2922C93.7188 53.2935 95.8023 53.782 95.899 53.7785C96.0807 53.8289 98.3458 54.4425 98.5362 54.4661C103.368 56.3092 106.252 58.2443 106.346 58.3399C106.547 58.4597 107.417 58.9792 108.714 60.0521C108.837 60.1972 110.475 61.8063 110.499 61.8334C111.691 63.1836 111.58 63.255 112.739 64.6156C113.736 66.2127 113.763 66.191 113.808 66.3474C114.26 67.9076 124.026 64.1618 124.081 64.1442C124.44 64.0307 126.605 62.9094 126.605 62.9094C126.896 62.7181 128.515 61.6008 128.515 61.6008L128.515 61.6009Z" fill="#EE874C"/>
<path fill-rule="evenodd" clip-rule="evenodd" d="M124.298 122.177C124.354 122.6 124.367 122.59 125.059 127.448C125.156 127.679 125.319 129.425 125.367 130.618C125.406 130.785 125.466 131.766 125.466 131.803C125.53 133.843 125.588 133.832 125.589 134.009C125.602 136.176 125.54 137.961 125.551 138.016C125.517 138.185 125.33 139.95 125.323 140.043C125.297 140.452 125.126 141.388 125.105 141.504C125.015 141.901 124.574 144.02 124.551 144.208C124.715 143.785 123.988 146.202 123.625 147.292C123.575 147.455 123.277 147.956 123.26 148.241C122.246 150.137 121.913 150.722 121.407 151.652L120.722 152.598C119.906 151.72 115.792 149.344 114.571 148.358C107.002 142.242 105.914 139.885 104.047 137.418C103.821 137.776 104.375 136.852 104.375 136.852C104.874 136.165 105.267 135.697 105.347 135.575C105.351 135.568 105.356 135.56 105.362 135.554C106.067 134.695 108.336 131.055 108.485 130.753C108.612 130.485 109.818 128.125 109.866 127.896C109.873 127.86 111.02 125.306 111.155 124.467C111.174 124.396 111.33 123.823 111.412 123.584C111.455 123.522 111.593 123.139 111.636 123.077C111.586 122.503 118.034 120.602 124.298 122.177Z" fill="#EE874C"/>
<path fill-rule="evenodd" clip-rule="evenodd" d="M35.5114 76.6049C37.7332 76.8672 43.9074 84.653 42.8403 86.548C42.4431 87.1006 42.34 86.967 41.9057 87.4752C41.7835 87.6502 41.3182 88.0107 41.3182 88.0107C41.1647 88.1255 40.8593 88.3724 40.7995 88.5592C40.3941 88.9345 40.4574 88.9782 40.0368 89.3176C38.6843 90.5279 37.2607 93.8045 37.2425 93.8717C37.2316 94.0068 36.4174 96.9445 36.4071 97.1189C35.973 98.8442 36.1638 98.284 35.8808 99.4558C33.3505 99.5549 30.9822 101.313 19.9021 96.5258C18.6034 95.9647 15.9897 94.9234 15.0266 93.9687C16.4934 91.2178 16.3868 91.1615 18.276 88.6922C18.4228 88.5617 19.1384 87.8317 19.2038 87.6348C19.6687 87.2303 19.6455 87.2471 20.0262 86.7666C20.332 86.528 22.0313 84.7991 22.1091 84.613C22.1567 84.5793 23.9802 83.3338 24.1028 83.2132C24.1399 83.1859 23.7301 83.4784 23.7728 83.4471C23.7801 83.4418 30.8859 78.4304 35.5114 76.6045L35.5114 76.6049Z" fill="#EE874C"/>
<path fill-rule="evenodd" clip-rule="evenodd" d="M35.78 100.243C35.82 100.621 35.8396 100.766 35.8347 100.856C35.7222 102.95 35.6117 103.412 35.6835 104.706C35.6705 104.74 35.5549 105.926 35.5369 106.059C35.5238 106.092 35.1945 107.492 35.2176 107.746C35.2463 108.1 34.7224 109.2 34.6028 109.435C34.231 110.168 34.0073 109.776 32.8434 109.676C32.8434 109.676 31.2898 108.348 31.1405 108.307C30.8742 108.065 30.0473 107.069 29.8613 106.993C28.5095 105.542 28.499 105.557 28.3844 105.429C28.2506 105.235 27.3649 104.077 26.8478 103.373C26.6837 102.961 26.0693 102.143 25.8139 101.438C25.8139 101.438 25.7648 100.756 25.642 100.164C25.64 100.146 25.712 99.5099 25.4659 100.076C25.4507 100.349 25.3906 100.604 25.3779 100.815C25.2886 102.32 25.2395 103.415 25.2364 103.501C25.2334 103.584 25.2492 103.674 25.2431 103.852C25.238 105.307 25.5686 107.813 25.9886 108.388C25.9998 108.48 26.2124 109.635 26.327 109.86C26.327 109.953 26.4219 110.414 26.4416 110.47C26.4373 110.767 26.6923 111.144 26.7348 111.225C26.8893 111.756 26.8577 111.745 27.0566 112.241C27.1407 112.455 27.5486 113.401 27.5575 113.492C27.5987 113.573 27.6401 113.653 27.6813 113.734C27.7193 113.856 28.198 115.75 28.2828 115.893C28.2401 116.152 28.3319 116.468 28.3363 116.523C27.9429 116.955 27.4379 117.03 27.3495 117.044C27.3495 117.044 26.8558 116.992 26.5148 116.933C26.3513 116.819 25.4021 116.676 25.3859 116.677C24.3454 116.265 24.6505 116.497 22.2601 115.558C22.0502 115.507 20.6426 115.003 20.1801 114.633C18.9692 113.665 19.0242 113.802 18.2401 113.165C17.9987 112.969 17.5932 112.576 17.3488 112.468C17.1722 112.302 17.0396 111.985 16.8953 111.905C16.8501 111.821 16.5604 111.473 16.4607 111.383C16.4281 111.361 15.9433 110.676 15.7629 110.555C15.7408 110.502 14.2097 108.007 14.0931 107.796C13.2106 106.376 12.6644 103.963 12.6052 103.853C12.643 103.477 12.5086 102.498 12.5585 102.096C12.7348 101.624 12.5702 98.6928 14.2613 95.4152C14.4763 95.6035 26.0591 99.4415 27.1163 99.7087C29.9945 100.436 33.5505 100.54 35.78 100.243Z" fill="#EE874C" fill-opacity="0.99"/>
<path fill-rule="evenodd" clip-rule="evenodd" d="M54.7542 39.484C57.5389 40.6233 57.7425 40.7694 60.2044 42.4307C60.5261 42.7401 62.3367 43.8772 63.165 44.5977C64.7204 45.9509 66.5771 47.6162 67.1679 48.1422C67.1925 48.1368 68.4878 49.6484 69.0428 50.2808C69.0518 50.301 69.5413 50.9585 69.6872 51.2066C69.7329 51.29 71.8235 54.2981 71.8638 54.3689C73.0224 56.22 73.9185 57.5793 74.0913 57.7008C73.2241 58.111 68.0266 61.114 67.313 61.1843C66.2852 59.6803 66.2859 59.7053 65.3747 58.1331C65.2765 57.9635 64.9617 57.6597 64.9225 57.6218C64.7454 57.3682 64.757 57.3661 64.684 57.3058C64.5475 57.0033 63.8237 56.0366 63.6997 55.9398C63.1008 54.802 60.4407 52.2473 59.3916 51.5785C59.3752 51.5522 55.773 49.1902 55.6402 49.0763C54.9037 48.6761 54.0062 48.1496 53.2698 47.7493C55.4869 43.8728 54.8491 40.1539 54.7542 39.4837L54.7542 39.484Z" fill="#EE874C" fill-opacity="0.99"/>
<path fill-rule="evenodd" clip-rule="evenodd" d="M140.526 85.3563C140.844 85.5327 142.517 86.3013 144.684 87.6973C144.085 88.0157 140.667 89.8948 138.809 93.6218C138.067 93.232 136.994 92.6918 136.251 92.302C135.797 92.028 134.021 91.3871 134.021 91.3871C133.675 91.1554 129.229 90.0327 129.035 90.008C128.412 89.9284 124.304 89.3421 123.988 89.3336C122.726 89.2995 120.505 89.3225 119.147 89.3214C119.048 87.6952 118.803 83.9205 118.434 81.7777C119.087 81.7425 121.936 81.782 122.836 81.7523C123.646 81.7655 128.172 81.9267 128.588 81.991C129.891 82.0687 129.751 82.1443 131.012 82.2772C131.695 82.349 132.501 82.5749 132.701 82.5959C132.753 82.6004 134.174 82.9656 134.213 82.9799C134.289 83.0078 135.426 83.3821 135.557 83.41L138.135 84.331C138.861 84.6135 139.835 84.973 140.526 85.3564L140.526 85.3563Z" fill="#EE874C"/>
<path fill-rule="evenodd" clip-rule="evenodd" d="M109.338 145.36C109.422 145.348 109.718 145.54 112.811 148.057C113.352 148.497 119.891 152.37 120.731 152.48C120.572 152.76 120.557 152.729 120.468 153.029C120.412 153.1 118.845 154.977 118.817 155.011C118.465 155.247 117.817 155.836 117.743 155.896C115.747 157.085 113.077 158.853 109.526 158.828C109.395 158.976 107.834 158.925 107.42 158.827C107.12 158.814 106.028 158.805 103.771 158.138C102.542 157.774 99.3864 155.737 99.0273 155.492C99.0273 155.492 98.5125 154.811 98.4217 154.737C98.3431 154.47 98.24 154.162 98.2336 154.135C98.2157 154.044 98.224 153.452 98.224 153.452C98.3613 153.369 98.4986 153.286 98.6357 153.203C98.6946 153.186 100.859 152.726 101.807 152.315C101.959 152.249 104.272 151.054 104.924 150.586C105.615 150.09 107.269 148.258 107.343 148.17C107.485 148.045 108.125 147.219 108.872 146.267C109.226 145.88 109.585 145.715 109.338 145.36Z" fill="#EE874C" fill-opacity="0.99"/>
<path fill-rule="evenodd" clip-rule="evenodd" d="M145.489 88.3698C147.095 90.5159 147.046 90.7068 147.168 90.8972C147.245 91.0316 148.107 92.7284 148.246 93.4802C148.263 93.5735 148.481 94.2938 148.607 94.7548C148.633 94.8504 148.932 96.2201 148.901 96.5525C148.951 96.6294 149.047 97.3331 149.059 97.391C149.066 97.6182 149.341 99.3287 149.351 99.3847C149.317 99.4754 149.459 100.621 149.471 100.997C149.51 102.186 149.477 102.872 149.46 103.003C149.451 103.193 149.436 103.719 149.414 103.851C149.321 104.165 149.122 106.651 149.101 106.839C149.05 107.129 148.751 108.073 148.751 108.073C148.639 108.21 147.659 110.686 146.074 112.535C145.939 112.694 145.337 113.17 145.258 113.223C144.604 113.664 144.469 113.559 143.678 113.712C143.496 113.56 143.494 113.601 143.385 113.414C143.313 113.248 143.343 113.246 143.236 113.166C143.214 113.023 143.293 112.205 143.293 112.205C143.283 112.148 143.273 112.09 143.264 112.032C143.33 111.807 143.249 111.821 143.366 109.1C143.464 108.904 143.354 105.213 143.291 104.474C143.271 102.416 142.28 98.8432 141.75 98.0527C141.686 97.8758 140.329 95.461 140.139 95.2037C140.09 95.1228 139.427 94.1741 139.427 94.1741C140.795 90.8305 144.897 88.6912 145.489 88.3696L145.489 88.3698Z" fill="#EE874C" fill-opacity="0.99"/>
<path fill-rule="evenodd" clip-rule="evenodd" d="M50.7458 39.1411C51.5116 39.0885 52.0435 38.9584 53.8612 39.2891C53.8955 39.6084 53.8758 39.899 53.8987 40.1844C54.1704 43.5719 53.6453 44.7215 52.5572 47.5213C52.5572 47.5213 50.0021 47.2832 49.1378 47.4396C49.1378 47.4396 47.7635 47.666 47.7089 47.683C46.0464 47.9965 45.3595 48.2091 44.6243 48.4877C42.9937 49.1053 39.1396 51.511 38.6355 51.8338C38.2984 51.9958 37.8308 52.3059 37.7224 52.4894C35.533 54.1076 35.4919 54.0234 35.3465 54.2075C35.0426 54.2839 34.6887 54.728 34.4134 54.8556C34.3175 54.8604 33.9409 54.8583 33.7154 54.7917C33.3722 54.0615 33.3438 54.0781 33.3466 53.2847C33.3469 53.1901 33.3057 52.3465 33.3631 52.1467C34.09 49.4799 35.5349 47.8375 35.9984 46.8349C36.5646 46.0187 38.7034 44.1607 41.5363 42.7402C41.3524 42.7753 45.2614 40.8463 46.9143 40.1877C46.7845 40.3058 47.644 39.8998 49.383 39.3526C49.5705 39.3579 50.6668 39.1795 50.7458 39.1415L50.7458 39.1411Z" fill="#EE874C" fill-opacity="0.99"/>
<path fill-rule="evenodd" clip-rule="evenodd" d="M139.48 71.53C139.775 71.5484 140.411 71.647 140.411 71.647C137.62 76.6079 138.81 77.7712 138.364 79.265C138.333 79.188 138.302 79.4698 138.364 79.265C138.217 79.2513 138.07 79.2376 137.923 79.2238C137.759 79.1105 137.77 79.1456 137.57 79.1237C137.57 79.1237 135.818 78.6258 135.562 78.6C135.466 78.6009 135.371 78.6017 135.275 78.6026C135.012 78.5646 131.502 78.2867 130.999 78.3316C130.066 78.3078 130.091 78.3677 129.144 78.361C128.907 78.3429 128.387 78.4223 128.236 78.4329C126.952 78.3891 126.049 78.5317 125.862 78.5613C125.855 78.5593 124.926 78.5485 124.39 78.6552C123.434 78.7382 123.467 78.8439 122.523 78.923C122.318 78.8599 121.993 79.015 121.899 79.0148C121.619 79.0057 121.531 79.0202 118.353 79.6152C118.329 79.1456 117.996 75.9954 117.15 73.9684C117.206 73.9464 124.749 72.5148 125.225 72.4484C125.999 72.3578 128.382 71.7698 132.934 71.4182C133.214 71.4028 133.506 71.321 133.555 71.3075C133.555 71.3075 135.764 71.2883 135.875 71.2686C136.168 71.3014 137.157 71.2845 137.291 71.2996C137.384 71.3057 138.607 71.3639 139.48 71.5297L139.48 71.53Z" fill="#EE874C"/>
<path fill-rule="evenodd" clip-rule="evenodd" d="M123.489 93.4044C124.698 94.0155 128.445 95.2403 132.325 98.5637C133.337 99.4303 134.235 100.141 134.513 100.359L134.601 100.428C134.601 100.428 134.152 100.157 134.781 100.658C135.025 100.852 135.299 101.255 135.536 101.348C136.141 102.123 136.832 102.903 136.949 103.035C137.152 103.33 137.149 103.307 137.403 103.549C137.582 103.944 137.62 103.885 137.903 104.235C137.982 104.341 138.061 104.446 138.14 104.551C138.282 104.834 138.298 104.801 138.426 105.114L138.492 105.404C137.56 105.676 134.893 106.125 131.73 108.71C131.409 108.258 131.265 108.008 131.219 107.98C130.238 106.36 129.88 106.11 129.776 105.992C129.682 105.896 129.588 105.802 129.494 105.707C128.304 104.264 126.715 103.266 126.439 103.109C126.374 103.04 125.035 102.138 124.868 102.084C124.845 102.077 124.663 101.974 124.632 101.964C123.124 101.153 123.142 101.161 121.643 100.368C120.78 99.9112 120.852 99.9849 119.523 99.5011L118.868 99.2219C118.934 98.9879 119.643 97.5758 119.48 92.3844C120.389 92.6013 122.978 93.2992 123.096 93.3351C123.227 93.3597 123.358 93.3794 123.489 93.404L123.489 93.4044Z" fill="#EE874C" fill-opacity="0.99"/>
<path fill-rule="evenodd" clip-rule="evenodd" d="M59.1469 58.6199C59.24 58.7158 62.5218 60.9429 62.9856 61.3359C63.3331 61.6304 64.0912 62.3905 64.6093 62.823C64.2993 63.226 62.1263 64.4393 58.6782 66.6896C58.5554 66.6317 58.6006 66.6031 58.4736 66.5434C58.4542 66.5342 57.518 65.8515 57.0509 65.703C55.5379 64.887 55.567 64.8983 54.0629 64.1048C53.6757 63.8399 53.6691 63.8797 52.6857 63.4497C51.9723 63.1449 49.7636 62.4579 48.2086 62.1629C48.0431 62.0525 44.0541 61.923 44.0165 61.9305C44.0533 61.3309 43.2534 54.5651 43.2534 54.5651C43.7037 54.4749 45.9363 54.3947 45.9363 54.3947C47.0741 54.4987 48.2079 54.6693 48.5188 54.6925C48.2554 54.3292 54.9386 56.1861 59.1468 58.6198L59.1469 58.6199Z" fill="#EE874C" fill-opacity="0.99"/>
<path fill-rule="evenodd" clip-rule="evenodd" d="M54.3749 70.8945C53.7072 72.7347 52.9838 74.1695 52.356 75.6672C51.6998 77.2324 51.1475 78.8665 50.8712 81.1045L51.2235 80.8653C51.0782 80.9767 49.6775 81.8049 48.2367 82.857C47.993 83.0329 46.9721 83.6387 46.8951 83.692C45.6051 84.4907 44.2486 85.4829 44.0455 85.6226C43.4698 84.6797 37.54 77.8502 36.696 76.3442C36.6514 76.2645 36.7999 76.1012 36.7411 76.0313C38.0783 75.5201 39.6173 74.7115 39.8406 74.594C41.6233 73.8206 44.8304 72.7086 45.6297 72.473C45.7206 72.4667 48.3247 71.6528 49.8861 71.4658C51.963 71.2172 53.395 70.8378 54.3748 70.8944L54.3749 70.8945Z" fill="#EE874C"/>
<path fill-rule="evenodd" clip-rule="evenodd" d="M138.933 106.55C138.945 106.613 139.122 107.246 139.169 107.479C139.136 107.719 139.189 107.789 139.273 108.467C139.303 108.712 139.431 110.011 139.437 110.515C139.445 111.261 139.338 113.398 139.215 114.125C139.193 114.258 139.039 115.077 139.02 115.273C139.023 115.34 138.925 115.884 138.785 116.489C138.055 119.643 137.642 120.872 137.517 121.246C137.436 121.488 137.336 121.633 137.239 121.815C136.923 122.41 136.607 123.004 136.292 123.598C136.112 123.73 135.856 124.372 135.24 125.059C134.665 125.701 134.273 126.18 133.259 126.846C131.681 127.884 131.822 127.494 129.984 127.877C129.887 127.863 129.248 127.554 129.248 127.554C128.955 127.154 128.933 126.823 128.937 126.657C129.066 126.491 130.551 122.622 130.687 122.304C130.813 122.141 130.932 121.629 130.998 121.467C131.11 121.305 131.916 118.662 131.916 118.544C132.066 117.929 132.186 117.204 132.194 117.019C132.231 116.908 132.536 115.098 132.51 114.142C132.567 113.402 132.463 112.362 132.227 110.482C132.179 110.403 132.168 110.1 132.12 110.02C132.259 109.759 132.23 109.835 132.23 109.835C134.196 108.117 137.585 106.377 138.933 106.55Z" fill="#EE874D" fill-opacity="0.99"/>
<path fill-rule="evenodd" clip-rule="evenodd" d="M42.1242 54.7936L42.5889 54.7342C43.8959 58.3781 43.6721 62.0788 43.5747 62.1651C42.376 62.7151 41.7224 62.955 40.3234 63.8743C40.1997 63.9583 38.6976 64.9939 37.3896 66.1469C35.9282 67.435 34.0849 69.7723 34.2658 69.6477C34.2658 69.6477 33.8334 70.2727 33.7411 70.3697C32.8504 71.8357 31.5699 73.6755 31.3735 73.9578C31.3324 74.1768 30.2841 74.4021 30.1118 74.3573C29.8172 74.2808 29.4905 74.1646 29.5441 74.0496C29.4255 73.7784 28.5871 71.8624 28.5765 70.4781C28.3862 70.7163 29.0002 67.7598 29.5986 66.4271C29.9172 65.8344 30.7653 64.4075 30.8732 64.1005C32.0469 62.5851 33.0359 61.5762 33.4674 61.0457C33.519 61.0117 34.951 59.5794 35.0244 59.52C34.6354 59.7407 37.3571 57.3243 38.0001 57.0413C37.6758 57.0554 40.9703 55.0451 42.1242 54.7936Z" fill="#EE874C" fill-opacity="0.99"/>
<path fill-rule="evenodd" clip-rule="evenodd" d="M118.944 104.406C118.962 104.453 119.093 104.784 119.19 104.987C119.285 105.202 119.274 105.19 119.389 105.392C120.226 107.155 120.505 107.788 120.527 107.842C121.08 109.22 122.161 113.114 122.165 113.128C123.872 118.715 123.737 119.559 123.944 120.766C121.935 120.871 117.15 120.349 112.644 121.713C112.325 121.809 112.12 121.974 111.887 121.752C111.887 121.752 111.94 121.241 111.954 121.05C112.175 119.832 112.29 118.424 112.259 118.076C112.243 118.02 112.293 117.53 112.247 117.061C112.2 116.519 112.101 115.121 112.091 114.97C112.003 114.305 112.036 114.048 112.025 113.991C118.066 110.796 118.157 103.52 118.294 103.334C118.348 103.262 118.89 104.478 118.944 104.406L118.944 104.406Z" fill="#EE874C"/>
<path fill-rule="evenodd" clip-rule="evenodd" d="M69.5452 33.2574C70.0272 33.6236 68.477 37.0514 64.7514 39.4755C64.0527 38.893 63.7947 38.69 63.0794 38.1224C61.2264 36.6518 57.2199 35.1423 54.7063 34.7589C54.5523 34.6328 50.3766 33.8779 49.7656 33.8341C49.6025 33.7079 49.1644 33.6591 48.4615 33.3538C48.4278 33.2482 48.2444 32.6341 48.2444 32.6341C48.261 32.4888 48.3603 31.616 49.428 31.2421C49.7243 31.1286 50.8273 30.6893 50.8468 30.6836C50.9031 30.6653 51.9597 30.3451 52.0541 30.3438C53.1787 30.0119 53.1544 30.0271 53.2494 29.9972C53.375 30.0286 53.9894 29.9301 54.2147 29.7982C54.4635 29.8212 54.451 29.8523 54.671 29.732C54.7483 29.7203 56.0296 29.5159 56.0855 29.507C55.9259 29.4523 58.1756 29.3211 58.5716 29.4095C58.6799 29.4432 59.7933 29.4647 59.815 29.4648C59.9476 29.4884 60.4412 29.5312 60.7778 29.5547C60.5678 29.4368 61.1731 29.521 61.8911 29.7612C62.1971 29.8637 66.0283 30.5854 69.5452 33.2574Z" fill="#EE874D" fill-opacity="0.99"/>
<path fill-rule="evenodd" clip-rule="evenodd" d="M141.568 71.9336C145.659 73.3542 149.622 77.1835 149.628 77.188C149.841 77.4602 150.419 78.0617 150.75 78.5437C150.794 78.7931 151.655 79.9393 151.723 80.1003C151.915 80.3899 152.106 80.7659 152.129 80.8179C152.177 80.8999 152.741 82.0944 152.753 82.1151C152.918 82.4046 153.32 83.5334 153.43 83.6276C153.454 83.7092 153.635 84.3515 153.721 84.5331C153.731 84.5581 153.884 84.9574 153.888 85.0497C153.906 85.1064 153.924 85.1632 153.943 85.22C153.962 85.2757 153.98 85.3315 153.999 85.3871C154.05 85.5386 154.149 85.8109 154.158 85.9017C154.174 85.9588 154.19 86.0159 154.206 86.0728C154.249 86.1526 154.397 87.0731 154.494 87.389C154.507 87.4469 154.519 87.5047 154.531 87.5626C154.806 88.6651 154.142 89.226 154.031 89.3203L153.311 89.5399C152.664 89.1242 152.656 89.1595 152.474 88.9499C152.343 88.7959 150.528 86.8141 150.398 86.6818C150.269 86.5072 150.013 86.2362 149.964 86.1547C149.781 85.9697 144.44 80.989 139.403 79.495C139.429 78.553 139.362 78.5947 139.366 78.5134C139.54 75.0561 141.483 72.0366 141.569 71.9335L141.568 71.9336Z" fill="#EE874D" fill-opacity="0.99"/>
<path fill-rule="evenodd" clip-rule="evenodd" d="M85.5117 38.5056C85.5126 38.5424 85.4841 40.2151 85.5242 40.368C85.4204 40.5685 85.5073 41.6605 85.5982 42.291C85.5643 42.4353 85.6366 43.7576 85.9613 44.7593C85.9635 44.7663 85.9654 44.7735 85.9665 44.7806C86.4849 47.8799 87.8435 51.2462 87.9094 51.3723C87.9491 51.4651 88.024 51.5917 88.485 52.4629C84.8582 52.9796 84.9144 53.0897 83.0345 53.5331L82.832 53.3019C82.6783 53.0747 82.4012 52.4366 82.2622 52.2572C82.2761 52.2082 81.9233 51.4529 81.8911 51.3384C81.8559 51.2154 81.5231 50.0519 81.4076 49.8132C81.3587 49.7329 80.7045 48.034 80.3107 47.0649C80.1006 46.5476 79.8409 45.2676 79.5687 44.6749C79.4998 44.4538 79.1028 43.3596 78.9643 42.9047C78.9281 42.5682 78.9192 42.5908 78.8493 42.2815C78.654 41.635 78.5609 40.7871 78.5567 40.6938C78.505 39.7152 78.4708 39.4388 78.643 38.5343C79.2622 38.6194 83.7601 38.837 85.5118 38.5055L85.5117 38.5056Z" fill="#EE874C" fill-opacity="0.99"/>
<path fill-rule="evenodd" clip-rule="evenodd" d="M87.2581 26.5787C87.5652 26.5835 88.8689 26.2655 88.5227 27.411C88.4248 27.7351 88.4529 27.7149 88.377 28.0455C86.4988 31.7093 85.6785 35.8065 85.6532 36.8829C85.6447 36.968 85.55 37.2591 85.4753 37.6886C81.6941 38.8338 80.2141 38.1457 78.5746 37.733C78.5938 36.2837 78.7212 36.0105 78.8211 35.1021C78.9181 34.6792 78.9108 34.5958 78.9069 34.5514C78.903 34.5061 79.1163 33.8849 79.1412 33.6965C79.5674 31.9192 80.4656 30.8416 80.6402 30.6319C80.7884 30.5017 81.2964 29.9023 81.796 29.5164C81.9988 29.3887 81.9504 29.3635 82.4271 28.9243C82.5299 28.8411 84.937 27.3685 84.9665 27.3477C84.9821 27.3415 85.9817 26.9832 86.0635 26.9426C86.1594 26.9147 86.1524 26.9074 87.258 26.5786L87.2581 26.5787Z" fill="#EE874C" fill-opacity="0.99"/>
<path fill-rule="evenodd" clip-rule="evenodd" d="M136.444 52.6174C137.185 52.5017 137.825 54.9387 137.857 55.054C137.868 55.1436 138.055 57.6941 138.034 57.8259C138.027 58.0655 138.1 58.0714 137.983 59.6913C137.937 60.3264 137.723 61.0776 137.696 61.2715C137.619 61.5333 137.223 62.8782 135.982 64.221C135.838 64.3462 134.798 65.4745 134.757 65.4964C134.718 65.5176 133.999 66.15 133.064 66.8544C130.087 64.3893 129.489 62.2177 129.306 60.9858C129.402 60.8963 129.617 60.6659 129.713 60.5764C130.218 60.2113 130.713 59.6499 130.792 59.5611C130.923 59.3814 133.532 57.0212 135.549 53.4023C135.718 53.2089 135.888 53.0154 136.058 52.822C136.416 52.6331 136.409 52.6229 136.444 52.6174Z" fill="#EE874C" fill-opacity="0.99"/>
<path fill-rule="evenodd" clip-rule="evenodd" d="M103.688 137.823C104.031 138.216 105.802 141.636 108.778 144.768C108.925 144.923 109.118 145.04 109.229 145.222C109.285 145.314 109.369 145.331 109.425 145.422C108.067 146.149 108.402 146.052 107.493 146.429C107.448 146.412 107.57 146.56 104.739 146.951C103.234 147.159 102.159 146.99 101.874 147.005C101.779 147.005 99.6777 146.797 99.6777 146.797C99.3652 146.754 98.0682 146.432 97.982 146.405C97.4936 146.25 97.5786 146.283 96.3646 145.768C95.5731 144.885 95.5485 144.464 95.8688 143.465C96.2792 143.315 97.357 142.695 97.4834 142.622C98.7409 141.898 100.222 140.865 100.266 140.8C100.302 140.773 102.447 138.949 102.559 138.864C102.609 138.799 103.688 137.823 103.688 137.823L103.688 137.823Z" fill="#EE874C" fill-opacity="0.99"/>
<path fill-rule="evenodd" clip-rule="evenodd" d="M36.0048 99.2992C35.8653 100.257 35.875 100.433 35.8804 100.532C33.6509 100.829 30.1945 100.906 27.3163 100.179C26.2591 99.9116 18.6362 97.9852 14.4763 95.6035C14.4565 95.5922 14.4763 95.6035 14.2613 95.4152L15.0267 93.9691C16.2235 94.7305 16.1685 94.7924 17.4672 95.3535C28.5473 100.141 33.4744 99.3983 36.0048 99.2992Z" fill="#C7703E"/>
<path fill-rule="evenodd" clip-rule="evenodd" d="M104.305 136.955C106.172 139.423 109.293 144.857 117.594 149.935C118.696 150.609 120.897 151.586 121.18 151.914C121.043 152.08 120.338 153.191 120.282 153.166C116.162 151.304 113.165 148.707 112.62 148.272C109.487 145.775 108.755 144.837 108.608 144.682C105.632 141.55 103.773 138.446 103.43 138.053C103.454 137.984 103.478 137.915 103.503 137.846C103.866 137.542 103.817 137.535 104.107 137.146C104.173 137.082 104.239 137.019 104.305 136.955L104.305 136.955Z" fill="#C7703E"/>
<path fill-rule="evenodd" clip-rule="evenodd" d="M89.5253 119.767C88.7573 124.694 82.4362 123.682 84.245 118.343C87.7386 115.24 89.1962 118.461 89.5253 119.767Z" fill="black"/>
<path fill-rule="evenodd" clip-rule="evenodd" d="M59.1691 103.025C61.9878 101.716 64.6614 103.257 63.1758 107.076C59.9535 110.115 56.2026 106.877 59.1031 103.061L59.1691 103.025Z" fill="black"/>
<path fill-rule="evenodd" clip-rule="evenodd" d="M123.947 120.519C124.304 122.16 124.307 122.141 124.297 122.177C118.043 122.103 118 121.813 111.92 123.237C111.882 123.246 111.571 123.385 111.541 123.398L111.537 123.239C111.67 122.782 111.672 122.811 111.667 122.741C111.776 122.475 111.785 122.5 111.781 122.232L111.739 122.184C111.861 122.026 111.834 122.034 111.843 121.84C111.884 121.729 111.933 121.672 111.934 121.641C111.615 121.737 112.166 121.863 111.934 121.641C116.44 120.277 121.938 120.623 123.947 120.519Z" fill="#C7703E"/>
<path fill-rule="evenodd" clip-rule="evenodd" d="M36.973 75.9106C37.0318 75.9805 36.956 76.1114 37.0148 76.1813C38.1452 77.5248 38.815 76.9979 42.9325 83.7712C43.4958 84.6978 43.4696 84.6797 44.0454 85.6227C43.1445 86.2735 43.1949 86.3127 43.1158 86.3655C42.9694 86.4821 42.9755 86.4409 42.8402 86.5481C42.7701 86.227 42.7827 86.25 42.7701 86.227C39.1385 79.6688 36.6849 78.0526 35.2543 76.6954C36.1367 76.2943 36.0929 76.263 36.9732 75.9105L36.973 75.9106Z" fill="#C7703E"/>
<path fill-rule="evenodd" clip-rule="evenodd" d="M55.0206 39.5653C55.1155 40.2355 55.6481 43.9995 53.431 47.876L53.2877 47.8472C53.1307 47.7392 52.5038 47.6281 52.2097 47.5155C53.3895 44.4801 54.0697 43.3158 53.6278 39.2045C53.742 39.25 54.3371 39.3913 54.5206 39.4166C54.6873 39.4662 54.854 39.5157 55.0206 39.5655L55.0206 39.5653Z" fill="#C7703E"/>
<path fill-rule="evenodd" clip-rule="evenodd" d="M144.519 87.5209C144.875 87.9131 144.952 87.8304 145.352 88.1816C145.491 88.3386 145.396 88.3678 145.585 88.4857C144.992 88.8073 140.915 91.0205 139.547 94.3642C139.268 94.0904 138.827 93.6635 138.58 93.5794L138.478 93.4716C140.336 89.7445 143.92 87.8394 144.519 87.5209Z" fill="#C7703E"/>
<path fill-rule="evenodd" clip-rule="evenodd" d="M138.383 105.221C138.376 105.209 138.442 105.385 138.383 105.221C138.443 105.322 138.549 105.419 138.614 105.528C138.63 105.591 138.652 105.567 138.925 106.273C138.959 106.387 138.993 106.5 139.028 106.614L139.007 106.72C137.659 106.547 134.107 108.382 132.141 110.1C132.11 109.969 131.702 108.695 131.663 108.573C134.825 105.988 137.45 105.493 138.383 105.221L138.383 105.221Z" fill="#C7703E"/>
<path fill-rule="evenodd" clip-rule="evenodd" d="M43.7185 54.4841C44.9715 56.9225 44.701 61.3349 44.6643 61.9346C43.2256 62.3471 43.2499 62.3426 43.1266 62.3772C43.247 58.5289 43.5334 58.4667 42.2264 54.8228C42.2547 54.8135 42.2214 54.7797 42.5426 54.6255C42.959 54.5524 42.9351 54.57 43.333 54.4527C43.4638 54.4472 43.4287 54.5311 43.5487 54.526C43.5627 54.5253 43.5487 54.526 43.7185 54.4837L43.7185 54.4841Z" fill="#C7703E"/>
<path fill-rule="evenodd" clip-rule="evenodd" d="M118.223 103.026C118.373 103.265 118.807 104.076 118.85 104.182C118.797 104.254 118.897 104.287 118.844 104.359C118.767 104.462 118.303 106.362 117.073 108.713C116.087 110.599 114.687 112.83 111.998 114.252C111.897 114 111.904 113.943 111.729 113.751C113.643 111.959 114.766 111.299 117.073 106.876C117.429 106.193 117.207 106.316 118.223 103.026L118.223 103.026Z" fill="#C7703E"/>
<path fill-rule="evenodd" clip-rule="evenodd" d="M69.5454 33.2574C69.5903 33.3042 70.3247 33.9051 70.421 34.0244C70.4824 34.0937 70.544 34.1631 70.6054 34.2324C69.3795 36.6555 68.3506 37.79 67.5583 38.526C66.4103 39.5923 65.4652 40.1004 65.3998 40.1503C65.3532 40.1114 65.3499 40.1644 65.3136 40.134C65.3035 40.1256 65.3136 40.134 65.214 40.005C65.0853 39.8504 65.1092 39.8448 64.929 39.7812C64.6838 39.5093 64.699 39.5311 64.4561 39.2911C68.0752 36.7499 68.7185 34.755 69.545 33.2573L69.5454 33.2574Z" fill="#C7703E" fill-opacity="0.99"/>
<path fill-rule="evenodd" clip-rule="evenodd" d="M141.678 71.9561C141.592 72.0592 139.689 75.066 139.516 78.5232C139.511 78.6045 139.513 78.5987 139.488 79.5405C139.133 79.4682 139.155 79.4695 138.818 79.4205C138.655 79.2882 138.661 79.3231 138.473 79.3071L138.364 79.2651C138.333 79.1881 138.268 79.0672 138.269 79.029C138.274 78.6615 137.531 76.568 140.297 71.6093C140.389 71.623 140.462 71.6399 140.554 71.6536C140.576 71.6557 140.739 71.6717 140.828 71.6943C141.261 71.8051 141.231 71.8477 141.678 71.9561Z" fill="#C7703E" fill-opacity="0.99"/>
<path fill-rule="evenodd" clip-rule="evenodd" d="M55.3553 70.8072C55.5695 70.4701 53.9892 72.1538 52.5437 76.424C52.1146 77.6915 51.6974 79.1868 51.3425 80.925C51.1572 80.8447 51.1753 80.8878 50.9973 80.9858C50.9552 81.0253 50.9131 81.0648 50.8709 81.1043C50.5212 77.9119 52.4624 73.3621 54.2704 70.9002C54.3205 70.8992 54.1467 70.8821 54.7356 70.8265C54.9339 70.7899 55.2603 70.9569 55.3554 70.807L55.3553 70.8072Z" fill="#C7703E"/>
<path fill-rule="evenodd" clip-rule="evenodd" d="M129.425 60.845C129.608 62.0769 130.232 64.3037 133.21 66.7688C132.875 66.9994 132.905 67.0065 132.577 67.2384C132.312 67.4251 132.325 67.3917 132.056 67.5794C129.949 65.1621 129.171 64.3988 128.369 61.6906L128.522 61.5175C129.029 61.2549 128.96 61.1865 129.425 60.845Z" fill="#C7703E"/>
<path fill-rule="evenodd" clip-rule="evenodd" d="M85.569 37.3866C85.5959 37.9622 85.5134 37.9394 85.5119 38.5056C83.9062 39.6729 80.2186 39.0706 79.7631 38.9963C79.1317 38.8932 79.1455 38.9114 78.5264 38.8262C78.5294 38.7766 78.5476 38.4674 78.5267 38.2053C78.5324 37.8002 78.5527 37.8259 78.5589 37.4166C80.1984 37.8292 81.7876 38.532 85.569 37.3866Z" fill="#C7703E"/>
<path fill-rule="evenodd" clip-rule="evenodd" d="M74.0915 57.7008C74.1746 57.7853 74.2455 58.04 74.3286 58.1245C73.6523 58.4926 71.7323 59.5928 70.1323 60.4896C68.7368 61.2717 67.5846 61.8991 67.7134 61.751C67.5814 61.5542 67.4419 61.3724 67.3133 61.1845C67.833 60.8657 72.9328 57.7375 74.0915 57.701L74.0915 57.7008Z" fill="#C7703E"/>
<path fill-rule="evenodd" clip-rule="evenodd" d="M64.6094 62.8229L64.7041 62.9008C64.8957 63.0585 64.9162 63.1715 65.1457 63.3028C64.7159 63.6024 63.7194 64.2228 59.3991 67.0357C59.3822 67.0467 59.3228 67.0105 59.079 66.9475C59.0503 66.9224 59.0469 66.9474 58.6783 66.6894C62.0034 64.1442 64.2169 63.0303 64.6094 62.8229Z" fill="#C7703E"/>
<path fill-rule="evenodd" clip-rule="evenodd" d="M119.841 92.4718C120.004 97.6632 119.374 99.1941 119.308 99.4282C119.308 99.4282 118.934 99.2968 118.865 99.264C118.742 98.5518 119.076 92.9559 119.342 92.3325C119.604 92.3344 119.712 92.4242 119.841 92.4718Z" fill="#C7703E"/>
<path fill-rule="evenodd" clip-rule="evenodd" d="M117.186 73.9402C117.723 75.2018 117.776 75.6927 117.966 76.6471C118.267 78.1631 118.505 79.7933 118.467 79.5468C118.242 79.597 118.183 79.7058 118.004 79.8429C117.94 79.6469 117.65 78.1614 117.36 76.768C117.084 75.4364 116.727 74.2142 116.74 74.0195C116.82 74.0227 117.037 73.9721 117.116 73.9753L117.186 73.9403L117.186 73.9402Z" fill="#C7703E"/>
<path fill-rule="evenodd" clip-rule="evenodd" d="M118.777 81.7563C119.115 81.7941 119.833 87.9848 119.649 89.2276C119.619 89.4264 119.402 89.2159 119.165 89.4232C119.051 88.9078 118.294 82.2184 118.369 81.6663C118.466 81.6625 118.679 81.7602 118.777 81.7563Z" fill="#C7703E"/>
<path fill-rule="evenodd" clip-rule="evenodd" d="M76.0082 56.5873C78.0327 55.2465 81.3333 53.9209 81.3548 54.3088C81.3563 54.3365 81.6838 54.5212 81.5478 54.5711C79.2283 55.4234 78.252 56.0947 76.0924 57.0945C76.0871 56.8696 76.0861 56.8157 76.008 56.5874L76.0082 56.5873Z" fill="#C7703E"/>
<path fill-rule="evenodd" clip-rule="evenodd" d="M88.4095 52.3284C88.6151 52.6213 88.6136 52.6065 88.8331 52.857C87.9257 53.0625 87.2871 52.8723 85.346 53.2958C84.1893 53.5483 84.2705 53.6383 83.0952 53.8671C83.0293 53.618 83.0474 53.591 82.9195 53.3769C84.7404 52.8317 84.6925 52.6893 88.4095 52.3284Z" fill="#C7703E"/>
<path fill-rule="evenodd" clip-rule="evenodd" d="M114.283 66.6797C114.381 66.6266 115.04 67.851 115.782 69.4298C116.108 70.1234 116.684 71.7757 116.742 72.024C116.688 72.0472 116.694 72.189 116.409 72.2061C116.239 72.2162 116.203 71.7897 115.435 69.9205C115.091 69.0829 113.667 66.3068 114.063 66.6416" fill="#C7703E"/>
</g>
</g>
<defs>
<filter id="filter0_d_30_89" x="-4.99984" y="-51" width="244.375" height="244.375" filterUnits="userSpaceOnUse" color-interpolation-filters="sRGB">
<feFlood flood-opacity="0" result="BackgroundImageFix"/>
<feColorMatrix in="SourceAlpha" type="matrix" values="0 0 0 0 0 0 0 0 0 0 0 0 0 0 0 0 0 0 127 0" result="hardAlpha"/>
<feOffset dx="-1" dy="1"/>
<feGaussianBlur stdDeviation="2"/>
<feComposite in2="hardAlpha" operator="out"/>
<feColorMatrix type="matrix" values="0 0 0 0 0 0 0 0 0 0 0 0 0 0 0 0 0 0 0.25 0"/>
<feBlend mode="normal" in2="BackgroundImageFix" result="effect1_dropShadow_30_89"/>
<feBlend mode="normal" in="SourceGraphic" in2="effect1_dropShadow_30_89" result="shape"/>
</filter>
<filter id="filter1_d_30_89" x="5.54704" y="25.5417" width="150.05" height="140.379" filterUnits="userSpaceOnUse" color-interpolation-filters="sRGB">
<feFlood flood-opacity="0" result="BackgroundImageFix"/>
<feColorMatrix in="SourceAlpha" type="matrix" values="0 0 0 0 0 0 0 0 0 0 0 0 0 0 0 0 0 0 127 0" result="hardAlpha"/>
<feOffset dx="-3" dy="3"/>
<feGaussianBlur stdDeviation="2"/>
<feComposite in2="hardAlpha" operator="out"/>
<feColorMatrix type="matrix" values="0 0 0 0 0 0 0 0 0 0 0 0 0 0 0 0 0 0 0.09 0"/>
<feBlend mode="normal" in2="BackgroundImageFix" result="effect1_dropShadow_30_89"/>
<feBlend mode="normal" in="SourceGraphic" in2="effect1_dropShadow_30_89" result="shape"/>
</filter>
<clipPath id="clip0_30_89">
<rect width="174.663" height="174.663" fill="white" transform="translate(82.3351 -48) rotate(28.1248)"/>
</clipPath>
</defs>
</svg>
