<?xml version="1.0" encoding="UTF-8" standalone="no"?><!DOCTYPE svg PUBLIC "-//W3C//DTD SVG 1.1//EN" "http://www.w3.org/Graphics/SVG/1.1/DTD/svg11.dtd"><svg width="100%" height="100%" viewBox="0 0 1118 1118" version="1.1" xmlns="http://www.w3.org/2000/svg" xmlns:xlink="http://www.w3.org/1999/xlink" xml:space="preserve" xmlns:serif="http://www.serif.com/" style="fill-rule:evenodd;clip-rule:evenodd;stroke-linejoin:round;stroke-miterlimit:2;"><g id="Background"><path d="M720.363,295.156c12.702,12.867 19.085,14.969 38.271,22.257c-3.055,5.101 0.242,-0.28 -0,0c-0.307,0.517 -5.006,9.369 -5.856,10.709c-0.325,0.512 -5.355,7.382 -6.626,8.632c-1.812,2.06 -11.091,10.6 -11.194,10.696c-0.24,0.223 -23.282,21.901 -23.602,22.382c-0.521,0.304 -8.317,7.478 -8.894,8.059c-0.53,0.548 -17.2,12.026 -17.632,12.313c-2.101,2.892 1.848,5.528 6.329,9.917c-0,0 12.767,14.11 13.111,14.49c0.005,0.005 0.009,0.011 0.013,0.016c2.333,3.021 9.622,12.598 11.482,14.384c1.411,2.637 7.157,9.207 7.775,9.932c1.361,0.045 27.787,41.709 31.942,47.536c0,-0 2.638,3.874 3.611,5.91c1.268,1.667 2.37,3.753 2.37,3.753c0.378,4.322 17.386,39.139 18.242,40.527c0.254,0.548 0.986,3.639 1.241,4.186c0.214,0.305 1.987,5.297 2.474,6.44c0.029,0.169 1.364,4.979 2.377,8.091c0.712,2.568 5.704,12.808 7.034,28.336c2.01,23.464 1.11,26.959 -9.57,56.788c-1.644,2.269 -11.178,21.947 -11.369,22.539c-0.907,1.19 -5.704,10.164 -11.839,18.664c-6.315,11.16 -24.623,27.719 -36.461,34.71c-16.67,11.228 -17.34,9.812 -31.615,18.484c-0.084,0.017 -11.762,6.538 -17.452,6.151c-5.087,-5.507 -21.133,-18.399 -32.857,7.988c-7.013,2.355 -23.752,4.086 -24.822,4.305c-1.65,-0.335 -11.768,0.244 -15.366,0.955l-16.465,0.856c-1.897,-0.354 -14.878,-0.316 -16.684,-0.02c-6.715,-0.008 -35.455,-0.73 -37.1,-0.828c-4.903,-0.139 -22.676,-1.76 -22.626,-1.788c-16.588,-1.886 -19.571,-3.28 -21.018,-3.996c-5.77,-24.977 -22.581,-25.313 -32.727,-10.161c0,0 -9.568,-2.53 -10.909,-3.452c-1.82,-1.261 -1.839,-1.086 -15.324,-7.349c-1.283,-0.631 -5.685,-3.07 -7.311,-3.973c-2.34,-1.273 -18.04,-10.757 -18.577,-11.332c-8.171,-6.805 -18.711,-13.62 -25.052,-20.242c-0.424,-0.443 -8.368,-10.476 -8.889,-11.303c-0.861,-0.685 -0.626,-0.788 -8.87,-10.508c-0.453,-0.534 -5.882,-10.761 -11.351,-19.394c-0.244,-0.925 -5.474,-13.249 -5.551,-13.722c-16.026,-45.544 -7.597,-72.157 -7.752,-73.466c1.583,-5.303 10.751,-29.048 10.816,-29.16c15.224,-26.3 19.628,-35.819 21.118,-39.042c1.485,-1.22 2.698,-4.363 3.185,-4.666c2.164,-3.462 11.196,-17.05 11.531,-17.614c15.918,-26.822 25.946,-38.909 28.912,-45.256c0.347,-0.427 -0.842,-2.444 -1.109,-1.915c-7.758,-5.973 -8.02,-6.469 -15.776,-12.596c-0.838,-0.662 -4.008,-2.965 -4.893,-3.172c-2.287,-1.488 -10.44,-7.819 -10.565,-7.954c-1.549,-1.126 -5.368,-3.768 -7.189,-4.16c-1.143,-0.854 -18.641,-12.089 -26.699,-15.954c-1.655,-1.069 -4.571,-3.076 -6.506,-3.206c-13.12,-6.108 -16.942,-7.612 -18.445,-8.203c-1.533,-1.11 -13.904,-4.599 -15.213,-4.489c-2.749,-0.628 -3.641,-1.185 -6.136,-2.307c-0.558,-10.515 6.919,-12.47 11.547,-48.546c0,0 3.518,0.718 4.264,0.844c-1.186,-1.397 6.243,2.835 11.415,4.724c0.102,0.1 12.539,6.371 12.823,6.587c7.979,5.75 28.689,17.366 35.281,23.052c14.054,10.048 50.162,39.885 54.398,42.413c4.636,2.766 5.146,5.312 8.146,1.059c1.913,-2.711 0.864,0.116 4.306,-5.704c5.119,-4.709 4.483,-5.245 11.832,-11.109c7.587,-6.054 10.565,-6.61 17.57,-11.759c5.463,-1.958 5.162,-2.396 10.402,-4.784c0.864,-0.502 16.399,-6.293 16.929,-6.586c1.652,-0.874 14.888,-4.403 15.423,-4.714c1.178,-0.264 15.816,-3.635 16.962,-4.076c32.84,-4.176 54.956,-1.953 55.777,-1.698c1.494,0.071 7.974,0.378 18.531,2.522c1.136,0.446 15.233,4.59 15.45,4.671c10.807,4.023 10.394,4.762 21.043,8.945c10.446,6.008 10.533,5.804 11.261,6.55c7.259,7.444 51.085,-43.168 51.343,-43.434c1.683,-1.723 10.521,-14.585 10.521,-14.585c1.067,-1.959 6.834,-13.151 6.834,-13.151Z" style="fill:#ee874c;fill-opacity:1;"/><path d="M879.335,649.84c1.594,2.213 1.634,2.12 20.205,27.455c1.242,1.013 7.428,10.377 11.299,16.965c0.726,0.829 4.024,6.186 4.135,6.391c6.517,11.327 6.81,11.088 7.35,12.083c6.617,12.194 11.65,22.454 11.875,22.733c0.321,1.061 4.59,11.584 4.834,12.134c1.087,2.388 2.944,8.186 3.175,8.907c0.688,2.511 4.595,15.805 5.033,16.93c-0.35,-2.88 2.835,12.96 4.076,20.206c0.213,1.071 0.042,4.796 0.805,6.459c-0.008,13.761 -0.116,18.07 -0.169,24.849l-1.012,7.403c-7.255,-2.49 -37.65,-3.491 -47.518,-5.376c-61.179,-11.687 -74.435,-21.707 -92.418,-30.003c-0.194,2.707 0.142,-4.182 0.142,-4.182c0.747,-5.383 1.551,-9.212 1.634,-10.14c0.002,-0.056 0.009,-0.112 0.021,-0.168c1.388,-6.977 3.219,-34.368 3.146,-36.525c-0.092,-1.896 -0.409,-18.857 -0.825,-20.29c-0.067,-0.23 -1.302,-18.105 -3.07,-23.247c-0.105,-0.459 -0.953,-4.168 -1.213,-5.763c0.056,-0.48 -0.321,-3.058 -0.265,-3.537c-2.018,-3.09 28.648,-33.28 68.76,-43.284Z" style="fill:#ee874c;fill-opacity:1;"/><path d="M240.623,660.477c13.334,-5.223 71.68,20.099 71.374,34.016c-0.575,4.318 -1.56,3.875 -2.478,8.054c-0.162,1.357 -1.701,4.796 -1.701,4.796c-0.52,1.111 -1.499,3.426 -1.273,4.661c-1.156,3.342 -0.667,3.398 -2.017,6.583c-3.983,10.913 -2.133,33.705 -2.033,34.139c0.346,0.796 4.614,19.836 5.082,20.852c2.755,11.049 2.142,7.311 4.08,14.78c-13.985,8.194 -22.049,25.265 -99.042,31.673c-9.024,0.751 -26.921,2.759 -35.238,0.276c-0.02,-19.955 -0.792,-19.951 2.422,-39.591c0.435,-1.18 2.272,-7.46 2.047,-8.769c1.404,-3.686 1.324,-3.521 2.023,-7.382c1.006,-2.27 5.382,-17.157 5.26,-18.442c0.167,-0.334 6.703,-12.867 7.031,-13.918c0.127,-0.266 -1.304,2.622 -1.157,2.316c0.025,-0.052 25.017,-49.782 45.619,-74.046Z" style="fill:#ee874c;fill-opacity:1;"/><path d="M313.464,793.108c1.366,2.012 1.914,2.772 2.159,3.296c5.68,12.155 6.452,15.099 10.763,22.19c0.028,0.229 2.953,7.271 3.254,8.079c0.025,0.224 2.39,9.121 3.288,10.487c1.229,1.91 1.59,9.699 1.626,11.39c0.112,5.258 -2.335,3.718 -9.205,6.669c-0,-0 -12.779,-2.813 -13.746,-2.595c-2.231,-0.557 -9.905,-3.687 -11.184,-3.554c-12.009,-4.112 -12.023,-3.995 -13.057,-4.373c-1.341,-0.692 -9.833,-4.554 -14.879,-6.972c-2.168,-1.828 -8.106,-4.595 -11.674,-7.802c0,0 -2.334,-3.7 -4.815,-6.675c-0.066,-0.095 -1.578,-3.902 -1.26,0.035c0.739,1.589 1.168,3.207 1.734,4.438c4.038,8.768 7.063,15.094 7.306,15.591c0.232,0.474 0.594,0.937 1.098,1.963c4.361,8.228 13.787,21.374 17.894,23.354c0.339,0.483 5.025,6.363 6.351,7.287c0.282,0.528 2.207,2.841 2.487,3.098c0.872,1.689 3.451,3.052 3.935,3.38c2.475,2.533 2.263,2.565 4.881,4.763c1.12,0.953 6.278,5.064 6.603,5.551c0.476,0.331 0.953,0.662 1.429,0.993c0.584,0.576 8.999,9.82 9.91,10.372c0.54,1.591 2.013,3.1 2.203,3.396c-0.917,3.626 -3.541,5.574 -4,5.915c-0,0 -2.942,1.2 -5.047,1.892c-1.265,-0.146 -7.056,1.908 -7.143,1.965c-7.118,0.812 -4.694,1.204 -21.024,3.111c-1.337,0.349 -10.804,1.75 -14.531,1.058c-9.757,-1.812 -9.034,-1.206 -15.381,-2.433c-1.953,-0.377 -5.43,-1.375 -7.134,-1.245c-1.499,-0.407 -3.205,-1.797 -4.259,-1.81c-0.509,-0.339 -3.196,-1.432 -4.03,-1.639c-0.25,-0.025 -5.052,-2.425 -6.435,-2.564c-0.285,-0.233 -16.457,-9.698 -17.754,-10.541c-9.265,-5.351 -19.629,-17.324 -20.294,-17.765c-0.924,-2.241 -4.634,-7.357 -5.567,-9.781c-0.429,-3.196 -10.202,-19.245 -10.545,-42.85c1.782,0.414 78.748,-12.869 85.522,-14.551c18.443,-4.578 38.831,-14.72 50.521,-23.123Z" style="fill:#ee874c;fill-opacity:0.99;"/><path d="M237.245,392.864c19.158,-1.971 20.748,-1.761 39.658,0.189c2.75,0.776 16.402,1.732 23.252,3.3c12.863,2.946 28.369,6.744 33.291,7.931c0.123,-0.105 11.996,4.52 17.037,6.415c0.112,0.087 4.859,2.322 6.431,3.282c0.51,0.333 21.388,11.006 21.829,11.284c12.126,6.954 21.286,11.923 22.628,12.088c-3.658,4.932 -23.937,37.567 -27.753,40.117c-10.34,-5.389 -10.261,-5.25 -20.149,-11.376c-1.066,-0.661 -3.759,-1.426 -4.095,-1.522c-1.765,-0.897 -1.706,-0.944 -2.3,-1.064c-1.683,-1.296 -8.686,-4.569 -9.678,-4.741c-6.814,-4.616 -29.539,-11.011 -37.479,-11.621c-0.172,-0.099 -27.634,-2.564 -28.727,-2.806c-5.365,-0.037 -12.02,-0.301 -17.385,-0.339c0.819,-28.573 -14.003,-47.642 -16.561,-51.139Z" style="fill:#ee874c;fill-opacity:0.99;"/><path d="M859.845,393.016c2.325,0.037 14.092,-0.674 30.536,0.669c-2.421,3.605 -16.045,24.525 -15.287,51.17c-5.366,0.039 -13.056,0.229 -18.422,0.268c-3.393,-0.175 -15.349,1.564 -15.349,1.564c-2.655,-0.263 -31.143,6.816 -32.308,7.259c-3.762,1.433 -28.716,10.516 -30.528,11.423c-7.225,3.614 -19.693,10.445 -27.367,14.539c-5.461,-8.884 -18.236,-29.452 -26.784,-40.435c3.577,-2.167 19.781,-10.542 24.772,-13.425c4.615,-2.371 30.647,-15.115 33.191,-16.008c7.589,-3.493 7.03,-2.645 14.549,-5.7c4.068,-1.653 9.302,-2.811 10.493,-3.295c0.308,-0.132 9.433,-2.359 9.696,-2.396c0.514,-0.072 8.062,-1.39 8.883,-1.626l17.333,-2.58c4.952,-0.597 11.535,-1.506 16.591,-1.426Z" style="fill:#ee874c;fill-opacity:1;"/><path d="M864.838,825.848c0.437,-0.325 2.692,-0.132 27.744,4.741c4.383,0.852 52.985,2.986 58.052,1.072c-0.051,2.06 -0.226,1.93 0.175,3.894c-0.105,0.568 -3.282,15.893 -3.339,16.173c-1.275,2.392 -3.158,7.672 -3.396,8.234c-7.676,12.73 -17.412,30.772 -37.537,41.343c-0.291,1.228 -9.257,5.654 -11.89,6.353c-1.734,0.831 -7.923,4.074 -22.681,7.117c-8.034,1.657 -31.994,-0.325 -34.759,-0.621c0,0 -4.961,-2.292 -5.698,-2.438c-1.249,-1.269 -2.759,-2.694 -2.877,-2.828c-0.375,-0.459 -2.115,-3.827 -2.115,-3.827c0.524,-0.884 1.048,-1.767 1.571,-2.651c0.282,-0.272 11.115,-9.398 15.223,-14.576c0.662,-0.835 10.109,-14.559 12.378,-19.167c2.406,-4.888 6.214,-20.221 6.368,-20.937c0.427,-1.135 1.541,-7.73 2.892,-15.358c0.826,-3.255 2.357,-5.269 -0.111,-6.524Z" style="fill:#ee874c;fill-opacity:0.99;"/><path d="M896.959,395.05c15.539,7.27 15.838,8.496 17.099,9.204c0.842,0.525 10.831,7.501 13.883,11.326c0.379,0.475 3.778,3.886 5.88,6.108c0.436,0.461 6.261,7.289 7.088,9.259c0.513,0.284 3.18,3.966 3.418,4.259c0.729,1.259 7.444,10.085 7.668,10.371c0.08,0.616 4.338,6.653 5.543,8.743c3.804,6.595 5.691,10.563 5.987,11.355c0.525,1.101 2.029,4.116 2.299,4.926c0.422,2.053 6.802,16.689 7.251,17.81c0.588,1.791 1.749,8.025 1.749,8.025c-0.218,1.109 1.715,18.045 -1.649,33.261c-0.281,1.31 -2.245,5.814 -2.532,6.346c-2.361,4.467 -3.44,4.281 -7.442,7.531c-1.485,-0.307 -1.377,-0.069 -2.553,-0.799c-0.909,-0.721 -0.746,-0.823 -1.588,-0.948c-0.556,-0.741 -2.582,-5.596 -2.582,-5.596c-0.229,-0.296 -0.457,-0.593 -0.686,-0.889c-0.305,-1.471 -0.721,-1.15 -8.269,-16.862c-0.038,-1.4 -11.8,-21.906 -14.381,-25.885c-6.325,-11.556 -22.701,-28.737 -28.077,-31.601c-0.896,-0.805 -15.843,-10.342 -17.688,-11.223c-0.523,-0.308 -7.13,-3.662 -7.13,-3.662c-2.362,-23.005 14.337,-47.457 16.711,-51.06Z" style="fill:#ee874c;fill-opacity:0.99;"/><path d="M213.581,403.024c4.164,-2.608 6.774,-4.947 18.033,-8.565c1.157,1.699 1.923,3.399 2.913,4.941c11.755,18.303 12.26,26.377 14.565,45.465c0,-0 -15.142,6.366 -19.549,9.856c0,-0 -7.075,5.425 -7.332,5.686c-8.439,6.786 -11.675,10.059 -14.985,13.85c-7.341,8.406 -21.839,33.616 -23.711,36.959c-1.414,1.932 -3.118,5.093 -3.176,6.456c-7.477,15.741 -7.963,15.39 -8.228,16.868c-1.485,1.348 -2.143,4.923 -3.312,6.474c-0.527,0.316 -2.659,1.441 -4.133,1.745c-4.141,-3.086 -4.251,-2.907 -6.629,-7.394c-0.284,-0.535 -3.062,-5.173 -3.341,-6.474c-3.943,-17.248 -0.742,-30.879 -1.151,-37.937c0.734,-6.316 7.201,-23.258 18.907,-39.825c-0.932,0.753 15.314,-21.931 22.658,-30.636c-0.377,1.058 3.25,-3.827 11.416,-12.163c1.074,-0.536 6.725,-4.851 7.056,-5.304Z" style="fill:#ee874c;fill-opacity:0.99;"/><path d="M812.226,318.119c1.717,-0.784 5.605,-2.147 5.605,-2.147c-0.784,36.425 9.444,39.401 11.43,49.181c0.272,1.341 -0.407,-0.341 0,0c-0.87,0.366 -1.741,0.732 -2.611,1.097c-1.27,-0.144 -1.103,0.022 -2.295,0.5c0,0 -11.392,2.475 -12.917,3.103c-0.537,0.294 -1.075,0.587 -1.612,0.881c-1.6,0.579 -22.254,9.602 -24.958,11.373c-5.334,2.678 -5.014,2.942 -10.379,5.761c-1.397,0.615 -4.088,2.63 -4.913,3.148c-7.377,3.625 -12.043,7.154 -13.014,7.888c-0.04,0.007 -5.321,2.751 -8.023,4.97c-5.148,3.354 -4.643,3.851 -9.73,7.144c-1.35,0.264 -2.719,2.121 -3.245,2.401c-1.611,0.795 -2.063,1.142 -18.207,14.089c-1.553,-2.578 -12.941,-19.355 -23.831,-28.246c0.248,-0.292 38.514,-31.136 40.997,-32.945c4.098,-2.848 15.775,-13.357 40.409,-29.076c1.533,-0.931 2.937,-2.275 3.171,-2.498c0,0 12.414,-6.775 12.98,-7.22c1.752,-0.699 7.289,-3.781 8.086,-4.097c0.544,-0.247 7.625,-3.609 13.056,-5.309Z" style="fill:#ee874c;fill-opacity:1;"/><path d="M787.954,489.854c8.671,-0.199 33.516,-4.59 65.449,2.463c8.326,1.839 15.54,3.14 17.767,3.531l0.707,0.123c0,0 -3.354,-0.173 1.71,0.756c1.962,0.36 4.725,1.809 6.341,1.62c5.757,2.546 12.01,4.867 13.067,5.259c2.035,1.051 1.955,0.932 4.115,1.532c2.202,1.689 2.241,1.242 4.892,2.365c0.765,0.356 1.531,0.711 2.296,1.067c1.65,1.167 1.643,0.937 3.308,2.318l1.253,1.435c-4.445,4.351 -18.147,14.932 -28.201,39.067c-3.178,-1.584 -4.744,-2.563 -5.088,-2.579c-10.425,-6.187 -13.201,-6.517 -14.143,-6.873c-0.817,-0.253 -1.634,-0.505 -2.452,-0.758c-11.069,-4.553 -23.051,-5.394 -25.087,-5.446c-0.574,-0.192 -10.853,-1.243 -11.956,-1.045c-0.154,0.028 -1.49,0 -1.695,0.036c-10.961,-0.031 -10.838,-0.038 -21.695,0.007c-6.245,0.026 -5.62,0.227 -14.582,1.506l-4.539,0.4c-0.33,-1.522 -0.59,-11.632 -17.177,-40.445c5.791,-1.521 22.512,-5.393 23.282,-5.544c0.815,-0.257 1.612,-0.54 2.427,-0.797Z" style="fill:#ee874c;fill-opacity:0.99;"/><path d="M319.781,487.634c0.815,0.26 26.061,2.93 29.865,3.749c2.85,0.614 9.423,2.618 13.653,3.496c-0.534,3.21 -9.14,16.616 -21.815,39.723c-0.868,0.044 -0.699,-0.254 -1.596,-0.208c-0.137,0.007 -7.482,-1.022 -10.567,-0.451c-11.003,-0.041 -10.805,-0.065 -21.69,-0.006c-2.985,-0.327 -2.902,-0.083 -9.751,0.457c-4.947,0.432 -19.488,3.218 -29.156,6.245c-1.268,-0.124 -24.177,11.181 -24.366,11.337c-1.602,-3.496 -26.532,-39.276 -26.532,-39.276c2.27,-1.868 14.631,-9.057 14.631,-9.057c6.737,-2.846 13.652,-5.304 15.477,-6.111c-2.583,-1.256 40.747,-10.939 71.846,-9.898Z" style="fill:#ee874c;fill-opacity:0.99;"/><path d="M329.879,571.324c1.783,12.403 2.029,22.685 3.004,33.034c1.018,10.816 2.831,21.707 8.024,35.174l1.267,-2.413c-0.484,1.067 -5.892,9.969 -10.851,20.255c-0.845,1.729 -4.78,8.229 -5.054,8.762c-4.872,8.401 -9.536,18.095 -10.261,19.497c-6.095,-3.586 -60.176,-24.247 -69.485,-30.202c-0.492,-0.315 -0.146,-1.685 -0.689,-1.902c6.006,-6.921 12.254,-16.129 13.16,-17.466c7.73,-9.745 22.479,-25.699 26.28,-29.441c0.494,-0.31 12.739,-12.762 20.989,-18.529c10.974,-7.67 17.913,-14.132 23.615,-16.769Z" style="fill:#ee874c;fill-opacity:1;"/><path d="M914.801,517.46c0.261,0.32 3.168,3.361 4.139,4.532c0.537,1.456 1.043,1.693 3.562,5.265c0.91,1.291 5.556,8.239 7.109,11.07c2.296,4.187 8.142,16.567 9.643,21.047c0.274,0.817 1.872,5.903 2.36,7.066c0.221,0.37 1.305,3.737 2.341,7.579c5.394,20.004 6.776,28.188 7.196,30.673c0.273,1.617 0.145,2.735 0.148,4.057c0.011,4.307 0.022,8.614 0.033,12.921c-0.615,1.283 -0.124,5.679 -1.529,11.417c-1.312,5.36 -2.079,9.249 -5.792,16.072c-5.778,10.618 -6.153,7.989 -15.378,15.696c-0.588,0.215 -5.129,0.399 -5.129,0.399c-2.858,-1.378 -3.981,-3.175 -4.46,-4.126c0.229,-1.326 -3.063,-27.647 -3.259,-29.854c0.221,-1.299 -0.65,-4.548 -0.764,-5.66c0.143,-1.253 -3.287,-18.607 -3.641,-19.269c-1.005,-3.927 -2.516,-8.382 -3.032,-9.451c-0.126,-0.741 -3.865,-11.873 -6.896,-17.197c-1.908,-4.345 -5.635,-9.904 -12.64,-19.803c-0.509,-0.304 -1.489,-1.98 -1.998,-2.284c-0.006,-1.897 0.061,-1.38 0.061,-1.38c5.914,-15.632 19.794,-35.677 27.926,-38.769Z" style="fill:#ee874d;fill-opacity:0.99;"/><path d="M212.142,517.397l2.444,-1.738c18.373,16.627 28.276,38.193 27.986,38.974c-5.107,6.722 -8.073,10.048 -13.196,19.459c-0.445,0.847 -5.8,11.226 -9.705,21.681c-4.363,11.681 -7.716,30.437 -7.071,29.188c0,-0 -0.555,4.833 -0.783,5.659c-0.605,10.963 -2.282,25.213 -2.539,27.399c0.429,1.36 -4.809,5.795 -5.917,6.062c-1.894,0.457 -4.089,0.787 -4.133,-0.024c-1.488,-1.173 -12.002,-9.459 -16.239,-17.242c-0.355,1.919 -5.81,-16.623 -6.453,-25.952c0.01,-4.307 0.492,-14.921 0.175,-16.98c2.053,-12.096 4.592,-20.775 5.427,-25.072c0.189,-0.348 3.951,-12.754 4.186,-13.311c-1.53,2.42 6.543,-19.433 9.319,-22.971c-1.788,1.058 10.744,-20.231 16.499,-25.132Z" style="fill:#ee874c;fill-opacity:0.99;"/><path d="M795.49,565.674c0.247,0.209 1.985,1.683 3.145,2.539c1.187,0.924 1.088,0.89 2.344,1.684c10.046,7.426 13.531,10.156 13.816,10.396c7.282,6.109 25.134,24.83 25.199,24.894c26.493,26.39 28.274,31.563 33.086,37.754c-11.024,6.651 -39.608,18.147 -60.931,39.439c-1.509,1.507 -2.172,3.057 -4.156,2.505c-0,0 -1.241,-3.042 -1.739,-4.164c-2.43,-7.542 -6.025,-15.838 -7.254,-17.707c-0.257,-0.271 -1.451,-3.187 -3.129,-5.694c-1.898,-2.922 -6.675,-10.513 -7.19,-11.334c-2.501,-3.491 -3.09,-5.042 -3.325,-5.328c24.462,-36.265 3.019,-77.61 3.235,-79.075c0.084,-0.567 6.817,4.659 6.901,4.092Z" style="fill:#ee874c;fill-opacity:1;"/><path d="M301.953,313.085c3.826,0.613 5.418,24.641 -8.299,49.566c-5.702,-1.18 -7.771,-1.547 -13.521,-2.593c-14.898,-2.711 -42.07,0.857 -57.416,6.277c-1.25,-0.247 -27.1,8.091 -30.681,9.687c-1.302,-0.22 -3.922,0.826 -8.811,1.224c-0.509,-0.495 -3.397,-3.408 -3.397,-3.408c-0.345,-0.87 -2.418,-6.097 2.481,-11.429c1.33,-1.535 6.231,-7.343 6.324,-7.434c0.263,-0.273 5.261,-5.269 5.79,-5.561c5.347,-5.267 5.256,-5.108 5.702,-5.563c0.804,-0.202 3.975,-2.612 4.849,-4.036c1.474,-0.621 1.497,-0.408 2.376,-1.751c0.401,-0.299 7.017,-5.319 7.306,-5.538c-1.066,0.173 11.238,-7.356 13.74,-8.052c0.713,-0.136 7.063,-3.374 7.186,-3.439c0.82,-0.267 3.735,-1.515 5.706,-2.398c-1.541,-0.032 2.13,-1.383 6.908,-2.193c2.037,-0.345 25.842,-7.832 53.757,-3.36Z" style="fill:#ee874d;fill-opacity:0.99;"/><path d="M825.229,314.098c27.381,-4.325 61.305,5.335 61.353,5.342c2.022,0.895 7.103,2.545 10.422,4.269c1,1.276 9.319,5.148 10.188,5.852c1.962,1.053 4.172,2.601 4.459,2.825c0.518,0.318 7.306,5.36 7.435,5.441c1.805,1.136 7.48,6.296 8.39,6.493c0.382,0.388 3.337,3.47 4.372,4.235c0.13,0.112 2.203,1.902 2.5,2.413c0.275,0.265 0.55,0.53 0.826,0.795c0.273,0.258 0.546,0.517 0.819,0.775c0.749,0.699 2.125,1.94 2.452,2.424c0.263,0.274 0.525,0.548 0.788,0.821c0.483,0.321 4.097,5.07 5.597,6.561c0.245,0.289 0.49,0.578 0.735,0.867c4.877,5.395 2.822,10.564 2.476,11.434l-3.398,3.41c-4.906,-0.395 -4.846,-0.171 -6.507,-0.804c-1.203,-0.475 -17.431,-6.185 -18.565,-6.539c-1.25,-0.599 -3.515,-1.355 -4.036,-1.668c-1.596,-0.49 -46.77,-12.493 -79.712,-5.729c-2.698,-5.395 -2.95,-4.957 -3.172,-5.429c-9.45,-20.041 -7.593,-42.949 -7.42,-43.79Z" style="fill:#ee874d;fill-opacity:0.99;"/><path d="M407.922,294.535c0.116,0.205 5.002,9.734 5.69,10.476c0.019,1.445 3.804,7.347 6.22,10.632c0.244,0.917 4.642,8.163 9.497,12.838c0.034,0.033 0.066,0.068 0.094,0.105c12.278,15.931 30.105,30.835 30.857,31.348c0.504,0.404 1.309,0.893 6.54,4.42c-18.914,13.86 -18.265,14.312 -27.539,22.487l-1.841,-0.694c-1.553,-0.819 -5.043,-3.585 -6.369,-4.178c-0.069,-0.319 -4.34,-3.518 -4.867,-4.067c-0.57,-0.588 -5.959,-6.152 -7.331,-7.151c-0.519,-0.306 -9.338,-7.922 -14.485,-12.205c-2.747,-2.286 -8.075,-8.728 -11.4,-11.253c-1.056,-1.04 -6.599,-6.019 -8.753,-8.169c-1.22,-1.79 -1.202,-1.636 -2.53,-3.171c-3.053,-3.06 -6.137,-7.566 -6.442,-8.08c-3.245,-5.368 -4.272,-6.825 -6.029,-12.451c3.752,-1.388 29.8,-13.731 38.688,-20.888Z" style="fill:#ee874c;fill-opacity:0.99;"/><path d="M381.793,221.937c1.748,-0.899 8.148,-6.628 9.65,0.883c0.425,2.125 0.523,1.926 1.092,4.021c0.452,26.35 8.184,51.954 11.289,58.107c0.209,0.506 0.553,2.435 1.427,5.085c-17.89,17.874 -28.321,18.455 -38.821,21.072c-4.265,-8.239 -4.37,-10.166 -6.547,-15.595c-0.728,-2.68 -1.021,-3.129 -1.177,-3.368c-0.159,-0.244 -0.829,-4.394 -1.257,-5.533c-2.957,-11.319 -1.138,-20.112 -0.785,-21.823c0.444,-1.182 1.503,-6.098 3.159,-9.784c0.759,-1.333 0.41,-1.329 1.776,-5.247c0.329,-0.78 9.474,-16.356 9.578,-16.562c0.069,-0.082 4.631,-5.121 4.97,-5.597c0.457,-0.447 0.396,-0.467 5.645,-5.659Z" style="fill:#ee874c;fill-opacity:0.99;"/><path d="M738.019,220.518c3.835,-2.89 14.798,8.938 15.327,9.492c0.334,0.472 9.082,14.307 9.364,15.113c0.682,1.374 1.113,1.187 5.341,10.684c1.658,3.723 2.714,8.611 3.147,9.787c0.355,1.71 2.179,10.496 -0.778,21.823c-0.434,1.14 -2.899,10.647 -3.062,10.893c-0.158,0.238 -2.307,5.977 -5.463,12.776c-24.245,-4.932 -34.17,-15.388 -38.922,-21.789c0.272,-0.795 0.793,-2.746 1.065,-3.541c1.75,-3.585 2.849,-8.247 3.023,-8.985c0.201,-1.411 7.804,-22.605 8.271,-49.12c0.374,-1.604 0.748,-3.208 1.123,-4.812c1.451,-2.147 1.385,-2.185 1.564,-2.32Z" style="fill:#ee874c;fill-opacity:0.99;"/><path d="M810.201,800.349c3.123,1.184 23.44,15.141 49.692,23.843c1.296,0.43 2.739,0.513 3.915,1.206c0.59,0.347 1.12,0.19 1.71,0.537c-5.474,8.198 -3.874,6.643 -7.868,11.513c-0.305,0.04 0.828,0.507 -13.973,11.256c-7.87,5.716 -14.443,8.005 -16.012,8.949c-0.531,0.288 -13.024,5.452 -13.024,5.452c-1.892,0.704 -10.187,2.797 -10.756,2.903c-3.224,0.6 -2.645,0.529 -11.05,1.288c-7.134,-2.599 -8.543,-4.901 -9.748,-11.505c1.864,-2.085 6.076,-8.84 6.57,-9.632c4.914,-7.882 10.158,-18.185 10.209,-18.681c0.122,-0.264 6.727,-17.029 7.103,-17.848c0.088,-0.519 3.233,-9.281 3.233,-9.281Z" style="fill:#ee874c;fill-opacity:0.99;"/><path d="M311.884,787.1c2.102,5.827 2.688,6.791 3.017,7.333c-11.69,8.403 -30.968,19.27 -49.41,23.848c-6.774,1.682 -55.619,13.808 -86.288,12.915c-0.146,-0.004 -0,0 -1.782,-0.414l-0.043,-10.473c9.054,0.687 8.93,1.202 17.954,0.451c76.993,-6.408 102.567,-25.466 116.552,-33.66Z" style="fill:#c7703e;fill-opacity:1;"/><path d="M811.069,793.587c17.983,8.297 52,29.556 114.18,33.173c8.257,0.48 23.63,-0.645 26.215,0.351c-0.275,1.35 -0.9,9.751 -1.29,9.776c-28.879,1.921 -53.633,-3.697 -58.024,-4.506c-25.216,-4.645 -32.179,-7.73 -33.475,-8.16c-26.253,-8.702 -46.115,-20.613 -49.238,-21.797c-0.07,-0.463 -0.141,-0.925 -0.211,-1.388c1.136,-2.812 0.836,-2.701 1.299,-5.777c0.181,-0.558 0.363,-1.116 0.544,-1.674Z" style="fill:#c7703e;fill-opacity:1;"/><path d="M675.771,741.153c10.53,30.129 -28.205,43.492 -34.104,7.894c10.36,-28.056 28.307,-14.271 34.104,-7.894Z" style="fill-opacity:1;"/><path d="M453.89,738.236c11.964,-15.89 31.704,-15.263 34.842,10.781c-9.022,26.875 -39.964,19.918 -35.104,-10.374l0.262,-0.407Z" style="fill-opacity:1;"/><path d="M872.353,641.536c6.966,8.188 6.927,8.07 6.981,8.304c-35.532,18.454 -36.649,16.944 -66.67,43.33c-0.19,0.167 -1.528,1.886 -1.658,2.052l-0.501,-0.883c-0.628,-2.981 -0.528,-2.829 -0.768,-3.21c-0.187,-1.83 -0.062,-1.712 -0.893,-3.212l-0.385,-0.145c0.216,-1.263 0.087,-1.132 -0.445,-2.258c-0.107,-0.75 -0.001,-1.216 -0.092,-1.398c1.984,0.553 -1.509,1.507 -0,-0c21.323,-21.292 53.407,-35.928 64.431,-42.579Z" style="fill:#c7703e;fill-opacity:1;"/><path d="M246.78,652.147c0.543,0.217 0.51,1.185 1.053,1.402c10.435,4.173 12.626,-0.822 56.307,24.99c5.976,3.531 5.773,3.508 11.869,7.094c-3.122,6.392 -2.719,6.461 -3.006,6.998c-0.475,1.1 -0.565,0.849 -1.005,1.862c-1.365,-1.601 -1.224,-1.509 -1.365,-1.601c-40.289,-26.064 -59.016,-27.784 -71.187,-31.129c3.771,-4.927 3.429,-4.971 7.335,-9.617Z" style="fill:#c7703e;fill-opacity:1;"/><path d="M238.994,392.519c2.558,3.497 16.922,23.138 16.103,51.711l-0.896,0.27c-1.212,-0.136 -5.086,1.128 -7.086,1.38c-2.499,-20.695 -2.172,-29.32 -17.072,-51.195c0.782,-0.088 4.568,-1.086 5.68,-1.497c1.091,-0.223 2.181,-0.446 3.272,-0.668Z" style="fill:#c7703e;fill-opacity:1;"/><path d="M888.915,393.188c3.195,1.139 3.381,0.439 6.696,1.216c1.258,0.467 0.81,0.919 2.233,1.014c-2.374,3.603 -18.71,28.398 -16.348,51.403c-2.399,-0.705 -6.174,-1.785 -7.827,-1.512l-0.899,-0.302c-0.758,-26.646 13.725,-48.214 16.145,-51.819Z" style="fill:#c7703e;fill-opacity:1;"/><path d="M907.684,511.618c0.83,0.75 -0.077,-0.046 -0,0c0.649,0.391 1.538,0.615 2.235,1.035c0.275,0.309 0.332,0.108 4.001,3.271c0.536,0.538 1.073,1.076 1.609,1.614l0.205,0.66c-8.132,3.092 -22.65,24.169 -28.564,39.802c-0.572,-0.65 -6.717,-6.609 -7.305,-7.179c10.054,-24.136 23.374,-34.853 27.82,-39.204Z" style="fill:#c7703e;fill-opacity:1;"/><path d="M220.206,510.84c14.431,9.984 26.218,35.709 27.82,39.205c-6.877,6.67 -6.753,6.571 -7.345,7.138c-10.932,-22.087 -9.503,-23.302 -27.876,-39.929c0.132,-0.138 -0.158,-0.228 1.19,-2.068c2.13,-1.669 2.048,-1.497 3.94,-3.36c0.722,-0.426 0.777,0.154 1.439,-0.237c0.077,-0.046 0,-0 0.831,-0.751Z" style="fill:#c7703e;fill-opacity:1;"/><path d="M787.258,560.061c1.568,0.895 6.463,4.162 7.031,4.63c-0.084,0.567 0.578,0.451 0.494,1.018c-0.12,0.813 2.995,12.937 3.146,29.922c0.121,13.626 -1.05,30.442 -11.939,46.584c-1.329,-1.12 -1.464,-1.461 -3.027,-2.018c5.394,-15.893 9.742,-23.003 9.42,-54.937c-0.05,-4.927 -0.932,-3.564 -5.125,-25.201Z" style="fill:#c7703e;fill-opacity:1;"/><path d="M301.953,313.085c0.395,0.129 6.354,1.305 7.257,1.688c0.556,0.206 1.113,0.412 1.669,0.618c0.391,17.377 -1.994,26.886 -4.246,33.432c-3.263,9.483 -7.065,15.203 -7.284,15.682c-0.38,-0.079 -0.239,0.23 -0.536,0.168c-0.082,-0.017 0,0 -0.951,-0.428c-1.193,-0.484 -1.075,-0.588 -2.284,-0.403c-2.205,-0.795 -2.053,-0.718 -4.149,-1.34c12.763,-25.265 10.375,-38.468 10.522,-49.416Z" style="fill:#c7703e;fill-opacity:0.99;"/><path d="M825.914,313.895c-0.173,0.841 -1.84,23.555 7.61,43.596c0.222,0.471 0.216,0.432 2.913,5.826c-2.223,0.664 -2.095,0.605 -4.146,1.345c-1.317,-0.256 -1.178,-0.077 -2.287,0.4l-0.743,0.092c-0.407,-0.341 -1.136,-0.829 -1.249,-1.046c-1.082,-2.089 -11.592,-11.666 -10.937,-48.005c0.558,-0.199 1.023,-0.325 1.581,-0.524c0.131,-0.055 1.103,-0.458 1.674,-0.599c2.778,-0.681 2.736,-0.349 5.584,-1.085Z" style="fill:#c7703e;fill-opacity:0.99;"/><path d="M335.151,567.872c0.192,-2.549 -3.649,11.724 1.076,40.191c1.402,8.45 3.559,18.15 6.8,29.033c-1.288,0.106 -1.056,0.295 -1.765,1.385c-0.119,0.35 -0.237,0.7 -0.356,1.05c-11.607,-16.966 -14.377,-48.507 -11.599,-67.86c0.28,-0.157 -0.753,0.271 2.404,-1.82c1.009,-0.805 3.355,-0.847 3.44,-1.98Z" style="fill:#c7703e;fill-opacity:1;"/><path d="M723.223,288.141c4.751,6.402 14.992,17.09 39.237,22.022c-1.192,2.311 -1,2.26 -2.156,4.561c-0.929,1.851 -0.961,1.626 -1.913,3.497c-19.186,-7.289 -25.878,-9.252 -38.58,-22.119l0.344,-1.44c2.065,-3.01 1.47,-3.188 3.068,-6.521Z" style="fill:#c7703e;fill-opacity:1;"/><path d="M404.868,288.046c1.889,3.168 1.354,3.288 3.054,6.489c-5.542,11.434 -28.176,19.161 -30.972,20.116c-3.875,1.323 -3.742,1.384 -7.494,2.771c-0.133,-0.289 -0.963,-2.089 -1.872,-3.506c-1.19,-2.304 -0.998,-2.22 -2.198,-4.549c10.5,-2.618 21.592,-3.446 39.482,-21.321Z" style="fill:#c7703e;fill-opacity:1;"/><path d="M401.371,437.353c0.724,0.226 1.893,1.45 2.617,1.676c-2.707,4.119 -10.226,16.123 -16.552,26.013c-5.518,8.626 -10.129,15.644 -9.849,14.419c-1.339,-0.712 -2.675,-1.318 -3.968,-1.99c1.972,-3.368 21.322,-36.415 27.753,-40.117Z" style="fill:#c7703e;fill-opacity:1;"/><path d="M363.299,494.878l0.77,0.154c1.557,0.312 2.014,0.888 3.706,0.937c-1.523,2.988 -5.276,9.497 -21.177,38.412c-0.062,0.113 -0.507,0.088 -2.073,0.468c-0.238,-0.055 -0.182,0.096 -3.041,-0.248c11.091,-24.401 20.225,-37.368 21.815,-39.723Z" style="fill:#c7703e;fill-opacity:1;"/><path d="M764.546,495.597c16.587,28.813 17.65,39.356 17.98,40.878c-0,-0 -2.504,0.385 -2.993,0.408c-2.845,-3.648 -17.845,-36.245 -18.223,-40.567c1.482,-0.779 2.365,-0.6 3.236,-0.72Z" style="fill:#c7703e;fill-opacity:1;"/><path d="M693.641,398.996c6.842,5.5 8.617,8.114 12.569,12.928c6.279,7.647 12.541,16.132 11.581,14.856c-1.12,0.963 -1.126,1.756 -1.723,3.07c-0.952,-0.914 -7.071,-8.425 -12.91,-15.417c-5.58,-6.682 -11.279,-12.506 -11.793,-13.645c0.457,-0.221 1.533,-1.163 1.99,-1.384l0.286,-0.407Z" style="fill:#c7703e;fill-opacity:1;"/><path d="M726.209,438.317c2.023,-0.807 24.753,31.975 27.463,39.546c0.434,1.211 -1.431,0.68 -2.138,2.563c-2.204,-2.563 -26.66,-38.042 -27.904,-41.384c0.541,-0.317 2.038,-0.408 2.579,-0.725Z" style="fill:#c7703e;fill-opacity:1;"/><path d="M408.831,425.284c7.383,-13.678 22.015,-31.12 23.307,-28.995c0.092,0.152 2.498,0.206 1.881,0.898c-10.522,11.81 -14.008,18.546 -23.182,30.706c-0.709,-1.254 -0.877,-1.555 -2.007,-2.608Z" style="fill:#c7703e;fill-opacity:1;"/><path d="M465.989,363.822c2.044,1.033 1.991,0.954 3.986,1.706c-4.502,3.898 -8.681,4.751 -18.361,12.999c-5.768,4.915 -5.038,5.178 -10.982,10.016c-1.124,-1.207 -1.103,-1.414 -2.471,-2.237c8.634,-8.572 7.935,-9.231 27.829,-22.484Z" style="fill:#c7703e;fill-opacity:1;"/><path d="M655.345,366.77c0.396,-0.597 7.807,4.328 16.762,11c3.935,2.931 12.169,10.522 13.249,11.747c-0.235,0.294 0.224,1.078 -1.331,2.033c-0.931,0.571 -2.421,-1.728 -12.396,-9.963c-4.47,-3.69 -20.887,-15.063 -17.636,-14.371" style="fill:#c7703e;"/></g></svg>