<?xml version="1.0" encoding="UTF-8" standalone="no"?><!DOCTYPE svg PUBLIC "-//W3C//DTD SVG 1.1//EN" "http://www.w3.org/Graphics/SVG/1.1/DTD/svg11.dtd"><svg width="100%" height="100%" viewBox="0 0 240 240" version="1.1" xmlns="http://www.w3.org/2000/svg" xmlns:xlink="http://www.w3.org/1999/xlink" xml:space="preserve" xmlns:serif="http://www.serif.com/" style="fill-rule:evenodd;clip-rule:evenodd;stroke-linejoin:round;stroke-miterlimit:2;"><path d="M117.642,80.073c45.066,0 82.019,34.88 82.019,74.653c0,39.773 -37.163,67.85 -82.229,67.85c-45.066,0 -83.39,-31.982 -83.39,-71.755c0,-39.773 38.534,-70.748 83.6,-70.748Z" style="fill:#4a933e;"/><path d="M217.207,44.818l0,40.992c0,11.312 -9.184,20.496 -20.496,20.496l-156.051,0c-11.312,0 -20.496,-9.184 -20.496,-20.496l0,-40.992c0,-11.312 9.184,-20.496 20.496,-20.496l156.051,0c11.312,0 20.496,9.184 20.496,20.496Z" style="fill:#d788b0;fill-opacity:0.71;"/><path d="M45.391,67.902c-9.201,-0.024 -16.362,11.411 -18.473,29.987c-0.53,4.663 -0.22,19.608 1.146,27.413c3.226,18.424 10.907,33.047 17.017,37.483c5.013,3.639 22.9,-3.461 26.513,-12.021c2.226,-5.275 2.32,-11.001 1.76,-14.713c-2.148,-14.246 -5.965,-41.215 -11.507,-53.174c-3.143,-6.783 -9.812,-14.957 -16.457,-14.975Z" style="fill:#4a933e;"/><path d="M191.251,66.271c9.201,-0.089 16.443,11.294 18.686,29.855c0.563,4.659 0.36,19.606 -0.951,27.42c-3.095,18.447 -10.671,33.124 -16.75,37.603c-4.987,3.675 -22.924,-3.298 -26.598,-11.832c-2.264,-5.259 -2.398,-10.984 -1.865,-14.7c2.046,-14.261 5.671,-41.256 11.128,-53.255c3.095,-6.805 9.705,-15.027 16.35,-15.092Z" style="fill:#4a933e;"/><path d="M77.908,57.722c13.985,1.059 24.502,12.965 23.472,26.57c-1.031,13.605 -11.999,24.957 -25.984,23.897c-8.604,-0.652 -12.039,0.894 -16.45,-5.637c-0.8,-1.184 -9.832,-13.155 -7.145,-23.918c3.072,-12.305 12.123,-21.972 26.108,-20.912Z" style="fill:#509e43;"/><path d="M157.124,57.725c-13.985,1.059 -24.502,12.965 -23.472,26.57c1.031,13.605 11.999,24.957 25.984,23.897c8.604,-0.652 11.126,1.248 15.537,-5.284c0.8,-1.184 10.745,-13.508 8.058,-24.272c-3.072,-12.305 -12.123,-21.972 -26.108,-20.912Z" style="fill:#509e43;"/><ellipse cx="117.905" cy="133.221" rx="77.806" ry="69.266" style="fill:#509e43;"/></svg>