<?xml version="1.0" encoding="UTF-8" standalone="no"?><!DOCTYPE svg PUBLIC "-//W3C//DTD SVG 1.1//EN" "http://www.w3.org/Graphics/SVG/1.1/DTD/svg11.dtd"><svg width="100%" height="100%" viewBox="0 0 1000 1000" version="1.1" xmlns="http://www.w3.org/2000/svg" xmlns:xlink="http://www.w3.org/1999/xlink" xml:space="preserve" xmlns:serif="http://www.serif.com/" style="fill-rule:evenodd;clip-rule:evenodd;stroke-linecap:round;stroke-linejoin:round;stroke-miterlimit:1.5;"><g><path d="M922.064,67.897l0.253,250.101c0.023,22.472 -18.203,40.735 -40.676,40.758l-489.352,0.494c-22.472,0.023 -40.735,-18.203 -40.758,-40.676l-0.253,-250.101c-0.023,-22.472 18.203,-40.735 40.676,-40.758l489.352,-0.494c22.472,-0.023 40.735,18.203 40.758,40.676Z" style="fill:#ebb2a3;"/><path d="M607.074,285.997c3.206,-0.263 6.639,-0.583 10.059,-0.911c1.524,-0.146 3.046,-0.294 4.544,-0.438c-6.317,-0.485 -13.05,-1.006 -18.595,-1.35c-0.536,0.055 -1.06,0.106 -1.572,0.155c-3.829,0.364 -6.955,0.549 -8.838,0.388c-1.043,-0.089 -1.776,-0.317 -2.175,-0.592l-0.297,-0.261l-0.211,-0.333l-0.096,-0.444l0.023,-0.253l0.075,-0.235l0.132,-0.228l0.216,-0.225l0.29,-0.181l0.353,-0.126c0.906,-0.24 3.772,-0.242 7.738,-0.053c1.321,0.063 2.768,0.144 4.309,0.24c3.201,-0.326 6.804,-0.742 10.53,-1.155c-3.439,-0.212 -6.786,-0.412 -9.803,-0.576c-5.237,0.192 -9.484,0.26 -11.488,0.107c-0.918,-0.07 -1.494,-0.255 -1.702,-0.394l-0.214,-0.18l-0.152,-0.199l-0.107,-0.23l-0.056,-0.276l0.016,-0.292l0.086,-0.266l0.151,-0.24l0.225,-0.21c0.156,-0.112 0.62,-0.29 1.391,-0.336c1.804,-0.107 6.269,0.071 11.868,0.375c7.663,-0.282 17.46,-0.832 25.421,-1.34c-6.929,-0.309 -15.287,-0.576 -22.197,-0.678c-3.777,0.437 -7.151,0.774 -9.634,0.873c-2.127,0.085 -3.663,-0.041 -4.368,-0.341l-0.318,-0.17l-0.272,-0.245l-0.189,-0.317l-0.075,-0.311l0.005,-0.26l0.061,-0.243l0.12,-0.234l0.198,-0.228l0.397,-0.245c0.11,-0.046 0.258,-0.093 0.446,-0.133c1.444,-0.311 6.752,-0.368 13.4,-0.276c2.239,-0.259 4.623,-0.555 7.046,-0.856c-2.085,-0.126 -4.133,-0.252 -6.074,-0.371c-4.035,0.288 -8.025,0.297 -11.75,-0.235c-1.511,-0.216 -2.263,-0.424 -2.408,-0.51l-0.194,-0.144l-0.182,-0.217l-0.116,-0.244l-0.047,-0.215l0.028,-0.398l0.146,-0.326l0.167,-0.196l0.205,-0.15l0.387,-0.139c0.215,-0.041 0.864,-0.058 1.863,-0.027c2.3,0.073 6.723,0.338 11.917,0.657c3.519,-0.259 7.072,-0.734 10.504,-1.234c0.448,-0.065 0.893,-0.131 1.336,-0.197c-9.318,-0.424 -19.44,-0.925 -23.478,-1.139c-0.606,-0.032 -1.092,-0.065 -1.44,-0.092c-0.19,-0.008 -0.294,-0.011 -0.294,-0.011c0,0 0.003,-0.004 0.009,-0.012c-0.215,-0.018 -0.332,-0.031 -0.342,-0.034l-0.231,-0.102l-0.241,-0.194l-0.165,-0.234l-0.092,-0.246l-0.029,-0.235l0.024,-0.242l0.167,-0.384l0.226,-0.237l0.299,-0.162l0.364,-0.061c0.098,-0 0.735,0.024 2.024,0.083c6.271,0.283 14.837,-0.03 22.354,-0.459c-8.381,-0.428 -16.973,-0.883 -19.056,-1.085c-0.436,-0.042 -0.695,-0.11 -0.764,-0.138l-0.377,-0.254l-0.179,-0.248l-0.098,-0.268l-0.025,-0.273l0.046,-0.271l0.089,-0.211l0.159,-0.216l0.253,-0.198l0.275,-0.11c0.123,-0.031 0.852,-0.07 2.327,-0.048c11.884,0.177 19.035,0.005 23.224,-0.325c0.904,-0.071 1.661,-0.147 2.291,-0.226c-4.469,0.117 -19.452,0.467 -22.672,-0.021c-0.365,-0.055 -0.628,-0.132 -0.784,-0.202l-0.271,-0.159l-0.234,-0.233l-0.122,-0.201l-0.087,-0.264l-0.018,-0.298l0.055,-0.276l0.221,-0.394l0.331,-0.286c0.293,-0.184 1.016,-0.405 2.066,-0.567c2.275,-0.35 6.386,-0.631 10.318,-0.815c-0.03,-0.115 -0.041,-0.237 -0.03,-0.362c0.052,-0.589 0.573,-1.025 1.162,-0.973c0,0 5.095,0.452 7.459,0.776c0.739,0.102 1.26,0.221 1.419,0.291l0.346,0.231l0.248,0.363l0.066,0.221l0.016,0.258l-0.046,0.257l-0.093,0.217l-0.236,0.287l-0.047,0.03c1.322,-0.034 2.131,-0.058 2.131,-0.058c0.1,-0.003 0.2,0.008 0.297,0.033c-0,0 1.409,0.379 2.094,0.866c0.132,0.094 0.246,0.193 0.338,0.292l0.221,0.296l0.147,0.352l0.041,0.445l-0.113,0.444l-0.219,0.347c-0.152,0.18 -0.399,0.385 -0.805,0.563c-0.534,0.235 -1.503,0.482 -3.116,0.683c3.141,0.159 5.846,0.297 7.615,0.393c1.294,0.07 2.105,0.121 2.254,0.14l0.368,0.11l0.255,0.18l0.262,0.391l0.06,0.223l0.009,0.252l-0.075,0.316l-0.201,0.318l-0.252,0.204l-0.231,0.101l-0.235,0.044c-0.071,0.006 -0.454,0.003 -1.2,-0.021c-0.605,0.054 -5.319,0.474 -11.585,0.893c2.997,0.132 5.777,0.248 8.075,0.334c1.976,-0.141 3.783,-0.165 5.368,-0.008c0.56,0.055 0.897,0.103 1.036,0.134l0.397,0.16l0.31,0.297l0.15,0.314l0.042,0.31l-0.051,0.317l-0.092,0.209l-0.161,0.214l-0.255,0.195l-0.279,0.108c-0.205,0.05 -1.788,0.055 -4.258,-0.027c-0.688,-0.023 -1.45,-0.05 -2.273,-0.081c-3.642,0.27 -7.875,0.955 -12.347,1.62c2.181,0.125 4.33,0.242 6.369,0.344c3.732,-0.392 7.094,-0.666 9.628,-0.692c2.2,-0.023 3.829,0.173 4.652,0.558c0.14,0.066 0.25,0.131 0.335,0.19l0.258,0.229l0.182,0.272l0.094,0.273l0.01,0.418l-0.132,0.38l-0.27,0.327l-0.223,0.153l-0.27,0.118c-0.526,0.18 -2.046,0.284 -4.25,0.268c-2.528,-0.019 -6.034,-0.154 -9.953,-0.349c-1.512,0.16 -3.084,0.339 -4.686,0.529c7.56,0.258 14.709,0.602 18.65,0.916c1.909,0.152 3.132,0.341 3.421,0.468l0.222,0.125l0.224,0.207l0.162,0.264l0.075,0.255l-0.011,0.415l-0.073,0.22l-0.15,0.24l-0.237,0.217l-0.237,0.127c-0.139,0.056 -0.459,0.134 -0.985,0.182c-2.978,0.271 -10.706,0.811 -19.297,1.318c1.282,0.079 2.545,0.156 3.776,0.231c6.35,-0.48 12.06,-0.61 15.636,0.112c0.917,0.185 1.459,0.353 1.68,0.466l0.316,0.217l0.191,0.229l0.162,0.431l-0.008,0.38l-0.086,0.26l-0.123,0.2l-0.345,0.299l-0.349,0.139c-0.094,0.025 -0.22,0.049 -0.377,0.067c-0.396,0.046 -1.093,0.065 -2.04,0.054c-2.95,-0.034 -8.498,-0.338 -14.872,-0.723c-3.832,0.299 -7.9,0.728 -11.865,1.171c6.038,0.455 12.216,0.945 17.201,1.295c1.024,0.072 2.03,0.132 2.986,0.183c1.276,-0.088 2.427,-0.153 3.423,-0.187c1.498,-0.052 2.659,-0.034 3.386,0.064c0.456,0.061 0.79,0.166 1.002,0.276l0.381,0.28l0.223,0.338l0.09,0.422l-0.094,0.465l-0.168,0.27l-0.249,0.221l-0.277,0.137l-0.286,0.076c-0.759,0.142 -3.579,0.043 -7.549,-0.205c-3.783,0.266 -8.626,0.731 -13.709,1.222c6.302,0.408 12.236,0.826 16.259,1.106c1.446,0.009 2.741,0.062 3.842,0.171c0.92,0.091 1.397,0.151 1.494,0.173l0.303,0.116l0.304,0.254l0.189,0.342l0.055,0.357l-0.052,0.313l-0.12,0.252l-0.183,0.214l-0.296,0.189l-0.272,0.076l-0.228,0.013c-0.379,-0.004 -2.296,-0.134 -5.185,-0.336c-3.162,-0.019 -7.054,0.181 -11.209,0.482c7.028,0.274 12.91,0.548 14.823,0.655c0.499,0.028 0.782,0.058 0.817,0.066l0.403,0.179l0.212,0.202l0.162,0.285l0.06,0.231l0.005,0.26l-0.151,0.448l-0.313,0.328l-0.419,0.17c-0.024,0.004 -0.163,0.021 -0.428,0.014c-1.473,-0.038 -7.294,0.382 -14.369,0.896c6.272,0.201 11.331,0.377 12.678,0.427c0.152,0.006 0.262,0.01 0.328,0.013c0.042,0.002 0.065,0.003 0.07,0.003l0.438,0.133l0.325,0.279l-0.846,1.727l-0.009,0.001c-0.005,-0 -0.022,-0.001 -0.051,-0.002c-0.073,-0.002 -0.225,-0.007 -0.461,-0.015c-2.359,-0.08 -8.858,0.59 -16.094,1.379c5.196,0.167 9.69,0.325 11.815,0.378c0.607,-0.032 1.048,-0.037 1.289,-0.009l0.4,0.092l0.234,0.131l0.301,0.343l0.097,0.237l0.038,0.299l-0.063,0.349l-0.138,0.262l-0.31,0.289l-0.311,0.13c-0.056,0.014 -0.362,0.044 -0.884,0.036c-0.251,-0.004 -0.575,-0.011 -0.963,-0.022c-1.991,0.115 -5.685,0.512 -9.891,0.983c3.059,0.106 5.471,0.207 6.413,0.271c0.476,0.032 0.745,0.115 0.791,0.135l0.235,0.145l0.164,0.165l0.153,0.26l0.069,0.249l-0.015,0.4l-0.072,0.21l-0.143,0.229l-0.195,0.185l-0.194,0.114l-0.243,0.078l-0.272,0.029c-1.146,0.05 -5.779,0.765 -10.725,1.399c1.602,0.19 2.918,0.339 3.623,0.398c0.187,-0.063 0.394,-0.075 0.6,-0.023l0.372,0.124l0.25,0.162l0.271,0.351l0.083,0.238l0.023,0.303l-0.067,0.309l-0.133,0.247l-0.186,0.2l-0.219,0.141l-0.474,0.115c-0.434,0.02 -3.17,-0.289 -6.402,-0.678c-2.586,-0.312 -5.8,-0.664 -8.144,-0.916c-1.402,0.032 -2.524,-0.025 -3.208,-0.197c-0.363,-0.091 -0.572,-0.181 -0.656,-0.229l-0.266,-0.207l-0.178,-0.249l-0.086,-0.225l-0.035,-0.292l0.051,-0.311l0.123,-0.26l0.164,-0.197l0.211,-0.156l0.398,-0.137c0.284,-0.045 1.832,0.091 3.922,0.315c0.877,-0.037 1.865,-0.108 2.921,-0.199c1.422,-0.123 2.958,-0.287 4.513,-0.471c-4.028,-0.075 -8.211,-0.136 -11.269,-0.176c-2.61,0.187 -4.492,0.225 -5.089,0.058l-0.354,-0.142l-0.296,-0.238l-0.191,-0.304l-0.08,-0.315l0.007,-0.267l0.066,-0.245l0.124,-0.227l0.191,-0.206l0.387,-0.215c0.091,-0.031 0.238,-0.067 0.441,-0.092c0.79,-0.096 3.179,-0.108 6.277,-0.07c0.513,-0.047 1.048,-0.097 1.601,-0.149c2.691,-0.255 5.79,-0.587 8.897,-0.928c-4.048,-0.123 -8.237,-0.235 -11.882,-0.296c-2.2,0.209 -4.187,0.376 -5.824,0.476c-1.833,0.112 -3.246,0.137 -4.064,0.056c-0.584,-0.058 -0.972,-0.206 -1.169,-0.337l-0.269,-0.239l-0.199,-0.344l-0.066,-0.44l0.112,-0.433l0.184,-0.27l0.251,-0.208c0.147,-0.092 0.475,-0.22 0.988,-0.285c1.421,-0.181 5.22,-0.189 9.926,-0.112c4.391,-0.415 9.633,-0.995 14.645,-1.542c-5.948,-0.184 -12.323,-0.365 -17.387,-0.471c-4.763,0.242 -8.423,0.327 -9.671,0.1l-0.57,-0.177l-0.198,-0.135l-0.187,-0.205l-0.168,-0.368l-0.028,-0.336l0.074,-0.323l0.204,-0.327l0.187,-0.164l0.27,-0.139c0.098,-0.036 0.317,-0.087 0.655,-0.111c1.198,-0.085 4.992,-0.045 9.904,0.06c5.024,-0.264 11.255,-0.703 17.158,-1.135c-4.581,-0.168 -9.396,-0.323 -13.756,-0.424c-3.899,0.346 -7.406,0.629 -10.075,0.736c-1.918,0.077 -3.423,0.061 -4.364,-0.072c-0.562,-0.079 -0.973,-0.215 -1.23,-0.362l-0.408,-0.346l-0.191,-0.361l-0.052,-0.285l0.025,-0.304l0.096,-0.267l0.129,-0.201l0.229,-0.219l0.27,-0.155c0.163,-0.072 0.436,-0.15 0.816,-0.206c1.892,-0.276 7.693,-0.253 14.645,-0.094c3.787,-0.334 7.942,-0.727 12.06,-1.078c-4.353,-0.282 -8.837,-0.556 -12.947,-0.773c-4.638,0.379 -8.808,0.638 -11.794,0.629c-2.413,-0.007 -4.124,-0.241 -4.845,-0.628l-0.329,-0.222l-0.259,-0.301l-0.146,-0.347l-0.032,-0.303l0.105,-0.449l0.122,-0.206l0.194,-0.207l0.407,-0.239c0.121,-0.048 0.282,-0.096 0.485,-0.135c1.713,-0.33 8.151,-0.131 15.927,0.272Zm32.896,10.883l0.722,-0.282l-0.246,0.17l-0.24,0.086l-0.236,0.026Zm-0.003,0l0.003,-0l-0.003,0.001l0,-0.001Z" style="fill:#846262;"/><clipPath id="_clip1"><path d="M922.02,25.793l0.069,68.297l-570.744,0.576l-0.069,-68.297l570.744,-0.576Z"/></clipPath><g clip-path="url(#_clip1)"><path d="M922.044,50.248l0.501,496.32c0.014,13.497 -10.933,24.467 -24.431,24.48l-521.833,0.527c-13.497,0.014 -24.467,-10.933 -24.48,-24.431l-0.501,-496.32c-0.014,-13.497 10.933,-24.467 24.431,-24.48l521.833,-0.527c13.497,-0.014 24.467,10.933 24.48,24.431Z" style="fill:#ea8a72;"/></g><clipPath id="_clip2"><path d="M922.274,362.063l0.042,-42.02l-571.082,-0.577l-0.042,42.02l571.082,0.577Z"/></clipPath><g clip-path="url(#_clip2)"><path d="M922.295,341.951l0.298,-295.231c0.011,-11.1 -8.992,-20.121 -20.092,-20.133l-530.857,-0.536c-11.1,-0.011 -20.121,8.992 -20.133,20.092l-0.298,295.231c-0.011,11.1 8.992,20.121 20.092,20.133l530.857,0.536c11.1,0.011 20.121,-8.992 20.133,-20.092Z" style="fill:#ea8a72;"/></g><path d="M350.903,70.711l0.244,241.967c0.025,24.473 -19.824,44.361 -44.296,44.386l-184.114,0.186c-24.473,0.025 -44.361,-19.824 -44.386,-44.296l-0.244,-241.967c-0.025,-24.473 19.824,-44.361 44.296,-44.386l184.114,-0.186c24.473,-0.025 44.361,19.824 44.386,44.296Z" style="fill:#ebb2a3;"/><clipPath id="_clip3"><path d="M351.276,361.636l0.042,-42.02l-273.176,-0.276l-0.042,42.02l273.176,0.276Z"/></clipPath><g clip-path="url(#_clip3)"><path d="M351.295,343.202l0.302,-298.587c0.01,-10.174 -8.241,-18.442 -18.415,-18.453l-236.308,-0.239c-10.174,-0.01 -18.442,8.241 -18.453,18.415l-0.302,298.587c-0.01,10.174 8.241,18.442 18.415,18.453l236.308,0.239c10.174,0.01 18.442,-8.241 18.453,-18.415Z" style="fill:#ea8a72;"/></g><clipPath id="_clip4"><path d="M351.055,26.219l0.069,68.297l-273.372,0.276l-0.069,-68.297l273.372,-0.276Z"/></clipPath><g clip-path="url(#_clip4)"><path d="M351.084,55.059l0.492,487.553c0.016,15.917 -12.893,28.852 -28.81,28.868l-215.693,0.218c-15.917,0.016 -28.852,-12.893 -28.868,-28.81l-0.492,-487.553c-0.016,-15.917 12.893,-28.852 28.81,-28.868l215.693,-0.218c15.917,-0.016 28.852,12.893 28.868,28.81Z" style="fill:#ea8a72;"/></g><g><path d="M112.513,65.151c-0,-6.295 -0.001,-6.288 0.002,-6.315c0.044,-0.462 2.255,-1.583 6.301,-4.171c0.547,-0.35 0.375,0.42 0.375,0.436c-0.019,1.361 0.044,7.398 -0.038,7.623c-0.103,0.281 -4.724,2.979 -6.344,4.028c-0.426,0.276 -0.3,-0.853 -0.297,-1.601Z" style="fill:#2d6316;"/><path d="M104.142,56.26c0,5.937 0.207,6.39 -0.25,6.198c-0.517,-0.217 -0.469,-0.297 -5.951,-3.703c-0.57,-0.354 -0.454,-0.505 -0.454,-3.654c0,-4.67 -0.129,-5.043 0.215,-4.862c0.47,0.247 0.426,0.31 5.648,3.496c0.439,0.268 0.59,0.12 0.772,0.601c0.028,0.073 0.02,0.965 0.02,1.924Z" style="fill:#2d6316;"/><path d="M121.404,61.672c0,-0.515 0,-6.437 -0,-6.442c-0.002,-0.282 -0.166,-0.807 0.43,-0.432c5.492,3.45 5.522,3.396 5.994,3.704c0.336,0.219 0.25,0.665 0.25,2.397c0,5.721 0.228,6.136 -0.227,5.985c-0.056,-0.019 -5.657,-3.526 -6.149,-3.833c-0.446,-0.279 -0.298,-1.137 -0.298,-1.379Z" style="fill:#2d6316;"/><path d="M135.842,59.481c0,-4.831 -0.002,-4.827 0.011,-4.896c0.068,-0.362 3.803,-2.457 6.284,-4.048c0.526,-0.337 0.373,0.384 0.373,0.826c-0,7.165 0.042,7.253 -0.241,7.435c-0.49,0.316 -4.536,2.924 -6.175,3.866c-0.323,0.186 -0.251,-0.246 -0.251,-3.183Z" style="fill:#2d6316;"/><path d="M142.531,42.989c0,6.513 0.044,6.605 -0.258,6.797c-0.498,0.317 -6.104,3.889 -6.29,3.857c-0.181,-0.031 -0.123,-0.14 -0.13,-7.562c-0.001,-0.966 0.305,-0.842 1.121,-1.349c1.839,-1.144 1.828,-1.149 3.1,-1.919c1.648,-0.998 2.457,-1.673 2.464,-1.239c0.002,0.113 -0.001,0.105 -0.008,1.415Z" style="fill:#2d6316;"/><path d="M127.977,74.299c0.005,0.866 0.047,1.563 -0.1,1.585c-0.195,0.03 -0.175,-0.042 -4.041,-2.435c-2.443,-1.513 -2.53,-1.509 -2.535,-1.857c-0.009,-0.628 -0.104,-7.655 0.01,-7.85c0.131,-0.225 0.185,-0.084 0.403,0.057c2.414,1.555 6.205,3.647 6.259,4.06c0.006,0.043 0.005,0.034 0.005,6.44Z" style="fill:#2d6316;"/><path d="M113.57,75.474c-0.423,0.259 -1.063,0.778 -1.079,0.382c-0.074,-1.741 -0.006,-7.005 0.002,-7.615c0.01,-0.805 0.375,-0.616 4.771,-3.402c0.978,-0.62 1.866,-1.279 1.91,-0.962c0.083,0.591 -0.061,0.59 -0.013,7.458c0.006,0.933 -0.26,0.839 -1.061,1.335c-0.362,0.224 -4.061,2.511 -4.529,2.804Z" style="fill:#2d6316;"/><path d="M122.711,46.335c0.422,0.257 5.084,3.096 5.24,3.263c0.206,0.22 0.031,4.336 0.111,8.075c0.012,0.572 -0.397,0.13 -6.216,-3.536c-0.577,-0.364 -0.464,-0.514 -0.464,-3.803c0,-4.57 -0.036,-4.698 0.165,-4.698c0.109,-0 0.108,0.015 1.164,0.7Z" style="fill:#2d6316;"/><path d="M103.391,45.968c0.805,-0.485 0.929,-0.695 1.311,-0.457c5.646,3.511 5.673,3.464 6.135,3.811c0.339,0.255 -0.068,0.321 -5.421,3.674c-0.802,0.502 -0.876,0.717 -1.681,0.224c-3.307,-2.026 -5.967,-3.568 -5.86,-3.774c0.089,-0.17 5.07,-3.207 5.515,-3.478Z" style="fill:#2d6316;"/><path d="M103.235,71.235c-0.442,-0.269 -4.971,-3.024 -5.501,-3.408c-0.252,-0.183 -0.212,-0.253 -0.212,-5.382c0,-2.691 -0.098,-3.164 0.339,-2.876c1.683,1.107 6.201,3.692 6.299,4.034c0.047,0.163 0.022,7.981 0.015,8.001c-0.028,0.076 -0.099,0.172 -0.94,-0.369Z" style="fill:#2d6316;"/><path d="M111.626,74.815c0.002,0.282 0.069,1.246 -0.129,1.263c-0.052,0.004 -6.387,-3.813 -6.488,-4.079c-0.085,-0.224 -0.021,-5.662 -0.04,-7.492c-0.004,-0.406 -0.186,-0.501 0.097,-0.623c0.111,-0.048 0.115,0.008 5.433,3.279c0.863,0.531 1.128,0.568 1.128,1.08c-0,2.19 -0.001,4.381 -0.001,6.571Z" style="fill:#2d6316;"/><path d="M335.145,59.401c0,0 0.43,1.115 0.931,2.414c0.354,0.917 0.242,1.949 -0.301,2.768c-0.542,0.82 -1.448,1.327 -2.43,1.36c-11.698,0.399 -43.42,1.483 -43.42,1.483l-36.724,22.331l-12.607,0l21.239,-22.215l-53.715,-1.163l-17.54,-19.54l9.775,0c5.097,-0 10.024,1.832 13.883,5.162c1.272,1.097 2.24,1.933 2.24,1.933l44.808,-1.047l-20.28,-21.517l12.196,-0.116l33.709,20.47c0,0 15.079,-0.336 25.876,-0.576c6.947,-0.155 13.753,1.979 19.368,6.073c1.711,1.247 2.99,2.18 2.99,2.18Z" style="fill:none;stroke:#fff;stroke-width:3.26px;"/><path d="M108.802,42.616c0.495,-0.299 1.26,-0.781 1.369,-0.85c1.284,-0.809 1.352,-1.125 2.136,-0.637c5.885,3.666 6.134,3.659 5.976,3.889c-0.183,0.265 -5.673,3.544 -6.173,3.842c-0.495,0.296 -0.608,0.074 -1.16,-0.277c-1.185,-0.754 -5.699,-3.537 -5.718,-3.565c-0.194,-0.284 0.102,-0.254 3.571,-2.402Z" style="fill:#2d6316;"/><path d="M135.951,70.691c-0,-7.098 -0.006,-7.102 0.034,-7.214c0.068,-0.192 0.123,-0.153 2.665,-1.735c3.648,-2.271 3.774,-2.383 3.892,-2.254c0.126,0.137 0.043,7.227 0.035,7.855c-0.004,0.382 -0.107,0.366 -2.703,1.978c-0.895,0.556 -3.682,2.336 -3.772,2.334c-0.266,-0.008 -0.132,-0.153 -0.152,-0.964Z" style="fill:#2d6316;"/><path d="M135.333,60.512c0,2.043 0.131,2.179 -0.416,2.526c-0.379,0.241 -0.38,0.227 -4.774,2.953c-1.247,0.774 -1.489,0.929 -1.489,0.575c-0,-0.618 -0.004,-7.575 0.012,-7.726c0.036,-0.344 2.086,-1.398 6.253,-4.046c0.579,-0.368 0.415,0.208 0.413,0.436c-0,0.008 -0,2.723 -0,5.283Z" style="fill:#2d6316;"/><g><path d="M146.55,38.613c-0.024,0.045 -0.049,0.089 -0.073,0.134c0.024,0.025 -0.06,0.072 -0.036,0.096c0.006,0.007 0.411,0.098 0.71,0.443c1.456,1.678 -2.395,3.19 -3.796,1.488c-0.44,-0.535 -0.375,-1.451 0.523,-1.856c0.693,-0.313 -0.832,-0.392 -0.563,-1.601c0.449,-2.018 5.153,-1.036 3.683,0.981c-0.17,0.233 -0.198,0.184 -0.447,0.316Z" style="fill:#2d6216;"/><path d="M145.268,39.523c0.077,0.017 0.952,0.214 0.487,0.859c-0.572,0.794 -1.823,-0.616 -0.487,-0.859Z" style="fill:#ea8a72;"/></g><path d="M145.258,37.212c0.077,0.017 0.952,0.214 0.487,0.859c-0.572,0.794 -1.823,-0.616 -0.487,-0.859Z" style="fill:#ea8a72;"/></g><path d="M922.089,48.301c0,0 -3.842,-19.395 -20.495,-22.508c-16.654,-3.113 -526.793,0 -526.793,0c-11.546,0.203 -19.493,6.295 -23.524,18.795l1.411,301.388c2.669,6.426 9.091,13.502 16.284,16.087l535.219,-0.097c10.163,-0.821 16.044,-5.924 17.899,-15.052l0,-298.613Z" style="fill:none;stroke:#846262;stroke-width:4.39px;"/><path d="M351.276,44.588c-7.233,-11.675 -15.314,-18.052 -24.296,-18.795l-225.811,0c-15.077,4.179 -22.5,13.416 -22.71,27.214l-0.769,291.29c2.541,10.991 7.539,15.534 13.579,17.34l245.96,0c8.204,-3.783 12.756,-9.621 13.964,-17.34l0.084,-299.709Z" style="fill:none;stroke:#846262;stroke-width:4.39px;"/><path d="M351.235,46.449l0,297.847" style="fill:#fff055;stroke:#fff;stroke-width:3.26px;stroke-dasharray:3.257,3.257;"/></g><path d="M490.175,333.637c187.775,0 341.746,145.333 341.746,311.054c0,165.721 -154.846,282.708 -342.621,282.708c-187.775,0 -347.458,-133.258 -347.458,-298.979c0,-165.721 160.558,-294.783 348.333,-294.783Z" style="fill:#4a933e;"/><path d="M189.129,282.925c-38.338,-0.1 -68.175,47.546 -76.971,124.946c-2.208,19.429 -0.917,81.7 4.775,114.221c13.442,76.767 45.446,137.696 70.904,156.179c20.887,15.163 95.417,-14.421 110.471,-50.087c9.275,-21.979 9.667,-45.837 7.333,-61.304c-8.95,-59.358 -24.854,-171.729 -47.946,-221.558c-13.096,-28.262 -40.883,-62.321 -68.571,-62.396l0.004,-0Z" style="fill:#4a933e;"/><path d="M796.879,276.129c38.337,-0.371 68.513,47.058 77.858,124.396c2.346,19.413 1.5,81.692 -3.962,114.25c-12.896,76.862 -44.462,138.017 -69.792,156.679c-20.779,15.312 -95.517,-13.742 -110.825,-49.3c-9.433,-21.913 -9.992,-45.767 -7.771,-61.25c8.525,-59.421 23.629,-171.9 46.367,-221.896c12.896,-28.354 40.438,-62.613 68.125,-62.883l0,0.004Z" style="fill:#4a933e;"/><path d="M324.617,240.508c58.271,4.412 102.092,54.021 97.8,110.708c-4.296,56.688 -49.996,103.987 -108.267,99.571c-35.85,-2.717 -50.163,3.725 -68.542,-23.488c-3.333,-4.933 -40.967,-54.812 -29.771,-99.658c12.8,-51.271 50.512,-91.55 108.783,-87.133l-0.004,0Z" style="fill:#509e43;"/><path d="M654.683,240.521c-58.271,4.412 -102.092,54.021 -97.8,110.708c4.296,56.688 49.996,103.988 108.267,99.571c35.85,-2.717 46.358,5.2 64.738,-22.017c3.333,-4.933 44.771,-56.283 33.575,-101.133c-12.8,-51.271 -50.512,-91.55 -108.783,-87.133l0.004,0.004Z" style="fill:#509e43;"/><ellipse cx="491.271" cy="555.088" rx="324.192" ry="288.608" style="fill:#509e43;"/><g transform="matrix(42.675625,0,0,42.675625,763.302706,75.503645)"></g><text x="509.854px" y="75.504px" style="font-family:'MicrosoftSansSerif', 'Microsoft Sans Serif', sans-serif;font-size:42.676px;fill:#fff;">GrizzHacks 8</text><g transform="matrix(58.333333,0,0,58.333333,891.322948,196.810792)"></g><text x="383.384px" y="196.811px" style="font-family:'MicrosoftSansSerif', 'Microsoft Sans Serif', sans-serif;font-size:58.333px;fill:#316418;">Coming March 28th</text><g transform="matrix(58.333333,0,0,58.333333,288.651235,196.810792)"></g><text x="142.106px" y="196.811px" style="font-family:'MicrosoftSansSerif', 'Microsoft Sans Serif', sans-serif;font-size:58.333px;fill:#316418;">Scroll</text><path d="M220.656,218.353l-0.573,32.633l10.133,0.178l-15.862,15.315l-15.315,-15.862l10.133,0.178l0.569,-32.442l10.915,0Z" style="fill:#316317;"/></svg>