<?xml version="1.0" encoding="UTF-8" standalone="no"?><!DOCTYPE svg PUBLIC "-//W3C//DTD SVG 1.1//EN" "http://www.w3.org/Graphics/SVG/1.1/DTD/svg11.dtd"><svg width="100%" height="100%" viewBox="0 0 204 207" version="1.1" xmlns="http://www.w3.org/2000/svg" xmlns:xlink="http://www.w3.org/1999/xlink" xml:space="preserve" xmlns:serif="http://www.serif.com/" style="fill-rule:evenodd;clip-rule:evenodd;stroke-linecap:round;stroke-linejoin:round;stroke-miterlimit:1.5;"><g><path d="M203.177,10.964l0.061,60.024c0.005,5.393 -4.369,9.776 -9.762,9.782l-117.444,0.119c-5.393,0.005 -9.776,-4.369 -9.782,-9.762l-0.061,-60.024c-0.005,-5.393 4.369,-9.776 9.762,-9.782l117.444,-0.119c5.393,-0.005 9.776,4.369 9.782,9.762Z" style="fill:#ebb2a3;"/><path d="M127.579,63.308c0.769,-0.063 1.593,-0.14 2.414,-0.219c0.366,-0.035 0.731,-0.07 1.091,-0.105c-1.516,-0.116 -3.132,-0.241 -4.463,-0.324c-0.129,0.013 -0.254,0.026 -0.377,0.037c-0.919,0.087 -1.669,0.132 -2.121,0.093c-0.25,-0.021 -0.426,-0.076 -0.522,-0.142l-0.071,-0.063l-0.051,-0.08l-0.023,-0.107l0.006,-0.061l0.018,-0.056l0.032,-0.055l0.052,-0.054l0.07,-0.043l0.085,-0.03c0.218,-0.058 0.905,-0.058 1.857,-0.013c0.317,0.015 0.664,0.035 1.034,0.057c0.768,-0.078 1.633,-0.178 2.527,-0.277c-0.825,-0.051 -1.629,-0.099 -2.353,-0.138c-1.257,0.046 -2.276,0.062 -2.757,0.026c-0.22,-0.017 -0.359,-0.061 -0.408,-0.095l-0.051,-0.043l-0.037,-0.048l-0.026,-0.055l-0.013,-0.066l0.004,-0.07l0.021,-0.064l0.036,-0.058l0.054,-0.05c0.038,-0.027 0.149,-0.07 0.334,-0.081c0.433,-0.026 1.505,0.017 2.848,0.09c1.839,-0.068 4.19,-0.2 6.101,-0.322c-1.663,-0.074 -3.669,-0.138 -5.327,-0.163c-0.906,0.105 -1.716,0.186 -2.312,0.209c-0.511,0.02 -0.879,-0.01 -1.048,-0.082l-0.076,-0.041l-0.065,-0.059l-0.045,-0.076l-0.018,-0.075l0.001,-0.062l0.015,-0.058l0.029,-0.056l0.048,-0.055l0.095,-0.059c0.026,-0.011 0.062,-0.022 0.107,-0.032c0.347,-0.075 1.621,-0.088 3.216,-0.066c0.537,-0.062 1.109,-0.133 1.691,-0.205c-0.5,-0.03 -0.992,-0.06 -1.458,-0.089c-0.968,0.069 -1.926,0.071 -2.82,-0.056c-0.363,-0.052 -0.543,-0.102 -0.578,-0.122l-0.046,-0.035l-0.044,-0.052l-0.028,-0.059l-0.011,-0.052l0.007,-0.095l0.035,-0.078l0.04,-0.047l0.049,-0.036l0.093,-0.033c0.052,-0.01 0.207,-0.014 0.447,-0.006c0.552,0.017 1.613,0.081 2.86,0.158c0.845,-0.062 1.697,-0.176 2.521,-0.296c0.107,-0.016 0.214,-0.031 0.321,-0.047c-2.236,-0.102 -4.666,-0.222 -5.635,-0.273c-0.145,-0.008 -0.262,-0.016 -0.346,-0.022c-0.046,-0.002 -0.071,-0.003 -0.071,-0.003c0,0 0.001,-0.001 0.002,-0.003c-0.052,-0.004 -0.08,-0.007 -0.082,-0.008l-0.056,-0.024l-0.058,-0.047l-0.04,-0.056l-0.022,-0.059l-0.007,-0.056l0.006,-0.058l0.04,-0.092l0.054,-0.057l0.072,-0.039l0.087,-0.015c0.024,-0 0.176,0.006 0.486,0.02c1.505,0.068 3.561,-0.007 5.365,-0.11c-2.011,-0.103 -4.073,-0.212 -4.573,-0.26c-0.105,-0.01 -0.167,-0.026 -0.183,-0.033l-0.09,-0.061l-0.043,-0.059l-0.024,-0.064l-0.006,-0.066l0.011,-0.065l0.021,-0.051l0.038,-0.052l0.061,-0.047l0.066,-0.026c0.029,-0.008 0.204,-0.017 0.559,-0.012c2.852,0.042 4.568,0.001 5.574,-0.078c0.217,-0.017 0.399,-0.035 0.55,-0.054c-1.073,0.028 -4.668,0.112 -5.441,-0.005c-0.088,-0.013 -0.151,-0.032 -0.188,-0.048l-0.065,-0.038l-0.056,-0.056l-0.029,-0.048l-0.021,-0.063l-0.004,-0.071l0.013,-0.066l0.053,-0.095l0.08,-0.069c0.07,-0.044 0.244,-0.097 0.496,-0.136c0.546,-0.084 1.533,-0.151 2.476,-0.196c-0.007,-0.028 -0.01,-0.057 -0.007,-0.087c0.013,-0.141 0.137,-0.246 0.279,-0.233c0,0 1.223,0.108 1.79,0.186c0.177,0.024 0.302,0.053 0.341,0.07l0.083,0.055l0.06,0.087l0.016,0.053l0.004,0.062l-0.011,0.062l-0.022,0.052l-0.057,0.069l-0.011,0.007c0.317,-0.008 0.511,-0.014 0.511,-0.014c0.024,-0.001 0.048,0.002 0.071,0.008c0,0 0.338,0.091 0.503,0.208c0.032,0.023 0.059,0.046 0.081,0.07l0.053,0.071l0.035,0.085l0.01,0.107l-0.027,0.107l-0.052,0.083c-0.036,0.043 -0.096,0.092 -0.193,0.135c-0.128,0.056 -0.361,0.116 -0.748,0.164c0.754,0.038 1.403,0.071 1.828,0.094c0.31,0.017 0.505,0.029 0.541,0.034l0.088,0.026l0.061,0.043l0.063,0.094l0.014,0.053l0.002,0.06l-0.018,0.076l-0.048,0.076l-0.06,0.049l-0.055,0.024l-0.056,0.011c-0.017,0.001 -0.109,0.001 -0.288,-0.005c-0.145,0.013 -1.276,0.114 -2.78,0.214c0.719,0.032 1.387,0.059 1.938,0.08c0.474,-0.034 0.908,-0.04 1.288,-0.002c0.134,0.013 0.215,0.025 0.249,0.032l0.095,0.038l0.074,0.071l0.036,0.075l0.01,0.074l-0.012,0.076l-0.022,0.05l-0.039,0.051l-0.061,0.047l-0.067,0.026c-0.049,0.012 -0.429,0.013 -1.022,-0.006c-0.165,-0.005 -0.348,-0.012 -0.546,-0.019c-0.874,0.065 -1.89,0.229 -2.963,0.389c0.523,0.03 1.039,0.058 1.529,0.082c0.896,-0.094 1.703,-0.16 2.311,-0.166c0.528,-0.006 0.919,0.041 1.117,0.134c0.034,0.016 0.06,0.031 0.08,0.046l0.062,0.055l0.044,0.065l0.023,0.065l0.003,0.1l-0.032,0.091l-0.065,0.079l-0.054,0.037l-0.065,0.028c-0.126,0.043 -0.491,0.068 -1.02,0.064c-0.607,-0.004 -1.448,-0.037 -2.389,-0.084c-0.363,0.038 -0.74,0.081 -1.125,0.127c1.814,0.062 3.53,0.144 4.476,0.22c0.458,0.037 0.752,0.082 0.821,0.112l0.053,0.03l0.054,0.05l0.039,0.063l0.018,0.061l-0.003,0.1l-0.018,0.053l-0.036,0.058l-0.057,0.052l-0.057,0.03c-0.033,0.014 -0.11,0.032 -0.236,0.044c-0.715,0.065 -2.57,0.195 -4.631,0.316c0.308,0.019 0.611,0.038 0.906,0.055c1.524,-0.115 2.894,-0.146 3.753,0.027c0.22,0.044 0.35,0.085 0.403,0.112l0.076,0.052l0.046,0.055l0.039,0.104l-0.002,0.091l-0.021,0.062l-0.029,0.048l-0.083,0.072l-0.084,0.033c-0.023,0.006 -0.053,0.012 -0.091,0.016c-0.095,0.011 -0.262,0.016 -0.49,0.013c-0.708,-0.008 -2.039,-0.081 -3.569,-0.174c-0.92,0.072 -1.896,0.175 -2.848,0.281c1.449,0.109 2.932,0.227 4.128,0.311c0.246,0.017 0.487,0.032 0.717,0.044c0.306,-0.021 0.583,-0.037 0.821,-0.045c0.359,-0.013 0.638,-0.008 0.813,0.015c0.11,0.015 0.19,0.04 0.24,0.066l0.091,0.067l0.054,0.081l0.022,0.101l-0.023,0.112l-0.04,0.065l-0.06,0.053l-0.066,0.033l-0.069,0.018c-0.182,0.034 -0.859,0.01 -1.812,-0.049c-0.908,0.064 -2.07,0.175 -3.29,0.293c1.512,0.098 2.937,0.198 3.902,0.265c0.347,0.002 0.658,0.015 0.922,0.041c0.221,0.022 0.335,0.036 0.358,0.042l0.073,0.028l0.073,0.061l0.045,0.082l0.013,0.086l-0.013,0.075l-0.029,0.06l-0.044,0.051l-0.071,0.045l-0.065,0.018l-0.055,0.003c-0.091,-0.001 -0.551,-0.032 -1.244,-0.081c-0.759,-0.004 -1.693,0.044 -2.69,0.116c1.687,0.066 3.098,0.131 3.557,0.157c0.12,0.007 0.188,0.014 0.196,0.016l0.097,0.043l0.051,0.049l0.039,0.068l0.014,0.056l0.001,0.062l-0.036,0.108l-0.075,0.079l-0.1,0.041c-0.006,0.001 -0.039,0.005 -0.103,0.003c-0.354,-0.009 -1.751,0.092 -3.449,0.215c1.505,0.048 2.719,0.091 3.043,0.102c0.037,0.001 0.063,0.002 0.079,0.003c0.01,0 0.016,0.001 0.017,0.001l0.105,0.032l0.078,0.067l-0.203,0.414l-0.002,0c-0.001,-0 -0.005,-0 -0.012,-0c-0.018,-0.001 -0.054,-0.002 -0.111,-0.004c-0.566,-0.019 -2.126,0.142 -3.863,0.331c1.247,0.04 2.326,0.078 2.836,0.091c0.146,-0.008 0.252,-0.009 0.309,-0.002l0.096,0.022l0.056,0.032l0.072,0.082l0.023,0.057l0.009,0.072l-0.015,0.084l-0.033,0.063l-0.074,0.069l-0.075,0.031c-0.013,0.003 -0.087,0.011 -0.212,0.009c-0.06,-0.001 -0.138,-0.003 -0.231,-0.005c-0.478,0.028 -1.364,0.123 -2.374,0.236c0.734,0.025 1.313,0.05 1.539,0.065c0.114,0.008 0.179,0.027 0.19,0.033l0.056,0.035l0.039,0.04l0.037,0.062l0.017,0.06l-0.004,0.096l-0.017,0.05l-0.034,0.055l-0.047,0.044l-0.047,0.027l-0.058,0.019l-0.065,0.007c-0.275,0.012 -1.387,0.184 -2.574,0.336c0.384,0.046 0.7,0.081 0.869,0.095c0.045,-0.015 0.095,-0.018 0.144,-0.006l0.089,0.03l0.06,0.039l0.065,0.084l0.02,0.057l0.005,0.073l-0.016,0.074l-0.032,0.059l-0.045,0.048l-0.053,0.034l-0.114,0.028c-0.104,0.005 -0.761,-0.069 -1.537,-0.163c-0.621,-0.075 -1.392,-0.159 -1.955,-0.22c-0.336,0.008 -0.606,-0.006 -0.77,-0.047c-0.087,-0.022 -0.137,-0.043 -0.158,-0.055l-0.064,-0.05l-0.043,-0.06l-0.021,-0.054l-0.008,-0.07l0.012,-0.075l0.03,-0.062l0.039,-0.047l0.051,-0.037l0.095,-0.033c0.068,-0.011 0.44,0.022 0.941,0.076c0.21,-0.009 0.448,-0.026 0.701,-0.048c0.341,-0.029 0.71,-0.069 1.083,-0.113c-0.967,-0.018 -1.971,-0.033 -2.705,-0.042c-0.626,0.045 -1.078,0.054 -1.221,0.014l-0.085,-0.034l-0.071,-0.057l-0.046,-0.073l-0.019,-0.076l0.002,-0.064l0.016,-0.059l0.03,-0.054l0.046,-0.05l0.093,-0.052c0.022,-0.007 0.057,-0.016 0.106,-0.022c0.19,-0.023 0.763,-0.026 1.507,-0.017c0.123,-0.011 0.252,-0.023 0.384,-0.036c0.646,-0.061 1.389,-0.141 2.135,-0.223c-0.971,-0.029 -1.977,-0.056 -2.852,-0.071c-0.528,0.05 -1.005,0.09 -1.398,0.114c-0.44,0.027 -0.779,0.033 -0.975,0.013c-0.14,-0.014 -0.233,-0.049 -0.28,-0.081l-0.065,-0.057l-0.048,-0.083l-0.016,-0.106l0.027,-0.104l0.044,-0.065l0.06,-0.05c0.035,-0.022 0.114,-0.053 0.237,-0.068c0.341,-0.043 1.253,-0.045 2.382,-0.027c1.054,-0.1 2.312,-0.239 3.515,-0.37c-1.428,-0.044 -2.957,-0.088 -4.173,-0.113c-1.143,0.058 -2.022,0.078 -2.321,0.024l-0.137,-0.042l-0.047,-0.032l-0.045,-0.049l-0.04,-0.088l-0.007,-0.081l0.018,-0.077l0.049,-0.078l0.045,-0.039l0.065,-0.033c0.024,-0.009 0.076,-0.021 0.157,-0.027c0.288,-0.02 1.198,-0.011 2.377,0.014c1.206,-0.063 2.701,-0.169 4.118,-0.272c-1.099,-0.04 -2.255,-0.078 -3.301,-0.102c-0.936,0.083 -1.778,0.151 -2.418,0.177c-0.46,0.018 -0.821,0.015 -1.047,-0.017c-0.135,-0.019 -0.234,-0.052 -0.295,-0.087l-0.098,-0.083l-0.046,-0.087l-0.013,-0.068l0.006,-0.073l0.023,-0.064l0.031,-0.048l0.055,-0.053l0.065,-0.037c0.039,-0.017 0.105,-0.036 0.196,-0.049c0.454,-0.066 1.846,-0.061 3.515,-0.023c0.909,-0.08 1.906,-0.174 2.894,-0.259c-1.045,-0.068 -2.121,-0.134 -3.107,-0.185c-1.113,0.091 -2.114,0.153 -2.831,0.151c-0.579,-0.002 -0.99,-0.058 -1.163,-0.151l-0.079,-0.053l-0.062,-0.072l-0.035,-0.083l-0.008,-0.073l0.025,-0.108l0.029,-0.049l0.047,-0.05l0.098,-0.057c0.029,-0.012 0.068,-0.023 0.116,-0.032c0.411,-0.079 1.956,-0.031 3.823,0.065Zm7.895,2.612l0.173,-0.068l-0.059,0.041l-0.058,0.021l-0.057,0.006Zm-0.001,0l0.001,-0l-0.001,0l0,-0Z" style="fill:#846262;"/><clipPath id="_clip1"><path d="M203.166,0.859l0.017,16.391l-136.978,0.138l-0.017,-16.391l136.978,-0.138Z"/></clipPath><g clip-path="url(#_clip1)"><path d="M203.172,6.728l0.12,119.117c0.003,3.239 -2.624,5.872 -5.863,5.875l-125.24,0.126c-3.239,0.003 -5.872,-2.624 -5.875,-5.863l-0.12,-119.117c-0.003,-3.239 2.624,-5.872 5.863,-5.875l125.24,-0.126c3.239,-0.003 5.872,2.624 5.875,5.863Z" style="fill:#ea8a72;"/></g><clipPath id="_clip2"><path d="M203.227,81.564l0.01,-10.085l-137.06,-0.138l-0.01,10.085l137.06,0.138Z"/></clipPath><g clip-path="url(#_clip2)"><path d="M203.232,76.737l0.072,-70.855c0.003,-2.664 -2.158,-4.829 -4.822,-4.832l-127.406,-0.129c-2.664,-0.003 -4.829,2.158 -4.832,4.822l-0.072,70.855c-0.003,2.664 2.158,4.829 4.822,4.832l127.406,0.129c2.664,0.003 4.829,-2.158 4.832,-4.822Z" style="fill:#ea8a72;"/></g><path d="M66.098,11.639l0.059,58.072c0.006,5.873 -4.758,10.647 -10.631,10.653l-44.187,0.045c-5.873,0.006 -10.647,-4.758 -10.653,-10.631l-0.059,-58.072c-0.006,-5.873 4.758,-10.647 10.631,-10.653l44.187,-0.045c5.873,-0.006 10.647,4.758 10.653,10.631Z" style="fill:#ebb2a3;"/><clipPath id="_clip3"><path d="M66.188,81.461l0.01,-10.085l-65.562,-0.066l-0.01,10.085l65.562,0.066Z"/></clipPath><g clip-path="url(#_clip3)"><path d="M66.192,77.037l0.072,-71.661c0.002,-2.442 -1.978,-4.426 -4.42,-4.429l-56.714,-0.057c-2.442,-0.002 -4.426,1.978 -4.429,4.42l-0.072,71.661c-0.002,2.442 1.978,4.426 4.42,4.429l56.714,0.057c2.442,0.002 4.426,-1.978 4.429,-4.42Z" style="fill:#ea8a72;"/></g><clipPath id="_clip4"><path d="M66.135,0.961l0.017,16.391l-65.609,0.066l-0.017,-16.391l65.609,-0.066Z"/></clipPath><g clip-path="url(#_clip4)"><path d="M66.142,7.883l0.118,117.013c0.004,3.82 -3.094,6.925 -6.914,6.928l-51.766,0.052c-3.82,0.004 -6.925,-3.094 -6.928,-6.914l-0.118,-117.013c-0.004,-3.82 3.094,-6.925 6.914,-6.928l51.766,-0.052c3.82,-0.004 6.925,3.094 6.928,6.914Z" style="fill:#ea8a72;"/></g><g><path d="M8.885,10.305c-0,-1.511 -0,-1.509 0,-1.516c0.01,-0.111 0.541,-0.38 1.512,-1.001c0.131,-0.084 0.09,0.101 0.09,0.105c-0.004,0.327 0.011,1.776 -0.009,1.83c-0.025,0.067 -1.134,0.715 -1.522,0.967c-0.102,0.066 -0.072,-0.205 -0.071,-0.384Z" style="fill:#2d6316;"/><path d="M6.875,8.171c0,1.425 0.05,1.534 -0.06,1.487c-0.124,-0.052 -0.113,-0.071 -1.428,-0.889c-0.137,-0.085 -0.109,-0.121 -0.109,-0.877c0,-1.121 -0.031,-1.21 0.052,-1.167c0.113,0.059 0.102,0.074 1.355,0.839c0.105,0.064 0.142,0.029 0.185,0.144c0.007,0.017 0.005,0.232 0.005,0.462Z" style="fill:#2d6316;"/><path d="M11.018,9.47c0,-0.124 0,-1.545 -0,-1.546c-0,-0.068 -0.04,-0.194 0.103,-0.104c1.318,0.828 1.325,0.815 1.439,0.889c0.081,0.053 0.06,0.16 0.06,0.575c0,1.373 0.055,1.473 -0.055,1.436c-0.013,-0.004 -1.358,-0.846 -1.476,-0.92c-0.107,-0.067 -0.072,-0.273 -0.072,-0.331Z" style="fill:#2d6316;"/><path d="M14.484,8.944c0,-1.159 -0.001,-1.159 0.003,-1.175c0.016,-0.087 0.913,-0.59 1.508,-0.971c0.126,-0.081 0.089,0.092 0.089,0.198c-0,1.72 0.01,1.741 -0.058,1.784c-0.118,0.076 -1.089,0.702 -1.482,0.928c-0.078,0.045 -0.06,-0.059 -0.06,-0.764Z" style="fill:#2d6316;"/><path d="M16.089,4.986c-0,1.563 0.011,1.585 -0.062,1.631c-0.119,0.076 -1.465,0.933 -1.51,0.926c-0.043,-0.008 -0.029,-0.034 -0.031,-1.815c-0,-0.232 0.073,-0.202 0.269,-0.324c0.441,-0.274 0.439,-0.276 0.744,-0.461c0.395,-0.24 0.59,-0.401 0.591,-0.297c0,0.027 -0,0.025 -0.002,0.34Z" style="fill:#2d6316;"/><path d="M12.596,12.501c0.001,0.208 0.011,0.375 -0.024,0.38c-0.047,0.007 -0.042,-0.01 -0.97,-0.584c-0.586,-0.363 -0.607,-0.362 -0.608,-0.446c-0.002,-0.151 -0.025,-1.837 0.002,-1.884c0.031,-0.054 0.044,-0.02 0.097,0.014c0.579,0.373 1.489,0.875 1.502,0.974c0.001,0.01 0.001,0.008 0.001,1.546Z" style="fill:#2d6316;"/><path d="M9.138,12.783c-0.101,0.062 -0.255,0.187 -0.259,0.092c-0.018,-0.418 -0.001,-1.681 0,-1.827c0.003,-0.193 0.09,-0.148 1.145,-0.817c0.235,-0.149 0.448,-0.307 0.458,-0.231c0.02,0.142 -0.015,0.142 -0.003,1.79c0.002,0.224 -0.062,0.201 -0.255,0.32c-0.087,0.054 -0.975,0.603 -1.087,0.673Z" style="fill:#2d6316;"/><path d="M11.332,5.789c0.101,0.062 1.22,0.743 1.258,0.783c0.05,0.053 0.007,1.041 0.027,1.938c0.003,0.137 -0.095,0.031 -1.492,-0.849c-0.139,-0.087 -0.111,-0.123 -0.111,-0.913c-0,-1.097 -0.009,-1.127 0.04,-1.127c0.026,-0 0.026,0.004 0.279,0.168Z" style="fill:#2d6316;"/><path d="M6.695,5.701c0.193,-0.116 0.223,-0.167 0.315,-0.11c1.355,0.843 1.362,0.831 1.472,0.915c0.081,0.061 -0.016,0.077 -1.301,0.882c-0.192,0.121 -0.21,0.172 -0.403,0.054c-0.794,-0.486 -1.432,-0.856 -1.406,-0.906c0.021,-0.041 1.217,-0.77 1.324,-0.835Z" style="fill:#2d6316;"/><path d="M6.658,11.765c-0.106,-0.065 -1.193,-0.726 -1.32,-0.818c-0.061,-0.044 -0.051,-0.061 -0.051,-1.292c0,-0.646 -0.024,-0.759 0.081,-0.69c0.404,0.266 1.488,0.886 1.512,0.968c0.011,0.039 0.005,1.915 0.004,1.92c-0.007,0.018 -0.024,0.041 -0.226,-0.088Z" style="fill:#2d6316;"/><path d="M8.672,12.624c0,0.068 0.017,0.299 -0.031,0.303c-0.013,0.001 -1.533,-0.915 -1.557,-0.979c-0.02,-0.054 -0.005,-1.359 -0.009,-1.798c-0.001,-0.098 -0.045,-0.12 0.023,-0.149c0.027,-0.011 0.028,0.002 1.304,0.787c0.207,0.127 0.271,0.136 0.271,0.259c-0,0.526 -0,1.051 -0,1.577Z" style="fill:#2d6316;"/><path d="M62.316,8.925c0,0 0.103,0.268 0.223,0.579c0.085,0.22 0.058,0.468 -0.072,0.664c-0.13,0.197 -0.347,0.318 -0.583,0.326c-2.808,0.096 -10.421,0.356 -10.421,0.356l-8.814,5.36l-3.026,0l5.097,-5.332l-12.892,-0.279l-4.21,-4.69l2.346,0c1.223,-0 2.406,0.44 3.332,1.239c0.305,0.263 0.538,0.464 0.538,0.464l10.754,-0.251l-4.867,-5.164l2.927,-0.028l8.09,4.913c0,0 3.619,-0.081 6.21,-0.138c1.667,-0.037 3.301,0.475 4.648,1.457c0.411,0.299 0.718,0.523 0.718,0.523Z" style="fill:none;stroke:#fff;stroke-width:0.78px;"/><path d="M7.994,4.897c0.119,-0.072 0.302,-0.188 0.329,-0.204c0.308,-0.194 0.324,-0.27 0.513,-0.153c1.412,0.88 1.472,0.878 1.434,0.933c-0.044,0.064 -1.362,0.851 -1.481,0.922c-0.119,0.071 -0.146,0.018 -0.278,-0.066c-0.284,-0.181 -1.368,-0.849 -1.372,-0.856c-0.047,-0.068 0.025,-0.061 0.857,-0.576Z" style="fill:#2d6316;"/><path d="M14.51,11.635c-0,-1.703 -0.001,-1.705 0.008,-1.731c0.016,-0.046 0.03,-0.037 0.64,-0.416c0.876,-0.545 0.906,-0.572 0.934,-0.541c0.03,0.033 0.01,1.734 0.008,1.885c-0.001,0.092 -0.026,0.088 -0.649,0.475c-0.215,0.133 -0.884,0.561 -0.905,0.56c-0.064,-0.002 -0.032,-0.037 -0.037,-0.231Z" style="fill:#2d6316;"/><path d="M14.361,9.192c0,0.49 0.032,0.523 -0.1,0.606c-0.091,0.058 -0.091,0.054 -1.146,0.709c-0.299,0.186 -0.357,0.223 -0.357,0.138c-0,-0.148 -0.001,-1.818 0.003,-1.854c0.009,-0.083 0.501,-0.336 1.501,-0.971c0.139,-0.088 0.1,0.05 0.099,0.105c-0,0.002 -0,0.654 -0,1.268Z" style="fill:#2d6316;"/><g><path d="M17.053,3.936c-0.006,0.011 -0.012,0.021 -0.018,0.032c0.006,0.006 -0.014,0.017 -0.009,0.023c0.002,0.002 0.099,0.024 0.17,0.106c0.349,0.403 -0.575,0.766 -0.911,0.357c-0.106,-0.128 -0.09,-0.348 0.125,-0.446c0.166,-0.075 -0.2,-0.094 -0.135,-0.384c0.108,-0.484 1.237,-0.249 0.884,0.235c-0.041,0.056 -0.048,0.044 -0.107,0.076Z" style="fill:#2d6216;"/><path d="M16.746,4.154c0.019,0.004 0.229,0.051 0.117,0.206c-0.137,0.19 -0.438,-0.148 -0.117,-0.206Z" style="fill:#ea8a72;"/></g><path d="M16.743,3.6c0.019,0.004 0.229,0.051 0.117,0.206c-0.137,0.19 -0.438,-0.148 -0.117,-0.206Z" style="fill:#ea8a72;"/></g><path d="M203.183,6.261c0,0 -0.922,-4.655 -4.919,-5.402c-3.997,-0.747 -126.43,0 -126.43,0c-2.771,0.049 -4.678,1.511 -5.646,4.511l0.339,72.333c0.64,1.542 2.182,3.24 3.908,3.861l128.452,-0.023c2.439,-0.197 3.85,-1.422 4.296,-3.613l0,-71.667Z" style="fill:none;stroke:#846262;stroke-width:1.05px;"/><path d="M66.188,5.37c-1.736,-2.802 -3.675,-4.333 -5.831,-4.511l-54.195,0c-3.618,1.003 -5.4,3.22 -5.45,6.531l-0.184,69.91c0.61,2.638 1.809,3.728 3.259,4.161l59.03,0c1.969,-0.908 3.061,-2.309 3.351,-4.161l0.02,-71.93Z" style="fill:none;stroke:#846262;stroke-width:1.05px;"/><path d="M66.178,5.817l0,71.483" style="fill:#fff055;stroke:#fff;stroke-width:0.78px;stroke-dasharray:0.782,0.782;"/></g><path d="M100.565,64.31c45.066,0 82.019,34.88 82.019,74.653c0,39.773 -37.163,67.85 -82.229,67.85c-45.066,0 -83.39,-31.982 -83.39,-71.755c0,-39.773 38.534,-70.748 83.6,-70.748Z" style="fill:#4a933e;"/><path d="M28.314,52.139c-9.201,-0.024 -16.362,11.411 -18.473,29.987c-0.53,4.663 -0.22,19.608 1.146,27.413c3.226,18.424 10.907,33.047 17.017,37.483c5.013,3.639 22.9,-3.461 26.513,-12.021c2.226,-5.275 2.32,-11.001 1.76,-14.713c-2.148,-14.246 -5.965,-41.215 -11.507,-53.174c-3.143,-6.783 -9.812,-14.957 -16.457,-14.975l0.001,-0Z" style="fill:#4a933e;"/><path d="M174.174,50.508c9.201,-0.089 16.443,11.294 18.686,29.855c0.563,4.659 0.36,19.606 -0.951,27.42c-3.095,18.447 -10.671,33.124 -16.75,37.603c-4.987,3.675 -22.924,-3.298 -26.598,-11.832c-2.264,-5.259 -2.398,-10.984 -1.865,-14.7c2.046,-14.261 5.671,-41.256 11.128,-53.255c3.095,-6.805 9.705,-15.027 16.35,-15.092l0,0.001Z" style="fill:#4a933e;"/><path d="M60.831,41.959c13.985,1.059 24.502,12.965 23.472,26.57c-1.031,13.605 -11.999,24.957 -25.984,23.897c-8.604,-0.652 -12.039,0.894 -16.45,-5.637c-0.8,-1.184 -9.832,-13.155 -7.145,-23.918c3.072,-12.305 12.123,-21.972 26.108,-20.912l-0.001,0Z" style="fill:#509e43;"/><path d="M140.047,41.962c-13.985,1.059 -24.502,12.965 -23.472,26.57c1.031,13.605 11.999,24.957 25.984,23.897c8.604,-0.652 11.126,1.248 15.537,-5.284c0.8,-1.184 10.745,-13.508 8.058,-24.272c-3.072,-12.305 -12.123,-21.972 -26.108,-20.912l0.001,0.001Z" style="fill:#509e43;"/><ellipse cx="100.828" cy="117.458" rx="77.806" ry="69.266" style="fill:#509e43;"/><g transform="matrix(10.24215,0,0,10.24215,165.074071,12.789669)"></g><text x="104.246px" y="12.79px" style="font-family:'MicrosoftSansSerif', 'Microsoft Sans Serif', sans-serif;font-size:10.242px;fill:#fff;">GrizzHacks 8</text></svg>