<?xml version="1.0" encoding="UTF-8" standalone="no"?><!DOCTYPE svg PUBLIC "-//W3C//DTD SVG 1.1//EN" "http://www.w3.org/Graphics/SVG/1.1/DTD/svg11.dtd"><svg width="100%" height="100%" viewBox="0 0 1000 1000" version="1.1" xmlns="http://www.w3.org/2000/svg" xmlns:xlink="http://www.w3.org/1999/xlink" xml:space="preserve" xmlns:serif="http://www.serif.com/" style="fill-rule:evenodd;clip-rule:evenodd;stroke-linecap:round;stroke-linejoin:round;stroke-miterlimit:1.5;"><g><path d="M922.064,67.897l0.253,250.101c0.023,22.472 -18.203,40.735 -40.676,40.758l-489.352,0.494c-22.472,0.023 -40.735,-18.203 -40.758,-40.676l-0.253,-250.101c-0.023,-22.472 18.203,-40.735 40.676,-40.758l489.352,-0.494c22.472,-0.023 40.735,18.203 40.758,40.676Z" style="fill:#ebb2a3;"/><path d="M607.074,285.997c3.206,-0.263 6.639,-0.583 10.059,-0.911c1.524,-0.146 3.046,-0.294 4.544,-0.438c-6.317,-0.485 -13.05,-1.006 -18.595,-1.35c-0.536,0.055 -1.06,0.106 -1.572,0.155c-3.829,0.364 -6.955,0.549 -8.838,0.388c-1.043,-0.089 -1.776,-0.317 -2.175,-0.592l-0.297,-0.261l-0.211,-0.333l-0.096,-0.444l0.023,-0.253l0.075,-0.235l0.132,-0.228l0.216,-0.225l0.29,-0.181l0.353,-0.126c0.906,-0.24 3.772,-0.242 7.738,-0.053c1.321,0.063 2.768,0.144 4.309,0.24c3.201,-0.326 6.804,-0.742 10.53,-1.155c-3.439,-0.212 -6.786,-0.412 -9.803,-0.576c-5.237,0.192 -9.484,0.26 -11.488,0.107c-0.918,-0.07 -1.494,-0.255 -1.702,-0.394l-0.214,-0.18l-0.152,-0.199l-0.107,-0.23l-0.056,-0.276l0.016,-0.292l0.086,-0.266l0.151,-0.24l0.225,-0.21c0.156,-0.112 0.62,-0.29 1.391,-0.336c1.804,-0.107 6.269,0.071 11.868,0.375c7.663,-0.282 17.46,-0.832 25.421,-1.34c-6.929,-0.309 -15.287,-0.576 -22.197,-0.678c-3.777,0.437 -7.151,0.774 -9.634,0.873c-2.127,0.085 -3.663,-0.041 -4.368,-0.341l-0.318,-0.17l-0.272,-0.245l-0.189,-0.317l-0.075,-0.311l0.005,-0.26l0.061,-0.243l0.12,-0.234l0.198,-0.228l0.397,-0.245c0.11,-0.046 0.258,-0.093 0.446,-0.133c1.444,-0.311 6.752,-0.368 13.4,-0.276c2.239,-0.259 4.623,-0.555 7.046,-0.856c-2.085,-0.126 -4.133,-0.252 -6.074,-0.371c-4.035,0.288 -8.025,0.297 -11.75,-0.235c-1.511,-0.216 -2.263,-0.424 -2.408,-0.51l-0.194,-0.144l-0.182,-0.217l-0.116,-0.244l-0.047,-0.215l0.028,-0.398l0.146,-0.326l0.167,-0.196l0.205,-0.15l0.387,-0.139c0.215,-0.041 0.864,-0.058 1.863,-0.027c2.3,0.073 6.723,0.338 11.917,0.657c3.519,-0.259 7.072,-0.734 10.504,-1.234c0.448,-0.065 0.893,-0.131 1.336,-0.197c-9.318,-0.424 -19.44,-0.925 -23.478,-1.139c-0.606,-0.032 -1.092,-0.065 -1.44,-0.092c-0.19,-0.008 -0.294,-0.011 -0.294,-0.011c0,0 0.003,-0.004 0.009,-0.012c-0.215,-0.018 -0.332,-0.031 -0.342,-0.034l-0.231,-0.102l-0.241,-0.194l-0.165,-0.234l-0.092,-0.246l-0.029,-0.235l0.024,-0.242l0.167,-0.384l0.226,-0.237l0.299,-0.162l0.364,-0.061c0.098,-0 0.735,0.024 2.024,0.083c6.271,0.283 14.837,-0.03 22.354,-0.459c-8.381,-0.428 -16.973,-0.883 -19.056,-1.085c-0.436,-0.042 -0.695,-0.11 -0.764,-0.138l-0.377,-0.254l-0.179,-0.248l-0.098,-0.268l-0.025,-0.273l0.046,-0.271l0.089,-0.211l0.159,-0.216l0.253,-0.198l0.275,-0.11c0.123,-0.031 0.852,-0.07 2.327,-0.048c11.884,0.177 19.035,0.005 23.224,-0.325c0.904,-0.071 1.661,-0.147 2.291,-0.226c-4.469,0.117 -19.452,0.467 -22.672,-0.021c-0.365,-0.055 -0.628,-0.132 -0.784,-0.202l-0.271,-0.159l-0.234,-0.233l-0.122,-0.201l-0.087,-0.264l-0.018,-0.298l0.055,-0.276l0.221,-0.394l0.331,-0.286c0.293,-0.184 1.016,-0.405 2.066,-0.567c2.275,-0.35 6.386,-0.631 10.318,-0.815c-0.03,-0.115 -0.041,-0.237 -0.03,-0.362c0.052,-0.589 0.573,-1.025 1.162,-0.973c0,0 5.095,0.452 7.459,0.776c0.739,0.102 1.26,0.221 1.419,0.291l0.346,0.231l0.248,0.363l0.066,0.221l0.016,0.258l-0.046,0.257l-0.093,0.217l-0.236,0.287l-0.047,0.03c1.322,-0.034 2.131,-0.058 2.131,-0.058c0.1,-0.003 0.2,0.008 0.297,0.033c-0,0 1.409,0.379 2.094,0.866c0.132,0.094 0.246,0.193 0.338,0.292l0.221,0.296l0.147,0.352l0.041,0.445l-0.113,0.444l-0.219,0.347c-0.152,0.18 -0.399,0.385 -0.805,0.563c-0.534,0.235 -1.503,0.482 -3.116,0.683c3.141,0.159 5.846,0.297 7.615,0.393c1.294,0.07 2.105,0.121 2.254,0.14l0.368,0.11l0.255,0.18l0.262,0.391l0.06,0.223l0.009,0.252l-0.075,0.316l-0.201,0.318l-0.252,0.204l-0.231,0.101l-0.235,0.044c-0.071,0.006 -0.454,0.003 -1.2,-0.021c-0.605,0.054 -5.319,0.474 -11.585,0.893c2.997,0.132 5.777,0.248 8.075,0.334c1.976,-0.141 3.783,-0.165 5.368,-0.008c0.56,0.055 0.897,0.103 1.036,0.134l0.397,0.16l0.31,0.297l0.15,0.314l0.042,0.31l-0.051,0.317l-0.092,0.209l-0.161,0.214l-0.255,0.195l-0.279,0.108c-0.205,0.05 -1.788,0.055 -4.258,-0.027c-0.688,-0.023 -1.45,-0.05 -2.273,-0.081c-3.642,0.27 -7.875,0.955 -12.347,1.62c2.181,0.125 4.33,0.242 6.369,0.344c3.732,-0.392 7.094,-0.666 9.628,-0.692c2.2,-0.023 3.829,0.173 4.652,0.558c0.14,0.066 0.25,0.131 0.335,0.19l0.258,0.229l0.182,0.272l0.094,0.273l0.01,0.418l-0.132,0.38l-0.27,0.327l-0.223,0.153l-0.27,0.118c-0.526,0.18 -2.046,0.284 -4.25,0.268c-2.528,-0.019 -6.034,-0.154 -9.953,-0.349c-1.512,0.16 -3.084,0.339 -4.686,0.529c7.56,0.258 14.709,0.602 18.65,0.916c1.909,0.152 3.132,0.341 3.421,0.468l0.222,0.125l0.224,0.207l0.162,0.264l0.075,0.255l-0.011,0.415l-0.073,0.22l-0.15,0.24l-0.237,0.217l-0.237,0.127c-0.139,0.056 -0.459,0.134 -0.985,0.182c-2.978,0.271 -10.706,0.811 -19.297,1.318c1.282,0.079 2.545,0.156 3.776,0.231c6.35,-0.48 12.06,-0.61 15.636,0.112c0.917,0.185 1.459,0.353 1.68,0.466l0.316,0.217l0.191,0.229l0.162,0.431l-0.008,0.38l-0.086,0.26l-0.123,0.2l-0.345,0.299l-0.349,0.139c-0.094,0.025 -0.22,0.049 -0.377,0.067c-0.396,0.046 -1.093,0.065 -2.04,0.054c-2.95,-0.034 -8.498,-0.338 -14.872,-0.723c-3.832,0.299 -7.9,0.728 -11.865,1.171c6.038,0.455 12.216,0.945 17.201,1.295c1.024,0.072 2.03,0.132 2.986,0.183c1.276,-0.088 2.427,-0.153 3.423,-0.187c1.498,-0.052 2.659,-0.034 3.386,0.064c0.456,0.061 0.79,0.166 1.002,0.276l0.381,0.28l0.223,0.338l0.09,0.422l-0.094,0.465l-0.168,0.27l-0.249,0.221l-0.277,0.137l-0.286,0.076c-0.759,0.142 -3.579,0.043 -7.549,-0.205c-3.783,0.266 -8.626,0.731 -13.709,1.222c6.302,0.408 12.236,0.826 16.259,1.106c1.446,0.009 2.741,0.062 3.842,0.171c0.92,0.091 1.397,0.151 1.494,0.173l0.303,0.116l0.304,0.254l0.189,0.342l0.055,0.357l-0.052,0.313l-0.12,0.252l-0.183,0.214l-0.296,0.189l-0.272,0.076l-0.228,0.013c-0.379,-0.004 -2.296,-0.134 -5.185,-0.336c-3.162,-0.019 -7.054,0.181 -11.209,0.482c7.028,0.274 12.91,0.548 14.823,0.655c0.499,0.028 0.782,0.058 0.817,0.066l0.403,0.179l0.212,0.202l0.162,0.285l0.06,0.231l0.005,0.26l-0.151,0.448l-0.313,0.328l-0.419,0.17c-0.024,0.004 -0.163,0.021 -0.428,0.014c-1.473,-0.038 -7.294,0.382 -14.369,0.896c6.272,0.201 11.331,0.377 12.678,0.427c0.152,0.006 0.262,0.01 0.328,0.013c0.042,0.002 0.065,0.003 0.07,0.003l0.438,0.133l0.325,0.279l-0.846,1.727l-0.009,0.001c-0.005,-0 -0.022,-0.001 -0.051,-0.002c-0.073,-0.002 -0.225,-0.007 -0.461,-0.015c-2.359,-0.08 -8.858,0.59 -16.094,1.379c5.196,0.167 9.69,0.325 11.815,0.378c0.607,-0.032 1.048,-0.037 1.289,-0.009l0.4,0.092l0.234,0.131l0.301,0.343l0.097,0.237l0.038,0.299l-0.063,0.349l-0.138,0.262l-0.31,0.289l-0.311,0.13c-0.056,0.014 -0.362,0.044 -0.884,0.036c-0.251,-0.004 -0.575,-0.011 -0.963,-0.022c-1.991,0.115 -5.685,0.512 -9.891,0.983c3.059,0.106 5.471,0.207 6.413,0.271c0.476,0.032 0.745,0.115 0.791,0.135l0.235,0.145l0.164,0.165l0.153,0.26l0.069,0.249l-0.015,0.4l-0.072,0.21l-0.143,0.229l-0.195,0.185l-0.194,0.114l-0.243,0.078l-0.272,0.029c-1.146,0.05 -5.779,0.765 -10.725,1.399c1.602,0.19 2.918,0.339 3.623,0.398c0.187,-0.063 0.394,-0.075 0.6,-0.023l0.372,0.124l0.25,0.162l0.271,0.351l0.083,0.238l0.023,0.303l-0.067,0.309l-0.133,0.247l-0.186,0.2l-0.219,0.141l-0.474,0.115c-0.434,0.02 -3.17,-0.289 -6.402,-0.678c-2.586,-0.312 -5.8,-0.664 -8.144,-0.916c-1.402,0.032 -2.524,-0.025 -3.208,-0.197c-0.363,-0.091 -0.572,-0.181 -0.656,-0.229l-0.266,-0.207l-0.178,-0.249l-0.086,-0.225l-0.035,-0.292l0.051,-0.311l0.123,-0.26l0.164,-0.197l0.211,-0.156l0.398,-0.137c0.284,-0.045 1.832,0.091 3.922,0.315c0.877,-0.037 1.865,-0.108 2.921,-0.199c1.422,-0.123 2.958,-0.287 4.513,-0.471c-4.028,-0.075 -8.211,-0.136 -11.269,-0.176c-2.61,0.187 -4.492,0.225 -5.089,0.058l-0.354,-0.142l-0.296,-0.238l-0.191,-0.304l-0.08,-0.315l0.007,-0.267l0.066,-0.245l0.124,-0.227l0.191,-0.206l0.387,-0.215c0.091,-0.031 0.238,-0.067 0.441,-0.092c0.79,-0.096 3.179,-0.108 6.277,-0.07c0.513,-0.047 1.048,-0.097 1.601,-0.149c2.691,-0.255 5.79,-0.587 8.897,-0.928c-4.048,-0.123 -8.237,-0.235 -11.882,-0.296c-2.2,0.209 -4.187,0.376 -5.824,0.476c-1.833,0.112 -3.246,0.137 -4.064,0.056c-0.584,-0.058 -0.972,-0.206 -1.169,-0.337l-0.269,-0.239l-0.199,-0.344l-0.066,-0.44l0.112,-0.433l0.184,-0.27l0.251,-0.208c0.147,-0.092 0.475,-0.22 0.988,-0.285c1.421,-0.181 5.22,-0.189 9.926,-0.112c4.391,-0.415 9.633,-0.995 14.645,-1.542c-5.948,-0.184 -12.323,-0.365 -17.387,-0.471c-4.763,0.242 -8.423,0.327 -9.671,0.1l-0.57,-0.177l-0.198,-0.135l-0.187,-0.205l-0.168,-0.368l-0.028,-0.336l0.074,-0.323l0.204,-0.327l0.187,-0.164l0.27,-0.139c0.098,-0.036 0.317,-0.087 0.655,-0.111c1.198,-0.085 4.992,-0.045 9.904,0.06c5.024,-0.264 11.255,-0.703 17.158,-1.135c-4.581,-0.168 -9.396,-0.323 -13.756,-0.424c-3.899,0.346 -7.406,0.629 -10.075,0.736c-1.918,0.077 -3.423,0.061 -4.364,-0.072c-0.562,-0.079 -0.973,-0.215 -1.23,-0.362l-0.408,-0.346l-0.191,-0.361l-0.052,-0.285l0.025,-0.304l0.096,-0.267l0.129,-0.201l0.229,-0.219l0.27,-0.155c0.163,-0.072 0.436,-0.15 0.816,-0.206c1.892,-0.276 7.693,-0.253 14.645,-0.094c3.787,-0.334 7.942,-0.727 12.06,-1.078c-4.353,-0.282 -8.837,-0.556 -12.947,-0.773c-4.638,0.379 -8.808,0.638 -11.794,0.629c-2.413,-0.007 -4.124,-0.241 -4.845,-0.628l-0.329,-0.222l-0.259,-0.301l-0.146,-0.347l-0.032,-0.303l0.105,-0.449l0.122,-0.206l0.194,-0.207l0.407,-0.239c0.121,-0.048 0.282,-0.096 0.485,-0.135c1.713,-0.33 8.151,-0.131 15.927,0.272Zm32.896,10.883l0.722,-0.282l-0.246,0.17l-0.24,0.086l-0.236,0.026Zm-0.003,0l0.003,-0l-0.003,0.001l0,-0.001Z" style="fill:#846262;"/><clipPath id="_clip1"><path d="M922.02,25.793l0.069,68.297l-570.744,0.576l-0.069,-68.297l570.744,-0.576Z"/></clipPath><g clip-path="url(#_clip1)"><path d="M922.044,50.248l0.501,496.32c0.014,13.497 -10.933,24.467 -24.431,24.48l-521.833,0.527c-13.497,0.014 -24.467,-10.933 -24.48,-24.431l-0.501,-496.32c-0.014,-13.497 10.933,-24.467 24.431,-24.48l521.833,-0.527c13.497,-0.014 24.467,10.933 24.48,24.431Z" style="fill:#ea8a72;"/></g><clipPath id="_clip2"><path d="M922.274,362.063l0.042,-42.02l-571.082,-0.577l-0.042,42.02l571.082,0.577Z"/></clipPath><g clip-path="url(#_clip2)"><path d="M922.295,341.951l0.298,-295.231c0.011,-11.1 -8.992,-20.121 -20.092,-20.133l-530.857,-0.536c-11.1,-0.011 -20.121,8.992 -20.133,20.092l-0.298,295.231c-0.011,11.1 8.992,20.121 20.092,20.133l530.857,0.536c11.1,0.011 20.121,-8.992 20.133,-20.092Z" style="fill:#ea8a72;"/></g><path d="M350.903,70.711l0.244,241.967c0.025,24.473 -19.824,44.361 -44.296,44.386l-184.114,0.186c-24.473,0.025 -44.361,-19.824 -44.386,-44.296l-0.244,-241.967c-0.025,-24.473 19.824,-44.361 44.296,-44.386l184.114,-0.186c24.473,-0.025 44.361,19.824 44.386,44.296Z" style="fill:#ebb2a3;"/><clipPath id="_clip3"><path d="M351.276,361.636l0.042,-42.02l-273.176,-0.276l-0.042,42.02l273.176,0.276Z"/></clipPath><g clip-path="url(#_clip3)"><path d="M351.295,343.202l0.302,-298.587c0.01,-10.174 -8.241,-18.442 -18.415,-18.453l-236.308,-0.239c-10.174,-0.01 -18.442,8.241 -18.453,18.415l-0.302,298.587c-0.01,10.174 8.241,18.442 18.415,18.453l236.308,0.239c10.174,0.01 18.442,-8.241 18.453,-18.415Z" style="fill:#ea8a72;"/></g><clipPath id="_clip4"><path d="M351.055,26.219l0.069,68.297l-273.372,0.276l-0.069,-68.297l273.372,-0.276Z"/></clipPath><g clip-path="url(#_clip4)"><path d="M351.084,55.059l0.492,487.553c0.016,15.917 -12.893,28.852 -28.81,28.868l-215.693,0.218c-15.917,0.016 -28.852,-12.893 -28.868,-28.81l-0.492,-487.553c-0.016,-15.917 12.893,-28.852 28.81,-28.868l215.693,-0.218c15.917,-0.016 28.852,12.893 28.868,28.81Z" style="fill:#ea8a72;"/></g><g><path d="M124.703,64.505c-0,-5.42 -0,-5.414 0.002,-5.437c0.038,-0.398 1.941,-1.363 5.425,-3.591c0.471,-0.301 0.323,0.362 0.323,0.375c-0.016,1.172 0.038,6.369 -0.033,6.563c-0.089,0.242 -4.067,2.565 -5.462,3.468c-0.367,0.238 -0.258,-0.734 -0.255,-1.378Z" style="fill:#2d6316;"/><path d="M117.496,56.851c0,5.112 0.179,5.501 -0.215,5.336c-0.445,-0.187 -0.404,-0.256 -5.124,-3.188c-0.491,-0.305 -0.391,-0.435 -0.391,-3.146c0,-4.02 -0.111,-4.342 0.185,-4.186c0.405,0.213 0.366,0.266 4.862,3.01c0.378,0.231 0.508,0.103 0.665,0.518c0.024,0.063 0.017,0.831 0.017,1.656Z" style="fill:#2d6316;"/><path d="M132.358,61.51c0,-0.444 0,-5.542 -0,-5.547c-0.001,-0.243 -0.143,-0.694 0.37,-0.372c4.729,2.97 4.754,2.924 5.161,3.189c0.289,0.189 0.215,0.572 0.215,2.064c0,4.925 0.196,5.283 -0.196,5.153c-0.048,-0.016 -4.871,-3.036 -5.294,-3.3c-0.384,-0.241 -0.257,-0.979 -0.257,-1.187Z" style="fill:#2d6316;"/><path d="M144.788,59.624c0,-4.159 -0.002,-4.156 0.009,-4.215c0.059,-0.312 3.274,-2.115 5.41,-3.485c0.453,-0.29 0.321,0.33 0.321,0.711c-0,6.168 0.036,6.244 -0.208,6.401c-0.422,0.272 -3.905,2.518 -5.317,3.328c-0.278,0.16 -0.216,-0.211 -0.216,-2.741Z" style="fill:#2d6316;"/><path d="M150.547,45.425c-0,5.608 0.038,5.687 -0.222,5.852c-0.429,0.273 -5.255,3.348 -5.415,3.321c-0.156,-0.027 -0.105,-0.121 -0.112,-6.511c-0.001,-0.832 0.263,-0.725 0.965,-1.161c1.583,-0.985 1.574,-0.989 2.669,-1.652c1.419,-0.859 2.116,-1.44 2.122,-1.067c0.002,0.097 -0.001,0.09 -0.007,1.218Z" style="fill:#2d6316;"/><path d="M138.017,72.381c0.004,0.746 0.04,1.346 -0.086,1.365c-0.168,0.026 -0.151,-0.036 -3.479,-2.097c-2.104,-1.302 -2.179,-1.299 -2.183,-1.599c-0.007,-0.541 -0.09,-6.59 0.008,-6.758c0.113,-0.193 0.159,-0.072 0.347,0.049c2.078,1.339 5.342,3.14 5.389,3.496c0.005,0.037 0.004,0.029 0.004,5.544Z" style="fill:#2d6316;"/><path d="M125.613,73.393c-0.364,0.223 -0.915,0.67 -0.929,0.329c-0.064,-1.499 -0.005,-6.031 0.002,-6.556c0.009,-0.693 0.323,-0.53 4.107,-2.929c0.842,-0.534 1.606,-1.101 1.645,-0.828c0.071,0.509 -0.052,0.508 -0.012,6.421c0.006,0.803 -0.223,0.723 -0.914,1.149c-0.312,0.193 -3.497,2.162 -3.899,2.414Z" style="fill:#2d6316;"/><path d="M133.483,48.306c0.363,0.221 4.377,2.666 4.512,2.809c0.178,0.189 0.027,3.733 0.095,6.952c0.01,0.492 -0.342,0.112 -5.352,-3.044c-0.497,-0.313 -0.399,-0.443 -0.399,-3.274c-0,-3.934 -0.031,-4.044 0.142,-4.045c0.094,-0 0.093,0.013 1.002,0.602Z" style="fill:#2d6316;"/><path d="M116.85,47.99c0.693,-0.418 0.799,-0.598 1.129,-0.394c4.861,3.023 4.884,2.982 5.282,3.281c0.292,0.219 -0.059,0.276 -4.667,3.163c-0.69,0.432 -0.754,0.617 -1.447,0.193c-2.847,-1.744 -5.138,-3.072 -5.045,-3.249c0.076,-0.146 4.365,-2.761 4.748,-2.995Z" style="fill:#2d6316;"/><path d="M116.715,69.743c-0.381,-0.232 -4.28,-2.604 -4.736,-2.934c-0.217,-0.157 -0.182,-0.218 -0.182,-4.634c0,-2.316 -0.085,-2.724 0.292,-2.476c1.449,0.953 5.338,3.178 5.423,3.473c0.04,0.14 0.019,6.871 0.013,6.888c-0.024,0.065 -0.085,0.148 -0.809,-0.317Z" style="fill:#2d6316;"/><path d="M123.939,72.825c0.002,0.243 0.059,1.073 -0.111,1.087c-0.045,0.004 -5.499,-3.283 -5.586,-3.512c-0.073,-0.193 -0.018,-4.875 -0.034,-6.45c-0.003,-0.35 -0.16,-0.431 0.083,-0.536c0.095,-0.041 0.099,0.007 4.678,2.823c0.743,0.457 0.971,0.489 0.972,0.93c-0,1.886 -0.001,3.772 -0.001,5.658Z" style="fill:#2d6316;"/><path d="M316.378,59.555c0,0 0.193,0.502 0.464,1.202c0.382,0.991 0.261,2.106 -0.325,2.992c-0.586,0.886 -1.565,1.434 -2.627,1.47c-10.726,0.366 -36.444,1.244 -36.444,1.244l-31.617,19.226l-10.854,0l18.286,-19.126l-46.246,-1.001l-15.101,-16.823l7.317,-0c5.097,-0 10.024,1.832 13.883,5.162c0.658,0.568 1.097,0.946 1.097,0.946l38.578,-0.901l-17.46,-18.525l10.5,-0.1l29.022,17.624c0,0 12.45,-0.277 21.695,-0.483c6.359,-0.142 12.588,1.812 17.728,5.558c1.231,0.897 2.104,1.533 2.104,1.533Z" style="fill:none;stroke:#fff;stroke-width:2.8px;"/><path d="M121.508,45.104c0.426,-0.258 1.085,-0.673 1.178,-0.732c1.105,-0.697 1.164,-0.969 1.839,-0.548c5.067,3.157 5.281,3.15 5.145,3.348c-0.158,0.229 -4.885,3.051 -5.315,3.308c-0.426,0.255 -0.523,0.064 -0.999,-0.238c-1.02,-0.649 -4.907,-3.045 -4.923,-3.07c-0.167,-0.245 0.088,-0.219 3.074,-2.068Z" style="fill:#2d6316;"/><path d="M144.882,69.275c-0,-6.111 -0.005,-6.115 0.029,-6.211c0.059,-0.165 0.106,-0.132 2.295,-1.494c3.141,-1.955 3.25,-2.052 3.351,-1.941c0.108,0.118 0.037,6.222 0.03,6.763c-0.004,0.329 -0.092,0.316 -2.327,1.703c-0.77,0.478 -3.17,2.011 -3.248,2.009c-0.229,-0.007 -0.114,-0.132 -0.131,-0.83Z" style="fill:#2d6316;"/><path d="M144.35,60.511c0,1.759 0.113,1.876 -0.358,2.175c-0.326,0.207 -0.327,0.195 -4.11,2.542c-1.074,0.666 -1.282,0.799 -1.282,0.495c-0,-0.532 -0.004,-6.522 0.01,-6.652c0.031,-0.297 1.796,-1.204 5.384,-3.483c0.499,-0.317 0.357,0.179 0.356,0.375c-0,0.007 -0,2.344 -0,4.548Z" style="fill:#2d6316;"/><g><path d="M154.007,41.657c-0.021,0.038 -0.042,0.077 -0.063,0.115c0.02,0.021 -0.051,0.062 -0.031,0.083c0.005,0.006 0.354,0.085 0.611,0.381c1.253,1.445 -2.062,2.746 -3.268,1.281c-0.379,-0.46 -0.323,-1.25 0.45,-1.598c0.597,-0.269 -0.716,-0.338 -0.485,-1.378c0.387,-1.738 4.437,-0.892 3.171,0.844c-0.146,0.201 -0.171,0.158 -0.385,0.272Z" style="fill:#2d6216;"/><path d="M152.904,42.441c0.066,0.015 0.82,0.184 0.419,0.74c-0.493,0.683 -1.57,-0.53 -0.419,-0.74Z" style="fill:#ea8a72;"/></g><path d="M152.895,40.451c0.066,0.015 0.82,0.184 0.419,0.74c-0.493,0.683 -1.57,-0.53 -0.419,-0.74Z" style="fill:#ea8a72;"/></g><path d="M922.089,48.301c0,0 -3.842,-19.395 -20.495,-22.508c-16.654,-3.113 -526.793,0 -526.793,0c-11.546,0.203 -19.493,6.295 -23.524,18.795l1.411,301.388c2.669,6.426 9.091,13.502 16.284,16.087l535.219,-0.097c10.163,-0.821 16.044,-5.924 17.899,-15.052l0,-298.613Z" style="fill:none;stroke:#846262;stroke-width:4.39px;"/><path d="M351.276,44.588c-7.233,-11.675 -15.314,-18.052 -24.296,-18.795l-225.811,0c-15.077,4.179 -22.5,13.416 -22.71,27.214l-0.769,291.29c2.541,10.991 7.539,15.534 13.579,17.34l245.96,0c8.204,-3.783 12.756,-9.621 13.964,-17.34l0.084,-299.709Z" style="fill:none;stroke:#846262;stroke-width:4.39px;"/><path d="M351.235,46.449l0,297.847" style="fill:#fff055;stroke:#fff;stroke-width:3.26px;stroke-dasharray:3.257,3.257;"/></g><path d="M490.175,333.637c187.775,0 341.746,145.333 341.746,311.054c0,165.721 -154.846,282.708 -342.621,282.708c-187.775,0 -347.458,-133.258 -347.458,-298.979c0,-165.721 160.558,-294.783 348.333,-294.783Z" style="fill:#4a933e;"/><path d="M189.129,282.925c-38.338,-0.1 -68.175,47.546 -76.971,124.946c-2.208,19.429 -0.917,81.7 4.775,114.221c13.442,76.767 45.446,137.696 70.904,156.179c20.887,15.163 95.417,-14.421 110.471,-50.087c9.275,-21.979 9.667,-45.837 7.333,-61.304c-8.95,-59.358 -24.854,-171.729 -47.946,-221.558c-13.096,-28.262 -40.883,-62.321 -68.571,-62.396l0.004,-0Z" style="fill:#4a933e;"/><path d="M796.879,276.129c38.337,-0.371 68.513,47.058 77.858,124.396c2.346,19.413 1.5,81.692 -3.962,114.25c-12.896,76.862 -44.462,138.017 -69.792,156.679c-20.779,15.312 -95.517,-13.742 -110.825,-49.3c-9.433,-21.913 -9.992,-45.767 -7.771,-61.25c8.525,-59.421 23.629,-171.9 46.367,-221.896c12.896,-28.354 40.438,-62.613 68.125,-62.883l0,0.004Z" style="fill:#4a933e;"/><path d="M324.617,240.508c58.271,4.412 102.092,54.021 97.8,110.708c-4.296,56.688 -49.996,103.987 -108.267,99.571c-35.85,-2.717 -50.163,3.725 -68.542,-23.488c-3.333,-4.933 -40.967,-54.812 -29.771,-99.658c12.8,-51.271 50.512,-91.55 108.783,-87.133l-0.004,0Z" style="fill:#509e43;"/><path d="M654.683,240.521c-58.271,4.412 -102.092,54.021 -97.8,110.708c4.296,56.688 49.996,103.988 108.267,99.571c35.85,-2.717 46.358,5.2 64.738,-22.017c3.333,-4.933 44.771,-56.283 33.575,-101.133c-12.8,-51.271 -50.512,-91.55 -108.783,-87.133l0.004,0.004Z" style="fill:#509e43;"/><ellipse cx="491.271" cy="555.088" rx="324.192" ry="288.608" style="fill:#509e43;"/><g transform="matrix(34.441254,0,0,34.441254,904.115017,69.151034)"></g><text x="369.906px" y="69.151px" style="font-family:'MicrosoftSansSerif', 'Microsoft Sans Serif', sans-serif;font-size:34.441px;fill:#fff;">GrizzHacks 8 - Coming March 28th</text><g transform="matrix(58.333333,0,0,58.333333,288.651235,196.810792)"></g><text x="142.106px" y="196.811px" style="font-family:'MicrosoftSansSerif', 'Microsoft Sans Serif', sans-serif;font-size:58.333px;fill:#316418;">Scroll</text><path d="M220.656,218.353l-0.573,32.633l10.133,0.178l-15.862,15.315l-15.315,-15.862l10.133,0.178l0.569,-32.442l10.915,0Z" style="fill:#316317;"/></svg>