<svg width="875" height="606" viewBox="0 0 875 606" fill="none" xmlns="http://www.w3.org/2000/svg">
<g filter="url(#filter0_d_30_58)">
<path fill-rule="evenodd" clip-rule="evenodd" d="M682.291 35.7547C726.082 77.3658 765.384 104.887 808.81 119.602L657.174 221.025C655.31 218.364 652.409 216.391 648.919 215.742C648.883 215.735 648.848 215.729 648.813 215.722L682.291 35.7547Z" fill="#ABFF9F"/>
<path fill-rule="evenodd" clip-rule="evenodd" d="M646.537 227.957L838.739 263.712C797.883 299.95 771.384 340.736 758.951 387.627L646.537 227.957Z" fill="#ABFF9F"/>
<path fill-rule="evenodd" clip-rule="evenodd" d="M646.498 228.165L610.782 420.16C573.248 384.531 531.295 356.526 484.437 336.561L646.498 228.165Z" fill="#ABFF9F"/>
<path fill-rule="evenodd" clip-rule="evenodd" d="M534.297 68.5352L639.317 217.703C636.651 219.496 634.692 222.28 634.067 225.638L454.401 192.215C490.719 153.961 517.352 112.734 534.297 68.5352L534.297 68.5352Z" fill="#ABFF9F"/>
<path fill-rule="evenodd" clip-rule="evenodd" d="M758.951 387.627C713.647 386.192 664.367 396.308 610.782 420.16L644.261 240.193C644.296 240.199 644.331 240.206 644.367 240.213C647.802 240.852 651.168 240.088 653.843 238.335L758.951 387.627Z" fill="#FFF7E2"/>
<path fill-rule="evenodd" clip-rule="evenodd" d="M808.81 119.602C810.299 169.694 820.407 217.64 838.74 263.712L659.219 230.317C659.843 226.959 659.016 223.656 657.174 221.025L808.81 119.602Z" fill="#FFF7E2"/>
<path fill-rule="evenodd" clip-rule="evenodd" d="M534.297 68.535C590.046 67.7378 640.292 58.7846 682.291 35.7545L648.813 215.722C645.36 215.109 641.985 215.909 639.317 217.703L534.297 68.535Z" fill="#FFF7E2"/>
<path fill-rule="evenodd" clip-rule="evenodd" d="M454.401 192.215L634.068 225.638C633.433 229.048 634.296 232.402 636.2 235.053L484.437 336.561C479.958 288.067 470.084 239.97 454.315 192.307C454.344 192.276 454.372 192.246 454.401 192.215Z" fill="#FFF7E2"/>
<path d="M644.367 240.213C651.312 241.505 657.962 237.074 659.219 230.316C660.476 223.559 655.865 217.033 648.919 215.741C641.974 214.449 635.325 218.88 634.068 225.638C632.81 232.395 637.422 238.921 644.367 240.213Z" fill="#ECE193"/>
<path fill-rule="evenodd" clip-rule="evenodd" d="M282.099 178.768C323.78 222.698 361.698 252.289 404.409 269.274L247.34 362.943C245.613 360.182 242.81 358.056 239.35 357.225C239.315 357.217 239.28 357.208 239.245 357.2L282.099 178.768Z" fill="#5AE0FF"/>
<path fill-rule="evenodd" clip-rule="evenodd" d="M236.331 369.331L426.894 415.099C384.111 449.258 355.466 488.714 340.586 535.013L236.331 369.331Z" fill="#5AE0FF"/>
<path fill-rule="evenodd" clip-rule="evenodd" d="M236.281 369.537L190.563 559.894C154.836 522.277 114.289 492.064 68.4144 469.645L236.281 369.537Z" fill="#5AE0FF"/>
<path fill-rule="evenodd" clip-rule="evenodd" d="M132.238 203.906L229.636 358.69C226.874 360.347 224.768 363.033 223.968 366.362L45.8349 323.579C84.179 287.166 112.981 247.275 132.238 203.906L132.238 203.906Z" fill="#5AE0FF"/>
<path fill-rule="evenodd" clip-rule="evenodd" d="M340.586 535.013C295.306 531.225 245.446 538.795 190.563 559.894L233.418 381.462C233.453 381.47 233.488 381.479 233.523 381.487C236.929 382.305 240.338 381.716 243.107 380.099L340.586 535.013Z" fill="#FFF7E2"/>
<path fill-rule="evenodd" clip-rule="evenodd" d="M404.409 269.274C403.3 319.499 410.931 368.024 426.894 415.099L248.905 372.351C249.704 369.022 249.048 365.672 247.34 362.942L404.409 269.274Z" fill="#FFF7E2"/>
<path fill-rule="evenodd" clip-rule="evenodd" d="M132.238 203.906C188.091 206 238.857 199.644 282.099 178.768L239.244 357.2C235.82 356.407 232.399 357.033 229.635 358.69L132.238 203.906Z" fill="#FFF7E2"/>
<path fill-rule="evenodd" clip-rule="evenodd" d="M45.8348 323.579L223.968 366.362C223.156 369.743 223.846 373.146 225.615 375.898L68.4147 469.645C66.4467 420.864 59.0568 372.201 45.7433 323.666C45.7739 323.637 45.8042 323.608 45.8348 323.579Z" fill="#FFF7E2"/>
<path d="M233.523 381.488C240.409 383.141 247.296 379.051 248.905 372.351C250.514 365.651 246.236 358.879 239.35 357.225C232.464 355.571 225.577 359.662 223.968 366.362C222.359 373.062 226.637 379.834 233.523 381.488Z" fill="#E3D782"/>
</g>
<defs>
<filter id="filter0_d_30_58" x="28.7432" y="35.7545" width="809.997" height="536.14" filterUnits="userSpaceOnUse" color-interpolation-filters="sRGB">
<feFlood flood-opacity="0" result="BackgroundImageFix"/>
<feColorMatrix in="SourceAlpha" type="matrix" values="0 0 0 0 0 0 0 0 0 0 0 0 0 0 0 0 0 0 127 0" result="hardAlpha"/>
<feOffset dx="-13" dy="8"/>
<feGaussianBlur stdDeviation="2"/>
<feComposite in2="hardAlpha" operator="out"/>
<feColorMatrix type="matrix" values="0 0 0 0 0 0 0 0 0 0 0 0 0 0 0 0 0 0 0.09 0"/>
<feBlend mode="normal" in2="BackgroundImageFix" result="effect1_dropShadow_30_58"/>
<feBlend mode="normal" in="SourceGraphic" in2="effect1_dropShadow_30_58" result="shape"/>
</filter>
</defs>
</svg>
