<svg xmlns="http://www.w3.org/2000/svg" xml:space="preserve" style="fill-rule:evenodd;clip-rule:evenodd;stroke-linejoin:round;stroke-miterlimit:2" viewBox="0 0 360 240"><path d="M322.225 120.858c-.221-10.724-20.076-20.569-43.598-27.422-14.923-4.348-45.697-6.835-60.305-8.127-32.277-2.853-109.244 1.307-121.973 2.167-10.758.727-56.428 4.309-58.811 5.229-6.269 2.419-5.532 46.626-.946 49.975 1.358.992 43.593 5.061 56.752 6.343 22.438 2.185 106.03 4.761 123.663 4.355 8.305-.191 46.546-2.542 61.898-6.176 19.617-4.644 43.571-14.237 43.321-26.343Z" style="fill:#e8a29d"/><path d="m33.118 119.899 288.889-.882c.38 3.348-.186 5.3-1.111 6.94l-287.581-.658zM34.092 101.528h266.557c7.32 2.893 15.866 8.737 18.357 12.032l-285.878 2.345c-.007-1.682.059-4.007.262-6.898.101-1.445.386-5.572.702-7.479" style="fill:#fde5e5"/><path d="M269.526 109.207c-3.809-7.459 1.705-10.747 5.82-15.235 2.618 4.032 1.468 13.432-5.82 15.235M271.391 110.938c6.898-5.843 8.383-4.994 18.374-3.138-5.566 5.23-10.664 8.182-18.374 3.138M269.564 112.374c7.018 4.242 8.246 6.75 7.074 15.955-6.419-3.6-10.569-6.825-7.074-15.955M251.489 121.104c4.924-9.08 8.107-7.522 16.468-9.206-1.916 7.105-6.759 10.355-16.468 9.206M252.915 99.77c13.539.488 14.017 6.883 14.078 10.155-7.384-.663-10.866-1.383-14.078-10.155M240.075 134.66c2.004 5.684-2.242 7.502-5.606 10.31-1.482-3.125.235-9.72 5.606-10.31M238.91 133.247c-5.477 3.509-6.455 2.761-13.404.484 4.469-3.198 8.387-4.817 13.404-.484M240.35 132.397c-4.6-3.695-5.237-5.601-3.522-12.055 4.234 3.18 6.886 5.876 3.522 12.055M254.074 127.897c-4.379 6.006-6.5 4.591-12.624 4.993 2.045-4.885 5.809-6.74 12.624-4.993M251.017 142.984c-9.656-1.698-9.425-6.229-9.176-8.53 5.231 1.204 7.66 2.058 9.176 8.53" style="fill:#f28b84"/></svg>