<svg xmlns="http://www.w3.org/2000/svg" xml:space="preserve" style="fill-rule:evenodd;clip-rule:evenodd;stroke-linejoin:round;stroke-miterlimit:2" viewBox="0 0 360 240"><path d="M322.225 120.858c-.221-10.724-20.076-20.569-43.598-27.422-14.923-4.348-45.697-6.835-60.305-8.127-32.277-2.853-109.244 1.307-121.973 2.167-10.758.727-56.428 4.309-58.811 5.229-6.269 2.419-5.532 46.626-.946 49.975 1.358.992 43.593 5.061 56.752 6.343 22.438 2.185 106.03 4.761 123.663 4.355 8.305-.191 46.546-2.542 61.898-6.176 19.617-4.644 43.571-14.237 43.321-26.343Z" style="fill:#9eebd5"/><path d="m33.118 119.899 288.602-1.44c.566 2.958.435 5.332-.784 7.144L33.314 125.3l-.196-5.4ZM34.092 101.528h266.557c7.464 2.862 16.273 9.028 18.429 12.394l-285.95 1.983c-.007-1.682.059-4.007.262-6.898.101-1.445.386-5.572.702-7.479" style="fill:#dffff6"/></svg>