<svg width="97" height="92" viewBox="0 0 97 92" fill="none" xmlns="http://www.w3.org/2000/svg">
<g filter="url(#filter0_d_30_25)">
<path d="M46.7279 78.0777C67.0121 78.0777 83.4557 61.6341 83.4557 41.3498C83.4557 21.0656 67.0121 4.62195 46.7279 4.62195C26.4436 4.62195 10 21.0656 10 41.3498C10 61.6341 26.4436 78.0777 46.7279 78.0777Z" fill="#FFF9F3"/>
<path fill-rule="evenodd" clip-rule="evenodd" d="M46.7179 41.3426C44.0584 36.9473 42.4093 29.3429 42.4093 22.9856C42.4093 13.0194 44.3416 4.62191 46.7218 4.62189C53.1689 4.6218 59.5024 6.31898 65.0858 9.54254C82.6525 19.6847 88.6713 42.1471 78.5292 59.7137C78.5292 59.7137 78.51 59.7026 78.472 59.6807C79.5926 57.5957 73.3035 51.7525 64.7098 46.791C59.227 43.6254 51.8555 41.2579 46.7218 41.3426C46.7205 41.3425 46.7192 41.3427 46.7179 41.3426Z" fill="#6186ED"/>
<mask id="mask0_30_25" style="mask-type:luminance" maskUnits="userSpaceOnUse" x="42" y="4" width="42" height="56">
<path d="M46.7179 41.3426C44.0584 36.9473 42.4093 29.3429 42.4093 22.9856C42.4093 13.0194 44.3416 4.62191 46.7218 4.62189C53.1689 4.6218 59.5024 6.31898 65.0858 9.54254C82.6525 19.6847 88.6713 42.1471 78.5292 59.7137C78.5292 59.7137 78.51 59.7026 78.472 59.6807C79.5926 57.5957 73.3035 51.7525 64.7098 46.791C59.227 43.6254 51.8555 41.2579 46.7218 41.3426C46.7205 41.3425 46.7192 41.3427 46.7179 41.3426Z" fill="white"/>
</mask>
<g mask="url(#mask0_30_25)">
<path d="M44.9612 111.598C71.5991 111.598 93.1934 90.0038 93.1934 63.3659C93.1934 36.7279 71.5991 15.1336 44.9612 15.1336C18.3233 15.1336 -3.271 36.7279 -3.271 63.3658C-3.27101 90.0037 18.3233 111.598 44.9612 111.598Z" fill="#FEE485"/>
<path d="M44.9611 127.836C72.4417 127.836 94.7191 105.559 94.7191 78.0781C94.7191 50.5975 72.4417 28.32 44.9611 28.32C17.4806 28.32 -4.79688 50.5974 -4.79689 78.078C-4.79689 105.559 17.4805 127.836 44.9611 127.836Z" fill="#6186ED"/>
</g>
<path fill-rule="evenodd" clip-rule="evenodd" d="M46.664 41.3438C51.8002 41.2382 59.2103 43.6122 64.7159 46.7909C73.3469 51.774 79.6531 57.6462 78.4631 59.7075C75.2396 65.2909 70.603 69.9273 65.0197 73.1509C47.453 83.293 24.9906 77.2743 14.8485 59.7076C14.8485 59.7076 14.8677 59.6965 14.9057 59.6746C16.1511 61.6876 24.3559 59.1627 32.9496 54.2011C38.4324 51.0356 44.1685 45.8354 46.662 41.3472C46.6627 41.3461 46.6633 41.3449 46.664 41.3438Z" fill="#FFF9F3"/>
<mask id="mask1_30_25" style="mask-type:luminance" maskUnits="userSpaceOnUse" x="14" y="41" width="65" height="38">
<path d="M46.664 41.3438C51.8002 41.2382 59.2103 43.6122 64.7159 46.7909C73.3469 51.774 79.6531 57.6462 78.4631 59.7075C75.2396 65.2909 70.603 69.9273 65.0197 73.1509C47.453 83.293 24.9906 77.2743 14.8485 59.7076C14.8485 59.7076 14.8677 59.6965 14.9057 59.6746C16.1511 61.6876 24.3559 59.1627 32.9496 54.2011C38.4324 51.0356 44.1685 45.8354 46.662 41.3472C46.6627 41.3461 46.6633 41.3449 46.664 41.3438Z" fill="white"/>
</mask>
<g mask="url(#mask1_30_25)">
<path d="M-13.3003 4.69473C-26.6192 27.7638 -18.7151 57.2622 4.35397 70.5811C27.4231 83.9001 56.9214 75.996 70.2403 52.9269C83.5593 29.8578 75.6552 0.359414 52.5861 -12.9595C29.517 -26.2785 0.0186889 -18.3744 -13.3003 4.69473Z" fill="#6186ED"/>
<path d="M-27.3632 -3.42444C-41.1034 20.3745 -32.9493 50.806 -9.15044 64.5462C14.6484 78.2865 45.0799 70.1325 58.8202 46.3336C72.5605 22.5347 64.4064 -7.89689 40.6075 -21.6372C16.8086 -35.3775 -13.6229 -27.2233 -27.3632 -3.42444Z" fill="#FEE485"/>
</g>
<path fill-rule="evenodd" clip-rule="evenodd" d="M46.7236 41.3568C44.2469 45.8576 38.4859 51.088 32.9803 54.2667C24.3493 59.2497 16.1107 61.775 14.9206 59.7137C11.697 54.1304 10 47.7968 10 41.3497C10 21.0655 26.4436 4.62183 46.7278 4.62183C46.7278 4.62183 46.7278 4.644 46.7278 4.68788C44.3618 4.75991 42.446 13.128 42.446 23.0511C42.446 29.3821 44.0815 36.9498 46.7216 41.3533C46.7222 41.3545 46.723 41.3556 46.7236 41.3568Z" fill="#FFF9F3"/>
<mask id="mask2_30_25" style="mask-type:luminance" maskUnits="userSpaceOnUse" x="10" y="4" width="37" height="57">
<path d="M46.7236 41.3568C44.2469 45.8576 38.4859 51.088 32.9803 54.2667C24.3493 59.2497 16.1107 61.775 14.9206 59.7137C11.697 54.1304 10 47.7968 10 41.3497C10 21.0655 26.4436 4.62183 46.7278 4.62183C46.7278 4.62183 46.7278 4.644 46.7278 4.68788C44.3618 4.75991 42.446 13.128 42.446 23.0511C42.446 29.3821 44.0815 36.9498 46.7216 41.3533C46.7222 41.3545 46.723 41.3556 46.7236 41.3568Z" fill="white"/>
</mask>
<g mask="url(#mask2_30_25)">
<path d="M108.445 7.75051C95.1261 -15.3186 65.6277 -23.2226 42.5586 -9.90367C19.4895 3.41528 11.5854 32.9136 24.9044 55.9827C38.2234 79.0518 67.7217 86.9559 90.7908 73.637C113.86 60.318 121.764 30.8196 108.445 7.75051Z" fill="#FEE485"/>
<path d="M122.508 -0.368337C108.767 -24.1672 78.3357 -32.3213 54.5368 -18.581C30.7379 -4.8407 22.5838 25.5908 36.3241 49.3897C50.0644 73.1886 80.4959 81.3427 104.295 67.6024C128.094 53.8621 136.248 23.4306 122.508 -0.368337Z" fill="#FFF9F3"/>
</g>
</g>
<defs>
<filter id="filter0_d_30_25" x="0" y="4.62183" width="83.4561" height="82.4559" filterUnits="userSpaceOnUse" color-interpolation-filters="sRGB">
<feFlood flood-opacity="0" result="BackgroundImageFix"/>
<feColorMatrix in="SourceAlpha" type="matrix" values="0 0 0 0 0 0 0 0 0 0 0 0 0 0 0 0 0 0 127 0" result="hardAlpha"/>
<feOffset dx="-6" dy="5"/>
<feGaussianBlur stdDeviation="2"/>
<feComposite in2="hardAlpha" operator="out"/>
<feColorMatrix type="matrix" values="0 0 0 0 0 0 0 0 0 0 0 0 0 0 0 0 0 0 0.09 0"/>
<feBlend mode="normal" in2="BackgroundImageFix" result="effect1_dropShadow_30_25"/>
<feBlend mode="normal" in="SourceGraphic" in2="effect1_dropShadow_30_25" result="shape"/>
</filter>
</defs>
</svg>
