<?xml version="1.0" encoding="UTF-8" standalone="no"?>
<!DOCTYPE svg PUBLIC "-//W3C//DTD SVG 1.1//EN" "http://www.w3.org/Graphics/SVG/1.1/DTD/svg11.dtd">
<svg width="100%" height="100%" viewBox="0 0 1656 687" version="1.1" xmlns="http://www.w3.org/2000/svg" xmlns:xlink="http://www.w3.org/1999/xlink" xml:space="preserve" xmlns:serif="http://www.serif.com/" style="fill-rule:evenodd;clip-rule:evenodd;stroke-linejoin:round;stroke-miterlimit:2;">
    <path d="M136.446,100.942C136.446,100.942 105.98,52.057 102.942,29.742C101.185,16.84 110.234,4.939 123.137,3.182C136.039,1.425 147.94,10.474 149.697,23.377C152.735,45.692 136.446,100.942 136.446,100.942Z" style="fill:rgb(33,100,53);"/>
    <path d="M141.333,101.86C141.333,101.86 139.145,44.872 147.766,24.492C152.973,12.182 167.194,6.416 179.504,11.623C191.814,16.83 197.58,31.051 192.373,43.361C183.752,63.741 141.334,101.86 141.334,101.86L141.333,101.86Z" style="fill:rgb(119,206,104);"/>
    <path d="M1188.262,31.515L1406.078,121.625L1389.925,160.671L1226.563,93.089L1188.262,31.515Z" style="fill:rgb(93,73,55);"/>
    <path d="M1656,180.88L1656,391.22C1656,449.265 1608.875,496.39 1550.83,496.39L105.17,496.39C47.125,496.39 -0,449.265 -0,391.22L-0,180.88C-0,122.835 47.125,75.71 105.17,75.71L1550.83,75.71C1608.875,75.71 1656,122.835 1656,180.88Z" style="fill:rgb(93,73,55);"/>
    <path d="M1656,220.987L1656,344.076C1656,378.043 1628.423,405.62 1594.456,405.62L61.545,405.62C27.578,405.62 0.001,378.043 0.001,344.076L0.001,220.987C0.001,187.02 27.578,159.443 61.545,159.443L1594.456,159.443C1628.423,159.443 1656,187.02 1656,220.987Z" style="fill:rgb(152,111,74);"/>
    <path d="M1485.386,194.926L1485.386,374.926C1485.386,424.598 1445.058,464.926 1395.386,464.926L260.615,464.926C210.943,464.926 170.615,424.598 170.615,374.926L170.615,194.926C170.615,145.254 210.943,104.926 260.615,104.926L1395.386,104.926C1445.058,104.926 1485.386,145.254 1485.386,194.926Z" style="fill:rgb(166,124,90);"/>
    <ellipse cx="587.857" cy="303.322" rx="313.143" ry="7.507" style="fill:rgb(64,43,43);"/>
    <ellipse cx="102.057" cy="219.674" rx="35.389" ry="3.217" style="fill:rgb(64,43,43);"/>
    <ellipse cx="1475.81" cy="219.674" rx="83.648" ry="7.507" style="fill:rgb(64,43,43);"/>
    <ellipse cx="952.476" cy="159.619" rx="62.2" ry="5.362" style="fill:rgb(64,43,43);"/>
    <ellipse cx="934.245" cy="335.494" rx="82.575" ry="7.507" style="fill:rgb(64,43,43);"/>
    <ellipse cx="965.345" cy="233.615" rx="388.211" ry="8.579" style="fill:rgb(64,43,43);"/>
    <ellipse cx="370.159" cy="406.273" rx="299.202" ry="9.652" style="fill:rgb(64,43,43);"/>
    <ellipse cx="1173.392" cy="231.47" rx="105.096" ry="8.579" style="fill:rgb(64,43,43);"/>
    <ellipse cx="1244.17" cy="391.259" rx="135.123" ry="7.507" style="fill:rgb(64,43,43);"/>
    <ellipse cx="306.886" cy="171.415" rx="145.847" ry="8.579" style="fill:rgb(64,43,43);"/>
    <ellipse cx="1461.869" cy="345.145" rx="125.472" ry="4.29" style="fill:rgb(64,43,43);"/>
    <path d="M343.795,582.112L620.627,460.104C644.88,459.911 668.068,461.089 689.314,463.593L376.31,601.544C361.982,595.991 351.006,589.431 343.796,582.113L343.795,582.112Z" style="fill:rgb(93,73,55);"/>
    <path d="M706.499,455.127L265.712,686.219L350.122,579.259L570.515,463.713L706.499,455.127Z" style="fill:rgb(93,73,55);"/>
    <g>
        <clipPath id="_clip1">
            <path d="M1485.386,196.794L1485.386,378.327C1485.386,428.422 1444.715,469.093 1394.62,469.093L261.382,469.093C211.287,469.093 170.616,428.422 170.616,378.327L170.616,196.794C170.616,146.699 211.287,106.028 261.382,106.028L1394.62,106.028C1444.715,106.028 1485.386,146.699 1485.386,196.794Z"/>
        </clipPath>
        <g clip-path="url(#_clip1)">
            <g opacity="0.87">
                <path d="M1485.386,196.794L1485.386,378.327C1485.386,428.422 1444.715,469.093 1394.62,469.093L261.382,469.093C211.287,469.093 170.616,428.422 170.616,378.327L170.616,196.794C170.616,146.699 211.287,106.028 261.382,106.028L1394.62,106.028C1444.715,106.028 1485.386,146.699 1485.386,196.794Z" style="fill:rgb(238,236,234);"/>
                <g>
                    <clipPath id="_clip2">
                        <path d="M1485.386,196.794L1485.386,378.327C1485.386,428.422 1444.715,469.093 1394.62,469.093L261.382,469.093C211.287,469.093 170.616,428.422 170.616,378.327L170.616,196.794C170.616,146.699 211.287,106.028 261.382,106.028L1394.62,106.028C1444.715,106.028 1485.386,146.699 1485.386,196.794Z"/>
                    </clipPath>
                    <g clip-path="url(#_clip2)">
                        <path d="M1656,221.786L1656,345.393C1656,379.503 1628.307,407.196 1594.197,407.196L61.804,407.196C27.694,407.196 0.001,379.503 0.001,345.393L0.001,221.786C0.001,187.676 27.694,159.983 61.804,159.983L1594.197,159.983C1628.307,159.983 1656,187.676 1656,221.786Z" style="fill:rgb(238,236,234);"/>
                    </g>
                </g>
            </g>
            <g transform="matrix(1.256532,0,0,1.256532,828.001,283.5895)">
                <g transform="matrix(1,0,0,1,-288,-140.5)">
                    <clipPath id="_clip3">
                        <rect x="0" y="0" width="576" height="281"/>
                    </clipPath>
                    <g clip-path="url(#_clip3)">
                        <g>
                            <path d="M435.987,0.972C369.152,0.972 313.291,47.816 299.352,110.452C317.306,88.275 344.711,74.136 375.463,74.136C401.587,74.136 423.085,83.66 441.589,99.443L422.54,119.58C409.75,108.423 392.879,101.076 376.28,101.076C337.638,101.076 307.976,133.73 307.976,171.828C307.976,209.653 337.638,242.307 376.28,242.307C398.866,242.307 414.378,234.143 417.099,233.056L417.099,202.577L385.26,202.577L385.26,176.725L444.862,176.725C444.811,200.122 445.128,224.254 445.128,247.75C445.128,249.11 444.038,251.287 442.951,252.105C442.951,252.105 417.663,268.291 381.322,269.922C398.117,277.051 416.591,281 435.987,281C513.315,281 576,218.313 576,140.985C576,63.659 513.315,0.972 435.987,0.972Z" style="fill-rule:nonzero;"/>
                            <path d="M141.119,204.074L240.916,77.936L261.125,77.916L261.125,203.53L283.168,203.53L283.168,225.027L261.125,225.027L261.127,266.283L235.002,266.283L235.002,225.573L141.119,225.573L141.119,204.074ZM236.09,202.986L236.09,122.982L170.508,202.986L236.09,202.986Z" style="fill-rule:nonzero;"/>
                            <path d="M0,265.968C20.132,243.109 60.958,196.27 81.066,172.357C94.672,157.118 101.748,143.512 101.748,132.628C101.748,118.749 92.223,102.966 68.276,102.966C53.31,102.966 41.064,113.306 33.717,121.198L16.845,104.871C16.845,104.871 37.254,78.204 69.637,78.204C108.551,78.204 129.233,102.966 129.233,131.54C129.233,152.493 117.804,166.916 103.108,184.603C88.837,201.835 70.039,223.864 54.09,241.988C53.892,242.214 54.054,242.565 54.355,242.565L127.795,242.565C127.988,242.565 128.144,242.723 128.144,242.916L128.144,265.617C128.007,265.754 127.93,265.832 127.793,265.968C127.793,265.968 -0.056,266.032 0,265.968Z" style="fill-rule:nonzero;"/>
                        </g>
                    </g>
                </g>
            </g>
        </g>
    </g>
</svg>
