<?xml version="1.0" encoding="UTF-8" standalone="no"?><!DOCTYPE svg PUBLIC "-//W3C//DTD SVG 1.1//EN" "http://www.w3.org/Graphics/SVG/1.1/DTD/svg11.dtd"><svg width="100%" height="100%" viewBox="0 0 6771 2217" version="1.1" xmlns="http://www.w3.org/2000/svg" xmlns:xlink="http://www.w3.org/1999/xlink" xml:space="preserve" xmlns:serif="http://www.serif.com/" style="fill-rule:evenodd;clip-rule:evenodd;stroke-linejoin:round;stroke-miterlimit:2;"><path d="M6632.467,354.254c207.167,805.233 156.242,1007.092 -9.221,1568.75c-1443.075,203.9 -2889.371,358.154 -4574.067,260.129c-923.929,-53.758 -1194.396,-222.913 -1737.867,-685.658c-20.679,-17.608 -305.088,-374.558 -311.121,-407.296c-5.867,-31.825 278.738,-305.379 300.458,-323.5c626.158,-522.346 1190.333,-734.913 1810.554,-757.454c1503.721,-54.654 3000.65,154.979 4521.267,345.025l-0.004,0.004Z" style="fill:#efd21d;"/><path d="M6456.167,611.133c62.583,517.442 58.321,582.042 -5.8,1036.654c-1338.154,162.763 -2749.8,271.8 -4312.008,193.583c-837.563,-151.004 -1139.196,-210.45 -1705,-563.3c-20.508,-12.792 -179.817,-167.079 -185.408,-193.208c-5.438,-25.404 256.913,-245.925 278.617,-258.204c624.429,-353.313 1124.167,-473.596 1699.658,-491.608c1394.392,-43.642 2819.892,124.412 4229.946,276.079l-0.004,0.004Z" style="fill:#f9eda2;"/><path d="M1524.483,146.271c1492.95,41.512 2986.175,147.333 4500.163,257.517c302.688,685.425 269.612,972.021 27.804,1450.129c-1471.85,121.188 -2961.208,191.071 -4563.692,193.879l35.725,-1901.529l0,0.004Z" style="fill:#dcd8bb;fill-opacity:0.95;"/><path d="M1803.921,267.717c1353.7,37.092 2707.646,131.646 4080.421,230.096c274.454,612.45 244.462,868.533 25.208,1295.738c-1334.567,108.283 -2685.013,170.733 -4138.025,173.246l32.396,-1699.079Z" style="fill:#fff;fill-opacity:0.95;"/><path d="M2039.458,1855.988l-519.712,209.883c-164.004,-230.196 -265.971,-575.925 -260.971,-960.883c5.112,-393.679 120.979,-743.346 297.458,-968.717l510.283,222.387c-100.646,208.338 -162.317,470.113 -166.012,754.921c-3.6,277.342 48.317,534.321 138.954,742.408Z" style="fill:#efd21d;"/><path d="M1856.708,1151.675c1.162,243.746 42.767,469.079 113.054,653.25l-426.608,196.6c-129.292,-206.688 -211.183,-513.525 -212.821,-856.9l526.375,7.046l0,0.004Zm-524.725,-103.558c13.417,-343.829 106.429,-647.408 243.925,-846.925l418.242,206.717c-76.867,180.458 -126.288,403.762 -135.792,647.258l-526.375,-7.046l-0,-0.004Z" style="fill:#2f94c5;fill-opacity:0.75;"/><path id="EFD21D" d="M1253.975,1056.471l-0.142,90.204l-511.958,-0.808l0.142,-90.204l511.958,0.808Z" style="fill:#efd21d;"/><path d="M2842.393,1162.117c0,49.688 -40.844,83.637 -104.742,83.637c-63.898,0 -104.742,-34.365 -104.742,-93.99l44.078,0c0.809,35.608 27.096,55.898 63.086,55.898c31.947,0 56.618,-18.634 56.618,-48.447c0,-26.915 -20.625,-44.305 -59.852,-44.305l-25.885,0l0,-38.095l23.456,0c37.207,0 55.81,-19.046 55.81,-45.545c0,-26.503 -23.054,-42.234 -52.572,-42.234c-31.947,0 -54.998,19.874 -55.81,50.1l-43.676,0c0.403,-52.171 41.25,-88.195 99.485,-88.195c61.063,0 98.271,31.054 98.271,77.43c0,35.608 -20.219,56.729 -47.319,64.179c27.902,5.798 53.787,26.084 53.787,69.561l0.006,0.006Z" style="fill:#111;fill-rule:nonzero;"/><path d="M2864.594,1100.425c0,-93.99 42.464,-149.475 111.616,-149.475c52.167,0 90.183,31.054 97.06,81.985l-44.484,0c-6.065,-26.915 -25.073,-43.89 -55.407,-43.89c-43.676,0 -67.941,38.92 -67.941,98.96c0,3.311 0,5.798 0.403,11.18c0.809,-1.659 1.211,-4.139 2.831,-7.041c12.943,-25.256 39.633,-41.819 73.603,-41.819c56.212,0 95.44,38.92 95.44,97.716c0,57.141 -41.25,97.716 -101.505,97.716c-39.23,0 -68.749,-17.39 -87.754,-46.789c-14.965,-25.256 -23.862,-59.621 -23.862,-98.547l0,0.003Zm112.019,-12.42c-34.376,0 -58.232,24.431 -58.232,60.452c0,35.196 23.054,59.621 57.427,59.621c34.376,0 57.021,-24.844 57.021,-60.04c0,-35.196 -21.434,-60.04 -56.212,-60.04l-0.003,0.003l0,0.003Z" style="fill:#111;fill-rule:nonzero;"/><path d="M3309.445,1145.967c0,65.01 -47.319,99.375 -102.719,99.375c-64.301,0 -102.317,-41.819 -105.148,-93.577l44.484,0c3.234,30.226 24.668,55.07 61.063,55.07c29.119,0 57.021,-20.702 57.021,-60.868c0,-35.196 -22.242,-60.452 -57.021,-60.452c-16.985,0 -45.698,5.798 -57.021,35.608l-43.273,-0.828l8.897,-166.865l176.725,0l0,40.166l-135.881,0l-4.854,78.67c15.774,-17.39 37.207,-24.431 63.086,-24.431c56.212,0 94.631,39.747 94.631,98.129l0.003,0.003l0.006,0Z" style="fill:#111;fill-rule:nonzero;"/><path d="M3443.706,953.434l111.616,0c59.044,0 98.674,36.024 98.674,92.334c0,38.92 -21.839,69.974 -54.998,81.985l59.852,115.522l-51.764,0l-54.595,-105.17l-62.278,0l0,105.17l-46.507,0l0,-289.841Zm46.507,41.406l0,101.858l61.472,0c33.162,0 54.595,-19.874 54.595,-50.928c0,-31.054 -21.434,-50.928 -54.595,-50.928l-61.472,0l0,-0.003Z" style="fill:#111;fill-rule:nonzero;"/><path d="M3670.332,1137.686c0,-65.422 40.844,-108.896 101.911,-108.896c59.852,0 99.888,38.92 101.102,101.027c0,5.382 -0.403,11.18 -1.211,16.975l-156.103,0l0,2.899c1.211,36.024 23.456,59.621 57.829,59.621c26.69,0 46.101,-13.664 52.167,-37.264l43.676,0c-7.28,41.819 -42.055,73.704 -93.417,73.704c-65.109,0 -105.953,-43.059 -105.953,-108.069l0,0.003Zm157.717,-23.604c-3.64,-31.466 -25.073,-49.272 -55.407,-49.272c-27.902,0 -51.764,19.046 -54.998,49.272l110.405,0Z" style="fill:#111;fill-rule:nonzero;"/><path d="M3914.554,1070.611l-35.99,0l0,-39.335l35.99,0l0,-59.209l44.078,0l0,59.209l50.553,0l0,39.335l-50.553,0l0,110.552c0,16.563 5.663,22.773 22.242,22.773l30.733,0l0,39.335l-40.442,0c-39.633,0 -56.618,-19.046 -56.618,-57.553l0,-115.11l0.003,0l0.003,0.003Z" style="fill:#111;fill-rule:nonzero;"/><path d="M4230.923,1204.355l0,38.92l-23.054,0c-28.308,0 -38.013,-12.836 -38.013,-33.953c-13.751,21.533 -34.779,36.436 -68.343,36.436c-45.296,0 -76.837,-22.773 -76.837,-62.108c0,-43.477 30.733,-67.902 88.566,-67.902l52.167,0l0,-12.836c0,-23.604 -16.579,-38.095 -45.296,-38.095c-25.885,0 -43.273,12.42 -46.507,31.054l-42.867,0c4.448,-41.406 39.23,-67.078 91.397,-67.078c54.998,0 86.543,26.915 86.543,77.015l0,84.884c0,10.765 4.448,13.664 13.345,13.664l8.897,0l0.003,0.003l0,-0.003Zm-65.512,-55.482l-54.193,0c-27.096,0 -42.055,10.352 -42.055,31.885c0,17.803 14.556,30.226 38.419,30.226c36.396,0 57.427,-21.945 57.829,-54.658l0,-7.453Z" style="fill:#111;fill-rule:nonzero;"/><path d="M4244.917,974.551c0,-15.735 11.728,-26.915 26.69,-26.915c14.959,0 26.69,11.18 26.69,26.915c0,15.735 -11.728,26.915 -26.69,26.915c-14.959,0 -26.69,-11.18 -26.69,-26.915Zm4.448,56.729l43.676,0l0,211.995l-43.676,0l0,-211.995Z" style="fill:#111;fill-rule:nonzero;"/><rect x="4328.866" y="953.434" width="43.676" height="289.838" style="fill:#111;"/><path d="M4516.904,953.434l60.261,-0l90.585,228.145l88.971,-228.145l59.044,0l0,289.838l-44.89,0l0,-213.238l-84.926,213.238l-39.23,0l-84.926,-213.238l0,213.238l-44.89,0l0,-289.838Z" style="fill:#111;fill-rule:nonzero;"/><path d="M5054.653,1204.355l0,38.92l-23.054,0c-28.308,0 -38.013,-12.836 -38.013,-33.953c-13.751,21.533 -34.779,36.436 -68.343,36.436c-45.296,0 -76.837,-22.773 -76.837,-62.108c0,-43.477 30.733,-67.902 88.566,-67.902l52.167,0l0,-12.836c0,-23.604 -16.579,-38.095 -45.296,-38.095c-25.885,0 -43.273,12.42 -46.507,31.054l-42.867,0c4.448,-41.406 39.23,-67.078 91.397,-67.078c54.998,0 86.543,26.915 86.543,77.015l0,84.884c0,10.765 4.448,13.664 13.345,13.664l8.897,0l0.003,0.003l-0,-0.003Zm-65.512,-55.482l-54.193,0c-27.096,0 -42.055,10.352 -42.055,31.885c0,17.803 14.556,30.226 38.419,30.226c36.396,0 57.427,-21.945 57.829,-54.658l0,-7.453Z" style="fill:#111;fill-rule:nonzero;"/><path d="M5188.833,1031.273l0,41.822l-19.411,0c-38.821,0 -51.361,31.054 -51.361,63.763l0,106.41l-43.676,0l0,-211.995l38.821,0l4.854,31.885c10.514,-17.803 27.096,-31.885 61.063,-31.885l9.708,0Z" style="fill:#111;fill-rule:nonzero;"/><path d="M5206.062,953.434l43.676,0l0,180.529l93.823,-102.686l51.361,0l-78.052,85.708l82.906,126.29l-51.764,0l-61.063,-93.577l-37.207,39.747l0,53.827l-43.676,0l0,-289.838l-0.003,0Z" style="fill:#111;fill-rule:nonzero;"/><path d="M5392.333,1137.686c0,-65.422 40.844,-108.896 101.911,-108.896c59.852,0 99.888,38.92 101.102,101.027c0,5.382 -0.403,11.18 -1.211,16.975l-156.103,0l0,2.899c1.211,36.024 23.456,59.621 57.829,59.621c26.69,0 46.101,-13.664 52.167,-37.264l43.676,0c-7.28,41.819 -42.055,73.704 -93.417,73.704c-65.109,0 -105.953,-43.059 -105.953,-108.069l0,0.003Zm157.717,-23.604c-3.64,-31.466 -25.073,-49.272 -55.407,-49.272c-27.902,0 -51.764,19.046 -54.998,49.272l110.405,0Z" style="fill:#111;fill-rule:nonzero;"/><path d="M5636.556,1070.611l-35.99,0l0,-39.335l35.99,0l0,-59.209l44.078,0l0,59.209l50.553,0l0,39.335l-50.553,0l0,110.552c0,16.563 5.663,22.773 22.242,22.773l30.733,0l0,39.335l-40.442,0c-39.633,0 -56.618,-19.046 -56.618,-57.553l0,-115.11l0.003,0l0.003,0.003Z" style="fill:#111;fill-rule:nonzero;"/><path d="M5787.399,1173.298c1.62,21.945 20.219,37.68 51.764,37.68c27.096,0 44.89,-10.765 44.89,-27.743c0,-22.773 -19.008,-24.431 -50.955,-28.567c-47.319,-5.798 -84.52,-16.15 -84.52,-60.04c0,-40.166 35.185,-66.25 84.926,-65.835c50.955,0 86.949,24.016 89.777,67.49l-42.867,0c-2.426,-19.461 -20.219,-33.125 -46.101,-33.125c-25.879,0 -42.867,10.765 -42.867,27.743c0,19.874 19.817,22.36 49.741,25.672c47.319,5.798 85.734,15.735 85.734,62.939c0,40.578 -37.61,66.25 -87.754,66.25c-55.407,0 -93.417,-26.503 -94.631,-72.46l42.867,0l-0.003,-0.003Z" style="fill:#111;fill-rule:nonzero;"/><path d="M2234.331,1289.836c-102.857,0 -186.537,-85.676 -186.537,-190.987l44.768,0c0,80.035 63.598,145.151 141.769,145.151c78.17,0 141.769,-65.115 141.769,-145.151c0,-80.035 -63.598,-145.151 -141.769,-145.151l0,-45.836c102.857,0 186.537,85.676 186.537,190.987c0,105.31 -83.68,190.987 -186.537,190.987Z" style="fill:#006dff;fill-rule:nonzero;"/><path d="M2234.331,1381.508c-152.229,0 -276.076,-126.801 -276.076,-282.662c0,-155.861 123.847,-282.662 276.076,-282.662c152.229,0 276.076,126.801 276.076,282.662l-44.768,0c0,-130.586 -103.762,-236.826 -231.308,-236.826c-127.543,0 -231.308,106.237 -231.308,236.826c0,130.586 103.762,236.826 231.308,236.826l0,45.836Z" style="fill:#006dff;fill-rule:nonzero;"/><ellipse cx="970.246" cy="1439.896" rx="157.883" ry="54.571" style="fill:#efd21d;"/><ellipse cx="975.429" cy="714.438" rx="157.883" ry="54.571" style="fill:#efd21d;"/></svg>