<?xml version="1.0" encoding="UTF-8" standalone="no"?><!DOCTYPE svg PUBLIC "-//W3C//DTD SVG 1.1//EN" "http://www.w3.org/Graphics/SVG/1.1/DTD/svg11.dtd"><svg width="100%" height="100%" viewBox="0 0 1656 687" version="1.1" xmlns="http://www.w3.org/2000/svg" xmlns:xlink="http://www.w3.org/1999/xlink" xml:space="preserve" xmlns:serif="http://www.serif.com/" style="fill-rule:evenodd;clip-rule:evenodd;stroke-linejoin:round;stroke-miterlimit:2;"><path d="M136.446,100.942c0,0 -30.466,-48.885 -33.504,-71.2c-1.757,-12.902 7.292,-24.803 20.195,-26.56c12.902,-1.757 24.803,7.292 26.56,20.195c3.038,22.315 -13.251,77.565 -13.251,77.565Z" style="fill:#216435;"/><path d="M141.333,101.86c0,0 -2.188,-56.988 6.433,-77.368c5.207,-12.31 19.428,-18.076 31.738,-12.869c12.31,5.207 18.076,19.428 12.869,31.738c-8.621,20.38 -51.039,58.499 -51.039,58.499Z" style="fill:#77ce68;"/><path d="M1188.262,31.515l217.816,90.11l-16.153,39.046l-163.362,-67.582l-38.301,-61.574Z" style="fill:#5d4937;"/><path d="M1656,180.88l0,210.34c0,58.045 -47.125,105.17 -105.17,105.17l-1445.66,0c-58.045,0 -105.17,-47.125 -105.17,-105.17l0,-210.34c0,-58.045 47.125,-105.17 105.17,-105.17l1445.66,0c58.045,0 105.17,47.125 105.17,105.17Z" style="fill:#5d4937;"/><path d="M1656,220.987l0,123.089c0,33.967 -27.577,61.544 -61.544,61.544l-1532.911,0c-33.967,0 -61.544,-27.577 -61.544,-61.544l0,-123.089c0,-33.967 27.577,-61.544 61.544,-61.544l1532.911,0c33.967,0 61.544,27.577 61.544,61.544Z" style="fill:#986f4a;"/><path d="M1485.386,194.926l0,180c0,49.672 -40.328,90 -90,90l-1134.771,0c-49.672,0 -90,-40.328 -90,-90l0,-180c0,-49.672 40.328,-90 90,-90l1134.771,0c49.672,0 90,40.328 90,90Z" style="fill:#a67c5a;"/><ellipse cx="587.857" cy="303.322" rx="313.143" ry="7.507" style="fill:#402b2b;"/><ellipse cx="102.057" cy="219.674" rx="35.389" ry="3.217" style="fill:#402b2b;"/><ellipse cx="1475.81" cy="219.674" rx="83.648" ry="7.507" style="fill:#402b2b;"/><ellipse cx="952.476" cy="159.619" rx="62.2" ry="5.362" style="fill:#402b2b;"/><ellipse cx="934.245" cy="335.494" rx="82.575" ry="7.507" style="fill:#402b2b;"/><ellipse cx="965.345" cy="233.615" rx="388.211" ry="8.579" style="fill:#402b2b;"/><ellipse cx="370.159" cy="406.273" rx="299.202" ry="9.652" style="fill:#402b2b;"/><ellipse cx="1173.392" cy="231.47" rx="105.096" ry="8.579" style="fill:#402b2b;"/><ellipse cx="1244.17" cy="391.259" rx="135.123" ry="7.507" style="fill:#402b2b;"/><ellipse cx="306.886" cy="171.415" rx="145.847" ry="8.579" style="fill:#402b2b;"/><ellipse cx="1461.869" cy="345.145" rx="125.472" ry="4.29" style="fill:#402b2b;"/><path d="M343.795,582.112l276.832,-122.008c24.253,-0.193 47.441,0.985 68.687,3.489l-313.004,137.951c-14.328,-5.553 -25.304,-12.113 -32.514,-19.431Z" style="fill:#5d4937;"/><path d="M706.499,455.127l-440.787,231.092l84.41,-106.96l220.393,-115.546l135.984,-8.586Z" style="fill:#5d4937;"/><clipPath id="_clip1"><path d="M1485.386,196.794l0,181.533c0,50.095 -40.671,90.766 -90.766,90.766l-1133.238,0c-50.095,0 -90.766,-40.671 -90.766,-90.766l0,-181.533c0,-50.095 40.671,-90.766 90.766,-90.766l1133.238,0c50.095,0 90.766,40.671 90.766,90.766Z"/></clipPath><g clip-path="url(#_clip1)"><g opacity="0.87"><path d="M1485.386,196.794l0,181.533c0,50.095 -40.671,90.766 -90.766,90.766l-1133.238,0c-50.095,0 -90.766,-40.671 -90.766,-90.766l0,-181.533c0,-50.095 40.671,-90.766 90.766,-90.766l1133.238,0c50.095,0 90.766,40.671 90.766,90.766Z" style="fill:#eeecea;"/><clipPath id="_clip2"><path d="M1485.386,196.794l0,181.533c0,50.095 -40.671,90.766 -90.766,90.766l-1133.238,0c-50.095,0 -90.766,-40.671 -90.766,-90.766l0,-181.533c0,-50.095 40.671,-90.766 90.766,-90.766l1133.238,0c50.095,0 90.766,40.671 90.766,90.766Z"/></clipPath><g clip-path="url(#_clip2)"><path d="M1656,221.786l0,123.607c0,34.11 -27.693,61.803 -61.803,61.803l-1532.393,0c-34.11,0 -61.803,-27.693 -61.803,-61.803l0,-123.607c0,-34.11 27.693,-61.803 61.803,-61.803l1532.393,0c34.11,0 61.803,27.693 61.803,61.803Z" style="fill:#eeecea;"/></g></g></g><clipPath id="_clip3"><rect x="209.188" y="159.982" width="1237.625" height="262.085"/></clipPath><g clip-path="url(#_clip3)"><path d="M1056.415,254.806c1.063,-0.073 1.898,-0.968 1.898,-2.034c0,-0.05 -0.002,-0.1 -0.006,-0.15c-0.076,-1.064 -0.972,-1.898 -2.038,-1.898c-1.121,0 -2.044,0.923 -2.044,2.044c0,0.049 0.002,0.097 0.005,0.146c0.096,1.105 1.078,1.94 2.184,1.856m-129.659,-66.067c0,3.255 2.678,5.933 5.933,5.933c3.255,0 5.933,-2.678 5.933,-5.933c0,-3.255 -2.678,-5.933 -5.933,-5.933c-3.255,0 -5.933,2.678 -5.933,5.933m37.675,12.74c0,3.275 2.695,5.97 5.97,5.97c3.275,0 5.97,-2.695 5.97,-5.97c0,-3.275 -2.695,-5.97 -5.97,-5.97c-3.255,0 -5.933,2.678 -5.933,5.933m-141.963,155.395c-0,0.012 -0,0.024 -0,0.036c0,3.275 2.695,5.97 5.97,5.97c3.275,0 5.97,-2.695 5.97,-5.97c0,-3.261 -2.672,-5.95 -5.933,-5.97c-0.012,-0 -0.024,-0 -0.037,-0c-3.241,0 -5.913,2.656 -5.933,5.897m29.303,24.68c0,3.275 2.695,5.97 5.97,5.97c3.275,0 5.97,-2.695 5.97,-5.97c0,-3.275 -2.695,-5.97 -5.97,-5.97c-3.254,0.039 -5.914,2.716 -5.933,5.97m37.347,11.503c0,3.275 2.695,5.97 5.97,5.97c3.275,0 5.97,-2.695 5.97,-5.97c0,-3.275 -2.695,-5.97 -5.97,-5.97c-0.012,-0 -0.024,-0 -0.037,-0c-3.255,0 -5.933,2.678 -5.933,5.933c0,0.012 0,0.024 0,0.037m38.366,-0.473c0.079,3.199 2.732,5.788 5.932,5.788c3.255,0 5.933,-2.678 5.933,-5.933c0,-3.24 -2.655,-5.912 -5.895,-5.933c-0.013,-0 -0.025,-0 -0.038,-0c-3.255,0 -5.933,2.678 -5.933,5.933c0,0.049 0.001,0.097 0.002,0.146m36.838,-11.685c0.04,3.247 2.722,5.896 5.969,5.896c3.275,0 5.97,-2.695 5.97,-5.97c0,-3.247 -2.649,-5.929 -5.896,-5.969c-0.012,-0 -0.024,-0 -0.037,-0c-3.255,0 -5.933,2.678 -5.933,5.933c0,0.012 0,0.024 0,0.037m29.339,-23.588c0,3.275 2.695,5.97 5.97,5.97c3.275,0 5.97,-2.695 5.97,-5.97c0,-3.275 -2.695,-5.97 -5.97,-5.97c-0.012,-0 -0.024,-0 -0.037,-0c-3.255,0 -5.933,2.678 -5.933,5.933c0,0.012 0,0.024 0,0.037m-0.4,-132.135c0.02,3.241 2.692,5.897 5.933,5.897c3.255,0 5.933,-2.678 5.933,-5.933c0,-3.255 -2.678,-5.933 -5.933,-5.933c-0,-0 -0,-0 -0,-0c-3.255,0 -5.933,2.678 -5.933,5.933c0,0.012 0,0.024 0,0.036m-41.679,-15.725c-0.02,-4.14 -3.431,-7.535 -7.571,-7.535c-4.154,0 -7.571,3.418 -7.571,7.571c0,4.153 3.418,7.571 7.571,7.571c0,0 0,0 0,0c4.154,0 7.571,-3.418 7.571,-7.571c0,-0.012 -0,-0.024 -0,-0.036m25.481,15.689c-0.02,-4.14 -3.431,-7.535 -7.571,-7.535c-4.154,0 -7.571,3.418 -7.571,7.571c0,4.153 3.418,7.571 7.571,7.571c0,0 0,0 0,0c4.154,0 7.571,-3.418 7.571,-7.571c0,-0.012 -0,-0.024 -0,-0.036m19.875,22.386c0,-4.173 -3.434,-7.608 -7.608,-7.608c-4.173,0 -7.608,3.434 -7.608,7.608c0,4.173 3.434,7.608 7.608,7.608c0.012,0 0.024,0 0.036,0c4.154,0 7.571,-3.418 7.571,-7.571c0,-0.012 -0,-0.024 -0,-0.036m-54.492,-85.141c0.106,-1.095 -0.692,-2.088 -1.784,-2.22c-1.114,-0.084 -2.106,0.745 -2.22,1.856c-0.084,1.114 0.745,2.106 1.856,2.22c0.063,0.006 0.126,0.009 0.189,0.009c1.033,0 1.905,-0.8 1.995,-1.829m50.743,18.419c0.006,-0.063 0.009,-0.126 0.009,-0.189c0,-1.033 -0.8,-1.905 -1.829,-1.995c-1.111,0.039 -2.003,0.964 -2.002,2.075c0.033,0.962 0.73,1.781 1.674,1.966c1.106,0.083 2.088,-0.751 2.184,-1.856m39.859,28.611c0.006,-0.063 0.009,-0.126 0.009,-0.189c0,-1.053 -0.816,-1.942 -1.865,-2.031c-0.063,-0.006 -0.126,-0.009 -0.189,-0.009c-1.033,0 -1.905,0.8 -1.995,1.829c-0.201,1.095 0.513,2.167 1.602,2.402c1.103,0.179 2.167,-0.546 2.402,-1.638c0.018,-0.133 0.018,-0.268 0,-0.4m-68.979,-26.427c0.004,-0.068 0.005,-0.136 0.005,-0.204c0,-2.117 -1.742,-3.858 -3.858,-3.858c-2.117,0 -3.858,1.742 -3.858,3.858c0,1.991 1.542,3.672 3.525,3.844c0.111,0.01 0.222,0.014 0.333,0.014c2.04,0 3.745,-1.618 3.853,-3.654m38.694,19.365c0.01,-0.111 0.014,-0.222 0.014,-0.333c0,-2.04 -1.618,-3.745 -3.654,-3.853c-0.215,-0.037 -0.432,-0.055 -0.649,-0.055c-2.117,0 -3.858,1.742 -3.858,3.858c0,1.977 1.52,3.651 3.489,3.841l0.364,0c0.11,0.01 0.221,0.014 0.331,0.014c2.034,0 3.729,-1.623 3.818,-3.654m26.5,27.555c-0.068,-0.004 -0.136,-0.005 -0.204,-0.005c-2.117,0 -3.858,1.742 -3.858,3.858c0,2.117 1.742,3.858 3.858,3.858c1.991,0 3.672,-1.542 3.844,-3.525c0.01,-0.111 0.014,-0.222 0.014,-0.333c0,-2.04 -1.618,-3.745 -3.654,-3.853m-115.427,-57.368c-0.012,-0 -0.024,-0 -0.036,-0c-2.137,0 -3.895,1.758 -3.895,3.895c0,2.137 1.758,3.895 3.895,3.895c2.123,0 3.875,-1.736 3.895,-3.858c0,-0.012 0,-0.024 0,-0.037c0,-2.097 -1.725,-3.822 -3.822,-3.822c-0.012,0 -0.024,0 -0.037,0m-18.783,10.593c-0.012,-0 -0.024,-0 -0.036,-0c-3.275,0 -5.97,2.695 -5.97,5.97c0,3.275 2.695,5.97 5.97,5.97c3.261,0 5.95,-2.672 5.97,-5.933c0,-3.255 -2.678,-5.933 -5.933,-5.933m-37.675,12.558c-0.012,-0 -0.024,-0 -0.036,-0c-3.275,0 -5.97,2.695 -5.97,5.97c0,3.275 2.695,5.97 5.97,5.97c3.261,0 5.95,-2.672 5.97,-5.933c-0.019,-3.254 -2.68,-5.93 -5.933,-5.97m-55.147,89.801c-0.012,-0 -0.024,-0 -0.036,-0c-3.275,0 -5.97,2.695 -5.97,5.97c0,3.275 2.695,5.97 5.97,5.97c3.261,0 5.95,-2.672 5.97,-5.933c0,-3.255 -2.678,-5.933 -5.933,-5.933m7.28,-35.054c-0.012,-0 -0.024,-0 -0.036,-0c-3.275,0 -5.97,2.695 -5.97,5.97c0,3.275 2.695,5.97 5.97,5.97c3.261,0 5.95,-2.672 5.97,-5.933c0.081,-3.229 -2.487,-5.961 -5.715,-6.079m18.965,-31.268c-0.012,-0 -0.024,-0 -0.036,-0c-3.275,0 -5.97,2.695 -5.97,5.97c0,3.275 2.695,5.97 5.97,5.97c3.261,0 5.95,-2.672 5.97,-5.933c-0.019,-3.254 -2.68,-5.93 -5.933,-5.97m85.141,166.206c0.012,0 0.024,0 0.036,0c4.173,0 7.608,-3.434 7.608,-7.608c0,-4.173 -3.434,-7.608 -7.608,-7.608c-4.16,0 -7.588,3.412 -7.608,7.571c-0,4.16 3.412,7.588 7.571,7.608m0,-172.831c0.012,0 0.024,0 0.036,0c4.173,0 7.608,-3.434 7.608,-7.608c0,-4.173 -3.434,-7.608 -7.608,-7.608c-4.16,0 -7.588,3.412 -7.608,7.571c-0,4.16 3.412,7.588 7.571,7.608m-30.213,4.477c0.012,0 0.024,0 0.036,0c4.173,0 7.608,-3.434 7.608,-7.608c0,-4.173 -3.434,-7.608 -7.608,-7.608c-4.16,0 -7.588,3.412 -7.608,7.571c-0,0.012 -0,0.024 -0,0.036c0,4.14 3.395,7.551 7.535,7.571m-25.481,15.689c0.012,0 0.024,0 0.036,0c4.173,0 7.608,-3.434 7.608,-7.608c0,-4.173 -3.434,-7.608 -7.608,-7.608c-4.16,0 -7.588,3.412 -7.608,7.571c-0,0.012 -0,0.024 -0,0.036c0,4.14 3.395,7.551 7.535,7.571m-20.093,22.496c0.108,0.005 0.217,0.007 0.325,0.007c4.173,0 7.608,-3.434 7.608,-7.608c0,-4.173 -3.434,-7.608 -7.608,-7.608c-4.102,0 -7.504,3.318 -7.605,7.419c-0,0.012 -0,0.024 -0,0.036c0,4.14 3.395,7.551 7.535,7.571m-8.263,28.283c0.012,0 0.024,0 0.036,0c4.173,0 7.608,-3.434 7.608,-7.608c0,-4.173 -3.434,-7.608 -7.608,-7.608c-4.16,0 -7.588,3.412 -7.608,7.571c0,4.154 3.418,7.571 7.571,7.571m57.331,-118.885c1.111,-0.114 1.941,-1.107 1.856,-2.22c-0.114,-1.111 -1.107,-1.941 -2.22,-1.856c-1.031,0.087 -1.833,0.96 -1.833,1.995c0,0.075 0.004,0.151 0.013,0.226c0.073,1.043 0.952,1.862 1.997,1.862c0.05,0 0.1,-0.002 0.15,-0.006m-50.706,18.419c1.043,-0.073 1.862,-0.952 1.862,-1.997c0,-0.05 -0.002,-0.1 -0.006,-0.15c-0.096,-1.105 -1.078,-1.94 -2.184,-1.856c-1.043,0.073 -1.862,0.952 -1.862,1.997c0,0.05 0.002,0.1 0.006,0.15c0.096,1.105 1.078,1.94 2.184,1.856m219.788,159.108c1.118,-0 2.038,-0.92 2.038,-2.038c0,-1.118 -0.92,-2.038 -2.038,-2.038l-0.437,0c-1.043,0.073 -1.862,0.952 -1.862,1.997c0,0.05 0.002,0.1 0.006,0.15c0.096,1.105 1.078,1.94 2.184,1.856m-24.316,33.853c1.102,-0.132 1.922,-1.112 1.856,-2.22c-0.114,-1.111 -1.107,-1.941 -2.22,-1.856c-1.111,0.114 -1.941,1.107 -1.856,2.22c0.089,1.049 0.978,1.865 2.031,1.865c0.063,0 0.126,-0.003 0.189,-0.009m-40.478,28.502c1.043,-0.073 1.862,-0.952 1.862,-1.997c0,-0.05 -0.002,-0.1 -0.006,-0.15c0,-1.118 -0.92,-2.038 -2.038,-2.038c-1.118,0 -2.038,0.92 -2.038,2.038c-0.018,0.133 -0.018,0.268 0,0.4c0.089,1.029 0.961,1.829 1.995,1.829c0.063,0 0.127,-0.003 0.189,-0.009m-50.633,18.128c1.057,-0.085 1.881,-0.978 1.881,-2.038c0,-1.122 -0.923,-2.045 -2.045,-2.045c-0.055,0 -0.109,0.002 -0.164,0.007c-1.057,0.085 -1.881,0.978 -1.881,2.038c0,1.122 0.923,2.045 2.045,2.045c0.055,0 0.109,-0.002 0.164,-0.007m-53.436,0c1.05,-0.094 1.865,-0.984 1.865,-2.038c0,-1.123 -0.924,-2.047 -2.047,-2.047c-0.061,0 -0.121,0.003 -0.182,0.008c-1.057,0.085 -1.881,0.978 -1.881,2.038c0,1.122 0.923,2.045 2.045,2.045c0.055,0 0.109,-0.002 0.164,-0.007m-50.743,-18.455c1.043,-0.073 1.862,-0.952 1.862,-1.997c0,-0.05 -0.002,-0.1 -0.006,-0.15c-0.096,-1.105 -1.078,-1.94 -2.184,-1.856c-1.043,0.073 -1.862,0.952 -1.862,1.997c0,0.05 0.002,0.1 0.006,0.15c0.096,1.105 1.078,1.94 2.184,1.856m-40.041,-28.575c1.063,-0.073 1.898,-0.968 1.898,-2.034c0,-0.05 -0.002,-0.1 -0.006,-0.15c-0.076,-1.064 -0.972,-1.898 -2.038,-1.898c-1.121,0 -2.044,0.923 -2.044,2.044c0,0.049 0.002,0.097 0.005,0.146c0.096,1.105 1.078,1.94 2.184,1.856m-25.044,-33.452c1.118,-0 2.038,-0.92 2.038,-2.038c0,-1.118 -0.92,-2.038 -2.038,-2.038l-0.437,0c-0.958,0.182 -1.658,1.027 -1.658,2.003c0,1.098 0.888,2.01 1.986,2.038m25.335,-130.569c1.063,-0.073 1.898,-0.968 1.898,-2.034c0,-0.05 -0.002,-0.1 -0.006,-0.15c-0.076,-1.064 -0.972,-1.898 -2.038,-1.898c-1.121,0 -2.044,0.923 -2.044,2.044c0,0.049 0.002,0.097 0.005,0.146c0.096,1.105 1.078,1.94 2.184,1.856m70.945,-24.789c1.909,-0.254 3.35,-1.899 3.35,-3.825c0,-2.117 -1.742,-3.858 -3.858,-3.858c-0.049,0 -0.098,0.001 -0.147,0.003c-1.9,0.263 -3.33,1.904 -3.33,3.822c0,2.11 1.73,3.848 3.84,3.858m-38.73,19.365c1.926,-0.096 3.458,-1.707 3.458,-3.636c0,-1.997 -1.643,-3.64 -3.64,-3.64c-1.997,0 -3.64,1.643 -3.64,3.64c0,1.928 1.532,3.539 3.458,3.636l0.364,0m-34.144,28.247c0,1.997 1.643,3.64 3.64,3.64l0.546,0c2.095,-0.031 3.802,-1.763 3.802,-3.858c0,-2.117 -1.742,-3.858 -3.858,-3.858c-0.176,0 -0.352,0.012 -0.526,0.036c-2.104,0.117 -3.743,1.936 -3.64,4.04m249.891,73.311c-1.994,0.169 -3.545,1.858 -3.545,3.858c0,2.124 1.748,3.872 3.872,3.872c0.109,0 0.219,-0.005 0.328,-0.014c1.994,-0.169 3.545,-1.858 3.545,-3.858c0,-2.124 -1.748,-3.872 -3.872,-3.872c-0.109,0 -0.219,0.005 -0.328,0.014m-14.997,37.493c-1.909,0.254 -3.35,1.899 -3.35,3.825c0,2.117 1.742,3.858 3.858,3.858c0.049,0 0.098,-0.001 0.147,-0.003c1.9,-0.263 3.33,-1.904 3.33,-3.822c0,-2.11 -1.73,-3.848 -3.84,-3.858m-29.958,31.851c-2.095,0.031 -3.802,1.763 -3.802,3.858c0,2.117 1.742,3.858 3.858,3.858c0.176,0 0.352,-0.012 0.526,-0.036c2.104,-0.117 3.743,-1.936 3.64,-4.04c0,-1.997 -1.643,-3.64 -3.64,-3.64l-0.546,0m-39.64,19.402c-2.104,0.117 -3.743,1.936 -3.64,4.04c0.078,2.062 1.795,3.716 3.858,3.716c2.118,0 3.861,-1.743 3.861,-3.861c0,-0.049 -0.001,-0.097 -0.003,-0.146c-0.002,-0.049 0,-0.255 0,-0.364c-0.094,-2.028 -1.788,-3.645 -3.818,-3.645c-0.062,0 -0.124,0.002 -0.186,0.005m-46.739,6.516c-2.062,0.078 -3.716,1.795 -3.716,3.858c0,2.118 1.743,3.861 3.861,3.861c0.049,0 0.097,-0.001 0.146,-0.003l0.364,0c1.909,-0.254 3.35,-1.899 3.35,-3.825c0,-2.117 -1.742,-3.858 -3.858,-3.858c-0.049,0 -0.098,0.001 -0.147,0.003m-44.7,-5.133c-1.984,0.172 -3.525,1.853 -3.525,3.844c0,2.117 1.742,3.858 3.858,3.858c2.117,0 3.858,-1.742 3.858,-3.858c0,-0.068 -0.002,-0.136 -0.005,-0.204c-0.108,-2.037 -1.813,-3.654 -3.853,-3.654c-0.111,0 -0.222,0.005 -0.333,0.014m-40.441,-20.421c-2.062,0.078 -3.716,1.795 -3.716,3.858c0,2.118 1.743,3.861 3.861,3.861c0.049,0 0.097,-0.001 0.146,-0.003l0.364,0c1.909,-0.254 3.35,-1.899 3.35,-3.825c0,-2.117 -1.742,-3.858 -3.858,-3.858c-0.049,0 -0.098,0.001 -0.147,0.003m-30.031,-31.887c-1.909,0.254 -3.35,1.899 -3.35,3.825c0,2.117 1.742,3.858 3.858,3.858c0.049,0 0.098,-0.001 0.147,-0.003c1.9,-0.263 3.33,-1.904 3.33,-3.822c0,-2.11 -1.73,-3.848 -3.84,-3.858m-16.744,-73.93c-1.909,0.254 -3.35,1.899 -3.35,3.825c0,2.117 1.742,3.858 3.858,3.858c0.049,0 0.098,-0.001 0.147,-0.003c1.9,-0.263 3.33,-1.904 3.33,-3.822c0,-2.11 -1.73,-3.848 -3.84,-3.858m109.712,101.922c0,-4.154 -3.418,-7.571 -7.571,-7.571c-4.154,0 -7.571,3.418 -7.571,7.571c0,4.154 3.418,7.571 7.571,7.571c4.154,0 7.571,-3.418 7.571,-7.571m52.271,-7.608c-0.012,-0 -0.024,-0 -0.036,-0c-4.173,0 -7.608,3.434 -7.608,7.608c0,4.173 3.434,7.608 7.608,7.608c4.16,0 7.588,-3.412 7.608,-7.571c0,-0.012 0,-0.024 0,-0.036c0,-4.14 -3.395,-7.551 -7.535,-7.571m25.954,-15.07c-0.061,-0.001 -0.121,-0.002 -0.182,-0.002c-4.173,0 -7.608,3.434 -7.608,7.608c0,4.173 3.434,7.608 7.608,7.608c4.145,0 7.567,-3.388 7.607,-7.533c0.001,-0.037 0.001,-0.073 0.001,-0.11c0,-4.193 -3.451,-7.644 -7.644,-7.644c-0.037,0 -0.073,0 -0.11,0.001m27.519,-15.252c-0.02,-4.14 -3.431,-7.535 -7.571,-7.535c-4.154,0 -7.571,3.418 -7.571,7.571c0,4.153 3.418,7.571 7.571,7.571c0,0 0,0 0,0c4.154,0 7.571,-3.418 7.571,-7.571c0,-0.012 -0,-0.024 -0,-0.036m-138.65,14.924c-0.012,-0 -0.024,-0 -0.036,-0c-4.173,0 -7.608,3.434 -7.608,7.608c0,4.173 3.434,7.608 7.608,7.608c4.16,0 7.588,-3.412 7.608,-7.571c0,-0.012 0,-0.024 0,-0.036c0,-4.14 -3.395,-7.551 -7.535,-7.571m-20.093,-22.496c-0.024,-0 -0.048,-0 -0.072,-0c-4.173,0 -7.608,3.434 -7.608,7.608c0,4.173 3.434,7.608 7.608,7.608c4.173,0 7.608,-3.434 7.608,-7.608c0,-0.024 -0,-0.048 -0,-0.072c0,-4.154 -3.418,-7.571 -7.571,-7.571m303.946,-65.23l46.921,0l0,62.609l16.49,0l0,-62.609l42.807,0l3.968,-10.92l-106.181,0l-4.004,10.92Zm-380.424,-10.92l-16.49,0l0,73.529l75.204,0l4.04,-10.92l-62.755,0l0,-62.609Zm153.283,0l39.75,72.801l17.654,0l-39.75,-72.619l-17.654,-0.182Zm-60.061,72.801l17.654,0l39.713,-72.619l-17.654,0l-39.713,72.619Zm237.078,-18.2l-69.161,-54.31l-16.562,0l0,72.51l16.49,0l0,-54.601l69.161,54.601l16.453,0l0,-72.619l-16.453,0l0.073,54.419Zm333.212,-23.624l-50.524,0c-0.279,0.026 -0.559,0.038 -0.839,0.038c-4.738,0 -8.742,-3.656 -9.171,-8.374c-0.018,-0.267 -0.018,-0.534 0,-0.801l0,-2.038c0.078,-4.898 4.128,-8.884 9.026,-8.884c0.073,0 0.146,0.001 0.22,0.003l68.797,0l4.004,-10.92l-77.024,0c-13.869,0 -20.93,9.355 -21.112,18.637l0,4.805c0,9.428 7.28,19.183 21.513,19.183l50.524,0c0.279,-0.026 0.559,-0.038 0.839,-0.038c4.738,0 8.742,3.656 9.171,8.374c0.018,0.23 0.018,0.461 0,0.692l0,2.038c-0.097,4.903 -4.158,8.884 -9.062,8.884c-0.061,0 -0.123,-0.001 -0.184,-0.002l-68.797,0l-4.004,10.92l77.024,0c13.869,0 20.93,-9.355 21.112,-18.637l0,-4.841c0,-9.391 -7.28,-19.147 -21.513,-19.147m-1139.343,0l-50.67,0c-0.279,0.026 -0.559,0.038 -0.839,0.038c-4.738,0 -8.742,-3.656 -9.171,-8.374c-0.018,-0.23 -0.018,-0.461 0,-0.692l0,-2.038c0.078,-4.897 4.128,-8.883 9.026,-8.883c0.049,0 0.098,0 0.147,0.001l68.87,0l4.15,-10.92l-77.17,0c-13.832,0.328 -20.93,9.537 -21.112,18.819l0,4.805c0,9.428 7.28,19.183 21.513,19.183l50.524,0c0.279,-0.026 0.559,-0.038 0.839,-0.038c4.738,0 8.742,3.656 9.171,8.374c0.018,0.23 0.018,0.461 0,0.692l0,2.038c-0.097,4.903 -4.158,8.884 -9.062,8.884c-0.061,0 -0.123,-0.001 -0.184,-0.002l-68.797,0l-4.004,10.92l77.024,0c13.869,0 20.93,-9.355 21.112,-18.637l0,-5.023c0,-9.391 -7.28,-19.147 -21.513,-19.147m1001.42,41.934l16.49,0l0,-72.619l-16.49,0l0,72.619Zm-943.98,-61.881l46.884,0l0,62.609l16.49,0l0,-62.609l42.807,0l4.004,-10.92l-106.217,0l-3.968,10.92Zm225.685,0l4.004,-10.92l-83.467,0l0,73.529l79.572,0l4.004,-10.92l-66.977,0l0,-20.639l46.848,0l3.968,-10.702l-50.961,0l0,-20.348l63.01,0Zm70.071,51.762l62.755,0l-4.04,10.92l-75.204,0l0,-73.42l16.49,0l0,62.5Z" style="fill:#243882;fill-rule:nonzero;"/></g></svg>