<?xml version="1.0" encoding="UTF-8" standalone="no"?><!DOCTYPE svg PUBLIC "-//W3C//DTD SVG 1.1//EN" "http://www.w3.org/Graphics/SVG/1.1/DTD/svg11.dtd"><svg width="100%" height="100%" viewBox="0 0 1656 687" version="1.1" xmlns="http://www.w3.org/2000/svg" xmlns:xlink="http://www.w3.org/1999/xlink" xml:space="preserve" xmlns:serif="http://www.serif.com/" style="fill-rule:evenodd;clip-rule:evenodd;stroke-linejoin:round;stroke-miterlimit:2;"><path d="M136.446,100.942c0,0 -30.466,-48.885 -33.504,-71.2c-1.757,-12.902 7.292,-24.803 20.195,-26.56c12.902,-1.757 24.803,7.292 26.56,20.195c3.038,22.315 -13.251,77.565 -13.251,77.565Z" style="fill:#216435;"/><path d="M141.333,101.86c0,0 -2.188,-56.988 6.433,-77.368c5.207,-12.31 19.428,-18.076 31.738,-12.869c12.31,5.207 18.076,19.428 12.869,31.738c-8.621,20.38 -51.039,58.499 -51.039,58.499Z" style="fill:#77ce68;"/><path d="M1188.262,31.515l217.816,90.11l-16.153,39.046l-163.362,-67.582l-38.301,-61.574Z" style="fill:#5d4937;"/><path d="M1656,180.88l0,210.34c0,58.045 -47.125,105.17 -105.17,105.17l-1445.66,0c-58.045,0 -105.17,-47.125 -105.17,-105.17l0,-210.34c0,-58.045 47.125,-105.17 105.17,-105.17l1445.66,0c58.045,0 105.17,47.125 105.17,105.17Z" style="fill:#5d4937;"/><path d="M1656,220.987l0,123.089c0,33.967 -27.577,61.544 -61.544,61.544l-1532.911,0c-33.967,0 -61.544,-27.577 -61.544,-61.544l0,-123.089c0,-33.967 27.577,-61.544 61.544,-61.544l1532.911,0c33.967,0 61.544,27.577 61.544,61.544Z" style="fill:#986f4a;"/><path d="M1485.386,194.926l0,180c0,49.672 -40.328,90 -90,90l-1134.771,0c-49.672,0 -90,-40.328 -90,-90l0,-180c0,-49.672 40.328,-90 90,-90l1134.771,0c49.672,0 90,40.328 90,90Z" style="fill:#a67c5a;"/><ellipse cx="587.857" cy="303.322" rx="313.143" ry="7.507" style="fill:#402b2b;"/><ellipse cx="102.057" cy="219.674" rx="35.389" ry="3.217" style="fill:#402b2b;"/><ellipse cx="1475.81" cy="219.674" rx="83.648" ry="7.507" style="fill:#402b2b;"/><ellipse cx="952.476" cy="159.619" rx="62.2" ry="5.362" style="fill:#402b2b;"/><ellipse cx="934.245" cy="335.494" rx="82.575" ry="7.507" style="fill:#402b2b;"/><ellipse cx="965.345" cy="233.615" rx="388.211" ry="8.579" style="fill:#402b2b;"/><ellipse cx="370.159" cy="406.273" rx="299.202" ry="9.652" style="fill:#402b2b;"/><ellipse cx="1173.392" cy="231.47" rx="105.096" ry="8.579" style="fill:#402b2b;"/><ellipse cx="1244.17" cy="391.259" rx="135.123" ry="7.507" style="fill:#402b2b;"/><ellipse cx="306.886" cy="171.415" rx="145.847" ry="8.579" style="fill:#402b2b;"/><ellipse cx="1461.869" cy="345.145" rx="125.472" ry="4.29" style="fill:#402b2b;"/><path d="M343.795,582.112l276.832,-122.008c24.253,-0.193 47.441,0.985 68.687,3.489l-313.004,137.951c-14.328,-5.553 -25.304,-12.113 -32.514,-19.431Z" style="fill:#5d4937;"/><path d="M706.499,455.127l-440.787,231.092l84.41,-106.96l220.393,-115.546l135.984,-8.586Z" style="fill:#5d4937;"/><clipPath id="_clip1"><path d="M1485.386,196.794l0,181.533c0,50.095 -40.671,90.766 -90.766,90.766l-1133.238,0c-50.095,0 -90.766,-40.671 -90.766,-90.766l0,-181.533c0,-50.095 40.671,-90.766 90.766,-90.766l1133.238,0c50.095,0 90.766,40.671 90.766,90.766Z"/></clipPath><g clip-path="url(#_clip1)"><g opacity="0.87"><path d="M1485.386,196.794l0,181.533c0,50.095 -40.671,90.766 -90.766,90.766l-1133.238,0c-50.095,0 -90.766,-40.671 -90.766,-90.766l0,-181.533c0,-50.095 40.671,-90.766 90.766,-90.766l1133.238,0c50.095,0 90.766,40.671 90.766,90.766Z" style="fill:#eeecea;"/><clipPath id="_clip2"><path d="M1485.386,196.794l0,181.533c0,50.095 -40.671,90.766 -90.766,90.766l-1133.238,0c-50.095,0 -90.766,-40.671 -90.766,-90.766l0,-181.533c0,-50.095 40.671,-90.766 90.766,-90.766l1133.238,0c50.095,0 90.766,40.671 90.766,90.766Z"/></clipPath><g clip-path="url(#_clip2)"><path d="M1656,221.786l0,123.607c0,34.11 -27.693,61.803 -61.803,61.803l-1532.393,0c-34.11,0 -61.803,-27.693 -61.803,-61.803l0,-123.607c0,-34.11 27.693,-61.803 61.803,-61.803l1532.393,0c34.11,0 61.803,27.693 61.803,61.803Z" style="fill:#eeecea;"/></g></g></g><path d="M475.565,302.327c0,15.546 -13.084,26.168 -33.553,26.168c-20.469,0 -33.553,-10.752 -33.553,-29.407l14.12,0c0.259,11.141 8.68,17.489 20.209,17.489c10.234,0 18.137,-5.83 18.137,-15.158c0,-8.421 -6.607,-13.862 -19.173,-13.862l-8.292,0l0,-11.919l7.514,0c11.919,0 17.878,-5.959 17.878,-14.25c0,-8.292 -7.385,-13.214 -16.841,-13.214c-10.234,0 -17.618,6.218 -17.878,15.675l-13.991,0c0.129,-16.323 13.214,-27.594 31.869,-27.594c19.561,0 31.48,9.716 31.48,24.226c0,11.141 -6.477,17.749 -15.158,20.08c8.938,1.814 17.23,8.161 17.23,21.764l0.001,0.001Z" style="fill:#111;fill-rule:nonzero;"/><path d="M482.677,283.025c0,-29.407 13.603,-46.767 35.755,-46.767c16.711,0 28.889,9.716 31.092,25.651l-14.25,0c-1.943,-8.421 -8.032,-13.732 -17.749,-13.732c-13.991,0 -21.764,12.177 -21.764,30.962c0,1.036 0,1.814 0.129,3.498c0.259,-0.519 0.388,-1.295 0.907,-2.203c4.146,-7.902 12.696,-13.084 23.578,-13.084c18.007,0 30.573,12.177 30.573,30.573c0,17.878 -13.214,30.573 -32.516,30.573c-12.567,0 -22.023,-5.441 -28.111,-14.639c-4.794,-7.902 -7.644,-18.654 -7.644,-30.833Zm35.884,-3.886c-11.012,0 -18.654,7.644 -18.654,18.914c0,11.012 7.385,18.654 18.396,18.654c11.012,0 18.266,-7.773 18.266,-18.785c0,-11.012 -6.866,-18.785 -18.007,-18.785l-0.001,0.001Z" style="fill:#111;fill-rule:nonzero;"/><path d="M625.18,297.274c0,20.34 -15.158,31.092 -32.905,31.092c-20.598,0 -32.776,-13.084 -33.683,-29.278l14.25,0c1.036,9.457 7.902,17.23 19.561,17.23c9.328,0 18.266,-6.477 18.266,-19.044c0,-11.012 -7.125,-18.914 -18.266,-18.914c-5.441,0 -14.639,1.814 -18.266,11.141l-13.862,-0.259l2.85,-52.208l56.612,0l0,12.567l-43.528,0l-1.555,24.614c5.053,-5.441 11.919,-7.644 20.209,-7.644c18.007,0 30.314,12.436 30.314,30.702l0.001,0.001Z" style="fill:#111;fill-rule:nonzero;"/><path d="M668.189,237.035l35.755,0c18.914,0 31.609,11.271 31.609,28.889c0,12.177 -6.996,21.893 -17.618,25.651l19.173,36.144l-16.582,0l-17.489,-32.905l-19.95,0l0,32.905l-14.898,0l0,-90.683Zm14.898,12.955l0,31.869l19.692,0c10.623,0 17.489,-6.218 17.489,-15.934c0,-9.716 -6.866,-15.934 -17.489,-15.934l-19.692,0Z" style="fill:#111;fill-rule:nonzero;"/><path d="M740.786,294.683c0,-20.469 13.084,-34.071 32.646,-34.071c19.173,0 31.998,12.177 32.387,31.609c0,1.684 -0.129,3.498 -0.388,5.311l-50.006,0l0,0.907c0.388,11.271 7.514,18.654 18.525,18.654c8.55,0 14.768,-4.275 16.711,-11.659l13.991,0c-2.332,13.084 -13.472,23.06 -29.925,23.06c-20.857,0 -33.941,-13.472 -33.941,-33.812l0,0.001Zm50.523,-7.385c-1.166,-9.845 -8.032,-15.416 -17.749,-15.416c-8.938,0 -16.582,5.959 -17.618,15.416l35.367,0Z" style="fill:#111;fill-rule:nonzero;"/><path d="M819.02,273.697l-11.529,0l0,-12.307l11.529,0l0,-18.525l14.12,0l0,18.525l16.194,0l0,12.307l-16.194,0l0,34.589c0,5.182 1.814,7.125 7.125,7.125l9.845,0l0,12.307l-12.955,0c-12.696,0 -18.137,-5.959 -18.137,-18.007l0,-36.015l0.001,0Z" style="fill:#111;fill-rule:nonzero;"/><path d="M920.365,315.542l0,12.177l-7.385,0c-9.068,0 -12.177,-4.016 -12.177,-10.623c-4.405,6.737 -11.141,11.4 -21.893,11.4c-14.51,0 -24.614,-7.125 -24.614,-19.432c0,-13.603 9.845,-21.245 28.371,-21.245l16.711,0l0,-4.016c0,-7.385 -5.311,-11.919 -14.51,-11.919c-8.292,0 -13.862,3.886 -14.898,9.716l-13.732,0c1.425,-12.955 12.567,-20.987 29.278,-20.987c17.618,0 27.723,8.421 27.723,24.096l0,26.558c0,3.368 1.425,4.275 4.275,4.275l2.85,0l0.001,0.001Zm-20.986,-17.359l-17.36,0c-8.68,0 -13.472,3.239 -13.472,9.976c0,5.57 4.663,9.457 12.307,9.457c11.659,0 18.396,-6.866 18.525,-17.101l0,-2.332Z" style="fill:#111;fill-rule:nonzero;"/><path d="M924.848,243.642c0,-4.923 3.757,-8.421 8.55,-8.421c4.792,0 8.55,3.498 8.55,8.421c0,4.923 -3.757,8.421 -8.55,8.421c-4.792,0 -8.55,-3.498 -8.55,-8.421Zm1.425,17.749l13.991,0l0,66.328l-13.991,0l0,-66.328Z" style="fill:#111;fill-rule:nonzero;"/><rect x="951.74" y="237.035" width="13.991" height="90.683" style="fill:#111;fill-rule:nonzero;"/><path d="M1011.977,237.035l19.303,0l29.018,71.381l28.501,-71.381l18.914,0l0,90.683l-14.38,0l0,-66.717l-27.205,66.717l-12.567,0l-27.205,-66.717l0,66.717l-14.38,0l0,-90.683Z" style="fill:#111;fill-rule:nonzero;"/><path d="M1184.238,315.542l0,12.177l-7.385,0c-9.068,0 -12.177,-4.016 -12.177,-10.623c-4.405,6.737 -11.141,11.4 -21.893,11.4c-14.51,0 -24.614,-7.125 -24.614,-19.432c0,-13.603 9.845,-21.245 28.371,-21.245l16.711,0l0,-4.016c0,-7.385 -5.311,-11.919 -14.51,-11.919c-8.292,0 -13.862,3.886 -14.898,9.716l-13.732,0c1.425,-12.955 12.567,-20.987 29.278,-20.987c17.618,0 27.723,8.421 27.723,24.096l0,26.558c0,3.368 1.425,4.275 4.275,4.275l2.85,0l0.001,0.001Zm-20.986,-17.359l-17.36,0c-8.68,0 -13.472,3.239 -13.472,9.976c0,5.57 4.663,9.457 12.307,9.457c11.659,0 18.396,-6.866 18.525,-17.101l0,-2.332Z" style="fill:#111;fill-rule:nonzero;"/><path d="M1227.221,261.389l0,13.085l-6.218,0c-12.436,0 -16.453,9.716 -16.453,19.95l0,33.293l-13.991,0l0,-66.328l12.436,0l1.555,9.976c3.368,-5.57 8.68,-9.976 19.561,-9.976l3.11,0Z" style="fill:#111;fill-rule:nonzero;"/><path d="M1232.74,237.035l13.991,0l0,56.483l30.055,-32.128l16.453,0l-25.003,26.816l26.558,39.513l-16.582,0l-19.561,-29.278l-11.919,12.436l0,16.841l-13.991,0l0,-90.683Z" style="fill:#111;fill-rule:nonzero;"/><path d="M1292.41,294.683c0,-20.469 13.084,-34.071 32.646,-34.071c19.173,0 31.998,12.177 32.387,31.609c0,1.684 -0.129,3.498 -0.388,5.311l-50.006,0l0,0.907c0.388,11.271 7.514,18.654 18.525,18.654c8.55,0 14.768,-4.275 16.711,-11.659l13.991,0c-2.332,13.084 -13.472,23.06 -29.925,23.06c-20.857,0 -33.941,-13.472 -33.941,-33.812l0,0.001Zm50.523,-7.385c-1.166,-9.845 -8.032,-15.416 -17.749,-15.416c-8.938,0 -16.582,5.959 -17.618,15.416l35.367,0Z" style="fill:#111;fill-rule:nonzero;"/><path d="M1370.644,273.697l-11.529,0l0,-12.307l11.529,0l0,-18.525l14.12,0l0,18.525l16.194,0l0,12.307l-16.194,0l0,34.589c0,5.182 1.814,7.125 7.125,7.125l9.845,0l0,12.307l-12.955,0c-12.696,0 -18.137,-5.959 -18.137,-18.007l0,-36.015l0.001,0Z" style="fill:#111;fill-rule:nonzero;"/><path d="M1418.965,305.825c0.519,6.866 6.477,11.789 16.582,11.789c8.68,0 14.38,-3.368 14.38,-8.68c0,-7.125 -6.089,-7.644 -16.323,-8.938c-15.158,-1.814 -27.075,-5.053 -27.075,-18.785c0,-12.567 11.271,-20.728 27.205,-20.598c16.323,0 27.853,7.514 28.759,21.116l-13.732,0c-0.777,-6.089 -6.477,-10.364 -14.768,-10.364c-8.29,0 -13.732,3.368 -13.732,8.68c0,6.218 6.348,6.996 15.934,8.032c15.158,1.814 27.464,4.923 27.464,19.692c0,12.696 -12.048,20.728 -28.111,20.728c-17.749,0 -29.925,-8.292 -30.314,-22.671l13.732,0l-0.001,-0.001Z" style="fill:#111;fill-rule:nonzero;"/><path d="M280.779,342.287c-32.949,0 -59.755,-26.806 -59.755,-59.755l14.341,0c0,25.041 20.373,45.414 45.414,45.414c25.041,0 45.414,-20.373 45.414,-45.414c0,-25.041 -20.373,-45.414 -45.414,-45.414l0,-14.341c32.949,0 59.755,26.806 59.755,59.755c0,32.949 -26.806,59.755 -59.755,59.755Z" style="fill:#006dff;fill-rule:nonzero;"/><path d="M280.779,370.969c-48.765,0 -88.438,-39.673 -88.438,-88.438c0,-48.765 39.673,-88.438 88.438,-88.438c48.765,0 88.438,39.673 88.438,88.438l-14.341,0c0,-40.857 -33.239,-74.097 -74.097,-74.097c-40.857,0 -74.097,33.239 -74.097,74.097c0,40.857 33.239,74.097 74.097,74.097l0,14.341Z" style="fill:#006dff;fill-rule:nonzero;"/></svg>