<svg width="1440" height="792" viewBox="0 0 1440 792" fill="none" xmlns="http://www.w3.org/2000/svg">
<g clip-path="url(#clip0_56_21)">
<path fill-rule="evenodd" clip-rule="evenodd" d="M1486 41.9697V645.721C1486 645.721 1177.04 601.684 1007.08 604.381C833.26 607.137 570.031 648.526 404.189 658.449C251.689 667.576 -12.4748 633.433 -12.4748 633.433L-15 41.9697C-15 41.9697 262.044 66.8621 426.411 63.5526C590.776 60.2454 842.683 25.8513 1007.08 21.5246C1174.69 17.1135 1486 41.9697 1486 41.9697Z" fill="#56C3FC"/>
<path d="M221 240.158C220.76 240.304 220.571 240.623 220.331 240.769C219.914 241.025 211.035 243.351 210.226 243.565C178.037 252.005 153.14 253.035 148.123 253.243L148.113 253.243C116.501 254.544 101.38 250.116 101.38 250.116C101.38 250.116 79.6763 244.851 78.4049 244.195C41.8328 234.625 8.96039 234.533 -30.2427 240.518C-30.3826 240.558 -30.5256 240.676 -30.6685 240.64C-30.7963 240.606 -30.8723 240.354 -31 240.32C-30.7749 240.132 -30.6016 239.809 -30.3765 239.623C-30.0906 239.385 -23.5024 236.732 -22.9032 236.493C-7.76336 228.847 31.7599 221.869 81.0054 232.958C114.175 242.963 133.869 243.565 140.991 243.565C148.113 243.565 192.856 243.966 219.604 239.957C220.206 239.867 220.206 239.854 220.249 239.859C220.635 239.915 220.608 240.101 221 240.158Z" fill="#A7E1FF" fill-opacity="0.6"/>
<path d="M642 367.971C641.716 368.117 641.493 368.436 641.209 368.581C640.716 368.838 630.217 371.164 629.26 371.378C591.194 379.818 561.753 380.848 555.82 381.055L555.808 381.056C518.426 382.356 500.544 377.929 500.544 377.929C500.544 377.929 474.879 372.664 473.376 372.007C430.128 362.438 391.255 362.346 344.896 368.331C344.73 368.371 344.561 368.489 344.392 368.452C344.241 368.419 344.151 368.166 344 368.133C344.266 367.945 344.471 367.622 344.737 367.436C345.075 367.198 352.866 364.545 353.575 364.305C371.478 356.66 418.216 349.682 476.451 360.771C515.675 370.776 538.964 371.378 547.386 371.378C555.808 371.378 608.718 371.779 640.349 367.77C641.061 367.679 641.061 367.666 641.112 367.672C641.568 367.727 641.536 367.914 642 367.971Z" fill="#A7E1FF" fill-opacity="0.6"/>
<path d="M0 508.971C0.2565 509.117 0.457855 509.436 0.714355 509.581C1.15915 509.838 10.6367 512.164 11.5004 512.378C45.8616 520.818 72.4374 521.848 77.7933 522.055L77.8039 522.056C111.548 523.356 127.69 518.929 127.69 518.929C127.69 518.929 150.857 513.664 152.215 513.007C191.254 503.438 226.344 503.346 268.192 509.331C268.341 509.371 268.494 509.489 268.646 509.452C268.783 509.419 268.864 509.166 269 509.133C268.76 508.945 268.575 508.622 268.334 508.436C268.029 508.198 260.997 505.545 260.357 505.305C244.196 497.66 202.006 490.682 149.439 501.771C114.032 511.776 93.009 512.378 85.4065 512.378C77.8039 512.378 30.0428 512.779 1.49036 508.77C0.847473 508.679 0.847473 508.666 0.802002 508.672C0.389679 508.727 0.418854 508.914 0 508.971Z" fill="#A7E1FF" fill-opacity="0.6"/>
<path d="M785 175.324C784.76 175.178 784.571 174.859 784.331 174.713C783.914 174.457 775.035 172.131 774.226 171.917C742.037 163.477 717.14 162.447 712.123 162.24L712.113 162.239C680.501 160.939 665.38 165.366 665.38 165.366C665.38 165.366 643.676 170.631 642.405 171.287C605.833 180.857 572.96 180.949 533.757 174.964C533.617 174.924 533.474 174.806 533.331 174.843C533.204 174.876 533.128 175.128 533 175.162C533.225 175.35 533.398 175.673 533.623 175.859C533.909 176.097 540.498 178.75 541.097 178.99C556.237 186.635 595.76 193.613 645.005 182.524C678.175 172.519 697.869 171.917 704.991 171.917C712.113 171.917 756.856 171.516 783.604 175.525C784.206 175.615 784.206 175.628 784.249 175.623C784.635 175.568 784.608 175.381 785 175.324Z" fill="#A7E1FF" fill-opacity="0.6"/>
<path d="M768 482.971C768.24 483.117 768.429 483.436 768.669 483.581C769.086 483.838 777.965 486.164 778.774 486.378C810.963 494.818 835.86 495.848 840.877 496.055L840.887 496.056C872.499 497.356 887.62 492.929 887.62 492.929C887.62 492.929 909.324 487.664 910.595 487.007C947.167 477.438 980.04 477.346 1019.24 483.331C1019.38 483.371 1019.53 483.489 1019.67 483.452C1019.8 483.419 1019.87 483.166 1020 483.133C1019.77 482.945 1019.6 482.622 1019.38 482.436C1019.09 482.198 1012.5 479.545 1011.9 479.305C996.763 471.66 957.24 464.682 907.995 475.771C874.825 485.776 855.131 486.378 848.009 486.378C840.887 486.378 796.144 486.779 769.396 482.77C768.794 482.679 768.794 482.667 768.751 482.672C768.365 482.727 768.392 482.914 768 482.971Z" fill="#A7E1FF" fill-opacity="0.6"/>
<path d="M1205 201.242C1204.76 201.387 1204.57 201.707 1204.33 201.852C1203.91 202.109 1195.04 204.435 1194.23 204.649C1162.04 213.089 1137.14 214.119 1132.12 214.326L1132.11 214.327C1100.5 215.627 1085.38 211.2 1085.38 211.2C1085.38 211.2 1063.68 205.935 1062.4 205.278C1025.83 195.709 992.96 195.617 953.757 201.601C953.617 201.642 953.474 201.76 953.331 201.723C953.204 201.69 953.128 201.437 953 201.404C953.225 201.216 953.398 200.893 953.623 200.707C953.909 200.469 960.498 197.816 961.097 197.576C976.237 189.931 1015.76 182.952 1065.01 194.042C1098.17 204.046 1117.87 204.649 1124.99 204.649C1132.11 204.649 1176.86 205.05 1203.6 201.041C1204.21 200.95 1204.21 200.937 1204.25 200.943C1204.63 200.998 1204.61 201.185 1205 201.242Z" fill="#A7E1FF" fill-opacity="0.6"/>
<path d="M1501 456.827C1500.76 456.973 1500.57 457.292 1500.33 457.438C1499.91 457.694 1491.04 460.021 1490.23 460.235C1458.04 468.674 1433.14 469.704 1428.12 469.912L1428.11 469.912C1396.5 471.213 1381.38 466.785 1381.38 466.785C1381.38 466.785 1359.68 461.521 1358.4 460.864C1321.83 451.294 1288.96 451.203 1249.76 457.187C1249.62 457.228 1249.47 457.346 1249.33 457.309C1249.2 457.276 1249.13 457.023 1249 456.99C1249.23 456.802 1249.4 456.479 1249.62 456.292C1249.91 456.054 1256.5 453.402 1257.1 453.162C1272.24 445.517 1311.76 438.538 1361.01 449.627C1394.17 459.632 1413.87 460.235 1420.99 460.235C1428.11 460.235 1472.86 460.635 1499.6 456.626C1500.21 456.536 1500.21 456.523 1500.25 456.529C1500.63 456.584 1500.61 456.77 1501 456.827Z" fill="#A7E1FF" fill-opacity="0.6"/>
</g>
<defs>
<clipPath id="clip0_56_21">
<rect width="1440" height="792" fill="white"/>
</clipPath>
</defs>
</svg>
