<svg width="1440" height="1024" viewBox="0 0 1440 1024" fill="none" xmlns="http://www.w3.org/2000/svg">
<rect width="1440" height="1024" fill="url(#paint0_linear_14_13)"/>
<g clip-path="url(#clip0_14_13)">
<path fill-rule="evenodd" clip-rule="evenodd" d="M1486 215.97V819.721C1486 819.721 1177.04 775.684 1007.08 778.381C833.26 781.137 570.031 822.526 404.189 832.449C251.689 841.576 -12.4748 807.433 -12.4748 807.433L-15 215.97C-15 215.97 262.044 240.862 426.411 237.553C590.776 234.245 842.683 199.851 1007.08 195.525C1174.69 191.114 1486 215.97 1486 215.97Z" fill="#56C3FC"/>
<path d="M221 414.158C220.76 414.304 220.571 414.623 220.331 414.769C219.914 415.025 211.035 417.351 210.226 417.565C178.037 426.005 153.14 427.035 148.123 427.243L148.113 427.243C116.501 428.544 101.38 424.116 101.38 424.116C101.38 424.116 79.6763 418.851 78.4049 418.195C41.8328 408.625 8.96039 408.533 -30.2427 414.518C-30.3826 414.558 -30.5256 414.676 -30.6685 414.64C-30.7963 414.606 -30.8723 414.354 -31 414.32C-30.7749 414.132 -30.6016 413.809 -30.3765 413.623C-30.0906 413.385 -23.5024 410.732 -22.9032 410.493C-7.76336 402.847 31.7599 395.869 81.0054 406.958C114.175 416.963 133.869 417.565 140.991 417.565C148.113 417.565 192.856 417.966 219.604 413.957C220.206 413.867 220.206 413.854 220.249 413.859C220.635 413.915 220.608 414.101 221 414.158Z" fill="#A7E1FF" fill-opacity="0.6"/>
<path d="M642 541.971C641.716 542.117 641.493 542.436 641.209 542.581C640.716 542.838 630.217 545.164 629.26 545.378C591.194 553.818 561.753 554.848 555.82 555.055L555.808 555.056C518.426 556.356 500.544 551.929 500.544 551.929C500.544 551.929 474.879 546.664 473.376 546.007C430.128 536.438 391.255 536.346 344.896 542.331C344.73 542.371 344.561 542.489 344.392 542.452C344.241 542.419 344.151 542.166 344 542.133C344.266 541.945 344.471 541.622 344.737 541.436C345.075 541.198 352.866 538.545 353.575 538.305C371.478 530.66 418.216 523.682 476.451 534.771C515.675 544.776 538.964 545.378 547.386 545.378C555.808 545.378 608.718 545.779 640.349 541.77C641.061 541.679 641.061 541.666 641.112 541.672C641.568 541.727 641.536 541.914 642 541.971Z" fill="#A7E1FF" fill-opacity="0.6"/>
<path d="M0 682.971C0.2565 683.117 0.457855 683.436 0.714355 683.581C1.15915 683.838 10.6367 686.164 11.5004 686.378C45.8616 694.818 72.4374 695.848 77.7933 696.055L77.8039 696.056C111.548 697.356 127.69 692.929 127.69 692.929C127.69 692.929 150.857 687.664 152.215 687.007C191.254 677.438 226.344 677.346 268.192 683.331C268.341 683.371 268.494 683.489 268.646 683.452C268.783 683.419 268.864 683.166 269 683.133C268.76 682.945 268.575 682.622 268.334 682.436C268.029 682.198 260.997 679.545 260.357 679.305C244.196 671.66 202.006 664.682 149.439 675.771C114.032 685.776 93.009 686.378 85.4065 686.378C77.8039 686.378 30.0428 686.779 1.49036 682.77C0.847473 682.679 0.847473 682.666 0.802002 682.672C0.389679 682.727 0.418854 682.914 0 682.971Z" fill="#A7E1FF" fill-opacity="0.6"/>
<path d="M785 349.324C784.76 349.178 784.571 348.859 784.331 348.713C783.914 348.457 775.035 346.131 774.226 345.917C742.037 337.477 717.14 336.447 712.123 336.24L712.113 336.239C680.501 334.939 665.38 339.366 665.38 339.366C665.38 339.366 643.676 344.631 642.405 345.287C605.833 354.857 572.96 354.949 533.757 348.964C533.617 348.924 533.474 348.806 533.331 348.843C533.204 348.876 533.128 349.128 533 349.162C533.225 349.35 533.398 349.673 533.623 349.859C533.909 350.097 540.498 352.75 541.097 352.99C556.237 360.635 595.76 367.613 645.005 356.524C678.175 346.519 697.869 345.917 704.991 345.917C712.113 345.917 756.856 345.516 783.604 349.525C784.206 349.615 784.206 349.628 784.249 349.623C784.635 349.568 784.608 349.381 785 349.324Z" fill="#A7E1FF" fill-opacity="0.6"/>
<path d="M768 656.971C768.24 657.117 768.429 657.436 768.669 657.581C769.086 657.838 777.965 660.164 778.774 660.378C810.963 668.818 835.86 669.848 840.877 670.055L840.887 670.056C872.499 671.356 887.62 666.929 887.62 666.929C887.62 666.929 909.324 661.664 910.595 661.007C947.167 651.438 980.04 651.346 1019.24 657.331C1019.38 657.371 1019.53 657.489 1019.67 657.452C1019.8 657.419 1019.87 657.166 1020 657.133C1019.77 656.945 1019.6 656.622 1019.38 656.436C1019.09 656.198 1012.5 653.545 1011.9 653.305C996.763 645.66 957.24 638.682 907.995 649.771C874.825 659.776 855.131 660.378 848.009 660.378C840.887 660.378 796.144 660.779 769.396 656.77C768.794 656.679 768.794 656.667 768.751 656.672C768.365 656.727 768.392 656.914 768 656.971Z" fill="#A7E1FF" fill-opacity="0.6"/>
<path d="M1205 375.242C1204.76 375.387 1204.57 375.707 1204.33 375.852C1203.91 376.109 1195.04 378.435 1194.23 378.649C1162.04 387.089 1137.14 388.119 1132.12 388.326L1132.11 388.327C1100.5 389.627 1085.38 385.2 1085.38 385.2C1085.38 385.2 1063.68 379.935 1062.4 379.278C1025.83 369.709 992.96 369.617 953.757 375.601C953.617 375.642 953.474 375.76 953.331 375.723C953.204 375.69 953.128 375.437 953 375.404C953.225 375.216 953.398 374.893 953.623 374.707C953.909 374.469 960.498 371.816 961.097 371.576C976.237 363.931 1015.76 356.952 1065.01 368.042C1098.17 378.046 1117.87 378.649 1124.99 378.649C1132.11 378.649 1176.86 379.05 1203.6 375.041C1204.21 374.95 1204.21 374.937 1204.25 374.943C1204.63 374.998 1204.61 375.185 1205 375.242Z" fill="#A7E1FF" fill-opacity="0.6"/>
<path d="M1501 630.827C1500.76 630.973 1500.57 631.292 1500.33 631.438C1499.91 631.694 1491.04 634.021 1490.23 634.235C1458.04 642.674 1433.14 643.704 1428.12 643.912L1428.11 643.912C1396.5 645.213 1381.38 640.785 1381.38 640.785C1381.38 640.785 1359.68 635.521 1358.4 634.864C1321.83 625.294 1288.96 625.203 1249.76 631.187C1249.62 631.228 1249.47 631.346 1249.33 631.309C1249.2 631.276 1249.13 631.023 1249 630.99C1249.23 630.802 1249.4 630.479 1249.62 630.292C1249.91 630.054 1256.5 627.402 1257.1 627.162C1272.24 619.517 1311.76 612.538 1361.01 623.627C1394.17 633.632 1413.87 634.235 1420.99 634.235C1428.11 634.235 1472.86 634.635 1499.6 630.626C1500.21 630.536 1500.21 630.523 1500.25 630.529C1500.63 630.584 1500.61 630.77 1501 630.827Z" fill="#A7E1FF" fill-opacity="0.6"/>
</g>
<defs>
<linearGradient id="paint0_linear_14_13" x1="720" y1="0" x2="720" y2="1024" gradientUnits="userSpaceOnUse">
<stop offset="0.5" stop-color="#F1CC95"/>
<stop offset="0.5001" stop-color="#26E586"/>
</linearGradient>
<clipPath id="clip0_14_13">
<rect width="1440" height="792" fill="white" transform="translate(0 174)"/>
</clipPath>
</defs>
</svg>
