<?xml version="1.0" encoding="UTF-8" standalone="no"?><!DOCTYPE svg PUBLIC "-//W3C//DTD SVG 1.1//EN" "http://www.w3.org/Graphics/SVG/1.1/DTD/svg11.dtd"><svg width="100%" height="100%" viewBox="0 0 6000 4267" version="1.1" xmlns="http://www.w3.org/2000/svg" xmlns:xlink="http://www.w3.org/1999/xlink" xml:space="preserve" xmlns:serif="http://www.serif.com/" style="fill-rule:evenodd;clip-rule:evenodd;stroke-linejoin:round;stroke-miterlimit:2;"><rect x="0" y="0" width="6000" height="4266.667" style="fill:url(#_Linear1);"/><g><clipPath id="_clip2"><rect x="0" y="725" width="6000" height="3300"/></clipPath><g clip-path="url(#_clip2)"><path d="M6191.667,899.875l0,2515.629c0,0 -1287.333,-183.488 -1995.5,-172.25c-724.25,11.483 -1821.038,183.938 -2512.046,225.283c-635.417,38.029 -1736.099,-104.233 -1736.099,-104.233l-10.522,-2464.429c0,0 1154.35,103.717 1839.213,89.929c684.854,-13.783 1734.467,-157.092 2419.454,-175.117c698.375,-18.379 1995.5,85.188 1995.5,85.188Z" style="fill:#56c3fc;"/><path d="M6000,1347.649l0,1610.045c0,0 -1235.017,-117.435 -1914.404,-110.243c-694.817,7.35 -1747.031,117.723 -2409.957,144.185c-609.594,24.339 -1665.545,-66.711 -1665.545,-66.711l-10.094,-1577.276c0,0 1107.438,66.38 1764.468,57.556c657.022,-8.822 1663.979,-100.541 2321.129,-112.078c669.993,-11.763 1914.404,54.521 1914.404,54.521Z" style="fill:#28a4e5;"/><path d="M6000,1127.892l0,2048.231c0,0 -1235.017,-149.396 -1914.404,-140.246c-694.817,9.35 -1747.031,149.762 -2409.957,183.426c-609.594,30.963 -1665.545,-84.867 -1665.545,-84.867l-10.094,-2006.544c0,0 1107.438,84.446 1764.468,73.221c657.022,-11.222 1663.979,-127.904 2321.129,-142.58c669.993,-14.964 1914.404,69.36 1914.404,69.36Z" style="fill:#3da0d4;fill-opacity:0.5;"/></g></g><defs><linearGradient id="_Linear1" x1="0" y1="0" x2="1" y2="0" gradientUnits="userSpaceOnUse" gradientTransform="matrix(0,4266.666667,-4266.666667,0,3000,0)"><stop offset="0" style="stop-color:#f1cc95;stop-opacity:1"/><stop offset="1" style="stop-color:#26e586;stop-opacity:1"/></linearGradient></defs></svg>