<?xml version="1.0" encoding="UTF-8" standalone="no"?>
<!DOCTYPE svg PUBLIC "-//W3C//DTD SVG 1.1//EN" "http://www.w3.org/Graphics/SVG/1.1/DTD/svg11.dtd">
<svg width="100%" height="100%" viewBox="0 0 1625 532" version="1.1" xmlns="http://www.w3.org/2000/svg" xmlns:xlink="http://www.w3.org/1999/xlink" xml:space="preserve" xmlns:serif="http://www.serif.com/" style="fill-rule:evenodd;clip-rule:evenodd;stroke-linejoin:round;stroke-miterlimit:2;">
    <path d="M1591.792,85.021C1641.512,278.277 1629.29,326.723 1589.579,461.521C1243.241,510.457 896.13,547.478 491.803,523.952C270.06,511.05 205.148,470.453 74.715,359.394C69.752,355.168 1.494,269.5 0.046,261.643C-1.362,254.005 66.943,188.352 72.156,184.003C222.434,58.64 357.836,7.624 506.689,2.214C867.582,-10.903 1226.845,39.409 1591.793,85.02L1591.792,85.021Z" style="fill:rgb(239,210,29);"/>
    <path d="M1549.48,146.672C1564.5,270.858 1563.477,286.362 1548.088,395.469C1226.931,434.532 888.136,460.701 513.206,441.929C312.191,405.688 239.799,391.421 104.006,306.737C99.084,303.667 60.85,266.638 59.508,260.367C58.203,254.27 121.167,201.345 126.376,198.398C276.239,113.603 396.176,84.735 534.294,80.412C868.948,69.938 1211.068,110.271 1549.481,146.671L1549.48,146.672Z" style="fill:rgb(249,237,162);"/>
    <path d="M365.876,35.105C724.184,45.068 1082.558,70.465 1445.915,96.909C1518.56,261.411 1510.622,330.194 1452.588,444.94C1099.344,474.025 741.898,490.797 357.302,491.471L365.876,35.104L365.876,35.105Z" style="fill:rgb(220,216,187);fill-opacity:0.95;"/>
    <path d="M432.941,64.252C757.829,73.154 1082.776,95.847 1412.242,119.475C1478.111,266.463 1470.913,327.923 1418.292,430.452C1097.996,456.44 773.889,471.428 425.166,472.031L432.941,64.252Z" style="fill:white;fill-opacity:0.95;"/>
    <path d="M489.47,445.437L364.739,495.809C325.378,440.562 300.906,357.587 302.106,265.197C303.333,170.714 331.141,86.794 373.496,32.705L495.964,86.078C471.809,136.079 457.008,198.905 456.121,267.259C455.257,333.821 467.717,395.496 489.47,445.437Z" style="fill:rgb(239,210,29);"/>
    <path d="M445.61,276.402C445.889,334.901 455.874,388.981 472.743,433.182L370.357,480.366C339.327,430.761 319.673,357.12 319.28,274.71L445.61,276.401L445.61,276.402ZM319.676,251.548C322.896,169.029 345.219,96.17 378.218,48.286L478.596,97.898C460.148,141.208 448.287,194.801 446.006,253.24L319.676,251.549L319.676,251.548Z" style="fill:rgb(47,148,197);fill-opacity:0.75;"/>
    <path id="EFD21D" d="M300.954,253.553L300.92,275.202L178.05,275.008L178.084,253.359L300.954,253.553Z" style="fill:rgb(239,210,29);"/>
    <g transform="matrix(3.159016,0,0,3.159016,927.779636,268.1415)">
        <g transform="matrix(1,0,0,1,-60,-54)">
            <g>
                <path d="M86.926,19.728C86.839,19.154 86.491,18.679 85.966,18.422L85.709,18.296L85.422,18.31C83.373,18.399 81.785,18.447 79.266,18.447C77.01,18.447 74.821,18.402 72.575,18.31L72.272,18.296L72.006,18.437C71.508,18.698 71.163,19.207 71.085,19.798C71.008,20.394 71.218,20.983 71.647,21.378L71.941,21.648L73.817,21.766C75.566,21.876 75.935,22.283 75.939,22.289C76.081,22.484 76.839,23.905 76.839,31.215L76.839,36.55C76.839,43.987 73.242,47.759 66.146,47.759C59.062,47.759 55.697,44.679 55.322,37.83C59.358,37.068 63.009,35.002 65.676,31.907C68.665,28.44 70.243,24.031 70.243,19.157C70.243,10.147 64.477,0.447 51.82,0.447C41.059,0.447 32.945,8.711 32.945,19.669C32.945,28.997 39.169,36.332 48.192,37.856C48.272,43.442 49.892,47.104 53.298,49.321C55.989,51.131 59.919,52.055 64.963,52.055C69.822,52.055 74.315,50.689 76.986,48.398C80.031,45.835 81.516,41.927 81.516,36.458C81.516,36.458 81.515,30.454 81.515,30.284C81.515,27.925 81.553,23.423 82.191,22.318C82.191,22.318 82.199,22.304 82.206,22.293C82.338,22.151 82.998,21.843 84.242,21.766C84.245,21.766 86.064,21.647 86.064,21.647L86.359,21.371C86.733,21.02 86.945,20.512 86.945,20C86.945,19.908 86.939,19.817 86.926,19.728ZM44.201,18.301L43.986,18.386C43.391,18.62 42.981,19.246 42.941,19.981C42.94,20.017 42.939,20.052 42.939,20.088C42.939,20.728 43.247,21.28 43.758,21.547L43.971,21.657L45.685,21.766C48.176,21.935 48.176,21.935 48.176,26.484L48.176,33.503C42.674,31.2 40.185,24.281 40.185,18.03C40.185,7.889 45.996,4.292 50.971,4.292C59.853,4.292 63.005,13.156 63.005,20.747C63.005,28.804 59.217,32.744 55.276,33.921L55.276,26.484C55.276,21.935 55.276,21.935 57.771,21.764C57.769,21.766 59.188,21.672 59.188,21.672L59.424,21.656L59.635,21.547C60.176,21.264 60.489,20.665 60.452,19.981C60.412,19.246 60.001,18.62 59.406,18.386L59.19,18.301L58.959,18.309C56.16,18.398 54.178,18.447 51.727,18.447C49.31,18.447 47.223,18.397 44.433,18.309L44.201,18.301Z" style="fill:rgb(189,150,93);fill-rule:nonzero;"/>
                <path d="M78.43,49.541C78.39,49.541 78.386,49.552 78.386,49.604L78.386,50.679C78.386,50.775 78.386,50.827 78.497,50.835C78.554,50.838 78.597,50.841 78.597,50.886C78.597,50.93 78.55,50.93 78.528,50.93C78.481,50.93 78.322,50.918 78.235,50.918C78.144,50.918 78.064,50.93 77.948,50.93C77.929,50.93 77.88,50.93 77.88,50.886C77.88,50.841 77.925,50.838 77.981,50.835C78.092,50.827 78.092,50.778 78.092,50.679L78.092,49.588C78.092,49.536 78.08,49.536 78.035,49.536C77.872,49.536 77.745,49.541 77.609,49.759C77.591,49.795 77.579,49.812 77.542,49.812C77.514,49.812 77.499,49.787 77.499,49.767C77.499,49.756 77.502,49.735 77.506,49.728L77.605,49.397C77.613,49.369 77.622,49.345 77.656,49.345C77.685,49.345 77.697,49.361 77.7,49.385C77.714,49.441 77.736,49.444 77.797,49.444L78.594,49.444C78.833,49.444 78.844,49.42 78.863,49.377C78.873,49.357 78.88,49.336 78.916,49.336C78.96,49.336 78.964,49.388 78.964,49.413C78.964,49.438 78.943,49.632 78.943,49.731C78.943,49.772 78.936,49.819 78.888,49.819C78.867,49.819 78.848,49.815 78.836,49.759C78.792,49.568 78.728,49.541 78.565,49.541L78.43,49.541ZM80.059,50.451L80.437,49.536C80.473,49.452 80.484,49.441 80.593,49.441C80.628,49.441 80.691,49.444 80.775,49.444C80.866,49.444 80.902,49.441 80.919,49.441C80.971,49.441 80.979,49.472 80.979,49.484C80.979,49.524 80.946,49.528 80.871,49.532C80.771,49.541 80.771,49.552 80.771,49.684L80.804,50.671C80.808,50.819 80.811,50.838 80.906,50.838C80.931,50.838 80.993,50.838 80.993,50.883C80.993,50.93 80.946,50.93 80.919,50.93C80.895,50.93 80.831,50.918 80.651,50.918C80.509,50.918 80.389,50.93 80.365,50.93C80.338,50.93 80.294,50.93 80.294,50.886C80.294,50.85 80.325,50.838 80.345,50.838C80.353,50.835 80.397,50.835 80.404,50.832C80.509,50.822 80.509,50.762 80.509,50.675L80.488,49.735L80.48,49.735L80.039,50.819C80.02,50.87 80.003,50.902 79.968,50.902C79.927,50.902 79.907,50.87 79.895,50.838L79.43,49.763L79.422,49.763C79.408,49.983 79.395,50.233 79.395,50.472C79.395,50.835 79.408,50.835 79.524,50.838C79.572,50.838 79.637,50.841 79.637,50.886C79.637,50.926 79.585,50.93 79.557,50.93C79.51,50.93 79.465,50.918 79.35,50.918C79.23,50.918 79.139,50.93 79.115,50.93C79.098,50.93 79.047,50.93 79.047,50.886C79.047,50.846 79.079,50.841 79.153,50.832C79.227,50.822 79.259,50.814 79.262,50.659C79.266,50.508 79.317,49.819 79.317,49.659C79.317,49.556 79.317,49.545 79.219,49.541C79.131,49.541 79.103,49.524 79.103,49.488C79.103,49.441 79.153,49.441 79.175,49.441C79.241,49.441 79.314,49.444 79.382,49.444C79.422,49.444 79.532,49.441 79.588,49.441C79.648,49.441 79.652,49.512 79.659,49.528L80.059,50.451Z" style="fill:rgb(189,150,93);fill-rule:nonzero;"/>
                <path d="M1.727,71.047L1.727,71.299C1.727,72.103 1.955,72.619 2.866,72.619C3.394,72.619 3.897,72.283 3.897,71.563C3.897,70.784 3.502,70.496 2.362,70.1C0.827,69.573 0.12,68.937 0.12,67.509C0.12,65.842 1.139,64.991 2.77,64.991C4.305,64.991 5.421,65.651 5.421,67.293L5.421,67.534L3.766,67.534C3.766,66.73 3.49,66.262 2.83,66.262C2.051,66.262 1.847,66.754 1.847,67.257C1.847,67.786 2.002,68.109 2.734,68.421L4.065,68.997C5.361,69.56 5.697,70.22 5.697,71.263C5.697,73.075 4.593,73.89 2.722,73.89C0.767,73.89 0,72.979 0,71.395L0,71.047L1.727,71.047Z" style="fill:rgb(189,150,93);fill-rule:nonzero;"/>
                <path d="M10.222,68.049C10.222,66.802 9.97,66.262 9.19,66.262C8.314,66.262 8.111,67.138 8.111,69.56C8.111,72.151 8.471,72.619 9.214,72.619C9.838,72.619 10.293,72.295 10.293,70.448L12.021,70.448C12.021,72.295 11.565,73.89 9.298,73.89C6.708,73.89 6.384,72.043 6.384,69.441C6.384,66.838 6.708,64.991 9.298,64.991C11.769,64.991 11.949,66.802 11.949,68.049L10.222,68.049Z" style="fill:rgb(189,150,93);fill-rule:nonzero;"/>
                <path d="M13.007,65.159L14.734,65.159L14.734,68.433L16.75,68.433L16.75,65.159L18.477,65.159L18.477,73.722L16.75,73.722L16.75,69.92L14.734,69.92L14.734,73.722L13.007,73.722L13.007,65.159Z" style="fill:rgb(189,150,93);fill-rule:nonzero;"/>
                <path d="M22.414,72.619C23.433,72.619 23.601,71.744 23.601,69.441C23.601,67.15 23.433,66.262 22.414,66.262C21.395,66.262 21.227,67.15 21.227,69.441C21.227,71.744 21.395,72.619 22.414,72.619ZM22.414,64.991C25.004,64.991 25.328,66.838 25.328,69.441C25.328,72.043 25.004,73.89 22.414,73.89C19.823,73.89 19.5,72.043 19.5,69.441C19.5,66.838 19.823,64.991 22.414,64.991Z" style="fill:rgb(189,150,93);fill-rule:nonzero;"/>
                <path d="M29.085,72.619C30.105,72.619 30.273,71.744 30.273,69.441C30.273,67.15 30.105,66.262 29.085,66.262C28.066,66.262 27.898,67.15 27.898,69.441C27.898,71.744 28.066,72.619 29.085,72.619ZM29.085,64.991C31.676,64.991 32,66.838 32,69.441C32,72.043 31.676,73.89 29.085,73.89C26.495,73.89 26.171,72.043 26.171,69.441C26.171,66.838 26.495,64.991 29.085,64.991Z" style="fill:rgb(189,150,93);fill-rule:nonzero;"/>
                <path d="M33.023,73.722L33.023,65.159L34.751,65.159L34.751,72.307L37.809,72.307L37.809,73.722L33.023,73.722Z" style="fill:rgb(189,150,93);fill-rule:nonzero;"/>
                <path d="M44.193,72.619C45.213,72.619 45.381,71.744 45.381,69.441C45.381,67.15 45.213,66.262 44.193,66.262C43.174,66.262 43.006,67.15 43.006,69.441C43.006,71.744 43.174,72.619 44.193,72.619ZM44.193,64.991C46.784,64.991 47.108,66.838 47.108,69.441C47.108,72.043 46.784,73.89 44.193,73.89C41.603,73.89 41.279,72.043 41.279,69.441C41.279,66.838 41.603,64.991 44.193,64.991Z" style="fill:rgb(189,150,93);fill-rule:nonzero;"/>
                <path d="M48.131,65.159L52.917,65.159L52.917,66.574L49.858,66.574L49.858,68.589L52.736,68.589L52.736,70.004L49.858,70.004L49.858,73.722L48.131,73.722L48.131,65.159Z" style="fill:rgb(189,150,93);fill-rule:nonzero;"/>
                <path d="M61.353,65.159L61.353,66.574L58.294,66.574L58.294,68.589L61.173,68.589L61.173,70.004L58.294,70.004L58.294,72.307L61.473,72.307L61.473,73.722L56.567,73.722L56.567,65.159L61.353,65.159Z" style="fill:rgb(189,150,93);fill-rule:nonzero;"/>
                <path d="M64.33,65.159L66.417,71.024L66.44,71.024L66.44,65.159L68.024,65.159L68.024,73.722L66.057,73.722L63.946,67.725L63.922,67.725L63.922,73.722L62.339,73.722L62.339,65.159L64.33,65.159Z" style="fill:rgb(189,150,93);fill-rule:nonzero;"/>
                <path d="M73.028,67.702C73.028,67.066 72.741,66.262 72.045,66.262C71.206,66.262 70.87,67.126 70.87,69.26C70.87,71.324 71.062,72.619 72.058,72.619C72.465,72.619 73.125,72.175 73.125,71.252L73.125,70.377L71.985,70.377L71.985,69.105L74.78,69.105L74.78,73.722L73.509,73.722L73.509,72.93L73.484,72.93C73.077,73.602 72.489,73.89 71.686,73.89C69.563,73.89 69.143,72.307 69.143,69.344C69.143,66.466 69.814,64.991 72.022,64.991C73.916,64.991 74.684,65.962 74.684,67.702L73.028,67.702Z" style="fill:rgb(189,150,93);fill-rule:nonzero;"/>
                <rect x="75.982" y="65.159" width="1.728" height="8.563" style="fill:rgb(189,150,93);fill-rule:nonzero;"/>
                <path d="M80.985,65.159L83.072,71.024L83.097,71.024L83.097,65.159L84.68,65.159L84.68,73.722L82.713,73.722L80.602,67.725L80.578,67.725L80.578,73.722L78.995,73.722L78.995,65.159L80.985,65.159Z" style="fill:rgb(189,150,93);fill-rule:nonzero;"/>
                <path d="M90.668,65.159L90.668,66.574L87.609,66.574L87.609,68.589L90.488,68.589L90.488,70.004L87.609,70.004L87.609,72.307L90.788,72.307L90.788,73.722L85.883,73.722L85.883,65.159L90.668,65.159Z" style="fill:rgb(189,150,93);fill-rule:nonzero;"/>
                <path d="M96.44,65.159L96.44,66.574L93.382,66.574L93.382,68.589L96.26,68.589L96.26,70.004L93.382,70.004L93.382,72.307L96.56,72.307L96.56,73.722L91.654,73.722L91.654,65.159L96.44,65.159Z" style="fill:rgb(189,150,93);fill-rule:nonzero;"/>
                <path d="M99.153,68.901L99.873,68.901C100.702,68.901 101.169,68.541 101.169,67.618C101.169,66.826 100.75,66.43 99.969,66.43L99.153,66.43L99.153,68.901ZM97.427,65.159L100.618,65.159C102.033,65.159 102.896,65.903 102.896,67.366C102.896,68.505 102.44,69.273 101.469,69.476L101.469,69.501C102.644,69.657 102.824,70.304 102.848,72.115C102.86,73.014 102.908,73.482 103.232,73.65L103.232,73.722L101.361,73.722C101.193,73.482 101.157,73.159 101.145,72.823L101.097,71.179C101.073,70.508 100.773,70.1 100.078,70.1L99.153,70.1L99.153,73.722L97.427,73.722L97.427,65.159Z" style="fill:rgb(189,150,93);fill-rule:nonzero;"/>
                <rect x="104.183" y="65.159" width="1.727" height="8.563" style="fill:rgb(189,150,93);fill-rule:nonzero;"/>
                <path d="M109.186,65.159L111.273,71.024L111.296,71.024L111.296,65.159L112.88,65.159L112.88,73.722L110.913,73.722L108.802,67.725L108.778,67.725L108.778,73.722L107.195,73.722L107.195,65.159L109.186,65.159Z" style="fill:rgb(189,150,93);fill-rule:nonzero;"/>
                <path d="M117.884,67.702C117.884,67.066 117.597,66.262 116.901,66.262C116.062,66.262 115.726,67.126 115.726,69.26C115.726,71.324 115.917,72.619 116.914,72.619C117.321,72.619 117.981,72.175 117.981,71.252L117.981,70.377L116.841,70.377L116.841,69.105L119.636,69.105L119.636,73.722L118.365,73.722L118.365,72.93L118.34,72.93C117.933,73.602 117.345,73.89 116.542,73.89C114.418,73.89 113.999,72.307 113.999,69.344C113.999,66.466 114.67,64.991 116.877,64.991C118.772,64.991 119.54,65.962 119.54,67.702L117.884,67.702Z" style="fill:rgb(189,150,93);fill-rule:nonzero;"/>
                <path d="M2.573,83.246L4.252,83.246L3.424,79.396L3.4,79.396L2.573,83.246ZM2.345,77.909L4.479,77.909L6.747,86.472L4.947,86.472L4.552,84.662L2.273,84.662L1.877,86.472L0.078,86.472L2.345,77.909Z" style="fill:rgb(189,150,93);fill-rule:nonzero;"/>
                <path d="M9.341,77.909L11.427,83.774L11.451,83.774L11.451,77.909L13.035,77.909L13.035,86.472L11.067,86.472L8.957,80.475L8.933,80.475L8.933,86.472L7.35,86.472L7.35,77.909L9.341,77.909Z" style="fill:rgb(189,150,93);fill-rule:nonzero;"/>
                <path d="M16.049,85.201L16.816,85.201C18.016,85.201 18.256,84.445 18.256,82.119C18.256,80.175 18.1,79.18 16.78,79.18L16.049,79.18L16.049,85.201ZM14.322,77.909L17.152,77.909C19.551,77.909 19.983,79.552 19.983,82.071C19.983,85.105 19.335,86.472 17.044,86.472L14.322,86.472L14.322,77.909Z" style="fill:rgb(189,150,93);fill-rule:nonzero;"/>
                <path d="M27.664,80.799C27.664,79.552 27.412,79.012 26.632,79.012C25.756,79.012 25.553,79.888 25.553,82.31C25.553,84.901 25.913,85.369 26.656,85.369C27.28,85.369 27.735,85.045 27.735,83.198L29.462,83.198C29.462,85.045 29.007,86.64 26.74,86.64C24.149,86.64 23.826,84.793 23.826,82.191C23.826,79.588 24.149,77.741 26.74,77.741C29.21,77.741 29.391,79.552 29.391,80.799L27.664,80.799Z" style="fill:rgb(189,150,93);fill-rule:nonzero;"/>
                <path d="M33.184,85.369C34.203,85.369 34.371,84.494 34.371,82.191C34.371,79.9 34.203,79.012 33.184,79.012C32.165,79.012 31.997,79.9 31.997,82.191C31.997,84.494 32.165,85.369 33.184,85.369ZM33.184,77.741C35.774,77.741 36.098,79.588 36.098,82.191C36.098,84.793 35.774,86.64 33.184,86.64C30.593,86.64 30.27,84.793 30.27,82.191C30.27,79.588 30.593,77.741 33.184,77.741Z" style="fill:rgb(189,150,93);fill-rule:nonzero;"/>
                <path d="M37.157,77.909L39.724,77.909L40.947,83.954L40.971,83.954L42.207,77.909L44.761,77.909L44.761,86.472L43.178,86.472L43.178,79.636L43.154,79.636L41.631,86.472L40.288,86.472L38.764,79.636L38.74,79.636L38.74,86.472L37.157,86.472L37.157,77.909Z" style="fill:rgb(189,150,93);fill-rule:nonzero;"/>
                <path d="M47.728,81.783L48.496,81.783C49.179,81.783 49.647,81.375 49.647,80.5C49.647,79.66 49.311,79.18 48.448,79.18L47.728,79.18L47.728,81.783ZM46.001,77.909L49.023,77.909C50.774,77.909 51.374,79.192 51.374,80.475C51.374,82.251 50.283,83.054 48.651,83.054L47.728,83.054L47.728,86.472L46.001,86.472L46.001,77.909Z" style="fill:rgb(189,150,93);fill-rule:nonzero;"/>
                <path d="M53.848,77.909L53.848,83.881C53.848,84.733 54.052,85.369 54.856,85.369C55.659,85.369 55.863,84.733 55.863,83.881L55.863,77.909L57.59,77.909L57.59,83.881C57.59,86.064 56.259,86.64 54.856,86.64C53.452,86.64 52.121,86.172 52.121,83.881L52.121,77.909L53.848,77.909Z" style="fill:rgb(189,150,93);fill-rule:nonzero;"/>
                <path d="M63.698,77.909L63.698,79.324L61.827,79.324L61.827,86.472L60.101,86.472L60.101,79.324L58.23,79.324L58.23,77.909L63.698,77.909Z" style="fill:rgb(189,150,93);fill-rule:nonzero;"/>
                <path d="M69.231,77.909L69.231,79.324L66.172,79.324L66.172,81.339L69.051,81.339L69.051,82.754L66.172,82.754L66.172,85.057L69.351,85.057L69.351,86.472L64.445,86.472L64.445,77.909L69.231,77.909Z" style="fill:rgb(189,150,93);fill-rule:nonzero;"/>
                <path d="M71.944,81.651L72.664,81.651C73.491,81.651 73.959,81.291 73.959,80.368C73.959,79.576 73.539,79.18 72.76,79.18L71.944,79.18L71.944,81.651ZM70.217,77.909L73.407,77.909C74.822,77.909 75.687,78.653 75.687,80.116C75.687,81.255 75.231,82.023 74.259,82.226L74.259,82.251C75.435,82.407 75.614,83.054 75.638,84.865C75.65,85.764 75.698,86.232 76.022,86.4L76.022,86.472L74.151,86.472C73.983,86.232 73.947,85.909 73.935,85.573L73.887,83.929C73.863,83.258 73.564,82.85 72.867,82.85L71.944,82.85L71.944,86.472L70.217,86.472L70.217,77.909Z" style="fill:rgb(189,150,93);fill-rule:nonzero;"/>
                <path d="M81.16,83.797L81.16,84.049C81.16,84.853 81.388,85.369 82.3,85.369C82.827,85.369 83.331,85.033 83.331,84.313C83.331,83.534 82.936,83.246 81.796,82.85C80.261,82.323 79.553,81.687 79.553,80.259C79.553,78.592 80.572,77.741 82.203,77.741C83.738,77.741 84.855,78.401 84.855,80.043L84.855,80.284L83.199,80.284C83.199,79.48 82.923,79.012 82.264,79.012C81.484,79.012 81.28,79.504 81.28,80.007C81.28,80.536 81.436,80.859 82.168,81.171L83.499,81.747C84.794,82.31 85.13,82.97 85.13,84.013C85.13,85.825 84.026,86.64 82.155,86.64C80.2,86.64 79.433,85.729 79.433,84.145L79.433,83.797L81.16,83.797Z" style="fill:rgb(189,150,93);fill-rule:nonzero;"/>
                <path d="M89.655,80.799C89.655,79.552 89.403,79.012 88.623,79.012C87.748,79.012 87.544,79.888 87.544,82.31C87.544,84.901 87.904,85.369 88.647,85.369C89.272,85.369 89.727,85.045 89.727,83.198L91.454,83.198C91.454,85.045 90.998,86.64 88.731,86.64C86.141,86.64 85.817,84.793 85.817,82.191C85.817,79.588 86.141,77.741 88.731,77.741C91.202,77.741 91.382,79.552 91.382,80.799L89.655,80.799Z" style="fill:rgb(189,150,93);fill-rule:nonzero;"/>
                <rect x="92.524" y="77.909" width="1.728" height="8.563" style="fill:rgb(189,150,93);fill-rule:nonzero;"/>
                <path d="M100.323,77.909L100.323,79.324L97.264,79.324L97.264,81.339L100.143,81.339L100.143,82.754L97.264,82.754L97.264,85.057L100.443,85.057L100.443,86.472L95.537,86.472L95.537,77.909L100.323,77.909Z" style="fill:rgb(189,150,93);fill-rule:nonzero;"/>
                <path d="M103.299,77.909L105.386,83.774L105.411,83.774L105.411,77.909L106.994,77.909L106.994,86.472L105.027,86.472L102.916,80.475L102.892,80.475L102.892,86.472L101.309,86.472L101.309,77.909L103.299,77.909Z" style="fill:rgb(189,150,93);fill-rule:nonzero;"/>
                <path d="M111.855,80.799C111.855,79.552 111.603,79.012 110.824,79.012C109.948,79.012 109.745,79.888 109.745,82.31C109.745,84.901 110.104,85.369 110.847,85.369C111.471,85.369 111.927,85.045 111.927,83.198L113.654,83.198C113.654,85.045 113.199,86.64 110.931,86.64C108.341,86.64 108.017,84.793 108.017,82.191C108.017,79.588 108.341,77.741 110.931,77.741C113.402,77.741 113.583,79.552 113.583,80.799L111.855,80.799Z" style="fill:rgb(189,150,93);fill-rule:nonzero;"/>
                <path d="M119.426,77.909L119.426,79.324L116.368,79.324L116.368,81.339L119.247,81.339L119.247,82.754L116.368,82.754L116.368,85.057L119.546,85.057L119.546,86.472L114.641,86.472L114.641,77.909L119.426,77.909Z" style="fill:rgb(189,150,93);fill-rule:nonzero;"/>
                <path d="M7.482,107.279C9.048,107.279 9.706,105.929 9.706,104.633C9.706,103.336 9.048,101.986 7.482,101.986C5.916,101.986 5.258,103.336 5.258,104.633C5.258,105.929 5.916,107.279 7.482,107.279ZM7.482,101.266C9.526,101.266 10.561,102.886 10.561,104.633C10.561,106.379 9.526,108 7.482,108C5.438,108 4.403,106.379 4.403,104.633C4.403,102.886 5.438,101.266 7.482,101.266Z" style="fill:rgb(189,150,93);fill-rule:nonzero;"/>
                <path d="M13.61,105.191L15.789,105.191L14.718,102.193L14.7,102.193L13.61,105.191ZM14.25,101.419L15.195,101.419L17.707,107.847L16.761,107.847L16.059,105.911L13.34,105.911L12.62,107.847L11.738,107.847L14.25,101.419Z" style="fill:rgb(189,150,93);fill-rule:nonzero;"/>
                <path d="M19.226,101.419L20.082,101.419L20.082,104.624L23.34,101.419L24.448,101.419L21.738,104.012L24.556,107.847L23.476,107.847L21.153,104.597L20.082,105.596L20.082,107.847L19.226,107.847L19.226,101.419Z" style="fill:rgb(189,150,93);fill-rule:nonzero;"/>
                <path d="M26.129,101.419L26.984,101.419L26.984,107.126L30.387,107.126L30.387,107.847L26.129,107.847L26.129,101.419Z" style="fill:rgb(189,150,93);fill-rule:nonzero;"/>
                <path d="M33.131,105.191L35.31,105.191L34.239,102.193L34.221,102.193L33.131,105.191ZM33.771,101.419L34.716,101.419L37.228,107.847L36.282,107.847L35.58,105.911L32.861,105.911L32.141,107.847L31.259,107.847L33.771,101.419Z" style="fill:rgb(189,150,93);fill-rule:nonzero;"/>
                <path d="M38.747,101.419L39.656,101.419L43.041,106.631L43.059,106.631L43.059,101.419L43.87,101.419L43.87,107.847L42.933,107.847L39.575,102.689L39.557,102.689L39.557,107.847L38.747,107.847L38.747,101.419Z" style="fill:rgb(189,150,93);fill-rule:nonzero;"/>
                <path d="M47.009,107.126L48.432,107.126C49.017,107.126 50.592,106.965 50.592,104.597C50.592,103.066 50.025,102.139 48.45,102.139L47.009,102.139L47.009,107.126ZM46.154,101.419L48.359,101.419C50.34,101.419 51.447,102.409 51.447,104.48C51.447,106.631 50.502,107.847 48.359,107.847L46.154,107.847L46.154,101.419Z" style="fill:rgb(189,150,93);fill-rule:nonzero;"/>
                <path d="M61.914,105.524C61.914,107.145 60.986,108 59.385,108C57.728,108 56.747,107.234 56.747,105.524L56.747,101.419L57.602,101.419L57.602,105.524C57.602,106.658 58.25,107.279 59.385,107.279C60.465,107.279 61.059,106.658 61.059,105.524L61.059,101.419L61.914,101.419L61.914,105.524Z" style="fill:rgb(189,150,93);fill-rule:nonzero;"/>
                <path d="M64.172,101.419L65.081,101.419L68.466,106.631L68.484,106.631L68.484,101.419L69.295,101.419L69.295,107.847L68.358,107.847L65,102.689L64.982,102.689L64.982,107.847L64.172,107.847L64.172,101.419Z" style="fill:rgb(189,150,93);fill-rule:nonzero;"/>
                <rect x="71.615" y="101.419" width="0.855" height="6.428" style="fill:rgb(189,150,93);fill-rule:nonzero;"/>
                <path d="M77.34,107.847L76.367,107.847L74.099,101.419L75.026,101.419L76.862,106.991L76.881,106.991L78.735,101.419L79.626,101.419L77.34,107.847Z" style="fill:rgb(189,150,93);fill-rule:nonzero;"/>
                <path d="M81.209,101.419L85.647,101.419L85.647,102.139L82.064,102.139L82.064,104.183L85.404,104.183L85.404,104.902L82.064,104.902L82.064,107.126L85.674,107.126L85.674,107.847L81.209,107.847L81.209,101.419Z" style="fill:rgb(189,150,93);fill-rule:nonzero;"/>
                <path d="M90.245,104.381C91.047,104.381 91.731,104.174 91.731,103.237C91.731,102.607 91.389,102.139 90.588,102.139L88.463,102.139L88.463,104.381L90.245,104.381ZM87.607,101.419L90.633,101.419C91.839,101.419 92.586,102.076 92.586,103.103C92.586,103.877 92.244,104.516 91.47,104.732L91.47,104.75C92.217,104.894 92.37,105.443 92.434,106.073C92.487,106.703 92.451,107.405 92.812,107.847L91.857,107.847C91.614,107.586 91.749,106.893 91.623,106.263C91.533,105.632 91.38,105.101 90.552,105.101L88.463,105.101L88.463,107.847L87.607,107.847L87.607,101.419Z" style="fill:rgb(189,150,93);fill-rule:nonzero;"/>
                <path d="M98.392,103.301C98.292,102.382 97.68,101.986 96.798,101.986C96.077,101.986 95.357,102.247 95.357,103.084C95.357,103.877 96.384,103.993 97.419,104.228C98.445,104.462 99.472,104.821 99.472,106.082C99.472,107.45 98.13,108 96.96,108C95.52,108 94.304,107.298 94.304,105.732L95.114,105.732C95.114,106.812 96.015,107.279 96.987,107.279C97.761,107.279 98.616,107.036 98.616,106.109C98.616,105.227 97.59,105.074 96.564,104.849C95.537,104.624 94.502,104.326 94.502,103.148C94.502,101.842 95.663,101.266 96.834,101.266C98.148,101.266 99.147,101.887 99.201,103.301L98.392,103.301Z" style="fill:rgb(189,150,93);fill-rule:nonzero;"/>
                <rect x="101.441" y="101.419" width="0.855" height="6.428" style="fill:rgb(189,150,93);fill-rule:nonzero;"/>
                <path d="M106.095,102.139L103.952,102.139L103.952,101.419L109.092,101.419L109.092,102.139L106.95,102.139L106.95,107.847L106.095,107.847L106.095,102.139Z" style="fill:rgb(189,150,93);fill-rule:nonzero;"/>
                <path d="M113.359,105.218L113.359,107.847L112.503,107.847L112.503,105.218L110.018,101.419L111.036,101.419L112.962,104.48L114.844,101.419L115.816,101.419L113.359,105.218Z" style="fill:rgb(189,150,93);fill-rule:nonzero;"/>
                <rect x="1.481" y="92.805" width="116.929" height="0.75" style="fill:rgb(189,150,93);fill-rule:nonzero;"/>
            </g>
        </g>
    </g>
    <ellipse cx="232.859" cy="345.575" rx="37.892" ry="13.097" style="fill:rgb(239,210,29);"/>
    <ellipse cx="234.103" cy="171.465" rx="37.892" ry="13.097" style="fill:rgb(239,210,29);"/>
</svg>
