<?xml version="1.0" encoding="UTF-8" standalone="no"?><!DOCTYPE svg PUBLIC "-//W3C//DTD SVG 1.1//EN" "http://www.w3.org/Graphics/SVG/1.1/DTD/svg11.dtd"><svg width="100%" height="100%" viewBox="0 0 6771 2217" version="1.1" xmlns="http://www.w3.org/2000/svg" xmlns:xlink="http://www.w3.org/1999/xlink" xml:space="preserve" xmlns:serif="http://www.serif.com/" style="fill-rule:evenodd;clip-rule:evenodd;stroke-linejoin:round;stroke-miterlimit:2;"><path d="M6632.467,354.254c207.167,805.233 156.242,1007.092 -9.221,1568.75c-1443.075,203.9 -2889.371,358.154 -4574.067,260.129c-923.929,-53.758 -1194.396,-222.913 -1737.867,-685.658c-20.679,-17.608 -305.088,-374.558 -311.121,-407.296c-5.867,-31.825 278.738,-305.379 300.458,-323.5c626.158,-522.346 1190.333,-734.913 1810.554,-757.454c1503.721,-54.654 3000.65,154.979 4521.267,345.025l-0.004,0.004Z" style="fill:#efd21d;"/><path d="M6456.167,611.133c62.583,517.442 58.321,582.042 -5.8,1036.654c-1338.154,162.763 -2749.8,271.8 -4312.008,193.583c-837.563,-151.004 -1139.196,-210.45 -1705,-563.3c-20.508,-12.792 -179.817,-167.079 -185.408,-193.208c-5.438,-25.404 256.913,-245.925 278.617,-258.204c624.429,-353.313 1124.167,-473.596 1699.658,-491.608c1394.392,-43.642 2819.892,124.412 4229.946,276.079l-0.004,0.004Z" style="fill:#f9eda2;"/><path d="M1524.483,146.271c1492.95,41.512 2986.175,147.333 4500.163,257.517c302.688,685.425 269.612,972.021 27.804,1450.129c-1471.85,121.188 -2961.208,191.071 -4563.692,193.879l35.725,-1901.529l0,0.004Z" style="fill:#dcd8bb;fill-opacity:0.95;"/><path d="M1803.921,267.717c1353.7,37.092 2707.646,131.646 4080.421,230.096c274.454,612.45 244.462,868.533 25.208,1295.738c-1334.567,108.283 -2685.013,170.733 -4138.025,173.246l32.396,-1699.079Z" style="fill:#fff;fill-opacity:0.95;"/><path d="M4684.622,1041.628c3.379,-0.26 6.034,-3.448 6.034,-7.244c0,-0.178 -0.006,-0.356 -0.019,-0.534c-0.242,-3.79 -3.09,-6.76 -6.479,-6.76c-3.564,0 -6.498,3.287 -6.498,7.28c0,0.175 0.006,0.345 0.016,0.52c0.305,3.936 3.427,6.909 6.943,6.61m-412.209,-235.302c0,11.593 8.514,21.131 18.862,21.131c10.348,0 18.862,-9.538 18.862,-21.131c0,-11.593 -8.514,-21.131 -18.862,-21.131c-10.348,0 -18.862,9.538 -18.862,21.131m119.776,45.374c0,11.664 8.568,21.263 18.98,21.263c10.412,0 18.98,-9.598 18.98,-21.263c0,-11.664 -8.568,-21.263 -18.98,-21.263c-10.348,0 -18.862,9.538 -18.862,21.131m-451.326,553.449l0,0.128c0,11.664 8.568,21.263 18.98,21.263c10.412,0 18.98,-9.598 18.98,-21.263c0,-11.614 -8.495,-21.191 -18.862,-21.263l-0.118,0c-10.304,0 -18.798,9.46 -18.862,21.003m93.16,87.899c0,11.664 8.568,21.263 18.98,21.263c10.412,0 18.98,-9.598 18.98,-21.263c0,-11.664 -8.568,-21.263 -18.98,-21.263c-10.345,0.139 -18.802,9.673 -18.862,21.263m118.733,40.969c0,11.664 8.568,21.263 18.98,21.263c10.412,0 18.98,-9.598 18.98,-21.263c0,-11.664 -8.568,-21.263 -18.98,-21.263l-0.118,0c-10.348,0 -18.862,9.538 -18.862,21.131l0,0.132m121.972,-1.685c0.251,11.393 8.686,20.614 18.859,20.614c10.348,0 18.862,-9.538 18.862,-21.131c0,-11.539 -8.441,-21.056 -18.741,-21.131l-0.121,0c-10.348,0 -18.862,9.538 -18.862,21.131c0,0.175 0.003,0.345 0.006,0.52m117.115,-41.617c0.127,11.564 8.654,20.999 18.977,20.999c10.412,0 18.98,-9.598 18.98,-21.263c0,-11.564 -8.422,-21.116 -18.744,-21.259l-0.118,0c-10.348,0 -18.862,9.538 -18.862,21.131l0,0.132m93.274,-84.01c0,11.664 8.568,21.263 18.98,21.263c10.412,0 18.98,-9.598 18.98,-21.263c0,-11.664 -8.568,-21.263 -18.98,-21.263l-0.118,0c-10.348,0 -18.862,9.538 -18.862,21.131l0,0.132m-1.272,-470.607c0.064,11.543 8.558,21.003 18.862,21.003c10.348,0 18.862,-9.538 18.862,-21.131c0,-11.593 -8.514,-21.131 -18.862,-21.131c-10.348,0 -18.862,9.538 -18.862,21.131l0,0.128m-132.505,-56.006c-0.064,-14.745 -10.908,-26.836 -24.07,-26.836c-13.206,0 -24.07,12.173 -24.07,26.965c0,14.791 10.866,26.965 24.07,26.965c13.206,0 24.07,-12.173 24.07,-26.965l0,-0.128m81.009,55.877c-0.064,-14.745 -10.908,-26.836 -24.07,-26.836c-13.206,0 -24.07,12.173 -24.07,26.965c0,14.791 10.866,26.965 24.07,26.965c13.206,0 24.07,-12.173 24.07,-26.965l0,-0.128m63.186,79.729c0,-14.862 -10.917,-27.096 -24.187,-27.096c-13.267,0 -24.187,12.23 -24.187,27.096c0,14.862 10.917,27.096 24.187,27.096l0.114,0c13.206,0 24.07,-12.173 24.07,-26.965l0,-0.128m-173.24,-303.235c0.337,-3.9 -2.2,-7.437 -5.672,-7.907c-3.542,-0.299 -6.695,2.653 -7.058,6.61c-0.267,3.968 2.368,7.501 5.901,7.907c0.2,0.021 0.401,0.032 0.601,0.032c3.284,0 6.056,-2.849 6.342,-6.514m161.321,65.6c0.019,-0.224 0.029,-0.449 0.029,-0.673c0,-3.679 -2.543,-6.785 -5.815,-7.105c-3.532,0.139 -6.368,3.433 -6.365,7.39c0.105,3.426 2.321,6.343 5.322,7.002c3.516,0.296 6.638,-2.675 6.943,-6.61m126.719,101.9c0.019,-0.224 0.029,-0.449 0.029,-0.673c0,-3.75 -2.594,-6.917 -5.929,-7.234c-0.2,-0.021 -0.401,-0.032 -0.601,-0.032c-3.284,0 -6.056,2.849 -6.342,6.514c-0.639,3.9 1.631,7.718 5.093,8.555c3.507,0.638 6.889,-1.945 7.636,-5.834c0.057,-0.474 0.057,-0.954 0,-1.425m-219.297,-94.121c0.013,-0.242 0.016,-0.484 0.016,-0.727c0,-7.54 -5.538,-13.741 -12.265,-13.741c-6.73,0 -12.265,6.204 -12.265,13.741c0,7.091 4.902,13.078 11.207,13.691c0.353,0.036 0.706,0.05 1.059,0.05c6.486,0 11.906,-5.763 12.249,-13.014m123.015,68.97c0.032,-0.395 0.045,-0.791 0.045,-1.186c0,-7.266 -5.144,-13.338 -11.617,-13.723c-0.684,-0.132 -1.373,-0.196 -2.063,-0.196c-6.73,0 -12.265,6.204 -12.265,13.741c0,7.041 4.832,13.003 11.092,13.68l1.157,0c0.35,0.036 0.703,0.05 1.052,0.05c6.466,0 11.855,-5.78 12.138,-13.014m84.248,98.139c-0.216,-0.014 -0.432,-0.018 -0.649,-0.018c-6.73,0 -12.265,6.204 -12.265,13.741c0,7.54 5.538,13.741 12.265,13.741c6.33,0 11.674,-5.492 12.221,-12.555c0.032,-0.395 0.045,-0.791 0.045,-1.186c0,-7.266 -5.144,-13.338 -11.617,-13.723m-366.963,-204.32l-0.114,0c-6.794,0 -12.383,6.261 -12.383,13.872c0,7.611 5.589,13.872 12.383,13.872c6.749,0 12.319,-6.183 12.383,-13.741l0,-0.132c0,-7.469 -5.484,-13.612 -12.151,-13.612l-0.118,0m-59.715,37.728l-0.114,0c-10.412,0 -18.98,9.598 -18.98,21.263c0,11.664 8.568,21.263 18.98,21.263c10.367,0 18.916,-9.516 18.98,-21.131c0,-11.593 -8.514,-21.131 -18.862,-21.131m-119.776,44.726l-0.114,0c-10.412,0 -18.98,9.598 -18.98,21.263c0,11.664 8.568,21.263 18.98,21.263c10.367,0 18.916,-9.516 18.98,-21.131c-0.06,-11.589 -8.52,-21.12 -18.862,-21.263m-175.322,319.832l-0.114,0c-10.412,0 -18.98,9.598 -18.98,21.263c0,11.664 8.568,21.263 18.98,21.263c10.367,0 18.916,-9.516 18.98,-21.131c0,-11.593 -8.514,-21.131 -18.862,-21.131m23.144,-124.847l-0.114,0c-10.412,0 -18.98,9.598 -18.98,21.263c0,11.664 8.568,21.263 18.98,21.263c10.367,0 18.916,-9.516 18.98,-21.131c0.258,-11.5 -7.907,-21.23 -18.169,-21.651m60.293,-111.363l-0.114,0c-10.412,0 -18.98,9.598 -18.98,21.263c0,11.664 8.568,21.263 18.98,21.263c10.367,0 18.916,-9.516 18.98,-21.131c-0.06,-11.589 -8.52,-21.12 -18.862,-21.263m270.679,591.953l0.114,0c13.267,0 24.187,-12.23 24.187,-27.096c0,-14.862 -10.917,-27.096 -24.187,-27.096c-13.225,0 -24.124,12.152 -24.187,26.965c0,14.816 10.847,27.025 24.07,27.096m0,-615.548l0.114,0c13.267,0 24.187,-12.23 24.187,-27.096c0,-14.862 -10.917,-27.096 -24.187,-27.096c-13.225,0 -24.124,12.152 -24.187,26.965c0,14.816 10.847,27.025 24.07,27.096m-96.053,15.945l0.114,0c13.267,0 24.187,-12.23 24.187,-27.096c0,-14.862 -10.917,-27.096 -24.187,-27.096c-13.225,0 -24.124,12.152 -24.187,26.965l0,0.128c0,14.745 10.793,26.893 23.955,26.965m-81.009,55.877l0.114,0c13.267,0 24.187,-12.23 24.187,-27.096c0,-14.862 -10.917,-27.096 -24.187,-27.096c-13.225,0 -24.124,12.152 -24.187,26.965l0,0.128c0,14.745 10.793,26.893 23.955,26.965m-63.879,80.121c0.343,0.018 0.69,0.025 1.033,0.025c13.267,0 24.187,-12.23 24.187,-27.096c0,-14.862 -10.917,-27.096 -24.187,-27.096c-13.041,0 -23.857,11.817 -24.178,26.423l0,0.128c0,14.745 10.793,26.893 23.955,26.965m-26.27,100.732l0.114,0c13.267,0 24.187,-12.23 24.187,-27.096c0,-14.862 -10.917,-27.096 -24.187,-27.096c-13.225,0 -24.124,12.152 -24.187,26.965c0,14.795 10.866,26.965 24.07,26.965m182.266,-423.416c3.532,-0.406 6.171,-3.943 5.901,-7.907c-0.362,-3.957 -3.519,-6.913 -7.058,-6.61c-3.278,0.31 -5.827,3.419 -5.827,7.105c0,0.267 0.013,0.538 0.041,0.805c0.232,3.715 3.027,6.632 6.349,6.632c0.159,0 0.318,-0.007 0.477,-0.021m-161.204,65.6c3.316,-0.26 5.92,-3.391 5.92,-7.112c0,-0.178 -0.006,-0.356 -0.019,-0.534c-0.305,-3.936 -3.427,-6.909 -6.943,-6.61c-3.316,0.26 -5.92,3.391 -5.92,7.112c0,0.178 0.006,0.356 0.019,0.534c0.305,3.936 3.427,6.909 6.943,6.61m698.746,566.673c3.554,0 6.479,-3.277 6.479,-7.258c0,-3.982 -2.925,-7.258 -6.479,-7.258l-1.389,0c-3.316,0.26 -5.92,3.391 -5.92,7.112c0,0.178 0.006,0.356 0.019,0.534c0.305,3.936 3.427,6.909 6.943,6.61m-77.305,120.57c3.503,-0.47 6.11,-3.96 5.901,-7.907c-0.362,-3.957 -3.519,-6.913 -7.058,-6.61c-3.532,0.406 -6.171,3.943 -5.901,7.907c0.283,3.736 3.109,6.642 6.457,6.642c0.2,0 0.401,-0.011 0.601,-0.032m-128.687,101.512c3.316,-0.26 5.92,-3.391 5.92,-7.112c0,-0.178 -0.006,-0.356 -0.019,-0.534c0,-3.982 -2.925,-7.258 -6.479,-7.258c-3.554,0 -6.479,3.277 -6.479,7.258c-0.057,0.474 -0.057,0.954 0,1.425c0.283,3.665 3.055,6.514 6.342,6.514c0.2,0 0.404,-0.011 0.601,-0.032m-160.971,64.564c3.36,-0.303 5.98,-3.483 5.98,-7.258c0,-3.996 -2.934,-7.283 -6.501,-7.283c-0.175,0 -0.347,0.007 -0.521,0.025c-3.36,0.303 -5.98,3.483 -5.98,7.258c0,3.996 2.934,7.283 6.501,7.283c0.175,0 0.347,-0.007 0.521,-0.025m-169.883,0c3.338,-0.335 5.929,-3.505 5.929,-7.258c0,-4 -2.938,-7.291 -6.508,-7.291c-0.194,0 -0.385,0.011 -0.579,0.028c-3.36,0.303 -5.98,3.483 -5.98,7.258c0,3.996 2.934,7.283 6.501,7.283c0.175,0 0.347,-0.007 0.521,-0.025m-161.321,-65.729c3.316,-0.26 5.92,-3.391 5.92,-7.112c0,-0.178 -0.006,-0.356 -0.019,-0.534c-0.305,-3.936 -3.427,-6.909 -6.943,-6.61c-3.316,0.26 -5.92,3.391 -5.92,7.112c0,0.178 0.006,0.356 0.019,0.534c0.305,3.936 3.427,6.909 6.943,6.61m-127.298,-101.772c3.379,-0.26 6.034,-3.448 6.034,-7.244c0,-0.178 -0.006,-0.356 -0.019,-0.534c-0.242,-3.79 -3.09,-6.76 -6.479,-6.76c-3.564,0 -6.498,3.287 -6.498,7.28c0,0.175 0.006,0.345 0.016,0.52c0.305,3.936 3.427,6.909 6.943,6.61m-79.619,-119.141c3.554,0 6.479,-3.277 6.479,-7.258c0,-3.982 -2.925,-7.258 -6.479,-7.258l-1.389,0c-3.046,0.648 -5.271,3.658 -5.271,7.134c0,3.911 2.823,7.159 6.314,7.258m80.545,-465.03c3.379,-0.26 6.034,-3.448 6.034,-7.244c0,-0.178 -0.006,-0.356 -0.019,-0.534c-0.242,-3.79 -3.09,-6.76 -6.479,-6.76c-3.564,0 -6.498,3.287 -6.498,7.28c0,0.175 0.006,0.345 0.016,0.52c0.305,3.936 3.427,6.909 6.943,6.61m225.547,-88.288c6.069,-0.905 10.65,-6.763 10.65,-13.623c0,-7.54 -5.538,-13.741 -12.265,-13.741c-0.156,0 -0.312,0.004 -0.467,0.011c-6.04,0.937 -10.587,6.781 -10.587,13.612c0,7.515 5.5,13.705 12.208,13.741m-123.13,68.97c6.123,-0.342 10.994,-6.08 10.994,-12.95c0,-7.112 -5.223,-12.964 -11.572,-12.964c-6.349,0 -11.572,5.852 -11.572,12.964c0,6.867 4.871,12.604 10.994,12.95l1.157,0m-108.55,100.603c0,7.112 5.223,12.964 11.572,12.964l1.736,0c6.66,-0.11 12.087,-6.279 12.087,-13.741c0,-7.54 -5.538,-13.741 -12.265,-13.741c-0.56,0 -1.119,0.043 -1.672,0.128c-6.689,0.417 -11.9,6.895 -11.572,14.389m794.448,261.102c-6.339,0.602 -11.27,6.617 -11.27,13.741c0,7.565 5.557,13.79 12.31,13.79c0.347,0 0.696,-0.018 1.043,-0.05c6.339,-0.602 11.27,-6.617 11.27,-13.741c0,-7.565 -5.557,-13.79 -12.31,-13.79c-0.347,0 -0.696,0.018 -1.043,0.05m-47.678,133.534c-6.069,0.905 -10.65,6.763 -10.65,13.623c0,7.54 5.538,13.741 12.265,13.741c0.156,0 0.312,-0.004 0.467,-0.011c6.04,-0.937 10.587,-6.781 10.587,-13.612c0,-7.515 -5.5,-13.705 -12.208,-13.741m-95.242,113.439c-6.66,0.11 -12.087,6.279 -12.087,13.741c0,7.54 5.538,13.741 12.265,13.741c0.56,0 1.119,-0.043 1.672,-0.128c6.689,-0.417 11.9,-6.895 11.572,-14.389c0,-7.112 -5.223,-12.964 -11.572,-12.964l-1.736,0m-126.023,69.101c-6.689,0.417 -11.9,6.895 -11.572,14.389c0.248,7.344 5.707,13.235 12.265,13.235c6.734,0 12.275,-6.208 12.275,-13.751c0,-0.175 -0.003,-0.345 -0.01,-0.52c-0.006,-0.175 0,-0.908 0,-1.296c-0.299,-7.223 -5.684,-12.982 -12.138,-12.982c-0.197,0 -0.394,0.007 -0.591,0.018m-148.592,23.207c-6.555,0.278 -11.814,6.393 -11.814,13.741c0,7.543 5.541,13.751 12.275,13.751c0.156,0 0.308,-0.004 0.464,-0.011l1.157,0c6.069,-0.905 10.65,-6.763 10.65,-13.623c0,-7.54 -5.538,-13.741 -12.265,-13.741c-0.156,0 -0.312,0.004 -0.467,0.011m-142.109,-18.281c-6.307,0.613 -11.207,6.6 -11.207,13.691c0,7.54 5.538,13.741 12.265,13.741c6.73,0 12.265,-6.204 12.265,-13.741c0,-0.242 -0.006,-0.484 -0.016,-0.727c-0.343,-7.255 -5.764,-13.014 -12.249,-13.014c-0.353,0 -0.706,0.018 -1.059,0.05m-128.569,-72.731c-6.555,0.278 -11.814,6.393 -11.814,13.741c0,7.543 5.541,13.751 12.275,13.751c0.156,0 0.308,-0.004 0.464,-0.011l1.157,0c6.069,-0.905 10.65,-6.763 10.65,-13.623c0,-7.54 -5.538,-13.741 -12.265,-13.741c-0.156,0 -0.312,0.004 -0.467,0.011m-95.474,-113.568c-6.069,0.905 -10.65,6.763 -10.65,13.623c0,7.54 5.538,13.741 12.265,13.741c0.156,0 0.312,-0.004 0.467,-0.011c6.04,-0.937 10.587,-6.781 10.587,-13.612c0,-7.515 -5.5,-13.705 -12.208,-13.741m-53.232,-263.306c-6.069,0.905 -10.65,6.763 -10.65,13.623c0,7.54 5.538,13.741 12.265,13.741c0.156,0 0.312,-0.004 0.467,-0.011c6.04,-0.937 10.587,-6.781 10.587,-13.612c0,-7.515 -5.5,-13.705 -12.208,-13.741m348.794,363.001c0,-14.795 -10.866,-26.965 -24.07,-26.965c-13.206,0 -24.07,12.173 -24.07,26.965c0,14.795 10.866,26.965 24.07,26.965c13.206,0 24.07,-12.173 24.07,-26.965m166.179,-27.096l-0.114,0c-13.267,0 -24.187,12.23 -24.187,27.096c0,14.862 10.917,27.096 24.187,27.096c13.225,0 24.124,-12.152 24.187,-26.965l0,-0.128c0,-14.745 -10.793,-26.893 -23.955,-26.965m82.512,-53.673c-0.194,-0.004 -0.385,-0.007 -0.579,-0.007c-13.267,0 -24.187,12.23 -24.187,27.096c0,14.862 10.917,27.096 24.187,27.096c13.178,0 24.057,-12.067 24.184,-26.829c0.003,-0.132 0.003,-0.26 0.003,-0.392c0,-14.934 -10.971,-27.225 -24.302,-27.225c-0.118,0 -0.232,0 -0.35,0.004m87.488,-54.321c-0.064,-14.745 -10.908,-26.836 -24.07,-26.836c-13.206,0 -24.07,12.173 -24.07,26.965c0,14.791 10.866,26.965 24.07,26.965c13.206,0 24.07,-12.173 24.07,-26.965l0,-0.128m-440.793,53.153l-0.114,0c-13.267,0 -24.187,12.23 -24.187,27.096c0,14.862 10.917,27.096 24.187,27.096c13.225,0 24.124,-12.152 24.187,-26.965l0,-0.128c0,-14.745 -10.793,-26.893 -23.955,-26.965m-63.879,-80.121l-0.229,0c-13.267,0 -24.187,12.23 -24.187,27.096c0,14.862 10.917,27.096 24.187,27.096c13.267,0 24.187,-12.23 24.187,-27.096l0,-0.256c0,-14.795 -10.866,-26.965 -24.07,-26.965m966.299,-232.321l149.17,0l0,222.986l52.425,0l0,-222.986l136.091,0l12.615,-38.892l-337.569,0l-12.729,38.892l-0.003,0Zm-1209.436,-38.892l-52.425,0l0,261.878l239.087,0l12.844,-38.892l-199.509,0l0,-222.986l0.003,0Zm487.314,0l126.372,259.285l56.125,0l-126.372,-258.637l-56.125,-0.648Zm-190.945,259.285l56.125,0l126.255,-258.637l-56.125,0l-126.255,258.637Zm753.714,-64.82l-219.875,-193.428l-52.654,0l0,258.249l52.425,0l0,-194.465l219.875,194.465l52.307,0l0,-258.637l-52.307,0l0.232,193.817l-0.003,0Zm1059.341,-84.138l-160.625,0c-0.887,0.093 -1.777,0.135 -2.667,0.135c-15.063,0 -27.792,-13.021 -29.156,-29.825c-0.057,-0.951 -0.057,-1.902 0,-2.853l0,-7.258c0.248,-17.445 13.124,-31.641 28.695,-31.641c0.232,0 0.464,0.004 0.699,0.011l218.718,0l12.729,-38.892l-244.873,0c-44.092,0 -66.54,33.318 -67.119,66.377l0,17.113c0,33.578 23.144,68.321 68.394,68.321l160.625,0c0.887,-0.093 1.777,-0.135 2.667,-0.135c15.063,0 27.792,13.021 29.156,29.825c0.057,0.819 0.057,1.642 0,2.465l0,7.258c-0.308,17.462 -13.219,31.641 -28.81,31.641c-0.194,0 -0.391,-0.004 -0.585,-0.007l-218.718,0l-12.729,38.892l244.873,0c44.092,0 66.54,-33.318 67.119,-66.377l0,-17.242c0,-33.447 -23.144,-68.193 -68.394,-68.193m-3622.176,0l-161.089,0c-0.887,0.093 -1.777,0.135 -2.667,0.135c-15.063,0 -27.792,-13.021 -29.156,-29.825c-0.057,-0.819 -0.057,-1.642 0,-2.465l0,-7.258c0.248,-17.441 13.124,-31.637 28.695,-31.637c0.156,0 0.312,0 0.467,0.004l218.95,0l13.194,-38.892l-245.337,0c-43.974,1.168 -66.54,33.967 -67.119,67.025l0,17.113c0,33.578 23.144,68.321 68.394,68.321l160.625,0c0.887,-0.093 1.777,-0.135 2.667,-0.135c15.063,0 27.792,13.021 29.156,29.825c0.057,0.819 0.057,1.642 0,2.465l0,7.258c-0.308,17.462 -13.219,31.641 -28.81,31.641c-0.194,0 -0.391,-0.004 -0.585,-0.007l-218.718,0l-12.729,38.892l244.873,0c44.092,0 66.54,-33.318 67.119,-66.377l0,-17.89c0,-33.447 -23.144,-68.193 -68.394,-68.193m3183.694,149.351l52.425,0l0,-258.637l-52.425,0l0,258.637Zm-3001.082,-220.393l149.053,0l0,222.986l52.425,0l0,-222.986l136.091,0l12.729,-38.892l-337.683,0l-12.615,38.892Zm717.493,0l12.729,-38.892l-265.357,0l0,261.878l252.974,0l12.729,-38.892l-212.932,0l0,-73.507l148.938,0l12.615,-38.116l-162.014,0l0,-72.471l200.32,0l-0.003,0Zm222.768,184.354l199.509,0l-12.844,38.892l-239.087,0l0,-261.49l52.425,0l0,222.598l-0.003,0Z" style="fill:#243882;fill-rule:nonzero;"/><path d="M2039.458,1855.988l-519.712,209.883c-164.004,-230.196 -265.971,-575.925 -260.971,-960.883c5.112,-393.679 120.979,-743.346 297.458,-968.717l510.283,222.387c-100.646,208.338 -162.317,470.113 -166.012,754.921c-3.6,277.342 48.317,534.321 138.954,742.408Z" style="fill:#efd21d;"/><path d="M1856.708,1151.675c1.162,243.746 42.767,469.079 113.054,653.25l-426.608,196.6c-129.292,-206.688 -211.183,-513.525 -212.821,-856.9l526.375,7.046l0,0.004Zm-524.725,-103.558c13.417,-343.829 106.429,-647.408 243.925,-846.925l418.242,206.717c-76.867,180.458 -126.288,403.762 -135.792,647.258l-526.375,-7.046l-0,-0.004Z" style="fill:#2f94c5;fill-opacity:0.75;"/><path id="EFD21D" d="M1253.975,1056.471l-0.142,90.204l-511.958,-0.808l0.142,-90.204l511.958,0.808Z" style="fill:#efd21d;"/><ellipse cx="970.246" cy="1439.896" rx="157.883" ry="54.571" style="fill:#efd21d;"/><ellipse cx="975.429" cy="714.438" rx="157.883" ry="54.571" style="fill:#efd21d;"/></svg>