<?xml version="1.0" encoding="UTF-8" standalone="no"?><!DOCTYPE svg PUBLIC "-//W3C//DTD SVG 1.1//EN" "http://www.w3.org/Graphics/SVG/1.1/DTD/svg11.dtd"><svg width="100%" height="100%" viewBox="0 0 68563 38421" version="1.1" xmlns="http://www.w3.org/2000/svg" xmlns:xlink="http://www.w3.org/1999/xlink" xml:space="preserve" xmlns:serif="http://www.serif.com/" style="fill-rule:evenodd;clip-rule:evenodd;stroke-linecap:round;stroke-linejoin:round;stroke-miterlimit:1.5;"><g id="Background"><g><path id="board" d="M68521.025,30668.35c-52.325,-2539.55 -4754.183,-4870.938 -10324.408,-6493.783c-3533.908,-1029.654 -10821.475,-1618.592 -14280.783,-1924.55c-7643.492,-675.625 -25870,309.513 -28884.358,513.158c-2547.588,172.154 -13362.675,1020.417 -13926.996,1238.283c-1484.567,572.846 -1310.033,11041.475 -224.029,11834.55c321.579,234.912 10323.229,1198.492 13439.408,1502.083c5313.525,517.429 25108.904,1127.446 29284.567,1031.304c1966.7,-45.225 11022.533,-601.962 14658.021,-1462.533c4645.488,-1099.737 10318.021,-3371.458 10258.821,-6238.262l-0.242,-0.242l0,-0.008Z" style="fill:#9da6e8;stroke:#fff;stroke-width:56.79px;"/><g id="lines"><path d="M57.779,30441.25l68411.617,-208.871c89.983,792.829 -44.046,1255.088 -263.092,1643.454l-68101.875,-155.817l-46.408,-1278.767l-0.242,0Z" style="fill:#fde5e5;"/><path d="M288.437,26090.833c0,0 63123.196,0 63123.196,0c1733.437,685.088 3757.221,2069.008 4347.117,2849.287l-67698.596,555.312c-1.65,-398.317 13.975,-948.888 62.05,-1633.508c23.925,-342.188 91.404,-1319.496 166.233,-1771.092Z" style="fill:#fde5e5;"/></g><g id="flower-2" serif:id="flower 2"><path d="M56041.408,27909.288c-902.013,-1766.354 403.767,-2544.983 1378.229,-3607.796c619.967,954.808 347.638,3180.817 -1378.229,3607.796Z" style="fill:#65b0ab;"/><path d="M56483.054,28319.2c1633.508,-1383.679 1985.175,-1182.621 4351.129,-743.108c-1318.071,1238.508 -2525.329,1937.571 -4351.129,743.108Z" style="fill:#65b0ab;"/><path d="M56050.417,28659.271c1661.925,1004.55 1952.725,1598.454 1675.192,3778.3c-1520.087,-852.517 -2502.829,-1616.233 -1675.192,-3778.3Z" style="fill:#65b0ab;"/><path d="M51770.088,30726.617c1166.042,-2150.225 1919.808,-1781.283 3899.775,-2180.071c-453.733,1682.533 -1600.592,2452.154 -3899.775,2180.071Z" style="fill:#65b0ab;"/><path d="M52107.779,25674.533c3206.162,115.554 3319.358,1629.967 3333.804,2404.792c-1748.596,-156.996 -2573.179,-327.5 -3333.804,-2404.792Z" style="fill:#65b0ab;"/></g><g id="flower"><path d="M49067.133,33936.804c474.567,1346.025 -530.921,1776.546 -1327.55,2441.508c-350.954,-740.033 55.642,-2301.787 1327.55,-2441.508Z" style="fill:#656fb0;"/><path d="M48791.25,33602.188c-1296.996,830.971 -1528.613,653.838 -3174.2,114.617c1058.3,-757.308 1986.129,-1140.713 3174.2,-114.617Z" style="fill:#656fb0;"/><path d="M49132.258,33400.904c-1089.321,-875.017 -1240.175,-1326.371 -834.046,-2854.737c1002.658,753.054 1630.679,1391.492 834.046,2854.737Z" style="fill:#656fb0;"/><path d="M52382.242,32335.263c-1036.996,1422.275 -1539.254,1087.188 -2989.479,1182.396c484.271,-1156.804 1375.625,-1596.092 2989.479,-1182.396Z" style="fill:#656fb0;"/><path d="M51658.317,35908.004c-2286.633,-402.1 -2231.929,-1475.088 -2172.967,-2019.983c1238.75,285.121 1813.958,487.363 2172.967,2019.983Z" style="fill:#656fb0;"/></g></g><g id="Background1" serif:id="Background"><path d="M25907.562,32624.733c-473.246,-469.367 -709.363,-544.367 -1419.454,-805.546c110.629,-189.229 -8.812,10.417 0,0c11.117,-19.179 180.883,-347.321 211.696,-397.046c11.779,-19 194.525,-274.208 240.892,-320.783c65.992,-76.642 404.717,-395.067 408.475,-398.646c8.758,-8.312 849.708,-816.408 861.317,-834.263c19.087,-11.408 303.675,-278.9 324.721,-300.546c19.325,-20.408 629.358,-450.017 645.171,-460.762c76.321,-107.425 -70.275,-203.058 -237.171,-363.104c0,0 -476.125,-515.162 -488.954,-529.033c-0.188,-0.183 -0.337,-0.4 -0.487,-0.583c-87.179,-110.454 -359.604,-460.65 -428.867,-525.763c-53.042,-96.658 -267.417,-336.608 -290.479,-363.092c-50.188,-1.129 -1040.562,-1526.688 -1196,-1739.871c0,0 -98.754,-141.779 -135.417,-216.454c-47.392,-60.958 -88.829,-137.425 -88.829,-137.425c-15.617,-159.175 -656.15,-1436.004 -688.246,-1486.838c-9.575,-20.1 -37.767,-133.758 -47.379,-153.825c-8.008,-11.158 -75.312,-194.487 -93.708,-236.433c-1.133,-6.217 -52.221,-183.008 -90.775,-297.333c-27.246,-94.388 -215.258,-469.917 -270.333,-1041.808c-83.237,-864.167 -51.421,-993.354 330.65,-2097.1c59.717,-84.283 403.504,-813.387 410.312,-835.283c32.971,-44.221 206.304,-376.896 429.15,-692.621c228.442,-413.85 896.875,-1031.396 1330.533,-1293.721c610.129,-420.392 635.379,-368.454 1158.221,-693.692c3.092,-0.658 431.033,-245.592 640.933,-233.546c189.667,201.021 786.192,670.008 1208.092,-307.263c257.604,-89.546 873.975,-159.875 913.333,-168.367c60.954,11.704 433.708,-13.579 566.062,-41.192l606.617,-37.971c70.067,12.308 548.571,5.85 615.029,-5.762c247.537,-2.321 1307.258,13.096 1367.938,16.067c180.792,3.213 836.592,56.042 834.758,57.096c612.217,63.058 722.721,113.283 776.342,139.117c222.429,918.479 842.267,924.312 1210.371,361.812c0,0 353.692,89.533 403.483,123c67.583,45.775 68.212,39.317 567.75,264.933c47.542,22.763 210.763,110.954 271.054,143.608c86.754,46.017 669.2,389.504 689.217,410.492c303.858,247.667 695.05,494.783 931.379,736.417c15.804,16.167 312.55,382.917 332.079,413.2c32.004,24.917 23.383,28.804 331.067,383.9c16.908,19.508 221.021,394.392 425.987,710.496c9.354,34.004 206.95,486.263 209.971,503.671c608.512,1672.642 308.163,2656.958 314.387,2705.15c-56.287,196.1 -384.996,1074.983 -387.346,1079.138c-550.954,975.429 -709.587,1328.042 -763.258,1447.429c-54.267,45.55 -97.754,161.883 -115.592,173.242c-78.421,128.462 -406.075,632.875 -418.204,653.796c-576.333,994.942 -941.283,1444.408 -1048.146,1679.533c-12.625,15.875 31.992,89.767 41.629,70.158c288.308,217.158 298.162,235.342 586.458,458.179c31.15,24.075 148.9,107.737 181.608,115.021c84.883,53.963 387.896,284.162 392.554,289.092c57.537,40.904 199.35,136.808 266.629,150.55c42.467,31.037 691.871,438.371 990.421,577.708c61.425,38.763 169.7,111.608 241.079,115.646c486.021,220.046 627.496,274 683.133,295.2c56.942,40.321 514.333,164.117 562.546,159.55c101.579,22.079 134.679,42.263 227.092,82.65c24.667,387.396 -250.196,462.375 -406.742,1794.046c0,0 -129.963,-25.096 -157.513,-29.45c44.263,51.033 -231.242,-102.075 -422.629,-169.692c-3.8,-3.646 -464.708,-229.967 -475.258,-237.821c-296.371,-208.854 -1064.329,-628.983 -1309.542,-836.017c-521.988,-364.921 -1864.658,-1450.733 -2021.796,-1542.271c-171.975,-100.158 -191.767,-193.812 -300.7,-35.862c-69.463,100.679 -31.896,-3.938 -156.508,211.946c-186.867,175.583 -163.213,195.092 -431.833,414.121c-277.321,226.125 -386.883,247.779 -643.1,440.317c-200.621,74.304 -189.354,90.333 -381.583,180.404c-31.654,18.842 -602.062,238.367 -621.488,249.375c-60.558,32.862 -547.1,168.108 -566.7,179.783c-43.321,10.192 -581.608,140.158 -623.679,156.863c-1208.95,166.737 -2025.079,93.408 -2055.442,84.325c-55.1,-2.033 -294.092,-10.829 -684.092,-85.746c-42.05,-16 -563.321,-163.267 -571.354,-166.167c-399.946,-144.087 -385.008,-171.492 -779.192,-321.542c-387.413,-217.404 -390.538,-209.85 -417.667,-237.063c-270.487,-271.579 -1866.321,1611.204 -1875.729,1621.108c-61.371,64.171 -382.15,541.746 -382.15,541.746c-38.571,72.629 -246.796,487.446 -246.796,487.446l0,-0.038l0,0.008Z" style="fill:#ee874c;"/><path d="M19909.188,19611.983c-59.621,-80.958 -61.058,-77.513 -755.513,-1004.2c-46.179,-36.858 -277.862,-379.633 -423.125,-620.979c-27.088,-30.275 -150.746,-226.467 -154.917,-233.979c-244.65,-415.008 -255.358,-406.083 -275.65,-442.55c-248.675,-446.929 -438.204,-823.179 -446.604,-833.379c-12.246,-38.987 -173.712,-425.233 -182.925,-445.412c-41,-87.604 -111.712,-300.613 -120.508,-327.1c-26.342,-92.296 -175.542,-580.829 -192.129,-622.129c14.025,106.029 -109.554,-476.638 -158.125,-743.262c-8.271,-39.396 -3.417,-176.779 -32.192,-237.783c-5.067,-507.275 -2.767,-666.158 -3.454,-916.071l34.421,-273.292c268.412,88.963 1389.25,114.017 1753.746,179.658c2259.792,406.979 2752.35,771.179 3418.487,1069.987c6.096,-99.863 -3.604,154.217 -3.604,154.217c-25.438,198.725 -53.583,340.188 -56.283,374.425c-0.05,2.067 -0.288,4.133 -0.708,6.2c-48.446,257.733 -105.271,1268.158 -101.737,1347.646c4.129,69.858 22.425,694.967 38.317,747.629c2.558,8.454 55.05,666.896 122.229,855.758c4.05,16.879 36.754,153.275 46.958,211.967c-1.879,17.717 13.025,112.6 11.146,130.279c75.592,113.121 -1043.083,1237.963 -2517.829,1622.367l-0,0.004Z" style="fill:#ee874c;"/><path d="M43449.842,18971.004c-489.496,197.729 -2650.167,-712.979 -2644.308,-1226.121c19.513,-159.4 55.996,-143.45 88.208,-297.858c5.442,-50.087 60.833,-177.458 60.833,-177.458c18.737,-41.158 53.921,-126.875 45.108,-172.312c41.312,-123.646 23.262,-125.521 71.787,-243.454c142.571,-403.838 65.496,-1243.296 61.642,-1259.254c-13.067,-29.208 -177.812,-729.417 -195.463,-766.688c-105.862,-406.225 -81.808,-268.671 -156.158,-543.246c512.333,-307.504 802.946,-939.933 3638.637,-1206.15c332.358,-31.2 991.312,-112.196 1298.867,-23.904c8.512,735.592 36.971,735.146 -73.854,1460.383c-15.575,43.667 -80.846,275.883 -72.042,324.05c-50.321,136.425 -47.433,130.308 -71.696,272.912c-36.2,84.071 -191.713,634.554 -186.713,681.875c-6.025,12.379 -242.079,476.929 -253.758,515.796c-4.579,9.854 47.046,-97.163 41.75,-85.825c-0.9,1.925 -902.804,1844.858 -1652.8,2747.329l-0.037,-0.075l-0.004,0Z" style="fill:#ee874c;"/><path d="M40713.029,14110.217c-51.137,-73.637 -71.637,-101.438 -80.871,-120.658c-214.117,-445.854 -243.721,-554.079 -405.4,-813.796c-1.121,-8.429 -111.688,-266.879 -123.1,-296.546c-1.008,-8.246 -91.658,-335.296 -125.292,-385.3c-46.05,-69.929 -62.392,-356.913 -64.379,-419.233c-6.179,-193.783 84.625,-137.967 336.725,-249.425c0,0 472.167,98.717 507.729,90.304c82.458,19.663 366.563,132.054 413.658,126.654c444.287,146.9 444.758,142.583 483.025,156.113c49.704,24.987 364.246,164.042 551.2,251.213c80.629,66.542 300.6,166.225 433.379,283.054c0,0 87.479,135.483 180.096,244.183c2.471,3.475 59.692,143.225 46.433,-1.779c-27.862,-58.287 -44.304,-117.762 -65.65,-162.921c-152.271,-321.642 -266.246,-553.658 -275.396,-571.883c-8.738,-17.383 -22.263,-34.308 -41.242,-71.933c-163.967,-301.608 -516.558,-782.538 -668.725,-853.925c-12.683,-17.671 -187.717,-232.6 -236.954,-266.146c-10.6,-19.354 -82.463,-103.867 -92.883,-113.233c-32.804,-61.921 -128.404,-111.163 -146.371,-123.062c-92.221,-92.408 -84.421,-93.671 -181.783,-173.675c-41.658,-34.696 -233.4,-184.229 -245.571,-202.054c-17.675,-12.017 -35.388,-24.033 -53.062,-36.05c-21.754,-21.004 -335.554,-358.487 -369.354,-378.479c-20.525,-58.438 -75.412,-113.492 -82.533,-124.329c32.392,-134.021 128.358,-206.854 145.146,-219.604c0,0 107.983,-45.383 185.308,-71.712c46.687,4.887 259.362,-73.083 262.546,-75.221c262.075,-32.704 172.567,-46.212 773.796,-122.871c49.15,-13.388 397.583,-68.721 535.242,-44.663c360.379,62.996 333.492,40.938 567.938,83.696c72.142,13.137 200.7,48.571 263.467,43.117c55.417,14.421 118.846,64.996 157.704,65.062c18.896,12.3 118.371,51.542 149.196,58.85c9.225,0.825 187.175,87.425 238.213,92.008c10.596,8.479 610.433,351.083 658.571,381.654c343.621,193.642 730.333,630.967 755.017,646.962c34.933,82.25 173.687,269.396 209.025,358.388c17.058,117.646 383.575,705.45 405.417,1575.467c-65.85,-14.567 -2897.867,505.071 -3146.921,569.717c-678.079,175.946 -1425.688,557.754 -1853.342,872.067l0,-0.008Z" style="fill:#ee874c;fill-opacity:0.99;"/><path d="M43678.638,28834.688c-705.454,80.121 -764.146,73 -1461.983,8.483c-101.675,-27.533 -605.3,-57.454 -858.421,-112.587c-475.317,-103.587 -1048.392,-237.55 -1230.296,-279.388c-4.492,3.917 -443.971,-161.946 -630.533,-229.837c-4.163,-3.163 -180.021,-83.704 -238.346,-118.479c-18.929,-12.075 -792.713,-397.379 -809.079,-407.454c-449.708,-251.621 -789.308,-431.221 -838.846,-436.783c132.921,-183.233 867.75,-1394.158 1007.425,-1489.646c383.263,194.625 380.296,189.533 747.183,411.5c39.554,23.95 139.125,51.1 151.546,54.508c65.413,32.379 63.254,34.133 85.2,38.325c62.546,47.117 321.971,165.042 358.608,170.996c252.983,167.504 1093.183,394.388 1386.112,413.779c6.379,3.583 1019.671,83.75 1060.054,92.246c197.783,-0.725 443.208,6.412 640.996,5.721c-19.058,1053.604 534.754,1750.767 630.413,1878.679l-0.038,-0.075l0.004,0.013Z" style="fill:#ee874c;fill-opacity:0.99;"/><path d="M20727.717,29071.675c-85.721,-0.458 -519.208,30.338 -1125.908,-12.763c87.842,-133.833 581.908,-910.317 543.588,-1892.233c197.792,-3.529 481.192,-13.529 678.983,-17.058c125.146,5.129 565.2,-63.633 565.2,-63.633c97.975,8.662 1145.367,-263.392 1188.138,-280.175c138.121,-54.292 1054.458,-398.842 1120.9,-432.979c264.925,-136.037 721.871,-392.708 1003.162,-546.612c204.771,325.363 683.708,1078.583 1003.092,1480.117c-131.013,81.275 -725.079,396.317 -907.938,504.537c-169.2,89.2 -1123.85,569.125 -1217.279,603.033c-278.392,131.721 -258.117,100.242 -534.096,215.788c-149.312,62.521 -341.804,107.246 -385.521,125.55c-11.304,4.988 -346.808,90.633 -356.487,92.1c-18.921,2.854 -296.646,54.379 -326.821,63.4l-637.942,101.858c-182.312,23.938 -424.629,60.008 -611.038,59.029l-0.037,0.038l0.004,0.004Z" style="fill:#ee874c;"/><path d="M20375.008,13118.163c-15.983,12.15 -99.183,5.917 -1024.571,-163.958c-161.904,-29.7 -1954.346,-89.429 -2140.383,-16.896c1.079,-75.958 7.579,-71.233 -7.967,-143.475c3.65,-20.979 114.792,-587.142 116.783,-597.483c46.067,-88.675 113.425,-284.042 121.979,-304.854c278,-472.254 629.867,-1141.129 1367.617,-1538.65c10.25,-45.379 339.037,-212.029 435.825,-238.825c63.596,-31.308 290.479,-153.267 833.317,-271.192c295.512,-64.213 1179.521,-0.488 1281.562,9.35c0,0 183.771,82.558 210.996,87.65c46.538,46.292 102.754,98.233 107.158,103.129c14.004,16.775 79.458,140.25 79.458,140.25c-18.971,32.792 -37.946,65.546 -56.879,98.337c-10.287,10.138 -406.071,350.767 -555.483,543.246c-24.079,31.038 -366.975,540.625 -448.821,711.375c-86.787,181.125 -221.188,747.825 -226.583,774.279c-15.3,42.004 -53.796,285.55 -100.625,567.267c-29.179,120.312 -84.833,195.15 6.633,240.45l-0.017,-0Z" style="fill:#ee874c;fill-opacity:0.99;"/><path d="M19358.792,29011.158c-575.646,-261.938 -587.146,-307.017 -633.904,-332.625c-31.242,-19.025 -402.183,-272.288 -516.179,-412.1c-14.154,-17.363 -140.783,-141.779 -219.133,-222.867c-16.25,-16.825 -233.638,-266.254 -264.892,-338.554c-19.021,-10.271 -118.771,-144.958 -127.658,-155.667c-27.362,-46.125 -278.338,-368.862 -286.704,-379.317c-3.188,-22.675 -162.504,-243.558 -207.737,-320.133c-142.796,-241.629 -213.904,-387.167 -225.121,-416.246c-19.783,-40.383 -76.4,-150.938 -86.667,-180.692c-16.354,-75.517 -257.246,-612.554 -274.233,-653.704c-22.375,-65.792 -67.6,-295.142 -67.6,-295.142c7.604,-40.967 -70.25,-664.525 47.825,-1226.742c9.85,-48.4 80.492,-215.196 90.862,-234.921c85.292,-165.587 125.142,-159.15 271.4,-280.513c54.862,10.738 50.787,2.008 94.421,28.458c33.787,26.225 27.821,30.046 58.908,34.329c20.783,27.1 97.363,205.279 97.363,205.279c8.558,10.821 17.079,21.683 25.633,32.504c11.817,54.108 27.025,42.113 311.392,618.363c1.946,51.592 443.517,802.921 540.212,948.592c237.662,423.525 848.021,1050.483 1047.312,1153.967c33.342,29.325 588.05,375.062 656.404,406.821c19.4,11.15 264.258,132.213 264.258,132.213c96.033,847.112 -510.013,1754.992 -596.121,1888.733l-0.038,-0.037l-0.004,0Z" style="fill:#ee874c;fill-opacity:0.99;"/><path d="M44547.004,28450.938c-152.479,97.762 -247.783,185 -661.412,322.758c-43.312,-62.179 -72.213,-124.546 -109.308,-181.004c-440.454,-670.121 -462.217,-967.558 -554.625,-1670.3c0,0 555.7,-240.571 716.792,-370.937c0,0 258.692,-202.738 268.062,-212.458c308.442,-253.442 426.454,-375.354 546.996,-516.392c267.338,-312.729 791.95,-1247.696 859.654,-1371.654c51.371,-71.771 112.954,-188.958 114.563,-239.225c269.492,-583.171 287.542,-570.425 296.738,-625.008c54.217,-50.271 77.079,-182.312 119.567,-239.942c19.304,-11.854 97.458,-54.154 151.675,-65.938c153.85,112.146 157.837,105.504 247.246,269.983c10.679,19.613 114.892,189.5 125.683,237.35c152.071,634.275 39.383,1138 57.212,1398.021c-24.596,233.113 -256.387,860.163 -681.45,1475.433c34.062,-28.121 -555.975,814.408 -823.304,1138.162c13.483,-39.146 -118.312,142.342 -416.088,452.812c-39.383,20.175 -246.012,181.442 -258.037,198.271l0.037,0.075l0,-0.008Z" style="fill:#ee874c;fill-opacity:0.99;"/><path d="M22512.275,31814.046c-62.987,29.571 -205.779,81.329 -205.779,81.329c14.708,-1343.037 -363.487,-1448.758 -440.508,-1808.504c-10.55,-49.329 15.138,12.412 0,0c31.929,-13.829 63.892,-27.663 95.821,-41.454c46.871,4.812 40.65,-1.242 84.404,-19.325c0,0 418.979,-95.675 474.95,-119.417c19.679,-11.046 39.4,-22.058 59.079,-33.104c58.754,-21.967 816.608,-362.629 915.592,-428.967c195.583,-100.796 183.683,-110.404 380.354,-216.413c51.258,-23.217 149.671,-98.542 179.879,-117.958c270.525,-136.504 441.154,-268.408 476.663,-295.846c1.471,-0.275 195.075,-103.483 293.817,-186.333c188.462,-125.646 169.654,-143.767 355.892,-267.142c49.663,-10.258 99.404,-79.246 118.683,-89.771c59.075,-29.933 75.604,-42.9 665.675,-526.454c58.254,94.429 484.583,708.442 889.487,1031.946c-9.029,10.862 -1407.608,1162.771 -1498.433,1230.425c-149.954,106.583 -576.308,498.525 -1478.267,1087.571c-56.15,34.917 -107.379,85.008 -115.921,93.321c0,0 -454.975,254.583 -475.667,271.208c-64.313,26.45 -267.221,142.221 -296.479,154.179c-19.958,9.317 -279.675,136.008 -479.213,200.792l-0.037,-0.075l0.008,-0.008Z" style="fill:#ee874c;"/><path d="M23340.096,25473.929c-319.562,10.713 -1233.708,182.258 -2413.6,-65.292c-307.638,-64.546 -574.075,-109.696 -656.321,-123.242l-26.108,-4.258c0,0 123.704,5.071 -63.329,-27.204c-72.467,-12.504 -174.883,-64.846 -234.379,-57.246c-213.213,-91.608 -444.621,-174.733 -483.737,-188.771c-75.425,-37.95 -72.429,-33.596 -152.288,-54.871c-81.829,-61.404 -83.096,-44.913 -181.254,-85.275c-28.338,-12.825 -56.713,-25.612 -85.054,-38.438c-61.279,-42.375 -60.929,-33.9 -122.846,-84.158l-46.75,-52.408c162.158,-162.121 663.133,-557.508 1024.35,-1451.112c117.767,57.154 175.875,92.629 188.562,93.088c386.708,224.008 489.167,235.092 524.029,247.85c30.217,9.008 60.429,17.979 90.683,26.987c409.808,163.525 851.829,189.858 926.904,190.979c21.233,6.854 400.558,41.592 441.142,33.863c5.667,-1.092 54.925,-0.579 62.467,-1.987c404.067,-3.129 399.533,-2.821 799.737,-8.713c230.2,-3.392 207.079,-10.558 536.95,-61.196l167.167,-16.512c12.758,55.975 26.283,428.558 648.954,1484.229c-212.879,58.325 -827.758,207.575 -856.083,213.442c-29.942,9.792 -59.213,20.533 -89.154,30.325l-0.037,-0.075l-0.004,-0.004Z" style="fill:#ee874c;fill-opacity:0.99;"/><path d="M40599.192,25373.346c-30.146,-9.267 -961.825,-97.854 -1102.371,-126.562c-105.3,-21.525 -348.379,-92.838 -504.65,-123.554c18.433,-118.537 330.454,-616.075 788.688,-1472.808c31.979,-1.958 25.867,9.092 58.912,7.046c5.046,-0.312 276.208,34.758 389.708,12.508c405.621,-2.775 398.329,-1.813 799.558,-8.229c110.163,10.892 107.008,1.929 359.271,-20.646c182.192,-17.854 717.129,-126.217 1072.342,-241.571c46.792,4.075 886.879,-421.583 893.783,-427.408c60.417,128.25 993.35,1437.492 993.35,1437.492c-82.95,69.746 -535.812,339.567 -535.812,339.567c-247.237,107.537 -501.188,200.842 -568.146,231.3c95.708,45.292 -1497.792,419.121 -2644.596,392.862l-0.037,0l-0,0.004Z" style="fill:#ee874c;fill-opacity:0.99;"/><path d="M40194.342,22292.221c-70.558,-456.517 -83.633,-835.446 -123.608,-1216.558c-41.742,-398.312 -112.817,-799.079 -309.492,-1293.492l-45.767,89.446c17.425,-39.521 213.312,-369.783 392.108,-750.888c30.475,-64.067 173,-305.208 182.892,-324.962c176.321,-311.583 344.475,-670.75 370.654,-722.717c226.075,129.817 2227.712,870.367 2573.188,1086.258c18.258,11.421 6.038,62.058 26.142,69.846c-218.7,257.467 -445.433,599.338 -478.312,648.975c-281.154,362.242 -818.629,956.1 -957.287,1095.521c-18.088,11.621 -464.625,475.408 -766.496,691.213c-401.546,287.017 -654.821,527.925 -863.983,627.354l-0.037,0l0,0.004Z" style="fill:#ee874c;"/><path d="M18653.388,24505.717c-9.746,-11.696 -118.092,-122.663 -154.342,-165.45c-20.362,-53.462 -39.108,-62.004 -133.358,-192.696c-34.05,-47.237 -208.021,-301.55 -266.371,-405.304c-86.267,-153.45 -306.592,-607.538 -363.671,-772.096c-10.421,-30.008 -71.308,-216.871 -89.75,-259.554c-8.292,-13.554 -49.562,-137.25 -89.25,-278.471c-206.633,-735.304 -260.767,-1036.454 -277.217,-1127.892c-10.692,-59.5 -6.412,-100.762 -7.038,-149.496c-2.083,-158.763 -4.167,-317.529 -6.25,-476.292c22.171,-47.533 2.358,-209.392 51.917,-421.458c46.275,-198.096 73.033,-341.754 207.246,-594.717c208.858,-393.663 223.704,-296.896 560.762,-584.592c21.592,-8.154 188.913,-16.708 188.913,-16.708c105.892,49.683 147.987,115.487 166.017,150.358c-7.925,48.971 123.683,1017.954 131.767,1099.237c-7.642,47.971 25.733,167.4 30.367,208.346c-4.783,46.246 128.417,684.629 141.725,708.892c38.579,144.371 96.013,308.004 115.45,347.208c4.933,27.267 147.1,436.167 260.908,631.246c72.029,159.425 211.583,362.896 473.663,725.071c18.883,11.008 55.658,72.408 74.542,83.417c0.958,69.925 -1.713,50.896 -1.713,50.896c-211.917,578.546 -715.763,1322.871 -1014.329,1440.021l0,0.037l0.013,-0.004Z" style="fill:#ee874d;fill-opacity:0.99;"/><path d="M44555.483,24234.254l-89.417,65.021c-683.762,-605.763 -1057.217,-1396.887 -1046.833,-1425.792c185.642,-249.783 293.679,-373.546 478.862,-722.458c16.075,-31.396 209.429,-416.083 349.308,-803.008c156.283,-432.296 272.575,-1125.004 249.283,-1078.712c0,0 18.575,-178.375 26.658,-208.913c18.029,-404.362 74.296,-930.312 82.921,-1010.996c-16.346,-49.967 175.017,-215.496 215.754,-225.767c69.642,-17.583 150.425,-30.604 152.362,-0.725c55.308,42.662 446.112,344.008 605.333,629.263c12.338,-70.879 220.65,610.508 247.988,954.154c1.308,158.771 -12.321,550.225 0.167,626c-70.967,446.696 -161.179,767.617 -190.288,926.342c-6.833,12.9 -140.675,471.687 -149.121,492.312c55.458,-89.804 -233.621,718.908 -334.575,850.408c65.5,-39.696 -388.171,749.958 -598.408,932.867l0.004,0.004Z" style="fill:#ee874c;fill-opacity:0.99;"/><path d="M23032.754,22681.921c-9.188,-7.608 -73.829,-61.267 -116.925,-92.371c-44.117,-33.6 -40.454,-32.383 -87.062,-61.163c-373.217,-269.829 -502.75,-369.108 -513.35,-377.846c-270.817,-222.358 -936.188,-905.513 -938.608,-907.846c-986.892,-962.492 -1054.562,-1152.487 -1234.358,-1378.833c403.787,-249.471 1452.996,-684.383 2230.729,-1477.579c55.037,-56.142 78.875,-113.537 152.225,-93.963c0,0 46.933,111.654 65.729,152.821c92.517,277.075 228.271,581.487 274.304,649.904c9.579,9.892 54.729,116.917 117.562,208.679c71.104,106.975 250.158,384.938 269.463,415.004c93.554,127.712 115.871,184.658 124.646,195.108c-887.613,1346.367 -81.05,2862.108 -88.442,2916.196c-2.875,20.933 -253.108,-169.088 -255.987,-148.154l0.075,0.038l0,0.004Z" style="fill:#ee874c;"/><path d="M41324.396,31800.788c-141.275,-21.104 -209.325,-906.229 286.613,-1830.383c210.654,41.275 287.067,54 499.433,90.317c550.242,94.129 1550.492,-47.983 2114.075,-253.758c46.175,8.617 995.833,-308.817 1127.217,-369.046c48.083,7.604 144.254,-31.975 324.321,-48.554c18.954,18.05 126.55,124.304 126.55,124.304c13.058,31.938 91.508,223.812 -87.004,422.275c-48.429,57.104 -226.833,273.112 -230.225,276.504c-9.587,10.167 -191.883,196.279 -211.271,207.25c-195.054,196.242 -191.762,190.346 -208.025,207.292c-29.558,7.758 -145.513,97.833 -177.175,150.667c-54.096,23.467 -55.025,15.625 -86.904,65.471c-14.667,11.179 -256.596,198.808 -267.162,206.992c39.229,-6.792 -411.4,275.542 -503.358,302.175c-26.229,5.292 -259.05,127.129 -263.558,129.571c-30.125,10.162 -137.092,57.304 -209.404,90.621c56.817,0.579 -77.979,51.813 -253.796,83.533c-74.954,13.513 -949.558,298.779 -1980.333,144.804l0,-0.037l0.008,0.004Z" style="fill:#ee874d;fill-opacity:0.99;"/><path d="M22034.513,31967.338c-1007.658,170.1 -2261.963,-172.775 -2263.733,-173.017c-74.887,-32.204 -262.829,-91.05 -385.85,-153.308c-37.358,-46.646 -345.533,-186.137 -377.842,-211.754c-72.733,-38.054 -154.804,-94.254 -165.471,-102.4c-19.221,-11.521 -271.408,-194.737 -276.196,-197.675c-66.979,-41.175 -278.188,-229.175 -311.808,-236.083c-14.233,-14.154 -124.362,-126.612 -162.817,-154.413c-4.837,-4.079 -81.95,-69.254 -93.096,-87.975c-10.242,-9.663 -20.479,-19.325 -30.758,-28.983c-10.162,-9.404 -20.329,-18.846 -30.492,-28.25c-27.883,-25.475 -79.092,-70.688 -91.333,-88.4c-9.8,-10 -19.567,-19.996 -29.367,-29.958c-17.929,-11.646 -153.004,-185.3 -208.879,-239.675c-9.146,-10.558 -18.287,-21.117 -27.433,-31.675c-181.883,-196.975 -108.142,-388.321 -95.729,-420.525l123.933,-127.025c181.004,12.65 178.704,4.417 240.179,27.104c44.529,17.042 644.967,221.204 686.908,233.812c46.312,21.596 130.1,48.579 149.429,59.917c59.025,17.442 1728.946,442.304 2940.65,180.129c101.558,197.825 110.679,181.579 119.046,198.892c356.162,735.088 296.633,1580.267 290.587,1611.337l0.075,-0.075l-0.004,0Z" style="fill:#ee874d;fill-opacity:0.99;"/><path d="M37425.296,32525.888c-4.354,-7.513 -188.179,-356.875 -213.833,-383.958c-1.262,-53.258 -143.088,-269.35 -233.429,-389.504c-9.35,-33.708 -174.3,-299.104 -355.088,-469.546c-1.267,-1.204 -2.458,-2.479 -3.504,-3.833c-458.812,-582.479 -1121.775,-1124.938 -1149.696,-1143.554c-18.737,-14.696 -48.6,-32.408 -242.804,-160.388c691.825,-518.292 667.725,-534.7 1006.408,-839.667l68.133,24.867c57.567,29.587 187.296,130.188 236.408,151.533c2.667,11.733 161.354,127.992 180.996,148.025c21.242,21.454 222.062,224.458 273.029,260.75c19.25,11.079 347.312,288.392 538.717,444.267c102.154,83.2 301.071,318.592 424.621,410.375c39.333,37.925 245.604,219.308 325.846,297.721c45.671,65.508 44.946,59.838 94.5,115.908c113.733,111.613 229.175,276.513 240.621,295.342c121.712,196.617 160.137,249.925 227.1,456.629c-137.771,52.629 -1093.167,517.775 -1418.012,785.067l0,-0.037l-0.013,0.004Z" style="fill:#ee874c;fill-opacity:0.99;"/><path d="M38416.775,35191.879c-64.087,33.821 -297.775,247.504 -356.071,-28.792c-16.496,-78.167 -20.029,-70.796 -41.821,-147.8c-26.929,-971.162 -321.929,-1911.987 -438.787,-2137.596c-7.9,-18.571 -21.333,-89.546 -54.583,-186.892c652.512,-665.858 1036.804,-691.342 1422.846,-791.904c160.429,302.05 165.054,373.046 247.417,572.325c27.879,98.508 38.854,114.946 44.7,123.696c5.958,8.933 32.271,161.654 48.492,203.471c113.412,416.1 49.787,740.946 37.442,804.154c-15.908,43.746 -53.029,225.375 -112.637,361.896c-27.458,49.433 -14.596,49.15 -63.425,194.113c-11.825,28.883 -342.867,606.621 -346.621,614.254c-2.512,3.05 -168.717,190.579 -181.029,208.258c-16.671,16.654 -14.417,17.371 -205.888,210.808l-0.037,0l0.004,0.008Z" style="fill:#ee874c;fill-opacity:0.99;"/><path d="M25285.792,35382.988c-140.242,108.029 -548.979,-323.717 -568.696,-343.929c-12.496,-17.271 -340.362,-523.858 -351.075,-553.463c-25.675,-50.383 -41.492,-43.321 -201.046,-391.762c-62.571,-136.596 -103.4,-316.371 -119.821,-359.55c-13.754,-62.896 -84.413,-386.062 20.175,-804.763c15.554,-42.192 102.717,-393.608 108.629,-402.742c5.733,-8.833 82.712,-221.229 196.404,-473.088c895.663,172.363 1265.604,553.933 1443.271,788.042c-9.717,29.412 -28.162,101.533 -37.879,130.946c-63.112,132.838 -101.808,305.117 -107.937,332.392c-6.858,52.092 -278.871,836.329 -285.754,1813.929c-13.162,59.275 -26.325,118.546 -39.521,177.821c-52.65,79.708 -50.204,81.083 -56.75,86.133l0,0.037l0,-0.004Z" style="fill:#ee874c;fill-opacity:0.99;"/><path d="M22399.025,14036.842c-115.583,-42.429 -869.967,-549.008 -1841.083,-859.563c-47.942,-15.346 -101.167,-17.842 -144.788,-42.929c-21.883,-12.562 -41.362,-6.567 -63.246,-19.129c198.592,-304.333 140.217,-246.392 285.55,-427.467c11.229,-1.592 -30.721,-18.367 510.7,-420.375c287.883,-213.775 529.292,-300.717 586.763,-336.125c19.463,-10.825 477.979,-206.05 477.979,-206.05c69.471,-26.688 374.433,-107.075 395.367,-111.204c118.612,-23.375 97.296,-20.529 406.833,-51.783c263.992,93.025 316.829,177.337 363.821,420.308c-67.9,77.587 -220.533,328.237 -238.438,357.625c-178.075,292.467 -367.367,674.312 -369.054,692.612c-4.396,9.779 -241.342,630.358 -254.883,660.696c-3.042,19.167 -115.562,343.383 -115.562,343.383l0.042,0Z" style="fill:#ee874c;fill-opacity:0.99;"/><path d="M40773.613,14331.075c-79.758,-213.983 -101.733,-249.287 -114.071,-269.142c427.654,-314.312 1134.062,-722.417 1812.104,-898.358c249.054,-64.642 2044.9,-530.675 3175.796,-509.708c5.383,0.092 0,0 65.85,14.567l5.667,386.05c-334.025,-21.796 -329.654,-40.829 -662.013,-9.629c-2835.692,266.217 -3771,978.717 -4283.333,1286.221Z" style="fill:#c7703e;"/><path d="M22369.663,14286.45c-666.137,-298.846 -1928.388,-1069.258 -4221.938,-1178.367c-304.562,-14.475 -870.821,32.983 -966.5,-2.725c9.612,-49.871 29.379,-359.8 43.746,-360.875c1063.817,-82.067 1978.508,115.383 2140.692,143.496c931.346,161.404 1189.225,272.413 1237.167,287.758c971.154,310.55 1707.967,741.888 1823.55,784.317c2.762,17.042 5.558,34.042 8.321,51.083c-40.779,104.1 -29.767,99.892 -45.633,213.462c-6.454,20.642 -12.946,41.279 -19.4,61.921l0,-0.075l-0.004,0.004Z" style="fill:#c7703e;"/><path d="M27377.575,16166.6c-399.908,-1106.542 1022.771,-1614.233 1254.096,-304.283c-370.967,1038.263 -1037.917,537.1 -1254.096,304.283Z"/><path d="M35557.896,16187.675c-434.838,590.413 -1162.754,574.992 -1288.579,-383.842c322.104,-994.208 1465.429,-749.808 1298.079,368.738l-9.5,15.104Z"/><path d="M20169.8,19915.375c-259.979,-299.121 -258.496,-294.783 -260.575,-303.392c1302.625,-694.113 1344.388,-638.888 2440.767,-1623.25c6.938,-6.229 55.592,-70.121 60.321,-76.288l18.812,32.354c24.312,109.642 20.567,104.079 29.563,118.029c7.608,67.388 2.954,63.083 34.171,118.054l14.25,5.196c-7.471,46.642 -2.767,41.763 17.283,83.062c4.237,27.604 0.512,44.825 3.938,51.5c-73.35,-19.612 55.037,-56.142 0,0c-777.733,793.196 -1954.742,1345.221 -2358.525,1594.692l0,0.037l-0.004,0.004Z" style="fill:#c7703e;"/><path d="M43226.121,19280.471c-20.1,-7.787 -19.262,-43.483 -39.362,-51.271c-386.292,-149.763 -465.113,35.221 -2085.379,-899.267c-221.667,-127.833 -214.175,-127.067 -440.292,-256.879c112.596,-236.846 97.713,-239.229 108.083,-259.138c17.083,-40.733 20.496,-31.517 36.321,-69.029c50.942,58.488 45.708,55.15 50.942,58.488c1495.325,945.096 2186.329,1001.204 2636.292,1119.771c-137.092,183.092 -124.467,184.583 -266.642,357.371l0.037,-0.037l0,-0.008Z" style="fill:#c7703e;"/><path d="M43614.3,28848.088c-95.658,-127.912 -632.808,-846.342 -613.754,-1899.946l32.925,-10.304c44.729,4.542 187.046,-43.562 260.675,-53.633c100.183,761.904 91.492,1079.975 649.271,1880.546c-28.792,3.55 -167.967,41.812 -208.8,57.396c-40.129,8.646 -80.225,17.292 -120.354,25.9l0.037,0.038l-0,0.004Z" style="fill:#c7703e;"/><path d="M19656.042,29076.663c-118.221,-40.742 -124.804,-14.867 -247.308,-42.217c-46.554,-16.725 -30.217,-33.562 -82.708,-36.508c86.108,-133.742 678.642,-1054.125 582.608,-1901.233c88.708,25.054 228.287,63.396 289.117,52.688l33.258,10.783c38.325,981.954 -487.158,1782.658 -574.963,1916.492l-0.004,-0.004Z" style="fill:#c7703e;"/><path d="M18918.017,24718.3c-30.887,-27.325 2.858,1.667 0,0c-24.075,-14.162 -56.933,-22.071 -82.792,-37.283c-10.258,-11.283 -12.279,-3.85 -148.763,-119.021c-19.967,-19.625 -39.975,-39.246 -59.942,-58.871l-7.812,-24.25c298.567,-117.15 825.529,-899.767 1037.446,-1478.35c21.338,23.738 250.183,241.008 272.079,261.792c-361.217,893.642 -848.054,1293.892 -1010.25,1456.013l0.037,-0.037l-0.004,0.008Z" style="fill:#c7703e;"/><path d="M44260.775,24479.108c-535.858,-362.417 -980.387,-1306.121 -1040.804,-1434.371c250.908,-248.554 246.375,-244.858 267.975,-265.988c411.592,809.933 359.387,855.279 1043.15,1461.038c-4.812,5.138 5.912,8.342 -43.062,76.696c-77.867,62.354 -74.912,55.983 -143.929,125.396c-26.45,15.983 -28.704,-5.375 -52.954,9.296c-2.821,1.725 0,0 -30.342,28.008l-0.037,-0.075l0.004,0Z" style="fill:#c7703e;"/><path d="M23338.396,22885.625c-58.15,-32.383 -239.867,-150.904 -260.987,-167.938c2.875,-20.933 -21.483,-16.4 -18.608,-37.333c4.108,-30.017 -115.446,-475.729 -127.629,-1101.788c-9.771,-502.246 26.846,-1122.592 421.954,-1721.875c49.429,40.767 54.538,53.288 112.371,73.208c-192.646,587.963 -350.154,851.754 -325.842,2028.808c3.763,181.604 35.746,131.017 198.742,926.987l0,-0.075l0,0.004Z" style="fill:#c7703e;"/><path d="M41324.396,31800.788c-14.613,-4.6 -234.738,-45.629 -268.171,-59.396c-20.575,-7.379 -41.188,-14.754 -61.767,-22.129c-21.183,-640.417 63.029,-991.875 143.492,-1234.054c116.588,-350.842 254.513,-563.179 262.4,-580.921c14.038,2.762 8.721,-8.571 19.692,-6.4c3.029,0.596 0,0 35.225,15.408c44.167,17.375 39.858,21.258 84.35,13.967c81.592,28.446 75.958,25.667 153.467,47.779c-460.637,936.317 -367.463,1422.088 -368.617,1825.717l-0.075,0.037l0.004,-0.008Z" style="fill:#c7703e;fill-opacity:0.99;"/><path d="M22009.342,31975.088c6.05,-31.071 58.65,-869.025 -297.513,-1604.112c-8.367,-17.275 -8.129,-15.842 -109.65,-213.629c81.688,-25.342 76.992,-23.117 152.308,-51.196c48.65,8.925 43.454,2.379 84.15,-15.638l27.354,-3.679c15.137,12.413 42.2,30.117 46.45,38.071c40.7,76.583 431.862,425.525 421.875,1765.342c-20.492,7.554 -37.583,12.379 -58.075,19.933c-4.808,2.079 -40.483,17.312 -61.475,22.733c-102.142,26.188 -100.721,13.929 -205.421,42.171l-0.004,0.004Z" style="fill:#c7703e;fill-opacity:0.99;"/><path d="M40001.346,22421.529c-6.083,94.038 129.946,-433.604 -55.325,-1481.138c-54.975,-310.946 -138.267,-667.675 -261.979,-1067.592c47.438,-4.408 38.812,-11.287 64.525,-51.742c4.25,-12.95 8.463,-25.896 12.713,-38.846c434.479,620.896 548.879,1782.508 454.012,2497c-10.262,5.896 27.654,-10.283 -87.908,68.029c-36.879,30.067 -123.346,32.529 -126.037,74.329l0,-0.042Z" style="fill:#c7703e;"/><path d="M25804.867,32884.442c-177.629,-234.146 -559.308,-624.146 -1454.971,-796.508c43.042,-85.654 35.983,-83.7 77.7,-168.971c33.525,-68.596 34.792,-60.313 69.154,-129.654c710.092,261.217 957.546,330.971 1430.792,800.337l-12.121,53.217c-74.95,111.763 -52.946,118.092 -110.554,241.579Z" style="fill:#c7703e;"/><path d="M37540.404,32763.9c-70.867,-116.046 -51.192,-120.679 -115.108,-238.013c199.837,-423.65 1031.183,-717.308 1133.879,-753.604c142.329,-50.279 137.4,-52.475 275.171,-105.067c5.017,10.6 36.312,76.633 70.375,128.513c44.767,84.467 37.654,81.446 82.796,166.833c-386.042,100.6 -794.6,135.442 -1447.117,801.338l0.004,0Z" style="fill:#c7703e;"/><path d="M37611.138,27258.642c-26.775,-8.05 -70.346,-52.712 -97.125,-60.762c98.183,-152.892 370.679,-598.325 600.021,-965.367c200.05,-320.129 367.287,-580.629 357.446,-535.362c49.638,25.725 99.121,47.542 147.046,71.812c-71.383,124.921 -771.804,1350.671 -1007.425,1489.646l0.037,0.038l0,-0.004Z" style="fill:#c7703e;"/><path d="M38992.167,25123.267l-28.446,-5.375c-57.517,-10.896 -74.587,-31.95 -136.979,-33.096c54.979,-110.742 190.788,-352.142 765.679,-1424.229c2.242,-4.192 18.654,-3.442 76.233,-18.058c8.796,1.933 6.671,-3.608 112.196,7.958c-399.338,903.812 -730.992,1385.375 -788.688,1472.808l0.004,-0.008Z" style="fill:#c7703e;"/><path d="M24200.746,25253.108c-622.671,-1055.667 -665.967,-1443.9 -678.725,-1499.879c0,0 92.154,-15.167 110.171,-16.208c106.296,133.367 671.942,1329.146 687.558,1488.317c-54.329,29.292 -86.946,23.038 -119.008,27.804l0,-0.037l0.004,0.004Z" style="fill:#c7703e;"/><path d="M26852.154,28786.475c-254.358,-200.079 -320.808,-295.75 -468.367,-471.667c-234.442,-279.446 -468.583,-589.787 -432.7,-543.125c40.912,-35.933 40.825,-65.171 62.317,-113.842c35.45,33.321 263.942,307.817 481.908,563.288c208.3,244.146 420.65,456.612 440.042,498.4c-16.758,8.325 -56.058,43.471 -72.817,51.792l-10.383,15.117l0,0.038Z" style="fill:#c7703e;"/><path d="M25636.279,27349.679c-74.258,30.537 -924.925,-1169.046 -1027.775,-1447.079c-16.471,-44.471 52.487,-25.625 77.812,-95.312c82.246,93.621 997.588,1391.95 1044.75,1514.662c-19.821,11.896 -74.967,15.833 -94.787,27.729Z" style="fill:#c7703e;"/><path d="M37340.842,27706.45c-266.829,507.088 -799.412,1155.754 -847.867,1077.921c-3.45,-5.567 -92.163,-6.621 -69.688,-32.371c383.271,-439.45 509.15,-689.117 842.592,-1140.946c26.625,45.95 32.933,56.979 75,95.358l-0.037,0.037Z" style="fill:#c7703e;"/><path d="M35257.779,29994.388c-75.75,-37.283 -73.767,-34.392 -147.6,-61.333c164.438,-145.446 318.154,-178.517 671.775,-486.338c210.708,-183.429 183.696,-192.838 400.925,-373.5c41.904,44.054 41.213,51.696 91.958,81.5c-314.933,319.354 -288.912,343.375 -1017.096,839.671l0.037,0Z" style="fill:#c7703e;"/><path d="M28276.413,29959.5c-14.367,22.163 -289.475,-156.5 -622.183,-398.963c-146.196,-106.512 -452.683,-383.129 -492.975,-427.867c8.55,-10.929 -8.679,-39.65 48.271,-75.463c34.096,-21.412 89.917,62.754 460.833,362.433c166.217,134.283 775.825,547.129 655.713,522.888" style="fill:#c7703e;"/></g></g></svg>