<?xml version="1.0" encoding="UTF-8" standalone="no"?><!DOCTYPE svg PUBLIC "-//W3C//DTD SVG 1.1//EN" "http://www.w3.org/Graphics/SVG/1.1/DTD/svg11.dtd"><svg width="100%" height="100%" viewBox="0 0 3949 2213" version="1.1" xmlns="http://www.w3.org/2000/svg" xmlns:xlink="http://www.w3.org/1999/xlink" xml:space="preserve" xmlns:serif="http://www.serif.com/" style="fill-rule:evenodd;clip-rule:evenodd;stroke-linecap:round;stroke-linejoin:round;stroke-miterlimit:1.5;"><g id="Background"><clipPath id="_clip1"><rect x="0" y="1266.516" width="3948.488" height="945.779"/></clipPath><g clip-path="url(#_clip1)"><path id="board" d="M3946.811,1766.497c-3.014,-146.278 -273.841,-280.566 -594.686,-374.042c-203.553,-59.308 -623.317,-93.231 -822.573,-110.854c-440.265,-38.916 -1490.112,17.828 -1663.739,29.558c-146.741,9.916 -769.69,58.776 -802.195,71.325c-85.511,32.996 -75.458,635.989 -12.904,681.67c18.523,13.531 594.618,69.033 774.11,86.52c306.059,29.804 1446.273,64.941 1686.791,59.403c113.282,-2.605 634.898,-34.673 844.302,-84.242c267.58,-63.345 594.318,-194.196 590.908,-359.324l-0.014,-0.014Z" style="fill:#e8a29d;stroke:#fff;stroke-width:3.27px;"/><g id="lines"><path d="M3.328,1753.416l3940.509,-12.031c5.183,45.667 -2.537,72.293 -15.154,94.663l-3922.668,-8.975l-2.673,-73.657l-0.014,0Z" style="fill:#fde5e5;"/><path d="M16.614,1502.832l3635.896,0c99.846,39.461 216.416,119.175 250.394,164.119l-3899.439,31.986c-0.095,-22.943 0.805,-54.656 3.574,-94.09c1.378,-19.71 5.265,-76.003 9.575,-102.015Z" style="fill:#fde5e5;"/></g><g id="flower-2" serif:id="flower 2"><path d="M3227.985,1607.575c-51.956,-101.742 23.257,-146.591 79.386,-207.809c35.71,54.997 20.024,183.215 -79.386,207.809Z" style="fill:#f28b84;"/><path d="M3253.424,1631.186c94.09,-79.7 114.346,-68.119 250.625,-42.803c-75.921,71.338 -145.459,111.604 -250.625,42.803Z" style="fill:#f28b84;"/><path d="M3228.504,1650.774c95.727,57.862 112.477,92.071 96.491,217.63c-87.557,-49.105 -144.163,-93.095 -96.491,-217.63Z" style="fill:#f28b84;"/><path d="M2981.957,1769.853c67.164,-123.853 110.581,-102.602 224.627,-125.572c-26.135,96.914 -92.194,141.244 -224.627,125.572Z" style="fill:#f28b84;"/><path d="M3001.408,1478.853c184.675,6.656 191.195,93.886 192.027,138.516c-100.719,-9.043 -148.215,-18.864 -192.027,-138.516Z" style="fill:#f28b84;"/></g><g id="flower"><path d="M2826.267,1954.76c27.335,77.531 -30.581,102.329 -76.467,140.631c-20.215,-42.626 3.205,-132.583 76.467,-140.631Z" style="fill:#f28b84;"/><path d="M2810.376,1935.486c-74.707,47.864 -88.048,37.661 -182.834,6.602c60.958,-43.621 114.401,-65.705 182.834,-6.602Z" style="fill:#f28b84;"/><path d="M2830.018,1923.892c-62.745,-50.401 -71.434,-76.399 -48.041,-164.433c57.753,43.376 93.927,80.15 48.041,164.433Z" style="fill:#f28b84;"/><path d="M3017.217,1862.511c-59.731,81.923 -88.661,62.622 -172.194,68.106c27.894,-66.632 79.236,-91.935 172.194,-68.106Z" style="fill:#f28b84;"/><path d="M2975.519,2068.301c-131.71,-23.161 -128.559,-84.965 -125.163,-116.351c71.352,16.423 104.484,28.072 125.163,116.351Z" style="fill:#f28b84;"/></g></g><path d="M1791.904,0.252c2.473,0.562 4.946,1.124 7.418,1.684c26.718,4.929 34.739,9.764 37.379,11.355c1.71,0.282 3.419,0.565 5.129,0.849c4.862,3.834 5.738,2.109 11.098,5.154c7.541,4.283 7.881,3.556 11.031,5.299c0.081,0.057 1.042,2.392 5.266,3.7c0.774,0.359 1.549,0.72 2.325,1.081c0.631,0.565 1.264,1.133 1.897,1.7c0.081,0.041 2.936,2.489 7.27,3.638c5.083,2.832 4.413,4.316 16.688,10.276c1.188,0.626 2.377,1.251 3.565,1.877c5.479,4.403 5.684,4.008 11.4,8.198c2.432,2.286 2.397,2.061 5.318,3.743c1.229,1.492 1.416,1.115 5.532,5.175c6.367,6.28 5.771,6.622 12.349,12.611c5.747,5.232 16.554,23.509 17.685,26.532c2.523,0.978 2.501,0.978 5.218,0.18c0.626,-0.07 32.683,-5.568 37.042,-6.677c0.255,-0.065 0.061,-0.038 62.899,-0.785c70.663,-0.842 103.117,8.076 127.732,9.282c2.669,0.767 2.493,0.911 5.268,0.708c2.795,1.186 27.497,4.161 29.899,4.45c2.676,0.784 2.495,0.88 5.262,0.696c1.932,0.851 1.786,0.818 3.996,0.952c1.882,0.522 3.763,1.043 5.645,1.564c3.569,0.73 30.767,6.289 44.159,10.891c27.36,9.401 27.819,8.287 29.927,9.592c1.838,0.626 3.678,1.249 5.516,1.873c0.842,0.469 0.768,0.339 3.267,0.976c0,0 2.017,0.813 2.193,0.883c2.582,0.957 2.512,1.064 5.22,0.801c2.821,1.561 2.784,1.275 5.917,2.501c1.842,0.638 3.683,1.274 5.525,1.911c2.071,1.239 1.886,1.176 2.071,1.239c1.662,0.584 1.664,0.137 3.32,0.816c6.528,2.678 6.615,2.172 13.123,4.725c2.636,1.292 2.399,1.536 5.468,1.925c0.605,0.247 0.553,0.302 7.505,3.236c3.248,2.473 3.38,2.045 7.355,3.563c2.754,1.344 3.265,2.018 5.221,-0.256c9.373,-10.894 11.011,-9.353 19.399,-18.252c12.308,-13.06 33.505,-23.82 36.503,-26.13c1.814,-0.65 3.628,-1.298 5.44,-1.947c0.313,-0.074 0.081,-0.746 0.394,-0.822c0.885,-0.211 0.755,0.002 1.679,-0.395c1.966,-0.84 1.958,-0.531 3.878,-1.342c18.039,-7.636 17.965,-7.445 20.33,-8.732c3.837,-2.085 8.109,-4.407 53.4,-14.244c24.632,-5.35 77.047,-1.744 120.264,18.898c1.655,1.267 1.549,1.318 3.659,1.739c4.407,2.939 4.836,2.093 9.369,4.979c1.21,0.614 2.421,1.225 3.633,1.839c0.463,0.246 3.598,1.911 5.658,3.271c2.552,2.138 2.563,1.963 5.493,3.552c0.455,0.258 3.522,2.004 5.562,3.408c1.186,0.634 2.373,1.268 3.559,1.903c2.145,1.423 13.815,9.159 26.118,18.63c3.019,3.312 3.163,2.972 7.169,5.434c6.217,5.508 8.497,7.894 9.192,8.619c0.735,1.062 1.471,2.124 2.206,3.186c0.387,0.586 2.723,4.142 5.393,6.971c0.528,1.978 0.587,1.866 1.956,3.401c0.365,0.725 2.941,5.843 5.488,8.602c0.331,2.801 0.598,2.633 2.178,5.017c1.921,4.798 3.789,3.769 5.606,8.578c0.835,2.208 3.609,3.647 5.162,8.762c0.468,2.813 0.655,2.671 2.008,5.111c0.429,2.795 0.648,2.611 1.919,5.135c0.379,1.559 1.494,3.228 1.666,3.487c0.605,1.727 1.209,3.453 1.814,5.178c0.733,1.456 -0.211,1.652 7.609,18.817c0.614,1.734 1.227,3.47 1.842,5.206c1.318,2.667 3.211,11.108 3.43,12.087l0.805,4.955c0.892,3.917 3.544,15.535 1.138,50.031c-0.614,1.727 -1.227,3.454 -1.842,5.182c-1.262,3.418 -1.049,3.37 -1.725,6.868c-0.6,1.744 -1.201,3.487 -1.801,5.23c-0.901,1.325 -5.403,14.153 -22.403,48.04c-0.637,1.138 -1.273,2.274 -1.912,3.412c-2.926,5.967 -8.616,14.187 -9.44,15.378c-6.722,9.717 -6.275,9.815 -6.998,10.542c-0.731,1.069 -1.46,2.138 -2.19,3.207c-30.904,31.881 -28.631,33.519 -48.079,51.571c-2.793,1.729 -2.791,1.566 -5.255,3.798c-7.511,5.763 -8.373,6.493 -5.751,15.193c0.648,1.717 1.296,3.434 1.943,5.149c0.035,0.261 0.441,3.262 0.441,3.262c3.2,6.276 3.476,12.211 3.95,13.711c2.808,8.872 3.781,8.459 6.65,17.391c0.309,3.621 0.354,3.511 1.903,6.88c1.136,2.298 4.046,15.657 4.344,17.03c1.712,7.858 2.464,7.555 3.437,15.571c7.468,61.404 4.483,73.522 1.442,132.406c-0.539,1.743 -1.077,3.487 -1.614,5.23l-0.259,3.363c-0.998,2.411 -1.133,2.31 -0.737,4.86c-3.82,5.651 -3.319,5.778 -4.733,12.343c-1.179,3.472 -1.322,3.314 -1.827,6.873c-0.459,3.021 -0.328,3.051 -0.496,3.264c-4.483,5.706 -9.262,27.521 -12.412,31.188c-2.397,2.789 -7.596,15.676 -9.032,17.31c-1.233,1.402 -7.568,17.833 -12.923,24.099c-3.872,4.529 -1.853,5.522 -5.76,10.161c-0.887,1.547 -1.775,3.095 -2.662,4.642c-1.423,3.069 -13.965,21.789 -19.647,27.99c-0.69,1.095 -1.383,2.19 -2.073,3.284c-3.274,3.222 -8.638,10.092 -14.441,15.755c-2.7,2.597 -5.107,4.809 -5.556,5.223c-12.295,12.507 -11.948,12.613 -13.165,13.538c-0.811,0.615 -5.425,4.12 -9.763,8.105c-10.898,10.013 -9.806,11.046 -22.875,18.422c-0.809,0.457 0.2,2.593 -4.562,4.152c-6.382,2.09 -4.609,4.424 -10.826,7.306c-7.178,3.329 -5.867,5.089 -13.186,8.258c-1.194,0.632 -2.39,1.265 -3.585,1.896c-3.274,0.863 -8.72,4.441 -9.425,4.903c-1.194,0.629 -2.386,1.258 -3.578,1.887c-1.166,0.624 -2.332,1.249 -3.498,1.873c-0.2,6.741 2.253,6.276 4.946,12.031c12.66,27.039 22.955,67.721 24.476,73.73c0.555,3.685 0.389,3.571 1.893,6.88c1.421,12.541 5.969,24.011 6.765,26.02c-0.368,2.502 -0.239,2.435 0.624,4.917c0.637,7.373 3.32,16.485 3.768,22.339c1.603,20.943 3.502,20.543 3.557,22.351c0.677,22.028 0.579,21.995 0.896,25.74c2.625,30.954 -0.376,30.869 -0.814,61.907c-0.309,21.844 -9.01,33.622 7.117,28.552c1.196,-0.375 13.782,-4.333 14.894,-4.847c5.186,-2.392 8.407,-1.222 11.094,-1.944c11.933,-3.205 39.602,-2.143 50.231,2.069c8.938,3.542 9.488,1.758 18.433,5.292c1.851,0.595 3.704,1.189 5.556,1.784c10.308,4.683 10.326,4.568 11.129,5.11c1.196,0.626 2.39,1.251 3.583,1.877c4.414,3.747 4.794,3.138 9.462,6.591c1.372,1.284 1.677,3.932 7.372,5.254c3.204,3.296 6.647,6.483 7.241,7.033c17.894,16.563 16.995,23.119 22.203,29.198c0.655,1.126 1.31,2.251 1.966,3.377c6.326,10.869 5.741,10.989 10.946,22.428c0.683,1.689 1.368,3.379 2.051,5.068c0.618,1.72 1.238,3.442 1.856,5.163c0.964,2.009 0.929,1.836 0.964,2.009c5.458,27.072 4.674,27.077 4.475,54.723c-0.772,2.494 -0.9,2.385 -0.772,4.898c-2.867,10.563 -3.678,26.964 -12.179,43.22c-0.653,1.124 -1.305,2.246 -1.956,3.369c-3.072,6.723 -11.581,17.601 -12.716,19.051c-1.471,1.543 -1.494,1.353 -2.099,3.262c-12.018,11.319 -10.926,12.065 -21.915,24.278c-2.277,2.356 -2.121,2.337 -3.974,4.963c-0.426,0.428 -4.063,4.082 -5.445,5.24c-4.392,3.685 -11.968,11.025 -12.982,12.008c-17.139,16.606 -19.797,16.559 -31.404,25.85c-3.396,2.719 -16.31,9.774 -16.801,10.1c-12.41,8.268 -13.171,7.096 -14.193,7.875c-5.717,4.36 -28.184,13.691 -30.031,14.808c-6.643,4.02 -11.65,5.324 -12.736,5.608c-4.431,1.155 -3.693,2.471 -8.131,3.74c-13.837,3.953 -17.843,7.66 -21.894,9.245c-1.207,0.61 -2.412,1.219 -3.618,1.827c-1.236,0.564 -2.473,1.127 -3.709,1.689c-3.683,1.107 -3.689,1.041 -3.979,1.196c-8.651,4.585 -9.299,2.956 -16.686,6.802c-14.061,7.323 -28.787,10.839 -18.161,12.63c2.921,0.492 2.588,0.904 5.569,1.688c1.579,1.329 1.407,1.313 3.559,1.913c2.449,1.657 2.377,1.603 5.257,2.367c0.718,0.191 5.451,2.521 5.919,2.752c1.209,0.596 2.417,1.193 3.626,1.787c0.685,0.471 1.37,0.942 2.054,1.413c1.166,0.662 2.334,1.323 3.502,1.985c17.036,15.567 19.297,22.119 21.046,28.908c0.757,2.935 6.014,23.337 -3.074,37.633c-1.731,2.724 -0.816,3.035 -3.078,5.524c-7.37,8.11 -6.974,8.27 -13.064,13.627c-1.172,0.651 -2.343,1.301 -3.515,1.952c-21.335,14.014 -48.851,6.55 -55.429,10.48c-0.896,0.536 -9.828,5.874 -11.344,6.505c-1.183,0.646 -2.365,1.292 -3.548,1.939c-8.557,6.777 -39.185,6.751 -42.646,6.747c-1.294,-0.327 -2.589,-0.655 -3.883,-0.981c-9.862,-1.849 -9.958,-1.286 -16.628,-3.791c-1.223,-0.459 -1.164,-0.184 -3.404,-0.036c-1.305,0.086 -0.887,0.607 -2.005,1.373c-0.657,1.114 -1.316,2.227 -1.973,3.339c-15.596,15.217 -15.001,16.141 -35.4,25.118c-2.667,-0.222 -2.578,-0.091 -5.19,0.772c-13.636,0.552 -25.096,1.494 -33.214,-3.613c-0.744,-0.467 -0.679,-0.225 -1.508,-0.552c-0.298,-0.119 -2.547,-1.005 -3.548,-1.82c-0.622,-0.507 -0.292,-1.638 -0.914,-2.143c-2.913,-0.21 -3.019,-0.452 -5.175,1.335c-11.942,9.202 -23.488,12.063 -25.737,12.622c-8.782,2.178 -8.751,1.844 -24.304,1.086c-1.868,-0.552 -3.735,-1.102 -5.603,-1.653c-11.49,-5.735 -15.336,-5.873 -25.992,-15.437c-1.836,-1.861 -1.732,-1.756 -3.57,-3.58c-4.955,-6.256 -6.387,-17.049 -11.118,-16.951c-14.183,0.294 -35.06,4.604 -55.382,-17.516c-0.696,-1.095 -1.392,-2.19 -2.09,-3.286c-3.705,-4.828 -2.228,-5.383 -5.51,-10.341c-0.622,-1.726 -1.246,-3.451 -1.868,-5.175c-1.336,-5.103 -1.012,-5.154 -2.114,-6.545l1.967,-2.059c9.869,6.796 8.69,-1.799 20.793,-18.786c2.256,-3.167 15.163,-17.939 35.278,-25.087c3.319,-1.181 8.312,3.08 48.832,-51.202c42.604,-57.074 51.19,-110.395 81.365,-224.793c16.521,-62.634 9.266,-63.377 10.1,-109.768c0.056,-3.039 -1.545,-1.088 -4.514,-0.136c0.522,-27.521 -22.353,-74.529 -58.962,-104.064c-19.912,-16.064 -64.765,-54.484 -140.077,-62.433c-17.719,-1.872 -71.99,4.035 -107.152,19.163c-116.647,50.19 -109.606,107.383 -107.901,128.597c0.022,0.266 0.056,0.242 0.727,3.265c-1.503,0.1 -2.676,-1.703 -4.179,-1.603c-0.979,0.065 -8.914,26.508 -1.666,63.578c9.863,50.442 7.27,50.911 24.695,101.202c26.766,77.262 25.109,77.588 27.441,84.293c41.158,118.341 59.093,136.593 68.339,146c8.67,8.824 42.26,0.524 59.897,42.849c3.18,7.629 7.814,7.775 11.496,7.206l2.754,2.191l-0.396,1.22c-2.245,2.415 -1.427,2.746 -3.23,5.36c-5.764,12.929 -5.453,13.239 -16.778,22.445c-1.553,1.21 -1.621,0.999 -2.343,2.855c-7.753,2.865 -12.364,6.723 -27.384,9.496c-1.297,0.373 -2.595,0.748 -3.894,1.122c-12.297,-0.124 -12.057,-0.852 -24.11,-2.848c-6.669,-1.105 -1.616,6.122 -26.379,26.398c-0.985,0.806 -0.724,0.911 -1.766,1.777c-1.507,1.251 -1.727,0.811 -3.295,2.14c-1.214,0.62 -2.427,1.241 -3.639,1.861c-3.287,1.404 -3.267,1.356 -3.713,1.641c-1.86,0.581 -3.718,1.16 -5.579,1.739c-10.335,0.662 -10.256,2.401 -20.476,0.495c-0.429,-0.079 -0.403,-0.036 -5.445,-0.497c-1.843,-0.6 -3.689,-1.198 -5.532,-1.798c-3.585,-2.123 -3.974,-1.139 -7.435,-3.389c-1.181,-0.638 -2.362,-1.275 -3.544,-1.913c-8.323,-6.727 -8.238,-6.57 -8.932,-7.163c-3.848,-3.277 -4.061,-2.977 -7.233,-6.857c-1.279,-1.564 -1.47,-1.251 -2.673,-2.74c-1.442,-1.787 -1.31,0.23 -1.684,0.296c-0.557,-0.107 -1.112,-0.213 -1.668,-0.32c-10.198,10.583 -10.674,9.994 -24.585,16.196c-2.721,-0.208 -2.541,-0.098 -5.192,0.734c-6.171,0.029 -12.342,0.058 -18.511,0.086c-1.875,-0.534 -3.75,-1.071 -5.625,-1.607c-14.57,-3.214 -27.643,-20.299 -29.413,-22.61c-0.605,-1.138 -1.21,-2.277 -1.814,-3.415l-0.318,-1.559c-4.289,-3.482 -5.275,0.017 -5.316,0.05c-1.829,0.641 -3.656,1.284 -5.484,1.927c-1.283,0.461 -2.567,0.923 -3.85,1.384c-10.226,0.356 -10.026,0.478 -20.365,0.038c-2.562,-0.823 -2.454,-0.959 -5.229,-0.581c-6.634,-4.338 -7.628,-1.92 -13.256,-4.678c-1.692,-1.205 -1.573,-1.231 -3.724,-1.665c-5.645,-5.165 -5.58,-5.056 -10.991,-10.401c-0.657,-1.115 -1.314,-2.231 -1.971,-3.348c-0.187,-0.352 -1.172,-2.214 -2.306,-4.429c-2.784,-0.07 -2.558,0.17 -5.092,0.98c-0.959,0.005 -12.212,1.11 -27.776,-1.567c-2.749,-1.084 -2.61,-1.248 -5.647,-1.633c-1.568,-1.095 -3.339,-1.756 -3.648,-1.872c-7.729,-2.886 -17.093,-10.996 -18.415,-12.14c-1.096,-1.21 -2.191,-2.418 -3.289,-3.628c-13.025,-28.132 0.18,-43.631 2.673,-46.556c6.13,-7.196 6.511,-6.651 13.191,-13.629c0.811,-0.952 1.621,-1.904 2.432,-2.856c1.142,-0.742 11.922,-7.753 14.707,-8.698c1.823,-0.584 3.644,-1.167 5.468,-1.751c1.131,-0.172 2.262,-0.344 3.393,-0.516c0.026,-0.474 0.05,-0.95 0.076,-1.426c0.05,-0.562 1.218,-0.653 1.27,-1.215c0.061,-0.681 -2.188,-0.196 -5.195,-3.556c-0.544,-0.608 -1.272,-1.421 -8.857,-5.491c-1.188,-0.631 -2.375,-1.26 -3.561,-1.889c-3.263,-3.078 -3.874,-2.147 -7.544,-4.988c-1.042,-0.806 -11.083,-8.576 -13.504,-9.494c-6.998,-2.657 -6.054,-3.958 -12.501,-7.557c-1.161,-0.665 -2.321,-1.33 -3.482,-1.995c-5.582,-4.816 -5.645,-4.743 -13.012,-6.82c-0.415,-1.937 -0.376,-1.921 -2.049,-3.186c-6.484,-3.611 -6.017,-3.974 -12.655,-7.39c-0.805,-0.414 -0.792,-0.11 -1.744,-0.299c-0.35,-0.069 -0.004,-0.868 -0.352,-0.937c-1.616,-1.461 -1.475,-1.488 -3.62,-1.866c-2.036,-2.135 -17.85,-11.558 -18.5,-12.049c-0.572,-0.431 -5.712,-4.317 -7.555,-4.914c-1.173,-0.662 -2.347,-1.322 -3.52,-1.982c-0.298,-0.27 -1.871,-1.701 -3.865,-3.226c-1.159,-0.665 -2.317,-1.329 -3.478,-1.994c-5.286,-4.838 -5.854,-3.956 -11.098,-8.605c-30.525,-27.065 -29.949,-27.524 -32.718,-29.753c-2.136,-1.719 -1.027,-2.38 -2.956,-4.19c-1.457,-1.368 -1.871,-0.648 -3.276,-2.054c-0.548,-1.973 -0.67,-1.844 -2.088,-3.295c-5.227,-4.768 -4.909,-4.862 -5.364,-5.257c-2.528,-3.686 -2.336,-3.614 -5.753,-6.773c-3.604,-2.939 -3.23,-3.26 -3.565,-3.485c-0.555,-1.956 -0.62,-1.851 -1.993,-3.37c-1.466,-1.695 -10.761,-12.44 -16.482,-22.445c-1.701,-3.676 -0.966,-3.946 -3.696,-6.897c-4.97,-10.044 -7.237,-20.442 -7.637,-22.274c-0.544,-1.744 -1.088,-3.487 -1.632,-5.23c-5.421,-32.479 -6.695,-32.316 -5.518,-65.312c1.325,-4.248 1.54,-4.106 1.901,-8.583c3.622,-14.689 4.907,-14.297 5.201,-15.573c2.475,-4.152 1.967,-4.231 3.698,-8.624c1.664,-5.311 3.121,-4.582 3.915,-6.797c0.676,-0.638 1.533,-0.198 2.427,-4.699c5.623,-7.007 4.303,-7.662 10.426,-14.296c0.724,-1.071 1.446,-2.143 2.167,-3.214c10.954,-10.422 10.765,-10.558 11.725,-11.455c8.747,-8.179 16.042,-12.785 19.749,-16.004c1.175,-0.648 2.351,-1.296 3.524,-1.942c0.655,-0.522 1.309,-1.043 1.964,-1.566c3.785,-1.671 3.62,-1.574 7.2,-3.788c0.365,-0.127 3.965,-2.466 4.305,-2.686c3.47,-1.036 2.799,-1.803 3.243,-2.198c2.158,-0.51 2.047,-0.5 3.696,-1.739c3.058,-1.433 3.074,-1.246 5.595,-3.353c3.848,-0.572 3.748,-0.493 7.344,-1.911c6.789,-2.619 34.786,-5.586 35.158,-5.603c28.289,-1.394 38.871,5.878 36.885,-1.105c-3.276,-11.524 -6.985,-76.12 -5.214,-91.085c1.431,-12.085 -2.828,-12.125 -0.085,-24.061c2.306,-10.037 6.334,-70.645 7.755,-75.527c3.219,-11.047 4.627,-33.037 9.167,-44.676c1.829,-4.687 6.672,-22.287 6.967,-24.19c1.31,-2.473 1.512,-2.327 1.845,-5.177c0.661,-1.703 1.322,-3.406 1.982,-5.108c3.145,-8.963 13.321,-28.076 14.681,-37.824c-0.357,-2.827 -0.52,-2.635 -1.679,-5.19c-1.285,-6.656 -2.589,-6.136 -4.031,-8.451c-1.584,-1.932 -1.666,-1.633 -22.516,-21.985c-24.894,-24.3 -25.178,-24.035 -27.114,-26.33c-1.868,-2.561 -1.705,-2.535 -4.037,-4.905c-20.48,-22.277 -20.306,-22.236 -22.185,-24.075c-6.7,-6.555 -17.737,-22.258 -18.359,-22.435c-2.578,-0.737 -1.634,-3.265 -5.497,-6.928c-0.676,-1.117 -1.349,-2.236 -2.025,-3.353c-0.548,-0.61 -1.094,-1.22 -1.642,-1.83c-0.689,-1.107 -1.377,-2.214 -2.066,-3.32c-0.466,-1.999 -0.503,-1.889 -1.943,-3.401c-0.52,-0.619 -1.042,-1.237 -1.562,-1.856c-0.429,-2.059 -0.535,-1.909 -1.995,-3.372c-8.055,-11.231 -5.273,-12.532 -13.065,-24.025c-1.14,-1.683 -11,-25.718 -12.695,-31.04c-0.346,-2.882 -0.585,-2.652 -1.893,-5.147c-6.014,-22.535 -5.688,-22.574 -6.772,-24.314c-1.557,-2.495 0.03,-7.739 -5.388,-34.352c0.163,-2.628 -0.067,-2.48 -0.774,-4.927c-0.013,-1.507 -0.146,-15.763 -0.627,-18.831c-3.135,-20.005 -0.883,-20.031 0.616,-55.072c0.644,-2.856 1.288,-5.714 1.934,-8.573c1.942,-5.83 1.49,-18.518 17.548,-70.803c1.064,-3.467 7.846,-25.542 15.531,-42.686c1.151,-2.559 1.309,-2.344 1.769,-5.218c0.709,-2.617 10.091,-18.878 11.009,-22.358c0.733,-1.681 1.466,-3.36 2.199,-5.041c0.546,-0.768 3.62,-5.091 5.175,-10.444c1.394,-2.502 1.608,-2.322 2.086,-5.108c1.447,-1.868 1.372,-1.698 1.447,-1.868c4.103,-8.994 5.419,-8.227 9.715,-16.996c1.314,-1.528 1.366,-1.414 1.884,-3.417c0.652,-1.127 1.301,-2.257 1.953,-3.384c1.718,-3.509 1.847,-3.334 3.526,-6.94c0.679,-1.121 1.359,-2.243 2.036,-3.363c5.29,-10.458 -2.708,-9.011 -10.4,-19.409c-0.537,-0.725 -0.579,-0.476 -7.487,-8.55c-9.258,-10.824 -8.944,-10.831 -9.823,-11.692c-0.689,-1.096 -1.377,-2.193 -2.066,-3.288c-0.392,-0.584 -3.071,-4.58 -5.312,-7.045c-0.714,-1.083 -1.429,-2.167 -2.145,-3.25c-0.846,-2.32 -1.893,-1.591 -2.802,-3.924c-0.318,-0.811 -0.307,-0.643 -0.653,-1.37c-0.666,-1.117 -1.334,-2.234 -2.001,-3.351c-0.398,-0.847 -3.735,-7.944 -5.406,-10.391c-0.666,-1.119 -1.334,-2.238 -2.001,-3.355c-0.524,-2.724 -0.689,-2.58 -2.177,-5.046c-0.322,-1.004 -2.138,-6.658 -5.368,-12.092c-0.642,-1.727 -1.285,-3.456 -1.929,-5.185c-1.338,-2.822 -5.532,-18.972 -6.535,-20.916c0.333,-2.672 0.141,-2.506 -0.642,-4.915c-0.341,-12.878 -2.206,-30.245 3.476,-51.609c1.688,-6.349 4.47,-24.797 5.721,-27.464c0.574,-1.741 1.146,-3.482 1.719,-5.223c1.473,-5.62 10.045,-38.321 33.407,-65.314c1.497,-1.473 1.605,-1.356 2.075,-3.293c2.663,-2.109 2.658,-2.085 2.876,-2.279c0.57,-0.502 -0.072,-0.775 0.561,-1.334c0.722,-1.074 1.444,-2.148 2.166,-3.221c18.801,-17.852 26.366,-22.99 31.482,-27.46c1.429,-0.823 2.469,0.241 3.809,-3.243c3.113,-2.069 3.302,-1.739 3.554,-1.939c1.172,-0.657 2.343,-1.313 3.513,-1.971c0.664,-0.507 1.329,-1.016 1.992,-1.523c1.198,-0.629 2.395,-1.256 3.593,-1.885c1.518,-0.763 11.065,-5.57 18.67,-10.037c4.348,-2.554 3.372,-3.24 3.737,-3.436c0.359,-0.192 2.278,0.632 5.586,-1.607c0.633,-0.431 7.926,-3.814 9.506,-4.764c8.512,-5.11 9.417,-3.085 17.981,-7.779c1.869,-0.576 3.737,-1.151 5.606,-1.726c4.994,-1.956 5.07,-1.59 5.488,-1.777c22.966,-10.305 63.078,-8.585 68.607,-8.347Z" style="fill:#88b34a;"/><path d="M1901.469,1227.303c-0.672,-3.023 -0.705,-2.999 -0.727,-3.265c-1.705,-21.215 -8.745,-78.408 107.901,-128.597c35.161,-15.127 89.433,-21.034 107.152,-19.163c75.313,7.949 120.165,46.369 140.077,62.433c36.609,29.535 59.484,76.543 58.962,104.064c-1.66,8.232 -1.775,9.497 -1.853,10.332c-6.989,76.27 -15.429,83.189 -29.166,142.634c-10.3,44.564 -12.903,43.758 -24.861,87.929c-11.596,42.83 -45.221,102.35 -77.706,127.711c-30.003,23.422 -47.681,18.058 -58.268,61.167l-1.967,2.059c-6.637,-2.709 -23.116,-1.614 -30.767,-1.586l-2.754,-2.191c2.277,-12.869 -6.441,-38.405 -32.666,-48.323c-40.731,-15.404 -36.942,-24.986 -54.548,-59.621c-37.022,-72.84 -67.474,-198.588 -76.096,-225.694c-2.732,-8.585 -14.172,-44.549 -22.712,-109.887Z" style="fill:#dbca8c;"/><path d="M1815.854,152.472c3.019,-0.712 26.821,-6.333 38.643,4.542c13.711,12.611 12.699,33.632 -23.728,64.994c-0.927,0.797 -117.68,93.106 -130.04,25.85c-7.159,-38.956 72.275,-90.251 115.125,-95.386Z" style="fill:#4c5d32;"/><path d="M2504.541,217.959c55.34,8.646 122.461,83.301 111.246,120.991c-8.512,28.602 -38.437,34.299 -79.448,-5.555c-2.536,-2.465 -88.872,-77.152 -51.979,-109.441c8.503,-7.442 19.451,-5.976 20.18,-5.995Z" style="fill:#4c5d32;"/><path d="M1762.228,308.906c7.798,-0.89 21.533,-4.08 38.432,6.582c6.039,3.81 13.586,11.355 16.293,15.313c44.048,64.442 -99.548,96.742 -135.556,67.632c-38.239,-30.918 22.203,-83.426 80.83,-89.528Z" style="fill:#c8774a;"/><path d="M2594.328,445.423c-4.372,56.463 -95.998,27.069 -128.08,-2.3c-51.297,-46.96 8.975,-88.438 47.268,-76.143c22.64,7.272 37.751,17.157 53.659,30.594c28.798,24.326 26.797,44.071 27.153,47.849Z" style="fill:#c8774a;"/><path d="M1817.522,1706.919c-17.881,-42.669 15.464,-60.283 13.069,-68.71c-6.85,-24.095 -30.271,-51.295 -61.178,-123.67c-23.888,-55.94 -66.638,-122.221 -96.902,-264.92c-0.489,-2.308 0.5,-2.42 -4.727,-29.067c-1.103,-5.622 5.092,-7.849 7.035,-3.265c19.655,46.364 52.932,186.308 112.022,291.748c5.608,10.006 3.459,10.857 24.48,51.387c7.024,13.546 5.269,14.179 12.793,27.553c3.237,5.754 27.171,53.611 24.543,56.665c-35.511,41.268 -21.056,49.057 -23.973,58.747c-1.283,4.266 -2.414,3.59 -7.163,3.532Z" style="fill:#79a53a;"/><path d="M1901.469,1227.303c8.54,65.338 19.98,101.302 22.712,109.887c8.621,27.106 39.074,152.854 76.096,225.694c17.606,34.636 13.817,44.217 54.548,59.621c26.225,9.918 34.943,35.454 32.666,48.323c-3.681,0.569 -8.316,0.423 -11.496,-7.206c-17.637,-42.325 -51.227,-34.026 -59.897,-42.849c-9.245,-9.408 -27.18,-27.66 -68.339,-146c-2.332,-6.704 -0.676,-7.031 -27.441,-84.293c-17.424,-50.291 -14.831,-50.76 -24.695,-101.202c-7.248,-37.069 0.687,-63.512 1.666,-63.578c1.503,-0.1 2.676,1.703 4.179,1.603Z" style="fill:#79a53a;"/><path d="M2314.834,1242.774c2.969,-0.952 4.57,-2.903 4.514,0.136c-0.835,46.391 6.421,47.134 -10.1,109.768c-30.175,114.398 -38.761,167.719 -81.365,224.793c-40.52,54.282 -45.513,50.021 -48.832,51.202c-20.115,7.148 -33.022,21.92 -35.278,25.087c-12.103,16.987 -10.924,25.582 -20.793,18.786c10.587,-43.109 28.265,-37.745 58.268,-61.167c32.485,-25.36 66.11,-84.88 77.706,-127.711c11.959,-44.171 14.561,-43.365 24.861,-87.929c13.737,-59.444 22.177,-66.364 29.166,-142.634c0.078,-0.835 0.192,-2.1 1.853,-10.332Z" style="fill:#79a53a;"/><path d="M2368.295,1713.18c-4.838,-10.98 6.043,-24.542 -2.53,-44.107c-8.312,-18.969 -24.467,-17.159 -18.825,-27.565c11.811,-21.786 53.974,-87.39 54.827,-88.773c9.924,-16.092 9.638,-16.074 18.281,-32.83c14.413,-27.935 55.714,-92.673 66.645,-134.238c2.567,-9.755 8.161,-7.806 44.436,-118.552c11.242,-34.325 8.938,-36.586 12.234,-36.531c7.011,0.119 -25.233,101.204 -33.897,130.732c-23.895,81.44 -60.693,134.637 -94.334,195.839c-9.371,17.049 -55.251,79.204 -52.158,89.844c3.598,12.369 22.325,8.561 14.783,49.481c-0.211,1.145 -1.238,0.741 -4.518,13.909c-0.879,3.525 -1.553,4.458 -4.944,2.791Z" style="fill:#79a53a;"/><path d="M2125.077,360.247c4.777,-0.677 6.778,0.406 18.785,-3.448c46.23,-14.835 64.065,-39.06 71.885,-47.146c5.36,-5.543 14.592,-3.491 14.544,3.442c-0.059,8.772 -49.189,50.973 -96.045,56.219c-59.617,6.673 -93.037,-42.719 -110.123,-70.409c-8.488,-13.754 0.829,-19.049 6.289,-16.274c10.998,5.591 21.132,74.149 94.664,77.616Z" style="fill:#4c5d32;"/><path d="M1506.54,1292.601c-1.731,4.393 -1.223,4.472 -3.698,8.624c-0.126,-6.677 1.59,-6.18 3.698,-8.624Z" style="fill:#7d9b32;fill-opacity:0.19;"/><path d="M2706.34,144.525c4.783,0.712 3.946,1.958 7.169,5.434c-4.005,-2.463 -4.15,-2.123 -7.169,-5.434Z" style="fill:#92a52f;fill-opacity:0.16;"/><path d="M1510.527,1418.196c2.73,2.951 1.995,3.221 3.696,6.897c-3.583,-2.633 -3.954,-2.712 -3.696,-6.897Z" style="fill:#96ad2c;fill-opacity:0.17;"/><path d="M1697.253,888.957c1.442,2.315 2.747,1.794 4.031,8.451c-3.546,-3.585 -3.302,-3.714 -4.031,-8.451Z" style="fill:#7aa346;fill-opacity:0.18;"/><path d="M1536.264,1454.394c3.417,3.159 3.224,3.087 5.753,6.773c-3.607,-2.975 -4.668,-2.327 -5.753,-6.773Z" style="fill:#8c9f2b;fill-opacity:0.2;"/><path d="M1569.637,1228.841c-3.58,2.214 -3.415,2.117 -7.2,3.788c2.164,-2.279 1.595,-3.52 7.2,-3.788Z" style="fill:#82a634;fill-opacity:0.14;"/><path d="M2678.614,1239.247c5.055,1.179 4.02,2.523 7.372,5.254c-5.695,-1.322 -6.001,-3.97 -7.372,-5.254Z" style="fill:#7f9239;fill-opacity:0.21;"/><path d="M1873.446,31.074l3.685,0.04c0.281,0.292 1.771,1.839 3.585,3.599c-4.335,-1.15 -7.189,-3.597 -7.27,-3.638Z" style="fill:#7e9c34;fill-opacity:0.19;"/><path d="M1497.641,1316.798c-0.361,4.477 -0.576,4.334 -1.901,8.583c-0.067,-4.57 -0.411,-4.611 1.901,-8.583Z" style="fill:#799635;fill-opacity:0.23;"/><path d="M2530.424,1024.609c2.991,2.581 1.934,2.961 1.893,6.88c-1.505,-3.308 -1.338,-3.195 -1.893,-6.88Z" style="fill:#91ad31;fill-opacity:0.18;"/><path d="M2678.512,521.037c1.164,1.019 2.232,0.722 1.903,6.88c-1.549,-3.369 -1.594,-3.259 -1.903,-6.88Z" style="fill:#8eae32;fill-opacity:0.18;"/><path d="M2369.424,154.864c3.289,1.466 3.878,0.275 7.355,3.563c-3.976,-1.518 -4.107,-1.09 -7.355,-3.563Z" style="fill:#89a52e;fill-opacity:0.25;"/><path d="M1912.369,55.063c3.47,0.687 3.154,1.153 5.318,3.743c-2.921,-1.683 -2.886,-1.457 -5.318,-3.743Z" style="fill:#9db023;fill-opacity:0.2;"/><path d="M1686.347,943.828l-0.048,1.701c-0.333,2.85 -0.535,2.703 -1.845,5.177c0.392,-3.638 0.083,-3.63 1.893,-6.878Z" style="fill:#899d2f;fill-opacity:0.16;"/><path d="M1547.647,558.885c-0.646,2.858 -1.29,5.716 -1.934,8.573c0.272,-4.496 0.033,-4.475 1.934,-8.573Z" style="fill:#6e8a3e;fill-opacity:0.25;"/><path d="M2665.608,117.032c3.546,0.722 3.156,1.153 5.493,3.552c-2.93,-1.59 -2.941,-1.414 -5.493,-3.552Z" style="fill:#8da229;fill-opacity:0.21;"/><path d="M2089.849,1674.239c-0.194,4.195 -1.545,3.525 -3.23,5.36c1.803,-2.614 0.985,-2.946 3.23,-5.36Z" style="fill:#6f8b35;fill-opacity:0.21;"/><path d="M2676.534,462.532c-2.377,2.392 -1.884,2.925 -5.255,3.798c2.464,-2.233 2.462,-2.069 5.255,-3.798Z" style="fill:#7d9d30;fill-opacity:0.22;"/><path d="M2601.023,863.285c-2.282,3.069 -2.219,3.03 -5.556,5.223c0.45,-0.414 2.856,-2.626 5.556,-5.223Z" style="fill:#6c8d3a;fill-opacity:0.29;"/><path d="M1863.959,24.593c3.213,1.394 3.345,1.11 5.266,3.7c-4.224,-1.308 -5.184,-3.644 -5.266,-3.7Z" style="fill:#88a129;fill-opacity:0.14;"/><path d="M2737.744,180.738c2.264,1.987 1.651,2.153 2.178,5.017c-1.581,-2.384 -1.847,-2.215 -2.178,-5.017Z" style="fill:#a2b827;fill-opacity:0.12;"/><path d="M2356.451,149.703c3.137,0.4 3.409,-0.206 5.468,1.925c-3.069,-0.388 -2.832,-0.632 -5.468,-1.925Z" style="fill:#9db630;fill-opacity:0.13;"/><path d="M1558.658,704.954c1.309,2.495 1.547,2.265 1.893,5.147c-2.284,-2.038 -1.901,-2.217 -1.893,-5.147Z" style="fill:#9daf3b;fill-opacity:0.13;"/><path d="M1791.904,0.252c4.04,0.041 3.918,0.132 7.418,1.684c-2.473,-0.56 -4.946,-1.122 -7.418,-1.684Z" style="fill:#789530;fill-opacity:0.23;"/><path d="M1871.549,29.374c2.976,0.559 2.81,0.528 5.582,1.739l-3.685,-0.04c-0.633,-0.567 -1.266,-1.134 -1.897,-1.7Z" style="fill:#7e9220;fill-opacity:0.13;"/><path d="M2648.883,1223.886c3.187,0.017 3.365,-0.321 5.556,1.784c-1.853,-0.595 -3.705,-1.189 -5.556,-1.784Z" style="fill:#99b42e;fill-opacity:0.16;"/><path d="M2665.528,481.523c2.253,2.004 1.91,2.159 1.943,5.149c-0.648,-1.715 -1.296,-3.432 -1.943,-5.149Z" style="fill:#9cb42a;fill-opacity:0.15;"/><path d="M2753.457,206.716c0.481,1.689 0.368,1.554 1.162,6.625c-1.272,-2.525 -1.49,-2.341 -1.919,-5.135l0.757,-1.49Z" style="fill:#789329;fill-opacity:0.2;"/><path d="M1973.319,1746.488c-2.21,2.04 -2.306,1.72 -5.579,1.739c1.86,-0.579 3.718,-1.158 5.579,-1.739Z" style="fill:#92ae2f;fill-opacity:0.18;"/><path d="M2686.053,1471.579c-1.803,2.669 -1.625,2.679 -3.974,4.963c1.853,-2.626 1.697,-2.607 3.974,-4.963Z" style="fill:#6b8c40;fill-opacity:0.25;"/><path d="M1849.203,1739.751c1.875,0.536 3.75,1.072 5.625,1.607c-3.18,-0.033 -3.3,0.297 -5.625,-1.607Z" style="fill:#8ba62d;fill-opacity:0.21;"/><path d="M2639.845,811.614c-0.598,2.839 -0.161,3.044 -2.662,4.642c0.887,-1.547 1.775,-3.095 2.662,-4.642Z" style="fill:#96b82d;fill-opacity:0.15;"/><path d="M1643.586,835.737c2.332,2.37 2.169,2.344 4.037,4.905c-2.38,-2.284 -2.16,-2.233 -4.037,-4.905Z" style="fill:#6e8b34;fill-opacity:0.26;"/><path d="M2230.569,111.931c3.161,0.043 3.235,-0.321 5.645,1.564c-1.882,-0.521 -3.763,-1.041 -5.645,-1.564Z" style="fill:#8ba32c;fill-opacity:0.21;"/><path d="M1589.869,770.395c1.44,1.512 1.477,1.402 1.943,3.401l0.133,1.655c-1.288,-2.447 -1.379,-2.325 -2.077,-5.056Z" style="fill:#778921;fill-opacity:0.18;"/><path d="M1936.286,1746.427c1.843,0.6 3.689,1.198 5.532,1.798c-3.198,-0.079 -3.3,0.261 -5.532,-1.798Z" style="fill:#90a82d;fill-opacity:0.21;"/><path d="M1681.3,1670.601c1.098,1.21 2.193,2.418 3.289,3.628c-1.871,-1.648 -1.829,-1.571 -3.289,-3.628Z" style="fill:#a2b522;fill-opacity:0.16;"/><path d="M1571.253,280.59c1.488,2.466 1.653,2.322 2.177,5.046c-0.788,-0.779 -1.61,-0.359 -2.177,-5.046Z" style="fill:#8fa426;fill-opacity:0.19;"/><path d="M1706.651,1688.241c3.037,0.385 2.898,0.548 5.647,1.633c-3.119,-0.32 -3.243,0.232 -5.647,-1.633Z" style="fill:#87a02c;fill-opacity:0.22;"/><path d="M2769.356,325.152c-0.418,2.884 0.218,3.028 -1.801,5.23c0.6,-1.743 1.201,-3.485 1.801,-5.23Z" style="fill:#8ba127;fill-opacity:0.21;"/><path d="M2772.923,313.103c-0.076,2.996 0.259,3.069 -1.842,5.182c0.614,-1.727 1.227,-3.454 1.842,-5.182Z" style="fill:#8da52c;fill-opacity:0.22;"/><path d="M1806.859,1714.143l3.544,-0.364c-3.617,1.416 -3.515,1.304 -7.394,1.748c1.283,-0.461 2.567,-0.923 3.85,-1.384Z" style="fill:#698835;fill-opacity:0.25;"/><path d="M1501.258,1390.692c0.544,1.743 1.088,3.485 1.632,5.23c-2.006,-2.284 -1.588,-2.351 -1.632,-5.23Z" style="fill:#889e2a;fill-opacity:0.22;"/><path d="M2730.258,1309.925c1.451,3.317 1.349,3.229 1.992,6.844c-0.618,-1.72 -1.238,-3.442 -1.856,-5.163l-0.135,-1.681Z" style="fill:#66813f;fill-opacity:0.25;"/><path d="M1567.696,153.185c-0.574,1.741 -1.146,3.482 -1.719,5.223c0.1,-2.911 -0.283,-2.975 1.719,-5.223Z" style="fill:#839e2b;fill-opacity:0.24;"/><path d="M2332.412,141.012c3.072,0.474 3.243,-0.086 5.525,1.911c-1.842,-0.638 -3.683,-1.274 -5.525,-1.911Z" style="fill:#88a12c;fill-opacity:0.23;"/><path d="M2199.094,1734.419c1.838,1.823 1.734,1.719 3.57,3.58c-1.19,-1.193 -2.38,-2.387 -3.57,-3.58Z" style="fill:#789b49;fill-opacity:0.22;"/><path d="M1602.965,397.227c-0.478,2.786 -0.692,2.605 -2.086,5.108c0.572,-2.827 0.13,-2.925 2.086,-5.108Z" style="fill:#819930;fill-opacity:0.2;"/><path d="M2689.638,692.923c-0.059,2.87 0.354,2.934 -1.614,5.23c0.537,-1.743 1.075,-3.487 1.614,-5.23Z" style="fill:#819e2b;fill-opacity:0.23;"/><path d="M1582.496,440.178c-0.461,2.874 -0.618,2.659 -1.769,5.218c0.355,-2.817 -0.215,-2.92 1.769,-5.218Z" style="fill:#839b2b;fill-opacity:0.24;"/><path d="M1688.281,940.422c-0.661,1.701 -1.322,3.405 -1.982,5.108l0.048,-1.701c0.507,-1.949 0.466,-1.875 1.934,-3.406Z" style="fill:#809d38;fill-opacity:0.22;"/><path d="M2728.342,1306.537c1.442,1.55 1.414,1.423 1.916,3.387l0.135,1.681c-0.683,-1.689 -1.368,-3.379 -2.051,-5.068Z" style="fill:#749843;fill-opacity:0.2;"/><path d="M2289.475,1740.046c-1.725,0.445 -3.45,0.89 -5.175,1.335c2.156,-1.787 2.262,-1.545 5.175,-1.335Z" style="fill:#678a38;fill-opacity:0.14;"/><path d="M1593.821,1216.953c-3.596,1.418 -3.496,1.339 -7.344,1.911c2.449,-0.636 4.896,-1.274 7.344,-1.911Z" style="fill:#648134;fill-opacity:0.27;"/><path d="M1563.957,263.312c0.644,1.729 1.286,3.458 1.929,5.185c-1.916,-2.186 -1.425,-2.281 -1.929,-5.185Z" style="fill:#809729;fill-opacity:0.26;"/><path d="M1717.809,10.376c-1.869,0.574 -3.737,1.15 -5.606,1.726c2.419,-1.772 2.543,-1.275 5.606,-1.726Z" style="fill:#7f9429;fill-opacity:0.24;"/><path d="M1719.771,1597.11c-1.823,0.584 -3.644,1.167 -5.468,1.751c2.267,-1.856 2.299,-1.59 5.468,-1.751Z" style="fill:#75954e;fill-opacity:0.2;"/><path d="M1644.071,47.042c-1.34,3.484 -2.38,2.42 -3.809,3.243c1.921,-1.691 1.843,-1.626 3.809,-3.243Z" style="fill:#6e8151;fill-opacity:0.2;"/><path d="M1580.882,1222.217c-1.649,1.239 -1.538,1.229 -3.696,1.739l-1.71,0.16c1.801,-0.632 3.604,-1.265 5.406,-1.899Z" style="fill:#6c8934;fill-opacity:0.22;"/><path d="M1812.343,1712.216c-0.648,0.521 -1.294,1.041 -1.94,1.562l-3.544,0.364c1.829,-0.643 3.656,-1.286 5.484,-1.927Z" style="fill:#7b9127;fill-opacity:0.28;"/><path d="M1591.813,773.796c0.689,1.107 1.377,2.214 2.066,3.32c-0.644,-0.555 -1.288,-1.11 -1.932,-1.665l-0.133,-1.655Z" style="fill:#a9be25;fill-opacity:0.14;"/><path d="M1636.434,1538.485c2.145,0.378 2.005,0.406 3.62,1.866c-2.219,-0.431 -2.13,-0.442 -3.62,-1.866Z" style="fill:#a9bd26;fill-opacity:0.12;"/><path d="M2310.299,133.977c3.069,0.555 3.161,0.156 5.516,1.873c-1.838,-0.624 -3.678,-1.248 -5.516,-1.873Z" style="fill:#788f28;fill-opacity:0.26;"/><path d="M1595.703,412.779c-0.733,1.681 -1.466,3.36 -2.199,5.041c0.598,-2.784 0.128,-2.925 2.199,-5.041Z" style="fill:#80982a;fill-opacity:0.28;"/><path d="M2682.295,718.72c-0.609,2.291 -1.218,4.582 -1.827,6.873c0.505,-3.559 0.648,-3.401 1.827,-6.873Z" style="fill:#607d3b;fill-opacity:0.29;"/><path d="M1701.284,897.407c1.159,2.556 1.322,2.363 1.679,5.19c-1.079,-2.537 -1.136,-2.344 -1.679,-5.19Z" style="fill:#6c8e34;fill-opacity:0.24;"/><path d="M2765.708,240.824c1.818,2.245 1.362,2.322 1.842,5.206c-0.614,-1.736 -1.227,-3.472 -1.842,-5.206Z" style="fill:#789227;fill-opacity:0.28;"/><path d="M1586.312,765.166c1.46,1.463 1.566,1.313 1.995,3.372c-1.514,-1.435 -1.51,-1.353 -1.995,-3.372Z" style="fill:#9eb72c;fill-opacity:0.13;"/><path d="M2228.657,1753.436c1.868,0.552 3.735,1.102 5.603,1.653c-3.072,-0.433 -3.147,-0.015 -5.603,-1.653Z" style="fill:#6a8f38;fill-opacity:0.25;"/><path d="M2756.285,216.828c1.803,2.363 1.344,2.392 1.814,5.178c-0.605,-1.726 -1.209,-3.451 -1.814,-5.178Z" style="fill:#6b8646;fill-opacity:0.24;"/><path d="M2123.126,1681.15c0.622,1.724 1.246,3.449 1.868,5.175c-1.843,-2.313 -1.375,-2.346 -1.868,-5.175Z" style="fill:#6b8e39;fill-opacity:0.25;"/><path d="M1953.253,103.124c4.903,0.223 4.801,0.144 5.218,0.18c-2.717,0.797 -2.695,0.797 -5.218,-0.18Z" style="fill:#789439;fill-opacity:0.16;"/><path d="M2443.343,111.841c-1.812,0.65 -3.626,1.298 -5.44,1.947c2.386,-1.853 2.51,-1.428 5.44,-1.947Z" style="fill:#748d3d;fill-opacity:0.26;"/><path d="M1603.177,84.579c-0.47,1.937 -0.577,1.82 -2.075,3.293c0.505,-2.026 0.513,-1.909 2.075,-3.293Z" style="fill:#a6bf28;fill-opacity:0.14;"/><path d="M1745.167,1690.462c-1.697,0.327 -3.395,0.653 -5.092,0.98c2.534,-0.809 2.308,-1.05 5.092,-0.98Z" style="fill:#748f50;fill-opacity:0.21;"/><path d="M1575.475,1224.116l1.71,-0.16c-0.444,0.395 0.228,1.162 -3.243,2.198c0.511,-0.681 1.022,-1.359 1.533,-2.038Z" style="fill:#aac12e;fill-opacity:0.15;"/><path d="M2487.878,1596.849c1.186,0.638 2.373,1.275 3.559,1.913c-2.153,-0.6 -1.98,-0.584 -3.559,-1.913Z" style="fill:#7fa74d;fill-opacity:0.23;"/><path d="M1777.415,1714.983c2.774,-0.378 2.667,-0.242 5.229,0.581c-2.808,-0.076 -2.634,-0.1 -5.229,-0.581Z" style="fill:#90aa2f;fill-opacity:0.27;"/><path d="M1595.52,778.946c0.676,1.117 1.349,2.236 2.025,3.353c-1.499,-1.435 -1.512,-1.322 -2.025,-3.353Z" style="fill:#9db026;fill-opacity:0.21;"/><path d="M2656.316,111.922c2.117,0.433 2.029,0.392 3.633,1.839c-1.212,-0.614 -2.423,-1.225 -3.633,-1.839Z" style="fill:#99af29;fill-opacity:0.22;"/><path d="M1547.38,1466.424c1.418,1.451 1.54,1.322 2.088,3.295c-1.501,-1.411 -1.553,-1.287 -2.088,-3.295Z" style="fill:#a0b525;fill-opacity:0.2;"/><path d="M1623.526,361.259c-0.677,1.121 -1.357,2.243 -2.036,3.363c0.515,-2.019 0.518,-1.915 2.036,-3.363Z" style="fill:#99b029;fill-opacity:0.21;"/><path d="M2687.765,701.516c-0.211,2.575 -0.207,2.439 -0.737,4.86c-0.396,-2.55 -0.261,-2.449 0.737,-4.86Z" style="fill:#809c45;fill-opacity:0.24;"/><path d="M2539.083,1057.509c0.52,2.466 0.546,2.301 0.624,4.917c-0.863,-2.482 -0.992,-2.415 -0.624,-4.917Z" style="fill:#8da92d;fill-opacity:0.27;"/><path d="M2730.3,168.735c1.421,1.504 1.49,1.397 1.956,3.401c-1.37,-1.535 -1.429,-1.423 -1.956,-3.401Z" style="fill:#86a430;fill-opacity:0.2;"/><path d="M2643.288,105.204c2.164,0.416 1.984,0.431 3.659,1.739c-2.11,-0.421 -2.005,-0.473 -3.659,-1.739Z" style="fill:#78a242;fill-opacity:0.17;"/><path d="M2502.613,1603.88c2.136,0.45 1.956,0.457 3.626,1.787c-1.209,-0.595 -2.417,-1.191 -3.626,-1.787Z" style="fill:#78954f;fill-opacity:0.18;"/><path d="M1980.67,1742.985c-1.594,1.373 -1.497,1.413 -3.639,1.861c1.212,-0.62 2.425,-1.241 3.639,-1.861Z" style="fill:#94ab28;fill-opacity:0.24;"/><path d="M1556.779,237.481c0.783,2.41 0.975,2.243 0.642,4.915c-0.535,-2.489 -0.559,-2.322 -0.642,-4.915Z" style="fill:#8fa42d;fill-opacity:0.29;"/><path d="M2371.223,1718.945c-0.505,1.978 -0.515,1.81 -1.973,3.339c0.657,-1.112 1.316,-2.226 1.973,-3.339Z" style="fill:#74a23f;fill-opacity:0.19;"/><path d="M1817.977,1713.725c0.603,1.138 1.209,2.277 1.814,3.415c-1.384,-1.494 -1.418,-1.416 -1.814,-3.415Z" style="fill:#74a03e;fill-opacity:0.2;"/><path d="M1760.435,1708.64c2.151,0.435 2.032,0.461 3.724,1.665c-1.242,-0.555 -2.482,-1.11 -3.724,-1.665Z" style="fill:#75894d;fill-opacity:0.2;"/><path d="M2508.078,935.089c-1.616,1.327 -1.516,1.384 -3.578,1.887c1.192,-0.629 2.384,-1.258 3.578,-1.887Z" style="fill:#749f3d;fill-opacity:0.21;"/><path d="M1606.859,1519.541c1.173,0.66 2.347,1.32 3.52,1.982c-2.193,-0.596 -1.977,-0.665 -3.52,-1.982Z" style="fill:#8ca22e;fill-opacity:0.22;"/><path d="M2524.844,1572.843c-1.236,0.564 -2.473,1.127 -3.709,1.689c1.236,-0.562 2.473,-1.126 3.709,-1.689Z" style="fill:#6e864d;fill-opacity:0.22;"/><path d="M1706.896,1583.017c1.186,0.629 2.373,1.258 3.561,1.889c-1.188,-0.631 -2.375,-1.26 -3.561,-1.889Z" style="fill:#748c53;fill-opacity:0.2;"/><path d="M1617.964,371.563c-0.652,1.127 -1.301,2.257 -1.953,3.384c0.546,-1.952 0.518,-1.823 1.953,-3.384Z" style="fill:#7c9240;fill-opacity:0.25;"/><path d="M1654.804,1548.978c1.673,1.265 1.634,1.249 2.049,3.186c-1.712,-2.456 -1.71,-2.275 -2.049,-3.186Z" style="fill:#485c22;fill-opacity:0.13;"/><path d="M2321.275,137.71c1.74,0.266 3.48,0.534 5.22,0.801c-2.708,0.263 -2.638,0.156 -5.22,-0.801Z" style="fill:#748d4b;fill-opacity:0.27;"/><path d="M2710.066,1444.039c-0.7,1.088 -1.399,2.174 -2.099,3.262c0.605,-1.909 0.627,-1.719 2.099,-3.262Z" style="fill:#73a03c;fill-opacity:0.2;"/><path d="M2328.66,1748.174c2.612,-0.863 2.523,-0.993 5.19,-0.772c-2.619,0.541 -2.486,0.509 -5.19,0.772Z" style="fill:#74924b;fill-opacity:0.27;"/><path d="M1836.701,13.291c2.708,-0.27 2.604,-0.117 5.129,0.849c-1.71,-0.284 -3.419,-0.567 -5.129,-0.849Z" style="fill:#667e34;fill-opacity:0.19;"/><path d="M1616.011,374.947c-0.518,2.002 -0.57,1.889 -1.884,3.417c0.627,-1.139 1.257,-2.277 1.884,-3.417Z" style="fill:#6d834c;fill-opacity:0.23;"/><path d="M2724.738,1421.619c-0.653,1.124 -1.305,2.246 -1.956,3.369c0.652,-1.122 1.303,-2.245 1.956,-3.369Z" style="fill:#729c3b;fill-opacity:0.22;"/><path d="M1530.706,1447.538c1.373,1.519 1.438,1.414 1.993,3.37c-0.664,-1.124 -1.329,-2.246 -1.993,-3.37Z" style="fill:#73933e;fill-opacity:0.23;"/><path d="M2665.569,1230.78c1.196,0.626 2.39,1.251 3.583,1.877c-1.194,-0.626 -2.388,-1.251 -3.583,-1.877Z" style="fill:#739144;fill-opacity:0.23;"/><path d="M2504.501,936.976c-1.166,0.624 -2.332,1.249 -3.498,1.873c1.166,-0.624 2.332,-1.249 3.498,-1.873Z" style="fill:#6b814d;fill-opacity:0.25;"/><path d="M1593.751,318.321c0.689,1.095 1.377,2.191 2.066,3.288c-0.689,-1.096 -1.377,-2.193 -2.066,-3.288Z" style="fill:#738851;fill-opacity:0.22;"/><path d="M2186.144,105.125c2.762,0.199 2.617,0.194 5.268,0.708c-2.774,0.203 -2.599,0.058 -5.268,-0.708Z" style="fill:#7c9836;fill-opacity:0.3;"/><path d="M1873.339,1741.272c2.65,-0.832 2.471,-0.942 5.192,-0.734c-2.626,0.516 -2.495,0.495 -5.192,0.734Z" style="fill:#74924a;fill-opacity:0.29;"/><path d="M2069.841,1702.045c-0.781,0.952 -1.562,1.904 -2.343,2.855c0.722,-1.856 0.79,-1.645 2.343,-2.855Z" style="fill:#789d43;fill-opacity:0.18;"/><path d="M1656.722,39.724c-1.198,0.629 -2.395,1.256 -3.593,1.885c1.198,-0.629 2.395,-1.256 3.593,-1.885Z" style="fill:#769336;fill-opacity:0.26;"/><path d="M2676.663,123.992c1.186,0.634 2.373,1.268 3.559,1.903c-1.186,-0.634 -2.373,-1.268 -3.559,-1.903Z" style="fill:#728850;fill-opacity:0.23;"/><path d="M1897.404,44.988c1.188,0.626 2.377,1.251 3.565,1.877c-1.188,-0.626 -2.377,-1.251 -3.565,-1.877Z" style="fill:#729c3c;fill-opacity:0.24;"/><path d="M2770.979,258.117c1.07,2.451 1.107,2.392 0.805,4.955l-0.805,-4.955Z" style="fill:#667f42;fill-opacity:0.25;"/><path d="M1599.516,1514.321c1.161,0.665 2.319,1.329 3.478,1.994c-1.159,-0.665 -2.317,-1.329 -3.478,-1.994Z" style="fill:#799736;fill-opacity:0.24;"/><path d="M2715.43,1280.732c0.655,1.126 1.31,2.251 1.966,3.377c-0.655,-1.126 -1.31,-2.251 -1.966,-3.377Z" style="fill:#6b824b;fill-opacity:0.27;"/><path d="M2221.31,110.283c1.755,0.232 3.507,0.464 5.262,0.696c-2.767,0.184 -2.586,0.088 -5.262,-0.696Z" style="fill:#77963b;fill-opacity:0.32;"/><path d="M2617.536,844.246c-0.69,1.095 -1.383,2.19 -2.073,3.284c0.69,-1.095 1.383,-2.19 2.073,-3.284Z" style="fill:#71973c;fill-opacity:0.24;"/><path d="M1669.865,1558.984c1.161,0.665 2.321,1.33 3.482,1.995c-1.161,-0.665 -2.321,-1.33 -3.482,-1.995Z" style="fill:#77923e;fill-opacity:0.24;"/><path d="M1573.43,285.636c0.666,1.117 1.334,2.236 2.001,3.355c-1.362,-1.571 -1.355,-1.389 -2.001,-3.355Z" style="fill:#6e844c;fill-opacity:0.27;"/><path d="M2528.462,1571.016c-1.71,1.299 -1.521,1.303 -3.618,1.827c1.207,-0.608 2.412,-1.217 3.618,-1.827Z" style="fill:#6f884d;fill-opacity:0.27;"/><path d="M1560.474,1234.194c-1.173,0.646 -2.349,1.294 -3.524,1.942c1.175,-0.648 2.351,-1.296 3.524,-1.942Z" style="fill:#718750;fill-opacity:0.24;"/><path d="M1925.307,1741.125c1.183,0.638 2.364,1.275 3.544,1.913c-1.181,-0.638 -2.362,-1.275 -3.544,-1.913Z" style="fill:#71894e;fill-opacity:0.25;"/><path d="M2443.338,1713.694c-1.183,0.646 -2.365,1.292 -3.548,1.939c1.183,-0.646 2.365,-1.292 3.548,-1.939Z" style="fill:#74933f;fill-opacity:0.27;"/><path d="M1608.78,77.745c-0.722,1.072 -1.444,2.147 -2.166,3.221c0.722,-1.074 1.444,-2.148 2.166,-3.221Z" style="fill:#739741;fill-opacity:0.24;"/><path d="M2513.626,1694.756c-1.172,0.651 -2.343,1.301 -3.515,1.952c1.172,-0.651 2.343,-1.301 3.515,-1.952Z" style="fill:#70963e;fill-opacity:0.26;"/><path d="M1747.473,1694.891c0.657,1.117 1.314,2.233 1.971,3.348c-0.657,-1.115 -1.314,-2.231 -1.971,-3.348Z" style="fill:#6f973b;fill-opacity:0.27;"/><path d="M2726.802,407.754c-0.731,1.069 -1.46,2.138 -2.19,3.207c0.729,-1.069 1.459,-2.138 2.19,-3.207Z" style="fill:#6f854e;fill-opacity:0.25;"/><path d="M2521.088,928.29c-1.703,1.329 -1.521,1.325 -3.585,1.896c1.196,-0.631 2.391,-1.263 3.585,-1.896Z" style="fill:#73913e;fill-opacity:0.28;"/><path d="M2508.293,1607.08c1.166,0.662 2.334,1.323 3.502,1.985c-1.168,-0.662 -2.336,-1.323 -3.502,-1.985Z" style="fill:#6d9739;fill-opacity:0.27;"/><path d="M2745.152,378.422c-0.637,1.138 -1.273,2.274 -1.912,3.412c0.639,-1.138 1.275,-2.274 1.912,-3.412Z" style="fill:#6b9339;fill-opacity:0.28;"/><path d="M1525.475,1263.595c-0.722,1.071 -1.444,2.143 -2.167,3.214c0.724,-1.071 1.446,-2.143 2.167,-3.214Z" style="fill:#738f3c;fill-opacity:0.25;"/><path d="M1586.294,308.026c0.716,1.083 1.431,2.167 2.145,3.25c-0.714,-1.083 -1.429,-2.167 -2.145,-3.25Z" style="fill:#7c9533;fill-opacity:0.29;"/><path d="M1545.724,641.36c0.707,2.447 0.937,2.3 0.774,4.927c-0.563,-2.485 -0.54,-2.363 -0.774,-4.927Z" style="fill:#74943d;fill-opacity:0.32;"/><path d="M1651.138,43.132c-1.17,0.658 -2.341,1.315 -3.513,1.971c1.172,-0.657 2.343,-1.313 3.513,-1.971Z" style="fill:#6e834d;fill-opacity:0.27;"/><path d="M2130.504,1696.666c0.698,1.096 1.394,2.191 2.09,3.286c-0.696,-1.095 -1.392,-2.19 -2.09,-3.286Z" style="fill:#6f8e3e;fill-opacity:0.3;"/><path d="M2722.7,158.578c0.735,1.062 1.471,2.124 2.206,3.186c-0.735,-1.062 -1.471,-2.124 -2.206,-3.186Z" style="fill:#708550;fill-opacity:0.26;"/><path d="M2737.689,1373.501c-0.257,1.633 -0.515,3.265 -0.772,4.898c-0.128,-2.513 0,-2.404 0.772,-4.898Z" style="fill:#6d933b;fill-opacity:0.33;"/><path d="M1699.596,1607.559c-0.811,0.952 -1.621,1.904 -2.432,2.856c0.811,-0.952 1.621,-1.904 2.432,-2.856Z" style="fill:#74963e;fill-opacity:0.25;"/><path d="M1580.837,299.381c0.666,1.117 1.334,2.234 2.001,3.351c-0.666,-1.117 -1.334,-2.234 -2.001,-3.351Z" style="fill:#6a8148;fill-opacity:0.32;"/><path d="M2040.114,1714.395c-1.877,0.949 -1.734,0.907 -3.894,1.122c1.299,-0.375 2.597,-0.749 3.894,-1.122Z" style="fill:#6f8d44;fill-opacity:0.29;"/><path d="M2393.26,1721.399c1.294,0.327 2.589,0.655 3.883,0.981c-2.11,-0.205 -2.01,-0.165 -3.883,-0.981Z" style="fill:#698942;fill-opacity:0.3;"/></g></svg>