<?xml version="1.0" encoding="UTF-8" standalone="no"?><!DOCTYPE svg PUBLIC "-//W3C//DTD SVG 1.1//EN" "http://www.w3.org/Graphics/SVG/1.1/DTD/svg11.dtd"><svg width="100%" height="100%" viewBox="0 0 1242 110" version="1.1" xmlns="http://www.w3.org/2000/svg" xmlns:xlink="http://www.w3.org/1999/xlink" xml:space="preserve" xmlns:serif="http://www.serif.com/" style="fill-rule:evenodd;clip-rule:evenodd;stroke-linejoin:round;stroke-miterlimit:2;"><path d="M1241.667,54.045c-1.183,0.608 -2.112,1.938 -3.296,2.542c-2.054,1.071 -45.8,10.762 -49.787,11.654c-158.608,35.167 -281.279,39.458 -306,40.321l-0.05,0.004c-155.758,5.417 -230.267,-13.029 -230.267,-13.029c0,0 -106.937,-21.938 -113.2,-24.675c-180.2,-39.871 -342.171,-40.254 -535.333,-15.317c-0.692,0.167 -1.396,0.658 -2.1,0.504c-0.629,-0.137 -1.004,-1.192 -1.633,-1.329c1.108,-0.783 1.962,-2.129 3.071,-2.904c1.408,-0.992 33.871,-12.046 36.825,-13.046c74.596,-31.854 269.338,-60.929 511.983,-14.725c163.433,41.688 260.471,44.196 295.562,44.196c35.092,0 255.55,1.671 387.346,-15.033c2.967,-0.379 2.967,-0.433 3.179,-0.408c1.9,0.229 1.767,1.008 3.7,1.246Z" style="fill:#a7e1ff;fill-opacity:0.6;fill-rule:nonzero;"/><path d="M1241.667,61.59c-1.183,0.526 -2.112,1.674 -3.296,2.196c-2.054,0.925 -45.8,9.3 -49.787,10.07c-158.608,30.387 -281.279,34.095 -306,34.841l-0.05,0.004c-155.758,4.68 -230.267,-11.258 -230.267,-11.258c0,0 -106.937,-18.956 -113.2,-21.321c-180.2,-34.452 -342.171,-34.783 -535.333,-13.235c-0.692,0.144 -1.396,0.569 -2.1,0.436c-0.629,-0.119 -1.004,-1.03 -1.633,-1.149c1.108,-0.677 1.962,-1.84 3.071,-2.509c1.408,-0.857 33.871,-10.409 36.825,-11.273c74.596,-27.525 269.338,-52.648 511.983,-12.724c163.433,36.021 260.471,38.189 295.562,38.189c35.092,0 255.55,1.444 387.346,-12.99c2.967,-0.328 2.967,-0.374 3.179,-0.353c1.9,0.198 1.767,0.871 3.7,1.077Z" style="fill:#fff;fill-opacity:0.25;fill-rule:nonzero;"/></svg>