<?xml version="1.0" encoding="UTF-8" standalone="no"?><!DOCTYPE svg PUBLIC "-//W3C//DTD SVG 1.1//EN" "http://www.w3.org/Graphics/SVG/1.1/DTD/svg11.dtd"><svg width="100%" height="100%" viewBox="0 0 290 70" version="1.1" xmlns="http://www.w3.org/2000/svg" xmlns:xlink="http://www.w3.org/1999/xlink" xml:space="preserve" xmlns:serif="http://www.serif.com/" style="fill-rule:evenodd;clip-rule:evenodd;stroke-linejoin:round;stroke-miterlimit:2;"><path d="M289.231,36.535c-0.221,-10.724 -20.076,-20.569 -43.598,-27.422c-14.923,-4.348 -45.697,-6.835 -60.305,-8.127c-32.277,-2.853 -109.244,1.307 -121.973,2.167c-10.758,0.727 -56.428,4.309 -58.811,5.229c-6.269,2.419 -5.532,46.626 -0.946,49.975c1.358,0.992 43.593,5.061 56.752,6.343c22.438,2.185 106.03,4.761 123.663,4.355c8.305,-0.191 46.546,-2.542 61.898,-6.176c19.617,-4.644 43.571,-14.237 43.321,-26.343l-0.001,-0.001Z" style="fill:#c7a9e3;"/><path d="M0.124,35.576l288.889,-0.882c0.38,3.348 -0.186,5.3 -1.111,6.94l-287.581,-0.658l-0.197,-5.4Zm0.974,-18.371l266.557,0c7.32,2.893 15.866,8.737 18.357,12.032l-285.878,2.345c-0.007,-1.682 0.059,-4.007 0.262,-6.898c0.101,-1.445 0.386,-5.572 0.702,-7.479" style="fill:#f7e9fd;"/><path d="M60.948,21.09c-3.809,-7.459 1.705,-10.747 5.82,-15.235c2.618,4.032 1.468,13.432 -5.82,15.235m1.633,2.027c6.898,-5.843 8.383,-4.994 18.374,-3.138c-5.566,5.23 -10.664,8.182 -18.374,3.138m-1.595,1.141c7.018,4.242 8.246,6.75 7.074,15.955c-6.419,-3.6 -10.569,-6.825 -7.074,-15.955m-18.08,8.16c4.924,-9.08 8.107,-7.522 16.468,-9.206c-1.916,7.105 -6.759,10.355 -16.468,9.206m2.041,-20.68c13.539,0.488 14.017,6.883 14.078,10.155c-7.384,-0.663 -10.866,-1.383 -14.078,-10.155m-21.301,34.957c2.004,5.684 -2.242,7.502 -5.606,10.31c-1.482,-3.125 0.235,-9.72 5.606,-10.31m-1.165,-1.413c-5.477,3.509 -6.455,2.761 -13.404,0.484c4.469,-3.198 8.387,-4.817 13.404,-0.484m1.44,-0.85c-4.6,-3.695 -5.237,-5.601 -3.522,-12.055c4.234,3.18 6.886,5.876 3.522,12.055m13.789,-3.438c-5.241,5.27 -6.438,4.694 -12.552,4.161c2.763,-4.517 6.082,-6.923 12.552,-4.161m-3.19,13.512c-9.71,-1.353 -9.641,-5.889 -9.474,-8.197c5.27,1.017 7.729,1.783 9.474,8.197" style="fill:#ecb5fe;"/></svg>