<?xml version="1.0" encoding="UTF-8" standalone="no"?><!DOCTYPE svg PUBLIC "-//W3C//DTD SVG 1.1//EN" "http://www.w3.org/Graphics/SVG/1.1/DTD/svg11.dtd"><svg width="100%" height="100%" viewBox="0 0 290 70" version="1.1" xmlns="http://www.w3.org/2000/svg" xmlns:xlink="http://www.w3.org/1999/xlink" xml:space="preserve" xmlns:serif="http://www.serif.com/" style="fill-rule:evenodd;clip-rule:evenodd;stroke-linejoin:round;stroke-miterlimit:2;"><path id="board" d="M289.232,36.535c-0.221,-10.724 -20.076,-20.569 -43.598,-27.422c-14.923,-4.348 -45.697,-6.835 -60.305,-8.127c-32.277,-2.853 -109.244,1.307 -121.973,2.167c-10.758,0.727 -56.428,4.309 -58.811,5.229c-6.269,2.419 -5.532,46.626 -0.946,49.975c1.358,0.992 43.593,5.061 56.752,6.343c22.438,2.185 106.03,4.761 123.663,4.355c8.305,-0.191 46.546,-2.542 61.898,-6.176c19.617,-4.644 43.571,-14.237 43.321,-26.343Z" style="fill:#e8a29d;"/><g id="lines"><path d="M0.124,35.576l288.889,-0.882c0.38,3.348 -0.186,5.3 -1.111,6.94l-287.581,-0.658l-0.196,-5.4Z" style="fill:#fde5e5;"/><path d="M1.098,17.206l266.557,0c7.32,2.893 15.866,8.737 18.357,12.032l-285.878,2.345c-0.007,-1.682 0.059,-4.007 0.262,-6.898c0.101,-1.445 0.386,-5.572 0.702,-7.479Z" style="fill:#fde5e5;"/></g><g id="flower-2" serif:id="flower 2"><path d="M236.533,24.884c-3.809,-7.459 1.705,-10.747 5.82,-15.235c2.618,4.032 1.468,13.432 -5.82,15.235Z" style="fill:#f28b84;"/><path d="M238.397,26.615c6.898,-5.843 8.383,-4.994 18.374,-3.138c-5.566,5.23 -10.664,8.182 -18.374,3.138Z" style="fill:#f28b84;"/><path d="M236.571,28.052c7.018,4.242 8.246,6.75 7.074,15.955c-6.419,-3.6 -10.569,-6.825 -7.074,-15.955Z" style="fill:#f28b84;"/><path d="M218.496,36.781c4.924,-9.08 8.107,-7.522 16.468,-9.206c-1.916,7.105 -6.759,10.355 -16.468,9.206Z" style="fill:#f28b84;"/><path d="M219.922,15.447c13.539,0.488 14.017,6.883 14.078,10.155c-7.384,-0.663 -10.866,-1.383 -14.078,-10.155Z" style="fill:#f28b84;"/></g><g id="flower"><path d="M207.081,50.337c2.004,5.684 -2.242,7.502 -5.606,10.31c-1.482,-3.125 0.235,-9.72 5.606,-10.31Z" style="fill:#f28b84;"/><path d="M205.917,48.924c-5.477,3.509 -6.455,2.761 -13.404,0.484c4.469,-3.198 8.387,-4.817 13.404,-0.484Z" style="fill:#f28b84;"/><path d="M207.357,48.074c-4.6,-3.695 -5.237,-5.601 -3.522,-12.055c4.234,3.18 6.886,5.876 3.522,12.055Z" style="fill:#f28b84;"/><path d="M221.081,43.574c-4.379,6.006 -6.5,4.591 -12.624,4.993c2.045,-4.885 5.809,-6.74 12.624,-4.993Z" style="fill:#f28b84;"/><path d="M218.024,58.661c-9.656,-1.698 -9.425,-6.229 -9.176,-8.53c5.231,1.204 7.66,2.058 9.176,8.53Z" style="fill:#f28b84;"/></g></svg>