<?xml version="1.0" encoding="UTF-8" standalone="no"?><!DOCTYPE svg PUBLIC "-//W3C//DTD SVG 1.1//EN" "http://www.w3.org/Graphics/SVG/1.1/DTD/svg11.dtd"><svg width="100%" height="100%" viewBox="0 0 290 70" version="1.1" xmlns="http://www.w3.org/2000/svg" xmlns:xlink="http://www.w3.org/1999/xlink" xml:space="preserve" xmlns:serif="http://www.serif.com/" style="fill-rule:evenodd;clip-rule:evenodd;stroke-linejoin:round;stroke-miterlimit:2;"><path d="M0.003,36.535c0.221,-10.724 20.076,-20.569 43.598,-27.422c14.923,-4.348 45.697,-6.835 60.305,-8.127c32.277,-2.853 109.244,1.307 121.973,2.167c10.758,0.727 56.428,4.309 58.811,5.229c6.269,2.419 5.532,46.626 0.946,49.975c-1.358,0.992 -43.593,5.061 -56.752,6.343c-22.438,2.185 -106.03,4.761 -123.663,4.355c-8.305,-0.191 -46.546,-2.542 -61.898,-6.176c-19.617,-4.644 -43.571,-14.237 -43.321,-26.343l0.001,-0.001Z" style="fill:#9eebd5;"/><path d="M289.11,35.576l-288.602,-1.44c-0.566,2.958 -0.435,5.332 0.784,7.144l287.622,-0.303l0.196,-5.4l0,-0.001Zm-0.974,-18.371l-266.557,0c-7.464,2.862 -16.273,9.028 -18.429,12.394l285.95,1.983c0.007,-1.682 -0.059,-4.007 -0.262,-6.898c-0.101,-1.445 -0.386,-5.572 -0.702,-7.479" style="fill:#dffff6;"/></svg>