<?xml version="1.0" encoding="UTF-8" standalone="no"?>
<!DOCTYPE svg PUBLIC "-//W3C//DTD SVG 1.1//EN" "http://www.w3.org/Graphics/SVG/1.1/DTD/svg11.dtd">
<svg width="100%" height="100%" viewBox="0 0 2048 2048" version="1.1" xmlns="http://www.w3.org/2000/svg" xmlns:xlink="http://www.w3.org/1999/xlink" xml:space="preserve" xmlns:serif="http://www.serif.com/" style="fill-rule:evenodd;clip-rule:evenodd;stroke-linecap:round;stroke-linejoin:round;stroke-miterlimit:1.5;">
    <path d="M221.553,1409.695L270.099,1364.575L526.541,1430.827L530.539,1463.953L498.555,1472.52L499.697,1491.368L427.163,1484.514L426.592,1510.787L221.553,1409.695Z" style="fill:rgb(175,175,175);"/>
    <path d="M557.382,1608.451L648.585,1615.876L671.61,1538.201L762.421,1792.358L721.87,1837.478L557.382,1608.451Z" style="fill:rgb(223,223,223);"/>
    <g id="engine" transform="matrix(1,0,0,1,11.74621,0)">
        <path d="M901.304,664.592C901.304,664.592 969.126,630.324 997.683,686.01C1026.24,741.695 936.286,820.94 936.286,820.94L867.75,825.938L834.195,760.257C834.195,760.257 884.17,672.445 901.304,664.592Z" style="fill:rgb(207,207,207);"/>
    </g>
    <g id="brokenWingR">
        <g transform="matrix(0.886876,0.462007,-0.462007,0.886876,921.603686,-552.404754)">
            <path d="M1575.165,1574.826L1555.06,1590.361L1548.664,1604.068L1536.784,1615.491L1513.025,1615.948L1491.093,1600.87L1490.179,1615.034L1471.903,1605.439L1487.438,1633.768L1585.217,1762.462C1585.217,1762.462 1633.649,1674.89 1575.165,1574.826Z" style="fill:rgb(175,175,175);"/>
        </g>
        <path id="brokenWingR1" serif:id="brokenWingR" d="M1006.532,1124.79L1159.112,1209.319L1289.903,1379.373L1295.044,1360.671L1300.184,1338.968L1310.988,1329.829L1320.745,1331.543L1351.586,1329.829L1352.729,1298.988L1403.56,1339.539L1388.139,1300.13L1440.684,1362.384L1417.839,1286.423L1333.881,1131.644L1243.641,1127.075L1221.938,1060.823L1220.224,1029.41L1097.429,1012.276L1006.532,1124.79Z" style="fill:rgb(175,175,175);"/>
    </g>
    <g id="brokenWingL" transform="matrix(1,0,0,1,-0.365527,0)">
        <path d="M711.36,705.511L877.675,770.941C877.675,770.941 1039.237,826.135 1047.645,817.363C1056.052,808.59 891.565,1024 891.565,1024L762.534,886.082L599.874,797.99L693.815,792.001L684.311,771.672L738.043,736.947L711.36,705.511Z" style="fill:rgb(175,175,175);"/>
    </g>
    <g id="cabin">
        <g id="brokenInside1" transform="matrix(0.986158,0,0,1,10.81679,0)">
            <path d="M706.02,1240.877L651.646,1318.393L673.578,1316.931L679.426,1325.338L681.254,1334.111L677.599,1348.001L718.172,1333.014L742.297,1314.738L746.684,1332.283L744.49,1339.594L741.932,1351.291L762.421,1355.677L782.871,1361.891L791.644,1371.722L793.471,1387.478L794.933,1396.982L824.907,1371.722L889.605,1291.344L740.835,1195.824L706.02,1240.877Z" style="fill:rgb(15,15,47);stroke:black;stroke-width:1.01px;"/>
        </g>
        <path id="hullDark" d="M734.02,1227.611L706.02,1240.877C706.02,1240.877 1122.75,672.041 1276.058,551.13C1429.365,430.219 1463.472,445.969 1463.472,445.969L782.91,1276.352L786.272,1256.658L784.445,1235.823L752.644,1233.63L734.02,1227.611Z" style="fill:rgb(207,207,207);"/>
        <path id="hullLight" d="M1463.472,445.969C1513.026,451.395 1402.852,656.291 1402.852,656.291L824.907,1371.722L829.405,1359.736L845.942,1326.108L830.136,1338.901L811.128,1322.087L829.77,1282.61L807.839,1289.921L778.596,1301.618L784.415,1267.538C973.491,1021.832 1424.403,441.692 1463.472,445.969Z" style="fill:rgb(223,223,223);"/>
        <path id="brokenInside2" d="M1089.038,749.544L1122.85,757.768L1148.893,742.69L1169.911,744.518L1185.446,734.923L1197.783,726.241L1215.602,708.879L1237.534,708.422L1229.31,679.637L1236.163,659.989L1237.077,645.825L1239.362,617.04L1243.931,599.677L1237.077,585.97C1188.865,635.58 1139.59,689.796 1089.038,749.544Z" style="fill:rgb(15,15,47);stroke:black;stroke-width:1px;"/>
    </g>
    <g id="windows" transform="matrix(1,0,0,1,2.631805,0)">
        <g transform="matrix(0.651061,-0.759026,0.759026,0.651061,-705.26565,1112.127217)">
            <ellipse cx="856.937" cy="1323.124" rx="4.641" ry="1.347"/>
        </g>
        <g transform="matrix(0.651061,-0.759026,0.759026,0.651061,-690.293649,1094.609975)">
            <ellipse cx="856.937" cy="1323.124" rx="4.641" ry="1.347"/>
        </g>
        <g transform="matrix(0.651061,-0.759026,0.759026,0.651061,-677.728646,1080.331563)">
            <ellipse cx="856.937" cy="1323.124" rx="4.641" ry="1.347"/>
        </g>
        <g transform="matrix(0.651061,-0.759026,0.759026,0.651061,-665.776999,1064.403966)">
            <ellipse cx="856.937" cy="1323.124" rx="4.641" ry="1.347"/>
        </g>
        <g transform="matrix(0.651061,-0.759026,0.759026,0.651061,-650.804998,1046.886724)">
            <ellipse cx="856.937" cy="1323.124" rx="4.641" ry="1.347"/>
        </g>
        <g transform="matrix(0.651061,-0.759026,0.759026,0.651061,-638.239995,1032.608312)">
            <ellipse cx="856.937" cy="1323.124" rx="4.641" ry="1.347"/>
        </g>
        <g transform="matrix(0.651061,-0.759026,0.759026,0.651061,-626.803011,1017.288953)">
            <ellipse cx="856.937" cy="1323.124" rx="4.641" ry="1.347"/>
        </g>
        <g transform="matrix(0.651061,-0.759026,0.759026,0.651061,-614.170385,1002.345023)">
            <ellipse cx="856.937" cy="1323.124" rx="4.641" ry="1.347"/>
        </g>
        <g transform="matrix(0.651061,-0.759026,0.759026,0.651061,-601.605382,987.364799)">
            <ellipse cx="856.937" cy="1323.124" rx="4.641" ry="1.347"/>
        </g>
        <g transform="matrix(0.651061,-0.759026,0.759026,0.651061,-590.549476,971.475967)">
            <ellipse cx="856.937" cy="1323.124" rx="4.641" ry="1.347"/>
        </g>
        <g transform="matrix(0.651061,-0.759026,0.759026,0.651061,-578.721594,954.522046)">
            <ellipse cx="856.937" cy="1323.124" rx="4.641" ry="1.347"/>
        </g>
        <g transform="matrix(0.651061,-0.759026,0.759026,0.651061,-564.958831,938.806322)">
            <ellipse cx="856.937" cy="1323.124" rx="4.641" ry="1.347"/>
        </g>
        <g transform="matrix(0.651061,-0.759026,0.759026,0.651061,-552.887409,922.519398)">
            <ellipse cx="856.937" cy="1323.124" rx="4.641" ry="1.347"/>
        </g>
        <g transform="matrix(0.651061,-0.759026,0.759026,0.651061,-541.393258,907.517451)">
            <ellipse cx="856.937" cy="1323.124" rx="4.641" ry="1.347"/>
        </g>
        <g transform="matrix(0.651061,-0.759026,0.759026,0.651061,-528.344804,890.723744)">
            <ellipse cx="856.937" cy="1323.124" rx="4.641" ry="1.347"/>
        </g>
        <g transform="matrix(0.651061,-0.759026,0.759026,0.651061,-516.428716,876.003264)">
            <ellipse cx="856.937" cy="1323.124" rx="4.641" ry="1.347"/>
        </g>
        <g transform="matrix(0.651061,-0.759026,0.759026,0.651061,-503.19721,858.184711)">
            <ellipse cx="856.937" cy="1323.124" rx="4.641" ry="1.347"/>
        </g>
        <g transform="matrix(0.651061,-0.759026,0.759026,0.651061,-490.392655,842.725382)">
            <ellipse cx="856.937" cy="1323.124" rx="4.641" ry="1.347"/>
        </g>
        <g transform="matrix(0.651061,-0.759026,0.759026,0.651061,-478.137991,827.010856)">
            <ellipse cx="856.937" cy="1323.124" rx="4.641" ry="1.347"/>
        </g>
        <g transform="matrix(0.651061,-0.759026,0.759026,0.651061,-467.096139,811.365113)">
            <ellipse cx="856.937" cy="1323.124" rx="4.641" ry="1.347"/>
        </g>
        <g transform="matrix(0.651061,-0.759026,0.759026,0.651061,-453.595386,796.338101)">
            <ellipse cx="856.937" cy="1323.124" rx="4.641" ry="1.347"/>
        </g>
        <g transform="matrix(0.651061,-0.759026,0.759026,0.651061,-439.95939,779.474755)">
            <ellipse cx="856.937" cy="1323.124" rx="4.641" ry="1.347"/>
        </g>
        <g transform="matrix(0.651061,-0.759026,0.759026,0.651061,-429.666137,765.139062)">
            <ellipse cx="856.937" cy="1323.124" rx="4.641" ry="1.347"/>
        </g>
        <g transform="matrix(0.651061,-0.759026,0.759026,0.651061,-419.168485,750.11205)">
            <ellipse cx="856.937" cy="1323.124" rx="4.641" ry="1.347"/>
        </g>
        <g transform="matrix(0.651061,-0.759026,0.759026,0.651061,-406.603483,734.231241)">
            <ellipse cx="856.937" cy="1323.124" rx="4.641" ry="1.347"/>
        </g>
        <g transform="matrix(0.651061,-0.759026,0.759026,0.651061,-395.090173,722.28171)">
            <ellipse cx="856.937" cy="1323.124" rx="4.641" ry="1.347"/>
        </g>
        <g transform="matrix(0.651061,-0.759026,0.759026,0.651061,-383.086621,705.055686)">
            <ellipse cx="856.937" cy="1323.124" rx="4.641" ry="1.347"/>
        </g>
        <g transform="matrix(0.651061,-0.759026,0.759026,0.651061,-369.635195,690.177464)">
            <ellipse cx="856.937" cy="1323.124" rx="4.641" ry="1.347"/>
        </g>
        <g transform="matrix(0.651061,-0.759026,0.759026,0.651061,-358.256473,674.672833)">
            <ellipse cx="856.937" cy="1323.124" rx="4.641" ry="1.347"/>
        </g>
        <g transform="matrix(0.651061,-0.759026,0.759026,0.651061,-347.176692,660.202779)">
            <ellipse cx="856.937" cy="1323.124" rx="4.641" ry="1.347"/>
        </g>
        <g transform="matrix(0.651061,-0.759026,0.759026,0.651061,-334.338703,645.353166)">
            <ellipse cx="856.937" cy="1323.124" rx="4.641" ry="1.347"/>
        </g>
        <g transform="matrix(0.651061,-0.759026,0.759026,0.651061,-322.652911,631.213606)">
            <ellipse cx="856.937" cy="1323.124" rx="4.641" ry="1.347"/>
        </g>
        <g transform="matrix(0.651061,-0.759026,0.759026,0.651061,-311.999977,616.048852)">
            <ellipse cx="856.937" cy="1323.124" rx="4.641" ry="1.347"/>
        </g>
        <g transform="matrix(0.651061,-0.759026,0.759026,0.651061,-300.467172,601.328372)">
            <ellipse cx="856.937" cy="1323.124" rx="4.641" ry="1.347"/>
        </g>
        <g transform="matrix(0.651061,-0.759026,0.759026,0.651061,-291.04454,587.079143)">
            <ellipse cx="856.937" cy="1323.124" rx="4.641" ry="1.347"/>
        </g>
        <g transform="matrix(0.651061,-0.759026,0.759026,0.651061,-280.159017,572.53984)">
            <ellipse cx="856.937" cy="1323.124" rx="4.641" ry="1.347"/>
        </g>
        <g transform="matrix(0.651061,-0.759026,0.759026,0.651061,-268.27066,557.23227)">
            <ellipse cx="856.937" cy="1323.124" rx="4.641" ry="1.347"/>
        </g>
        <g transform="matrix(0.651061,-0.759026,0.759026,0.651061,-257.693857,544.150687)">
            <ellipse cx="856.937" cy="1323.124" rx="4.641" ry="1.347"/>
        </g>
        <g transform="matrix(0.651061,-0.759026,0.759026,0.651061,-246.195359,529.484487)">
            <ellipse cx="856.937" cy="1323.124" rx="4.641" ry="1.347"/>
        </g>
        <g transform="matrix(0.651061,-0.759026,0.759026,0.651061,-232.12118,513.93645)">
            <ellipse cx="856.937" cy="1323.124" rx="4.641" ry="1.347"/>
        </g>
        <g transform="matrix(0.651061,-0.759026,0.759026,0.651061,-219.762295,499.805492)">
            <ellipse cx="856.937" cy="1323.124" rx="4.641" ry="1.347"/>
        </g>
        <g transform="matrix(0.651061,-0.759026,0.759026,0.651061,-209.03471,484.707725)">
            <ellipse cx="856.937" cy="1323.124" rx="4.641" ry="1.347"/>
        </g>
        <g transform="matrix(0.651061,-0.759026,0.759026,0.651061,-198.941303,468.824315)">
            <ellipse cx="856.937" cy="1323.124" rx="4.641" ry="1.347"/>
        </g>
        <g transform="matrix(0.651061,-0.759026,0.759026,0.651061,-185.291884,450.989662)">
            <ellipse cx="856.937" cy="1323.124" rx="4.641" ry="1.347"/>
        </g>
        <g transform="matrix(0.651061,-0.759026,0.759026,0.651061,-174.791268,437.219536)">
            <ellipse cx="856.937" cy="1323.124" rx="4.641" ry="1.347"/>
        </g>
        <g transform="matrix(0.651061,-0.759026,0.759026,0.651061,-164.504625,422.560458)">
            <ellipse cx="856.937" cy="1323.124" rx="4.641" ry="1.347"/>
        </g>
        <g transform="matrix(0.651061,-0.759026,0.759026,0.651061,-137.674822,374.17099)">
            <ellipse cx="856.937" cy="1323.124" rx="4.641" ry="1.347"/>
        </g>
    </g>
    <g id="windshield">
        <g transform="matrix(0.906183,0.422885,-0.422885,0.906183,331.120908,-557.726194)">
            <ellipse cx="1440.536" cy="471.167" rx="28.774" ry="6.316"/>
        </g>
        <g transform="matrix(0.265929,-0.963993,0.963993,0.265929,616.411258,1778.182509)">
            <ellipse cx="1440.536" cy="471.167" rx="28.774" ry="6.316"/>
        </g>
        <g transform="matrix(0.80579,0,0,0.956716,281.525488,21.689196)">
            <path d="M1443.914,542.603C1449.425,511.17 1437.261,483.799 1437.261,483.799L1463.472,487.025L1444.125,541.348" style="stroke:black;stroke-width:1.13px;"/>
        </g>
        <g transform="matrix(-0.099917,-0.34438,-0.499589,0.144949,1803.180336,898.367635)">
            <path d="M1443.914,542.603C1449.425,511.17 1437.261,483.799 1437.261,483.799L1463.472,487.025L1444.125,541.348" style="stroke:black;stroke-width:2.24px;"/>
        </g>
    </g>
</svg>
