<?xml version="1.0" encoding="UTF-8" standalone="no"?>
<!DOCTYPE svg PUBLIC "-//W3C//DTD SVG 1.1//EN" "http://www.w3.org/Graphics/SVG/1.1/DTD/svg11.dtd">
<svg width="100%" height="100%" viewBox="0 0 2132 2132" version="1.1" xmlns="http://www.w3.org/2000/svg" xmlns:xlink="http://www.w3.org/1999/xlink" xml:space="preserve" xmlns:serif="http://www.serif.com/" style="fill-rule:evenodd;clip-rule:evenodd;stroke-linecap:round;stroke-linejoin:round;stroke-miterlimit:1.5;">
    <g id="handle2" transform="matrix(1.276108,0,0,1.276108,315.247333,159.045806)">
        <g transform="matrix(1,0,0,1,0,2.459055)">
            <path d="M882.211,107.154L882.211,272.913C882.211,278.355 877.793,282.773 872.351,282.773L852.631,282.773C847.189,282.773 842.77,278.355 842.77,272.913L842.77,107.154C842.77,101.712 847.189,97.294 852.631,97.294L872.351,97.294C877.793,97.294 882.211,101.712 882.211,107.154Z" style="fill:rgb(223,223,223);"/>
        </g>
        <g transform="matrix(1,0,0,1,209.992774,5.36521)">
            <path d="M882.211,107.154L882.211,272.913C882.211,278.355 877.793,282.773 872.351,282.773L852.631,282.773C847.189,282.773 842.77,278.355 842.77,272.913L842.77,107.154C842.77,101.712 847.189,97.294 852.631,97.294L872.351,97.294C877.793,97.294 882.211,101.712 882.211,107.154Z" style="fill:rgb(223,223,223);"/>
        </g>
        <g transform="matrix(0.000314,-1,1.344775,0.000423,711.663622,979.461057)">
            <path d="M882.211,104.626L882.211,275.441C882.211,279.488 877.793,282.773 872.351,282.773L852.631,282.773C847.189,282.773 842.77,279.488 842.77,275.441L842.77,104.626C842.77,100.58 847.189,97.294 852.631,97.294L872.351,97.294C877.793,97.294 882.211,100.58 882.211,104.626Z" style="fill:rgb(95,95,95);"/>
        </g>
    </g>
    <g id="outisde2" transform="matrix(0.997642,0,0,1.202559,-434.366467,-408.083217)">
        <path d="M623.506,693.914L1414.19,693.914C1461.367,693.914 1499.669,725.689 1499.669,764.827L1499.669,1686.704C1499.669,1725.842 1461.367,1757.618 1414.19,1757.618L623.506,1757.618C576.329,1757.618 538.026,1725.842 538.026,1686.704L538.026,764.827C538.026,725.689 576.329,693.914 623.506,693.914Z" style="fill:rgb(255,192,103);"/>
    </g>
    <g id="outside1" transform="matrix(0.997642,0,0,1.202559,533.420621,-408.083217)">
        <path d="M623.506,693.914L1414.19,693.914C1461.367,693.914 1499.669,725.689 1499.669,764.827L1499.669,1686.704C1499.669,1725.842 1461.367,1757.618 1414.19,1757.618L623.506,1757.618C576.329,1757.618 538.026,1725.842 538.026,1686.704L538.026,764.827C538.026,725.689 576.329,693.914 623.506,693.914Z" style="fill:rgb(255,192,103);"/>
    </g>
    <g id="zipper2" transform="matrix(0.953302,0,0,1.162474,-389.191127,-358.948036)">
        <path d="M623.506,693.914L1414.19,693.914C1461.367,693.914 1499.669,725.689 1499.669,764.827L1499.669,1686.704C1499.669,1725.842 1461.367,1757.618 1414.19,1757.618L623.506,1757.618C576.329,1757.618 538.026,1725.842 538.026,1686.704L538.026,764.827C538.026,725.689 576.329,693.914 623.506,693.914Z" style="fill:rgb(179,235,242);"/>
    </g>
    <g id="zipper1" transform="matrix(0.953302,0,0,1.162474,578.595961,-358.948036)">
        <path d="M623.506,693.914L1414.19,693.914C1461.367,693.914 1499.669,725.689 1499.669,764.827L1499.669,1686.704C1499.669,1725.842 1461.367,1757.618 1414.19,1757.618L623.506,1757.618C576.329,1757.618 538.026,1725.842 538.026,1686.704L538.026,764.827C538.026,725.689 576.329,693.914 623.506,693.914Z" style="fill:rgb(179,235,242);"/>
    </g>
    <g id="insidewall2" transform="matrix(0.939717,0,0,1.14064,585.904996,-332.185062)">
        <path d="M623.506,693.914L1414.19,693.914C1461.367,693.914 1499.669,725.689 1499.669,764.827L1499.669,1686.704C1499.669,1725.842 1461.367,1757.618 1414.19,1757.618L623.506,1757.618C576.329,1757.618 538.026,1725.842 538.026,1686.704L538.026,764.827C538.026,725.689 576.329,693.914 623.506,693.914Z" style="fill:rgb(251,241,183);"/>
    </g>
    <g id="insidewall1" transform="matrix(0.939717,0,0,1.14064,-368.818272,-332.185062)">
        <path d="M623.506,693.914L1414.19,693.914C1461.367,693.914 1499.669,725.689 1499.669,764.827L1499.669,1686.704C1499.669,1725.842 1461.367,1757.618 1414.19,1757.618L623.506,1757.618C576.329,1757.618 538.026,1725.842 538.026,1686.704L538.026,764.827C538.026,725.689 576.329,693.914 623.506,693.914Z" style="fill:rgb(251,241,183);"/>
    </g>
    <g id="inside2" transform="matrix(0.886793,0,0,1.082303,-314.896207,-260.677673)">
        <path d="M623.506,693.914L1414.19,693.914C1461.367,693.914 1499.669,725.689 1499.669,764.827L1499.669,1686.704C1499.669,1725.842 1461.367,1757.618 1414.19,1757.618L623.506,1757.618C576.329,1757.618 538.026,1725.842 538.026,1686.704L538.026,764.827C538.026,725.689 576.329,693.914 623.506,693.914Z" style="fill:rgb(220,211,155);"/>
    </g>
    <g id="inside1" transform="matrix(0.886793,0,0,1.082303,639.82706,-260.677673)">
        <path d="M623.506,693.914L1414.19,693.914C1461.367,693.914 1499.669,725.689 1499.669,764.827L1499.669,1686.704C1499.669,1725.842 1461.367,1757.618 1414.19,1757.618L623.506,1757.618C576.329,1757.618 538.026,1725.842 538.026,1686.704L538.026,764.827C538.026,725.689 576.329,693.914 623.506,693.914Z" style="fill:rgb(220,211,155);"/>
    </g>
    <g id="hinge2" transform="matrix(1,0,0,1,911.061702,309.250167)">
        <g transform="matrix(0.917969,0,0,0.917969,11.83302,20.284966)">
            <circle cx="155.863" cy="258.897" r="11.612" style="fill:rgb(1,0,1);"/>
        </g>
        <g transform="matrix(0.917969,0,0,0.917969,11.83302,62.923855)">
            <circle cx="155.863" cy="258.897" r="11.612" style="fill:rgb(1,0,1);"/>
        </g>
        <g transform="matrix(2.294923,0,0,1.669035,-362.679063,-304.018322)">
            <rect x="220.892" y="336.699" width="9.29" height="25.547" style="fill:rgb(1,0,1);"/>
        </g>
    </g>
    <g id="hinge1" transform="matrix(1,0,0,1,911.061702,1264.166924)">
        <g transform="matrix(0.917969,0,0,0.917969,11.83302,20.284966)">
            <circle cx="155.863" cy="258.897" r="11.612" style="fill:rgb(1,0,1);"/>
        </g>
        <g transform="matrix(0.917969,0,0,0.917969,11.83302,62.923855)">
            <circle cx="155.863" cy="258.897" r="11.612" style="fill:rgb(1,0,1);"/>
        </g>
        <g transform="matrix(2.294923,0,0,1.669035,-362.679063,-304.018322)">
            <rect x="220.892" y="336.699" width="9.29" height="25.547" style="fill:rgb(1,0,1);"/>
        </g>
    </g>
    <g id="shirt2" transform="matrix(1,0,0,1,708.946669,33.704036)">
        <g transform="matrix(1,0,0,1,-715.877974,2.539463)">
            <path d="M1169.421,534.711C1169.421,534.711 1138.939,557.935 1141.842,617.448C1144.745,676.961 1108.457,1016.621 1131.681,1029.684C1154.906,1042.748 1729.714,1081.94 1742.778,1041.297C1755.841,1000.654 1755.841,711.798 1764.551,690.025C1773.26,668.252 1849.723,554.882 1774.711,515.841C1707.519,480.869 1668.204,492.357 1670.201,472.384C1670.201,472.384 1192.646,449.25 1178.13,459.321C1163.615,469.392 1170.873,495.519 1169.421,534.711Z" style="fill:rgb(139,156,255);"/>
        </g>
        <g transform="matrix(1,0,0,1,-696.73709,8.580169)">
            <path d="M1465.534,586.966C1465.534,586.966 1511.983,662.446 1527.95,669.704C1543.917,676.961 1691.974,566.645 1705.038,546.323C1718.101,526.002 1644.073,440.54 1635.364,459.321C1626.655,478.101 1439.407,594.224 1465.534,586.966Z" style="fill:rgb(139,156,255);stroke:rgb(44,73,255);stroke-width:1px;"/>
        </g>
        <path d="M768.797,595.546L740.078,615.384" style="fill:none;stroke:rgb(44,73,255);stroke-width:1px;"/>
        <path d="M740.078,615.384C717.782,821.618 722.121,1057.878 722.121,1057.878" style="fill:rgb(139,156,255);stroke:rgb(44,73,255);stroke-width:1px;"/>
        <g transform="matrix(1,0,0,1,-715.607053,0.012107)">
            <path d="M1420.537,604.385C1420.537,604.385 1355.218,690.025 1340.702,687.122C1326.187,684.219 1141.842,552.129 1159.26,543.42C1176.679,534.711 1231.837,455.507 1249.255,456.643C1266.674,457.779 1420.537,604.385 1420.537,604.385Z" style="fill:rgb(139,156,255);stroke:rgb(44,73,255);stroke-width:1px;"/>
        </g>
        <path d="M704.93,605.465C704.93,605.465 735.896,607.932 740.078,615.384" style="fill:rgb(139,156,255);stroke:rgb(44,73,255);stroke-width:1px;"/>
        <g transform="matrix(0.998607,0,0,1.088928,0.798923,-41.465473)">
            <path d="M573.712,482.922C573.712,482.922 694.575,442.492 915.271,487.678" style="fill:rgb(139,156,255);stroke:rgb(44,73,255);stroke-width:0.96px;"/>
        </g>
        <g transform="matrix(0.930375,0,0,0.966097,74.045044,58.187043)">
            <ellipse cx="682.288" cy="747.321" rx="13.749" ry="13.241" style="fill:rgb(139,156,255);stroke:rgb(44,73,255);stroke-width:1.05px;"/>
        </g>
        <g transform="matrix(0.930375,0,0,0.966097,84.148066,-73.423307)">
            <ellipse cx="682.288" cy="747.321" rx="13.749" ry="13.241" style="fill:rgb(139,156,255);stroke:rgb(44,73,255);stroke-width:1.05px;"/>
        </g>
        <g transform="matrix(0.930375,0,0,0.966097,64.226121,302.565109)">
            <ellipse cx="682.288" cy="747.321" rx="13.749" ry="13.241" style="fill:rgb(139,156,255);stroke:rgb(44,73,255);stroke-width:1.05px;"/>
        </g>
        <g transform="matrix(0.930375,0,0,0.966097,64.226121,182.997604)">
            <ellipse cx="682.288" cy="747.321" rx="13.749" ry="13.241" style="fill:rgb(139,156,255);stroke:rgb(44,73,255);stroke-width:1.05px;"/>
        </g>
    </g>
    <g id="shirt1" transform="matrix(0.952821,0.303532,-0.303532,0.952821,1050.76882,-89.912665)">
        <g transform="matrix(1,0,0,1,-715.877974,2.539463)">
            <path d="M1169.421,534.711C1169.421,534.711 1138.939,557.935 1141.842,617.448C1144.745,676.961 1108.457,1016.621 1131.681,1029.684C1154.906,1042.748 1729.714,1081.94 1742.778,1041.297C1755.841,1000.654 1755.841,711.798 1764.551,690.025C1773.26,668.252 1849.723,554.882 1774.711,515.841C1707.519,480.869 1668.204,492.357 1670.201,472.384C1670.201,472.384 1192.646,449.25 1178.13,459.321C1163.615,469.392 1170.873,495.519 1169.421,534.711Z" style="fill:rgb(227,156,255);"/>
        </g>
        <g transform="matrix(1,0,0,1,-696.73709,8.580169)">
            <path d="M1465.534,586.966C1465.534,586.966 1511.983,662.446 1527.95,669.704C1543.917,676.961 1691.974,566.645 1705.038,546.323C1718.101,526.002 1644.073,440.54 1635.364,459.321C1626.655,478.101 1439.407,594.224 1465.534,586.966Z" style="fill:rgb(227,156,255);stroke:rgb(44,73,255);stroke-width:1px;"/>
        </g>
        <path d="M768.797,595.546L740.078,615.384" style="fill:none;stroke:rgb(44,73,255);stroke-width:1px;"/>
        <path d="M740.078,615.384C717.782,821.618 722.121,1057.878 722.121,1057.878" style="fill:rgb(227,156,255);stroke:rgb(44,73,255);stroke-width:1px;"/>
        <g transform="matrix(1,0,0,1,-715.607053,0.012107)">
            <path d="M1420.537,604.385C1420.537,604.385 1355.218,690.025 1340.702,687.122C1326.187,684.219 1141.842,552.129 1159.26,543.42C1176.679,534.711 1231.837,455.507 1249.255,456.643C1266.674,457.779 1420.537,604.385 1420.537,604.385Z" style="fill:rgb(227,156,255);stroke:rgb(44,73,255);stroke-width:1px;"/>
        </g>
        <path d="M704.93,605.465C704.93,605.465 735.896,607.932 740.078,615.384" style="fill:rgb(227,156,255);stroke:rgb(44,73,255);stroke-width:1px;"/>
        <g transform="matrix(0.998607,0,0,1.088928,0.798923,-41.465473)">
            <path d="M573.712,482.922C573.712,482.922 694.575,442.492 915.271,487.678" style="fill:rgb(227,156,255);stroke:rgb(44,73,255);stroke-width:0.96px;"/>
        </g>
        <g transform="matrix(0.930375,0,0,0.966097,74.045044,58.187043)">
            <ellipse cx="682.288" cy="747.321" rx="13.749" ry="13.241" style="fill:rgb(227,156,255);stroke:rgb(44,73,255);stroke-width:1.05px;"/>
        </g>
        <g transform="matrix(0.930375,0,0,0.966097,84.148066,-73.423307)">
            <ellipse cx="682.288" cy="747.321" rx="13.749" ry="13.241" style="fill:rgb(227,156,255);stroke:rgb(44,73,255);stroke-width:1.05px;"/>
        </g>
        <g transform="matrix(0.930375,0,0,0.966097,64.226121,302.565109)">
            <ellipse cx="682.288" cy="747.321" rx="13.749" ry="13.241" style="fill:rgb(227,156,255);stroke:rgb(44,73,255);stroke-width:1.05px;"/>
        </g>
        <g transform="matrix(0.930375,0,0,0.966097,64.226121,182.997604)">
            <ellipse cx="682.288" cy="747.321" rx="13.749" ry="13.241" style="fill:rgb(227,156,255);stroke:rgb(44,73,255);stroke-width:1.05px;"/>
        </g>
    </g>
    <g id="hat" transform="matrix(0.906764,-0.421639,0.421639,0.906764,-501.893306,372.690793)">
        <g transform="matrix(1.930662,0,0,1.905216,-463.199978,-769.931266)">
            <circle cx="607.57" cy="821.006" r="142.613" style="fill:rgb(240,226,191);"/>
        </g>
        <g transform="matrix(1.405341,0,0,1.386819,-144.030772,-344.324286)">
            <circle cx="607.57" cy="821.006" r="142.613" style="fill:rgb(244,230,195);stroke:rgb(210,242,255);stroke-width:6.11px;"/>
        </g>
        <g transform="matrix(0.962313,-0.271945,0.271945,0.962313,-206.444408,169.730143)">
            <ellipse cx="596.321" cy="1044.915" rx="60.239" ry="21.057" style="fill:rgb(210,242,255);"/>
        </g>
        <g transform="matrix(0.200772,-0.056737,0.161068,0.569961,421.785796,438.892938)">
            <ellipse cx="596.321" cy="1044.915" rx="60.239" ry="21.057" style="fill:rgb(210,242,255);"/>
        </g>
        <g transform="matrix(0.983837,0.179067,-0.179067,0.983837,369.625276,-124.408909)">
            <ellipse cx="596.321" cy="1044.915" rx="60.239" ry="21.057" style="fill:rgb(210,242,255);"/>
        </g>
    </g>
    <g id="towel" transform="matrix(0.999133,-0.04163,0.04163,0.999133,876.180916,-378.742288)">
        <path d="M190.338,1873.176C192.289,1862.797 194.823,1852.169 197.94,1841.348C225.666,1745.079 349.196,1779.453 383.693,1789.558C418.189,1799.664 808.27,1808.506 808.27,1808.506C808.27,1808.506 929.009,1790.821 962.18,1819.874C971.357,1827.912 986.018,1848.23 997.341,1873.176L190.338,1873.176Z" style="fill:rgb(204,229,255);"/>
        <g transform="matrix(1,0,0,1,0,127.735065)">
            <path d="M997.341,1745.441C1016.182,1786.953 1025.779,1841.282 985.476,1873.176L203.51,1873.176C185.186,1840.983 180.795,1796.196 190.338,1745.441L997.341,1745.441Z" style="fill:white;"/>
        </g>
        <g transform="matrix(1,0,0,1,0,255.470129)">
            <path d="M985.476,1745.441C962.457,1763.656 923.162,1774.553 860.016,1771.564C619.864,1760.195 248.884,1794.801 221.822,1769.037C214.661,1762.22 208.557,1754.308 203.51,1745.441L985.476,1745.441Z" style="fill:rgb(204,229,255);"/>
        </g>
    </g>
    <g transform="matrix(2.101983,0,0,1.784722,-335.504715,-202.619462)">
        <path d="M376.933,356.159L359.468,356.159C359.468,338.797 393.971,324.722 436.532,324.722C479.093,324.722 513.596,338.797 513.596,356.159L496.131,356.159C496.131,342.655 469.448,331.708 436.532,331.708C403.617,331.708 376.933,342.655 376.933,356.159Z" style="fill:rgb(255,192,103);"/>
    </g>
</svg>
